<svg width="150" height="142" viewBox="0 0 150 142" fill="none" xmlns="http://www.w3.org/2000/svg">
<path d="M27.7715 133.941C1.40951 123.193 1.40951 105.786 27.7715 95.0526C54.1334 84.3195 96.8714 84.312 123.23 95.0526C149.588 105.793 149.592 123.208 123.23 133.948C96.8679 144.689 54.1334 144.681 27.7715 133.941Z" fill="#F5F5F5"/>
<path d="M88.3298 117.901L89.6183 118.658L47.2803 125.352V124.392L88.3298 117.901Z" fill="#FCF4EF"/>
<path d="M32.7436 129.382C29.8615 131.092 29.8615 133.864 32.7436 135.575C35.6258 137.286 40.2988 137.286 43.1839 135.575C46.069 133.864 46.066 131.092 43.1839 129.382C40.3018 127.671 35.6258 127.659 32.7436 129.382Z" fill="#FCF4EF"/>
<path d="M82.7887 113.728C75.8165 117.867 75.8165 124.574 82.7887 128.71C89.7608 132.845 101.062 132.845 108.031 128.71C115 124.574 115 117.867 108.031 113.728C101.062 109.589 89.7698 109.604 82.7887 113.728Z" fill="#FCF4EF"/>
<path d="M40.6768 48.9156V50.0765C40.6768 50.4442 40.9309 50.5931 41.2418 50.4077L42.345 49.7604V47.2716L41.2418 47.9189C41.0775 48.0285 40.9407 48.1758 40.8425 48.3489C40.7444 48.522 40.6876 48.7161 40.6768 48.9156Z" fill="#FCF4EF"/>
<path d="M42.3451 87.008L37.7408 89.7126C37.5762 89.8211 37.4392 89.9678 37.341 90.1405C37.2428 90.3132 37.1862 90.5071 37.1758 90.7063V91.8702C37.1758 92.2348 37.4269 92.3837 37.7408 92.2014L42.3451 89.4998V87.008Z" fill="#FCF4EF"/>
<path d="M37.1787 47.9162V49.0801C37.1787 49.4447 37.4299 49.5937 37.7438 49.4113L42.348 46.7067V44.2179L37.7438 46.9225C37.5791 47.0311 37.4421 47.1777 37.3439 47.3504C37.2457 47.5231 37.1891 47.717 37.1787 47.9162Z" fill="#FCF4EF"/>
<path d="M39.6663 61.0713L34.4342 64.1436C34.2701 64.2527 34.1334 64.3994 34.0353 64.572C33.9371 64.7446 33.8802 64.9383 33.8691 65.1373V66.3012C33.8691 66.6658 34.1233 66.8147 34.4342 66.6324L39.6663 63.5631C39.831 63.4539 39.968 63.3067 40.0662 63.1335C40.1644 62.9603 40.221 62.766 40.2314 62.5664V61.4056C40.2314 61.0227 39.9802 60.8737 39.6663 61.0713Z" fill="#FCF4EF"/>
<path d="M42.3451 74.7825L37.7408 77.4871C37.5762 77.5957 37.4392 77.7423 37.341 77.915C37.2428 78.0877 37.1862 78.2816 37.1758 78.4808V79.6447C37.1758 80.0094 37.4269 80.1583 37.7408 79.9759L42.3451 77.2713V74.7825Z" fill="#FCF4EF"/>
<path d="M37.1787 35.6906V36.8515C37.1787 37.2192 37.4299 37.3681 37.7438 37.1857L42.348 34.4811V31.9923L37.7438 34.6969C37.5788 34.8051 37.4415 34.9517 37.3433 35.1244C37.245 35.2972 37.1886 35.4913 37.1787 35.6906Z" fill="#FCF4EF"/>
<path d="M42.3451 105.347L37.7408 108.052C37.5762 108.16 37.4392 108.307 37.341 108.48C37.2428 108.653 37.1862 108.846 37.1758 109.046V110.21C37.1758 110.574 37.4269 110.723 37.7408 110.541L42.3451 107.836V105.347Z" fill="#FCF4EF"/>
<path d="M31.9346 72.4426V73.6034C31.9346 73.9711 32.1857 74.12 32.4996 73.9347L37.7287 70.8654C37.8938 70.757 38.0312 70.6105 38.13 70.4378C38.2287 70.2651 38.2858 70.0711 38.2968 69.8717V68.7078C38.2968 68.3431 38.0427 68.1942 37.7287 68.3766L32.4996 71.4458C32.3349 71.5551 32.1979 71.7023 32.0997 71.8755C32.0015 72.0487 31.945 72.243 31.9346 72.4426Z" fill="#FCF4EF"/>
<path d="M37.1787 60.1413V61.3052C37.1787 61.6698 37.4299 61.8187 37.7438 61.6364L42.348 58.9349V56.443L37.7438 59.1476C37.5791 59.2562 37.4421 59.4028 37.3439 59.5755C37.2457 59.7482 37.1891 59.9421 37.1787 60.1413Z" fill="#FCF4EF"/>
<path d="M36.7304 79.9119V78.7511C36.7304 78.3834 36.4763 78.2345 36.1653 78.4198L30.9332 81.4891C30.7691 81.5982 30.6324 81.745 30.5343 81.9176C30.4361 82.0902 30.3792 82.2838 30.3682 82.4828V83.6467C30.3682 84.0114 30.6223 84.1603 30.9332 83.9779L36.1653 80.9087C36.3297 80.7991 36.4665 80.6518 36.5646 80.4787C36.6627 80.3056 36.7195 80.1114 36.7304 79.9119Z" fill="#FCF4EF"/>
<path d="M34.4342 109.407L39.6663 106.338C39.831 106.229 39.968 106.082 40.0662 105.909C40.1644 105.735 40.221 105.541 40.2314 105.341V104.181C40.2314 103.813 39.9802 103.664 39.6663 103.849L34.4342 106.919C34.2701 107.028 34.1334 107.175 34.0353 107.347C33.9371 107.52 33.8802 107.713 33.8691 107.912V109.085C33.8691 109.441 34.1233 109.59 34.4342 109.407Z" fill="#FCF4EF"/>
<path d="M36.7571 32.2442L31.525 35.3134C31.3604 35.422 31.2234 35.5686 31.1251 35.7413C31.0269 35.914 30.9703 36.1079 30.96 36.3071V37.471C30.96 37.8357 31.2111 37.9846 31.525 37.8023L36.7571 34.733C36.9215 34.6234 37.0583 34.4761 37.1564 34.303C37.2545 34.1299 37.3113 33.9358 37.3222 33.7362V32.5754C37.3222 32.2016 37.0681 32.0588 36.7571 32.2442Z" fill="#FCF4EF"/>
<path d="M39.6663 36.6053L34.4342 39.6746C34.2698 39.7842 34.1331 39.9315 34.0349 40.1046C33.9368 40.2777 33.88 40.4718 33.8691 40.6713V41.8322C33.8691 42.1999 34.1233 42.3488 34.4342 42.1634L39.6663 39.0942C39.8309 38.9856 39.968 38.839 40.0662 38.6662C40.1644 38.4935 40.221 38.2997 40.2314 38.1005V36.9366C40.2314 36.5719 39.9802 36.423 39.6663 36.6053Z" fill="#FCF4EF"/>
<path d="M39.6663 48.8304L34.4342 51.9027C34.2697 52.0115 34.1328 52.1582 34.0346 52.3308C33.9365 52.5035 33.8797 52.6973 33.8691 52.8964V54.0603C33.8691 54.425 34.1233 54.5739 34.4342 54.3916L39.6663 51.3193C39.8309 51.2107 39.968 51.0641 40.0662 50.8913C40.1644 50.7186 40.221 50.5248 40.2314 50.3256V49.1617C40.2314 48.797 39.9802 48.6481 39.6663 48.8304Z" fill="#FCF4EF"/>
<path d="M34.4342 84.9565L39.6663 81.8842C39.8313 81.776 39.9686 81.6295 40.0668 81.4567C40.1651 81.2839 40.2215 81.0898 40.2314 80.8905V79.7266C40.2314 79.362 39.9802 79.213 39.6663 79.3954L34.4342 82.4677C34.2697 82.5764 34.1328 82.7231 34.0346 82.8958C33.9365 83.0684 33.8797 83.2622 33.8691 83.4614V84.6253C33.8691 84.9899 34.1233 85.1388 34.4342 84.9565Z" fill="#FCF4EF"/>
<path d="M42.3451 93.1219L37.7408 95.8264C37.5759 95.9347 37.4386 96.0812 37.3403 96.254C37.2421 96.4268 37.1857 96.6208 37.1758 96.8202V97.981C37.1758 98.3487 37.4269 98.4976 37.7408 98.3153L42.3451 95.6107V93.1219Z" fill="#FCF4EF"/>
<path d="M91.2181 23.0488V24.2097C91.2084 24.4103 91.1521 24.6057 91.0539 24.78C90.9557 24.9543 90.8183 25.1025 90.653 25.2125L89.5498 25.8598V23.3649L90.653 22.7176C90.964 22.5353 91.2181 22.6811 91.2181 23.0488Z" fill="#FCF4EF"/>
<path d="M89.5498 63.1068L94.157 60.4053C94.456 60.2199 94.7221 60.3688 94.7221 60.7365V61.8974C94.7112 62.0969 94.6545 62.291 94.5563 62.4641C94.4582 62.6372 94.3214 62.7845 94.157 62.8941L89.5498 65.5957V63.1068Z" fill="#FCF4EF"/>
<path d="M94.7221 17.9467V19.1075C94.7112 19.3071 94.6545 19.5012 94.5563 19.6743C94.4582 19.8474 94.3214 19.9947 94.157 20.1043L89.5498 22.8059V20.317L94.157 17.6155C94.468 17.4301 94.7221 17.579 94.7221 17.9467Z" fill="#FCF4EF"/>
<path d="M92.2291 34.0253L97.4612 30.953C97.7602 30.7707 98.0263 30.9196 98.0263 31.2842V32.4481C98.0157 32.6473 97.959 32.841 97.8608 33.0137C97.7626 33.1864 97.6257 33.3331 97.4612 33.4418L92.2291 36.5141C91.9152 36.6965 91.6641 36.5475 91.6641 36.1829V35.019C91.6744 34.8198 91.731 34.6259 91.8293 34.4532C91.9275 34.2805 92.0645 34.1339 92.2291 34.0253Z" fill="#FCF4EF"/>
<path d="M89.5498 50.8814L94.157 48.1798C94.456 47.9944 94.7221 48.1433 94.7221 48.5111V49.6719C94.7112 49.8714 94.6545 50.0655 94.5563 50.2387C94.4582 50.4118 94.3214 50.5591 94.157 50.6687L89.5498 53.3702V50.8814Z" fill="#FCF4EF"/>
<path d="M94.7221 5.71798V6.88187C94.7138 7.08363 94.6582 7.28046 94.5599 7.45596C94.4616 7.63146 94.3235 7.78053 94.157 7.89077L89.5498 10.5954V8.09134L94.157 5.38674C94.468 5.20441 94.7221 5.35332 94.7221 5.71798Z" fill="#FCF4EF"/>
<path d="M89.5498 81.4466L94.157 78.7451C94.456 78.5597 94.7221 78.7086 94.7221 79.0763V80.2372C94.7112 80.4367 94.6545 80.6308 94.5563 80.8039C94.4582 80.977 94.3214 81.1243 94.157 81.2339L89.5498 83.9355V81.4466Z" fill="#FCF4EF"/>
<path d="M99.9638 36.3193V37.4832C99.9527 37.6822 99.8958 37.8758 99.7977 38.0484C99.6995 38.221 99.5629 38.3678 99.3987 38.4769L94.1666 41.5461C93.8527 41.7315 93.6016 41.5826 93.6016 41.2149V40.0541C93.6119 39.8544 93.6685 39.6601 93.7667 39.4869C93.8649 39.3137 94.0019 39.1665 94.1666 39.0573L99.3987 35.988C99.7096 35.8057 99.9638 35.9546 99.9638 36.3193Z" fill="#FCF4EF"/>
<path d="M94.7221 30.1722V31.333C94.7115 31.5326 94.6548 31.7268 94.5566 31.8999C94.4585 32.0731 94.3216 32.2204 94.157 32.3298L89.5498 35.0313V32.5425L94.157 29.8409C94.468 29.6556 94.7221 29.8045 94.7221 30.1722Z" fill="#FCF4EF"/>
<path d="M95.1807 49.4048V48.244C95.1913 48.0444 95.248 47.8502 95.3461 47.6771C95.4443 47.5039 95.5812 47.3566 95.7457 47.2472L100.978 44.178C101.292 43.9956 101.543 44.1415 101.543 44.5092V45.6731C101.533 45.8723 101.476 46.0662 101.378 46.2389C101.279 46.4116 101.142 46.5582 100.978 46.6668L95.7457 49.7361C95.4198 49.9214 95.1807 49.7725 95.1807 49.4048Z" fill="#FCF4EF"/>
<path d="M97.4612 76.2229L92.2291 79.3044C91.9152 79.4867 91.6641 79.3378 91.6641 78.9731V77.7849C91.6744 77.5857 91.731 77.3918 91.8293 77.2191C91.9275 77.0464 92.0645 76.8998 92.2291 76.7912L97.4612 73.722C97.7602 73.5366 98.0263 73.6855 98.0263 74.0532V75.214C98.0173 75.4156 97.9614 75.6122 97.8631 75.7876C97.7649 75.963 97.6272 76.1122 97.4612 76.2229Z" fill="#FCF4EF"/>
<path d="M92.2291 9.55887L97.4612 6.48961C97.7602 6.30728 98.0263 6.45618 98.0263 6.82085V7.98474C98.0152 8.18377 97.9583 8.37738 97.8602 8.54997C97.762 8.72257 97.6254 8.86933 97.4612 8.97845L92.2291 12.0477C91.9152 12.2331 91.6641 12.0842 91.6641 11.7165V10.5556C91.6744 10.356 91.731 10.1617 91.8292 9.9885C91.9274 9.8153 92.0644 9.6681 92.2291 9.55887Z" fill="#FCF4EF"/>
<path d="M92.2291 21.7845L97.4612 18.7152C97.7602 18.5329 98.0263 18.6818 98.0263 19.0464V20.2103C98.0152 20.4094 97.9583 20.603 97.8602 20.7756C97.762 20.9482 97.6254 21.0949 97.4612 21.204L92.2291 24.2763C91.9152 24.4587 91.6641 24.3098 91.6641 23.9421V22.7812C91.6744 22.5816 91.731 22.3873 91.8292 22.2141C91.9274 22.0409 92.0644 21.8937 92.2291 21.7845Z" fill="#FCF4EF"/>
<path d="M97.4612 51.769L92.2291 54.8413C91.9152 55.0236 91.6641 54.8747 91.6641 54.507V53.3461C91.6744 53.1465 91.731 52.9522 91.8292 52.779C91.9274 52.6058 92.0644 52.4586 92.2291 52.3494L97.4612 49.2801C97.7602 49.0978 98.0263 49.2467 98.0263 49.6114V50.7753C98.0152 50.9743 97.9583 51.1679 97.8602 51.3405C97.762 51.5131 97.6254 51.6599 97.4612 51.769Z" fill="#FCF4EF"/>
<path d="M89.5498 69.2214L94.157 66.5168C94.456 66.3345 94.7221 66.4834 94.7221 66.8481V68.0119C94.711 68.211 94.6541 68.4046 94.556 68.5772C94.4578 68.7498 94.3212 68.8965 94.157 69.0057L89.5498 71.7072V69.2214Z" fill="#FCF4EF"/>
<path d="M47.0088 81.9053L84.7516 104.065V11.3427L47.0088 33.5052V81.9053Z" fill="#EFBFA5"/>
<path opacity="0.4" d="M47.0088 81.9053L84.7516 104.065V11.3427L47.0088 33.5052V81.9053Z" fill="black"/>
<path d="M84.7516 104.065L47.0088 81.9052V126.206L84.7516 104.065Z" fill="#FCF4EF"/>
<path d="M84.752 105.918L86.5159 106.948V12.1597L84.752 13.1959V105.918Z" fill="#EFBFA5"/>
<path opacity="0.4" d="M84.752 105.918L86.5159 106.948V12.1597L84.752 13.1959V105.918Z" fill="white"/>
<path opacity="0.1" d="M84.752 105.918L86.5159 106.948V12.1597L84.752 13.1959V105.918Z" fill="black"/>
<path d="M86.5158 106.948L89.5504 105.167V5.65626L44.082 32.3375L44.085 131.848L47.009 130.131V35.3582L86.5158 12.1594V106.948Z" fill="#EFBFA5"/>
<path opacity="0.7" d="M86.5158 106.948L89.5504 105.167V5.65626L44.082 32.3375L44.085 131.848L47.009 130.131V35.3582L86.5158 12.1594V106.948Z" fill="white"/>
<path d="M89.5501 5.65629L44.0818 32.3376L42.3447 31.3104L87.8131 4.63219L89.5501 5.65629Z" fill="#EFBFA5"/>
<path opacity="0.85" d="M89.5501 5.65629L44.0818 32.3376L42.3447 31.3104L87.8131 4.63219L89.5501 5.65629Z" fill="white"/>
<path d="M44.0823 131.849V32.3377L42.3453 31.3105L42.3184 130.812L44.0823 131.849Z" fill="#EFBFA5"/>
<path opacity="0.6" d="M42.3453 31.3105L42.3184 130.812L44.0823 131.849V32.3377" fill="white"/>
<path d="M125.924 0.0134656C126.259 -0.0162151 126.596 0.00323103 126.926 0.0712049C127.243 0.133012 127.547 0.25242 127.823 0.423713C128.084 0.585841 128.307 0.80356 128.477 1.06187C128.631 1.31384 128.731 1.59565 128.771 1.88923C128.811 2.18281 128.791 2.48169 128.711 2.76668C128.641 2.98322 128.54 3.18805 128.412 3.37446C128.287 3.55761 128.147 3.72944 127.993 3.88803L127.557 4.3317C127.424 4.46539 127.304 4.61083 127.198 4.76626C127.102 4.90409 127.047 5.06608 127.036 5.23425C127.028 5.31201 127 5.38632 126.956 5.45C126.935 5.48051 126.907 5.5057 126.875 5.52361C126.843 5.54153 126.807 5.55169 126.77 5.55333L125.948 5.62322C125.909 5.62671 125.87 5.62233 125.832 5.61034C125.795 5.59834 125.76 5.57897 125.73 5.55333C125.699 5.53006 125.674 5.49979 125.657 5.46496C125.64 5.43013 125.631 5.3917 125.631 5.35276C125.618 5.09108 125.658 4.82944 125.748 4.58393C125.832 4.36748 125.943 4.16315 126.08 3.97615C126.211 3.79565 126.357 3.62689 126.516 3.4717C126.675 3.31672 126.815 3.16781 126.953 3.03106C127.076 2.90473 127.185 2.76513 127.278 2.61474C127.36 2.48572 127.397 2.33283 127.383 2.18018C127.374 2.04595 127.332 1.91605 127.263 1.8017C127.193 1.68734 127.097 1.59196 126.983 1.52378C126.698 1.35641 126.367 1.28912 126.041 1.33233C125.748 1.35251 125.469 1.46409 125.242 1.65179C125.014 1.83948 124.85 2.09411 124.77 2.38075C124.747 2.4494 124.714 2.51399 124.671 2.57219C124.617 2.62105 124.547 2.64806 124.474 2.64817L123.601 2.7211C123.57 2.725 123.539 2.72243 123.509 2.71354C123.479 2.70466 123.452 2.68965 123.428 2.66944C123.403 2.64948 123.382 2.62418 123.368 2.5953C123.353 2.56643 123.345 2.53468 123.344 2.5023C123.334 2.22394 123.391 1.9473 123.511 1.697C123.635 1.40379 123.809 1.13525 124.026 0.903855C124.269 0.657179 124.549 0.451955 124.857 0.296081C125.19 0.13053 125.553 0.0344433 125.924 0.0134656ZM126.869 6.20972C126.946 6.20514 127.022 6.23129 127.081 6.28265C127.111 6.30681 127.136 6.3372 127.153 6.37179C127.171 6.40637 127.181 6.44436 127.183 6.48322L127.264 7.44958C127.269 7.52783 127.244 7.60514 127.195 7.66534C127.17 7.69578 127.14 7.72069 127.105 7.73848C127.071 7.75627 127.033 7.76655 126.994 7.76866L126.068 7.84767C126.029 7.85155 125.991 7.84735 125.954 7.83532C125.918 7.82329 125.884 7.8037 125.855 7.77778C125.825 7.75339 125.801 7.72301 125.783 7.68852C125.765 7.65402 125.754 7.61614 125.751 7.57721L125.673 6.61085C125.668 6.57197 125.672 6.53255 125.684 6.49529C125.696 6.45804 125.716 6.42385 125.742 6.39509C125.765 6.36418 125.795 6.33872 125.829 6.32038C125.863 6.30205 125.901 6.29126 125.939 6.28873L126.869 6.20972Z" fill="#EFBFA5"/>
<path d="M132.621 10.4945C132.875 10.5663 133.118 10.6759 133.341 10.8196C133.556 10.9523 133.745 11.1232 133.9 11.3241C134.045 11.5187 134.147 11.7425 134.199 11.9805C134.256 12.2349 134.246 12.5002 134.169 12.7493C134.12 12.9491 134.03 13.1363 133.906 13.2993C133.797 13.4401 133.668 13.564 133.524 13.667C133.382 13.7659 133.232 13.8524 133.075 13.9253L132.633 14.132C132.5 14.1926 132.372 14.2659 132.253 14.3508C132.144 14.4256 132.059 14.5313 132.008 14.6547C131.98 14.7101 131.939 14.7572 131.888 14.7914C131.864 14.808 131.837 14.8188 131.809 14.823C131.78 14.8272 131.751 14.8247 131.724 14.8157L131.099 14.6364C131.069 14.629 131.041 14.6152 131.017 14.5958C130.992 14.5764 130.972 14.5519 130.958 14.524C130.942 14.4985 130.932 14.4696 130.929 14.4395C130.926 14.4095 130.93 14.3791 130.94 14.3508C131.004 14.1547 131.105 13.9738 131.239 13.819C131.361 13.6815 131.498 13.56 131.649 13.4574C131.795 13.3607 131.949 13.2773 132.109 13.2082C132.268 13.1383 132.408 13.0714 132.549 13.0046C132.674 12.9471 132.792 12.8757 132.902 12.7918C132.999 12.7159 133.067 12.6088 133.096 12.488C133.128 12.3848 133.134 12.2752 133.114 12.169C133.093 12.0628 133.047 11.9635 132.979 11.8802C132.816 11.6777 132.591 11.5357 132.34 11.476C132.118 11.4086 131.882 11.4124 131.663 11.487C131.444 11.5615 131.253 11.7031 131.117 11.8923C131.082 11.9365 131.041 11.9745 130.994 12.0048C130.941 12.0251 130.883 12.0251 130.83 12.0048L130.166 11.8133C130.142 11.8075 130.12 11.797 130.101 11.7824C130.081 11.7678 130.065 11.7494 130.052 11.7282C130.039 11.7061 130.031 11.6814 130.028 11.6558C130.025 11.6301 130.027 11.604 130.034 11.5793C130.103 11.3715 130.22 11.1837 130.375 11.0323C130.549 10.8586 130.752 10.7167 130.973 10.613C131.22 10.4999 131.482 10.4271 131.751 10.3972C132.044 10.3719 132.34 10.405 132.621 10.4945ZM131.637 15.3232C131.666 15.3312 131.693 15.345 131.717 15.3638C131.74 15.3825 131.76 15.406 131.775 15.4326C131.79 15.4596 131.799 15.4893 131.803 15.5201C131.807 15.5509 131.804 15.5821 131.795 15.6119L131.592 16.3443C131.584 16.3737 131.571 16.4013 131.552 16.4253C131.534 16.4493 131.511 16.4693 131.485 16.4841C131.458 16.4993 131.429 16.509 131.398 16.5127C131.368 16.5164 131.337 16.5139 131.308 16.5053L130.603 16.3048C130.574 16.2966 130.547 16.2824 130.524 16.263C130.5 16.2436 130.481 16.2196 130.468 16.1923C130.452 16.1662 130.442 16.137 130.438 16.1067C130.434 16.0764 130.436 16.0456 130.444 16.0161L130.647 15.2807C130.656 15.2511 130.67 15.2236 130.689 15.1996C130.708 15.1756 130.731 15.1557 130.758 15.1409C130.784 15.1256 130.813 15.1158 130.843 15.1121C130.872 15.1085 130.903 15.111 130.931 15.1196L131.637 15.3232Z" fill="#EFBFA5"/>
<g opacity="0.2">
<path d="M132.621 10.4945C132.875 10.5663 133.118 10.6759 133.341 10.8196C133.556 10.9523 133.745 11.1232 133.9 11.3241C134.045 11.5187 134.147 11.7425 134.199 11.9805C134.256 12.2349 134.246 12.5002 134.169 12.7493C134.12 12.9491 134.03 13.1363 133.906 13.2993C133.797 13.4401 133.668 13.564 133.524 13.667C133.382 13.7659 133.232 13.8524 133.075 13.9253L132.633 14.132C132.5 14.1926 132.372 14.2659 132.253 14.3508C132.144 14.4256 132.059 14.5313 132.008 14.6547C131.98 14.7101 131.939 14.7572 131.888 14.7914C131.864 14.808 131.837 14.8188 131.809 14.823C131.78 14.8272 131.751 14.8247 131.724 14.8157L131.099 14.6364C131.069 14.629 131.041 14.6152 131.017 14.5958C130.992 14.5764 130.972 14.5519 130.958 14.524C130.942 14.4985 130.932 14.4696 130.929 14.4395C130.926 14.4095 130.93 14.3791 130.94 14.3508C131.004 14.1547 131.105 13.9738 131.239 13.819C131.361 13.6815 131.498 13.56 131.649 13.4574C131.795 13.3607 131.949 13.2773 132.109 13.2082C132.268 13.1383 132.408 13.0714 132.549 13.0046C132.674 12.9471 132.792 12.8757 132.902 12.7918C132.999 12.7159 133.067 12.6088 133.096 12.488C133.128 12.3848 133.134 12.2752 133.114 12.169C133.093 12.0628 133.047 11.9635 132.979 11.8802C132.816 11.6777 132.591 11.5357 132.34 11.476C132.118 11.4086 131.882 11.4124 131.663 11.487C131.444 11.5615 131.253 11.7031 131.117 11.8923C131.082 11.9365 131.041 11.9745 130.994 12.0048C130.941 12.0251 130.883 12.0251 130.83 12.0048L130.166 11.8133C130.142 11.8075 130.12 11.797 130.101 11.7824C130.081 11.7678 130.065 11.7494 130.052 11.7282C130.039 11.7061 130.031 11.6814 130.028 11.6558C130.025 11.6301 130.027 11.604 130.034 11.5793C130.103 11.3715 130.22 11.1837 130.375 11.0323C130.549 10.8586 130.752 10.7167 130.973 10.613C131.22 10.4999 131.482 10.4271 131.751 10.3972C132.044 10.3719 132.34 10.405 132.621 10.4945ZM131.637 15.3232C131.666 15.3312 131.693 15.345 131.717 15.3638C131.74 15.3825 131.76 15.406 131.775 15.4326C131.79 15.4596 131.799 15.4893 131.803 15.5201C131.807 15.5509 131.804 15.5821 131.795 15.6119L131.592 16.3443C131.584 16.3737 131.571 16.4013 131.552 16.4253C131.534 16.4493 131.511 16.4693 131.485 16.4841C131.458 16.4993 131.429 16.509 131.398 16.5127C131.368 16.5164 131.337 16.5139 131.308 16.5053L130.603 16.3048C130.574 16.2966 130.547 16.2824 130.524 16.263C130.5 16.2436 130.481 16.2196 130.468 16.1923C130.452 16.1662 130.442 16.137 130.438 16.1067C130.434 16.0764 130.436 16.0456 130.444 16.0161L130.647 15.2807C130.656 15.2511 130.67 15.2236 130.689 15.1996C130.708 15.1756 130.731 15.1557 130.758 15.1409C130.784 15.1256 130.813 15.1158 130.843 15.1121C130.872 15.1085 130.903 15.111 130.931 15.1196L131.637 15.3232Z" fill="black"/>
</g>
<path d="M135.859 7.0334C135.884 7.04956 135.905 7.07089 135.922 7.09602C135.938 7.12114 135.949 7.14951 135.954 7.17927C135.96 7.20843 135.961 7.23852 135.955 7.26776C135.949 7.297 135.938 7.32478 135.922 7.34945L135.512 7.95722C135.496 7.98273 135.475 8.00457 135.45 8.02132C135.426 8.03807 135.398 8.04937 135.368 8.05446C135.34 8.06043 135.31 8.06055 135.281 8.05482C135.253 8.04908 135.225 8.0376 135.201 8.02104L134.603 7.61383C134.578 7.59751 134.557 7.57608 134.541 7.55095C134.525 7.52581 134.515 7.49753 134.51 7.46796C134.504 7.4388 134.504 7.40873 134.51 7.37952C134.516 7.35031 134.527 7.32253 134.543 7.29779L134.953 6.69001C134.986 6.64401 135.036 6.61232 135.091 6.60109C135.146 6.58986 135.203 6.59989 135.252 6.62923L135.859 7.0334ZM138.221 2.87319C138.433 3.0195 138.624 3.19545 138.789 3.39588C138.947 3.58573 139.071 3.8029 139.153 4.03708C139.234 4.26153 139.264 4.50121 139.243 4.73906C139.219 4.9928 139.131 5.23581 138.986 5.44408C138.879 5.61222 138.741 5.75772 138.579 5.87256C138.435 5.96749 138.278 6.04115 138.113 6.09135C137.952 6.13963 137.787 6.17319 137.62 6.19164L137.15 6.2433C137.008 6.25913 136.868 6.28864 136.732 6.33143C136.61 6.36644 136.501 6.43478 136.415 6.52895C136.375 6.57376 136.323 6.6055 136.265 6.62012C136.238 6.628 136.209 6.62935 136.181 6.62408C136.153 6.61881 136.127 6.60706 136.104 6.58973L135.581 6.23114C135.556 6.21458 135.535 6.19313 135.518 6.16808C135.502 6.14302 135.491 6.11486 135.485 6.08528C135.477 6.05607 135.476 6.02535 135.482 5.99572C135.489 5.9661 135.502 5.93844 135.521 5.9151C135.638 5.755 135.784 5.61889 135.951 5.51397C136.105 5.42527 136.268 5.35685 136.439 5.31037C136.602 5.26557 136.769 5.23507 136.938 5.2192C137.105 5.2192 137.261 5.18881 137.407 5.17058C137.54 5.155 137.67 5.12546 137.796 5.08245C137.905 5.04328 138 4.96986 138.065 4.87277C138.123 4.78798 138.159 4.6903 138.171 4.58814C138.183 4.48597 138.17 4.38238 138.134 4.28627C138.044 4.04727 137.879 3.84525 137.665 3.71192C137.48 3.58132 137.261 3.51129 137.037 3.51129C136.812 3.51129 136.593 3.58132 136.409 3.71192C136.364 3.7427 136.315 3.76532 136.262 3.77877C136.206 3.78206 136.151 3.7648 136.107 3.73015L135.551 3.35637C135.531 3.34368 135.513 3.32685 135.5 3.30696C135.487 3.28708 135.477 3.26458 135.473 3.2409C135.467 3.21634 135.467 3.19073 135.472 3.16599C135.477 3.14125 135.488 3.11802 135.503 3.09807C135.628 2.92797 135.793 2.79135 135.981 2.69997C136.196 2.59113 136.428 2.52315 136.666 2.49941C136.928 2.47017 137.192 2.48454 137.449 2.54195C137.725 2.60152 137.987 2.71394 138.221 2.87319Z" fill="#EFBFA5"/>
<g opacity="0.6">
<path d="M135.859 7.0334C135.884 7.04956 135.905 7.07089 135.922 7.09602C135.938 7.12114 135.949 7.14951 135.954 7.17927C135.96 7.20843 135.961 7.23852 135.955 7.26776C135.949 7.297 135.938 7.32478 135.922 7.34945L135.512 7.95722C135.496 7.98273 135.475 8.00457 135.45 8.02132C135.426 8.03807 135.398 8.04937 135.368 8.05446C135.34 8.06043 135.31 8.06055 135.281 8.05482C135.253 8.04908 135.225 8.0376 135.201 8.02104L134.603 7.61383C134.578 7.59751 134.557 7.57608 134.541 7.55095C134.525 7.52581 134.515 7.49753 134.51 7.46796C134.504 7.4388 134.504 7.40873 134.51 7.37952C134.516 7.35031 134.527 7.32253 134.543 7.29779L134.953 6.69001C134.986 6.64401 135.036 6.61232 135.091 6.60109C135.146 6.58986 135.203 6.59989 135.252 6.62923L135.859 7.0334ZM138.221 2.87319C138.433 3.0195 138.624 3.19545 138.789 3.39588C138.947 3.58573 139.071 3.8029 139.153 4.03708C139.234 4.26153 139.264 4.50121 139.243 4.73906C139.219 4.9928 139.131 5.23581 138.986 5.44408C138.879 5.61222 138.741 5.75772 138.579 5.87256C138.435 5.96749 138.278 6.04115 138.113 6.09135C137.952 6.13963 137.787 6.17319 137.62 6.19164L137.15 6.2433C137.008 6.25913 136.868 6.28864 136.732 6.33143C136.61 6.36644 136.501 6.43478 136.415 6.52895C136.375 6.57376 136.323 6.6055 136.265 6.62012C136.238 6.628 136.209 6.62935 136.181 6.62408C136.153 6.61881 136.127 6.60706 136.104 6.58973L135.581 6.23114C135.556 6.21458 135.535 6.19313 135.518 6.16808C135.502 6.14302 135.491 6.11486 135.485 6.08528C135.477 6.05607 135.476 6.02535 135.482 5.99572C135.489 5.9661 135.502 5.93844 135.521 5.9151C135.638 5.755 135.784 5.61889 135.951 5.51397C136.105 5.42527 136.268 5.35685 136.439 5.31037C136.602 5.26557 136.769 5.23507 136.938 5.2192C137.105 5.2192 137.261 5.18881 137.407 5.17058C137.54 5.155 137.67 5.12546 137.796 5.08245C137.905 5.04328 138 4.96986 138.065 4.87277C138.123 4.78798 138.159 4.6903 138.171 4.58814C138.183 4.48597 138.17 4.38238 138.134 4.28627C138.044 4.04727 137.879 3.84525 137.665 3.71192C137.48 3.58132 137.261 3.51129 137.037 3.51129C136.812 3.51129 136.593 3.58132 136.409 3.71192C136.364 3.7427 136.315 3.76532 136.262 3.77877C136.206 3.78206 136.151 3.7648 136.107 3.73015L135.551 3.35637C135.531 3.34368 135.513 3.32685 135.5 3.30696C135.487 3.28708 135.477 3.26458 135.473 3.2409C135.467 3.21634 135.467 3.19073 135.472 3.16599C135.477 3.14125 135.488 3.11802 135.503 3.09807C135.628 2.92797 135.793 2.79135 135.981 2.69997C136.196 2.59113 136.428 2.52315 136.666 2.49941C136.928 2.47017 137.192 2.48454 137.449 2.54195C137.725 2.60152 137.987 2.71394 138.221 2.87319Z" fill="white"/>
</g>
<path d="M105.894 120.668C105.81 121.597 106.404 124.015 106.404 124.015C106.404 124.015 106.911 124.795 108.354 125.154L108.453 121.643L105.894 120.668Z" fill="#263238"/>
<path d="M108.354 125.134L111.201 123.672L111.515 120.86L108.411 123.11L108.354 125.134Z" fill="black"/>
<path d="M110.518 116.616L110.46 116.027C110.898 116.168 112.045 119.456 113.599 121.554C115.019 123.469 117.383 124.284 118.231 125.088C119.363 126.153 117.751 128.005 114.685 127.818C113.15 127.724 110.79 127.116 110.034 126.199C109.279 125.283 108.791 123.469 108.185 122.79C107.579 122.112 106.266 121.453 105.902 120.645C105.694 120.201 105.771 119.171 105.902 118.305C106.017 117.498 106.143 116.612 106.416 116.655C106.416 116.753 106.481 117.15 106.481 117.15C106.573 117.54 107.084 117.954 108.676 117.778C109.382 117.693 110.645 117.416 110.518 116.616Z" fill="#455A64"/>
<path d="M79.1135 102.688C78.6262 103.37 77.7666 108.148 77.7666 108.148C77.7666 108.148 78.8909 109.817 79.5395 110.324L81.6231 105.831L79.1135 102.688Z" fill="#263238"/>
<path d="M79.5391 110.305L83.3611 109.412L84.7809 106.42L80.8016 107.547L79.5391 110.305Z" fill="black"/>
<path d="M81.9599 99.6573C81.7412 99.4896 81.4265 99.9264 80.6629 100.621C80.1257 101.108 78.9668 101.568 78.9668 102.961C78.9668 103.963 79.623 105.2 80.2523 106.237C80.8816 107.275 80.9737 108.207 80.9699 109.681C80.9699 111.464 80.6476 112.556 82.8041 114.143C84.531 115.411 88.0383 115.645 88.8096 114.923C90.1296 113.667 87.0483 111.943 86.5456 109.373C85.8548 105.828 85.7781 105.235 85.874 102.742L81.9599 99.6573Z" fill="#455A64"/>
<path d="M115.707 56.0783C114.026 57.0027 108.922 57.2484 101.762 55.6883L102.61 76.7503C102.61 76.7503 96.3359 81.2747 94.4057 83.7437C92.4755 86.2126 83.193 98.2063 83.193 98.2063L81.9113 99.7157C81.117 100.652 81.5276 101.916 82.4485 102.723C83.3349 103.464 84.49 103.987 85.3534 103.222L86.4125 102.286C86.4125 102.286 107.157 86.0332 107.902 84.9957C108.646 83.9582 110.392 81.3839 112.276 75.9507C114.709 68.9808 115.116 63.9337 115.707 56.0783Z" fill="#FFA8A7"/>
<path d="M115.702 56.0784C111.17 58.1924 102.06 57.4709 102.06 57.4709L102.479 76.7192C100.188 78.1357 98.0434 79.7835 96.078 81.6376C93.3611 84.2976 89.2168 89.8284 89.2168 89.8284C90.6366 93.8886 94.6812 95.7842 94.6812 95.7842C94.6812 95.7842 103.189 89.7269 107.947 86.2985C110.437 84.5082 112.31 83.5098 113.058 80.5962C113.647 78.3656 114.1 76.1004 114.417 73.8134C114.823 71.2977 115.019 68.4348 115.257 66.3169C115.662 62.9206 115.811 59.4978 115.702 56.0784Z" fill="#EFBFA5"/>
<path opacity="0.4" d="M115.702 56.0784C111.17 58.1924 102.06 57.4709 102.06 57.4709L102.479 76.7192C100.188 78.1357 98.0434 79.7835 96.078 81.6376C93.3611 84.2976 89.2168 89.8284 89.2168 89.8284C90.6366 93.8886 94.6812 95.7842 94.6812 95.7842C94.6812 95.7842 103.189 89.7269 107.947 86.2985C110.437 84.5082 112.31 83.5098 113.058 80.5962C113.647 78.3656 114.1 76.1004 114.417 73.8134C114.823 71.2977 115.019 68.4348 115.257 66.3169C115.662 62.9206 115.811 59.4978 115.702 56.0784Z" fill="black"/>
<path opacity="0.1" d="M108.135 81.0521L107.414 70.4118L104.728 67.8727L102.425 74.1328L102.483 76.7187C100.997 77.6419 99.568 78.6566 98.2041 79.7571L98.5878 80.6971L100.771 86.0601C100.771 86.0601 100.004 89.7187 100.326 91.7391C102.84 89.9449 105.698 87.8972 107.844 86.3566L108.135 81.0521Z" fill="black"/>
<path d="M110.664 117.08V116.643C110.334 112.708 110.868 91.0684 110.845 85.2296C110.818 78.9071 109.694 63.5903 109.694 63.5903C109.694 63.5903 113.37 58.7109 115.737 56.0782C113.5 58.6797 102.218 57.3614 101.539 52.3533C100.614 54.3269 97.3182 56.3629 97.0457 62.8492C96.662 71.1141 102.418 85.7288 102.418 85.7288C102.199 86.8326 101.213 91.4585 101.793 95.7294C102.706 102.469 105.983 114.385 106.328 116.011L106.539 117.396C107.257 118.301 110.146 118.164 110.664 117.08Z" fill="#FFA8A7"/>
<path d="M110.924 73.665L110.594 65.0334C110.594 65.0334 114.013 64.1285 115.399 61.2072C115.657 59.5109 115.76 57.7938 115.706 56.0782C115.706 56.0782 112.716 57.4862 108.514 56.4448C105.865 55.7256 103.447 54.3151 101.5 52.3533C101.5 52.3533 100.694 53.1607 99.04 55.6686C98.2496 56.8661 96.9142 59.959 96.799 62.3734C96.5343 67.8846 98.2649 73.7664 98.2649 73.7664C99.1475 78.0802 101.826 85.9316 101.826 85.9316C101.826 85.9316 100.805 91.6496 101.319 95.7489C101.834 99.8482 103.465 104.482 103.465 104.482C103.465 104.482 108.012 106.042 111.001 104.232C111.001 104.232 111.143 89.9763 111.197 84.4144C111.25 78.8525 110.924 73.665 110.924 73.665Z" fill="#EFBFA5"/>
<path opacity="0.3" d="M110.924 73.665L110.594 65.0334C110.594 65.0334 114.013 64.1285 115.399 61.2072C115.657 59.5109 115.76 57.7938 115.706 56.0782C115.706 56.0782 112.716 57.4862 108.514 56.4448C105.865 55.7256 103.447 54.3151 101.5 52.3533C101.5 52.3533 100.694 53.1607 99.04 55.6686C98.2496 56.8661 96.9142 59.959 96.799 62.3734C96.5343 67.8846 98.2649 73.7664 98.2649 73.7664C99.1475 78.0802 101.826 85.9316 101.826 85.9316C101.826 85.9316 100.805 91.6496 101.319 95.7489C101.834 99.8482 103.465 104.482 103.465 104.482C103.465 104.482 108.012 106.042 111.001 104.232C111.001 104.232 111.143 89.9763 111.197 84.4144C111.25 78.8525 110.924 73.665 110.924 73.665Z" fill="black"/>
<path d="M126.337 37.4926C126.855 36.8948 127.158 36.1355 127.196 35.3394C127.234 34.5434 127.004 33.758 126.544 33.1124C124.967 30.6045 121.245 31.5796 121.245 31.5796L120.251 29.9531C120.626 29.8519 121.017 29.828 121.402 29.8829C122.099 29.91 122.796 29.8096 123.459 29.5865C124.17 29.3868 124.788 28.9377 125.205 28.3189C125.403 28.0054 125.492 27.6338 125.459 27.2629C125.425 26.892 125.271 26.543 125.021 26.2712C125.39 26.2738 125.755 26.1966 126.093 26.0446C126.43 25.8926 126.732 25.6694 126.978 25.3898C127.224 25.1102 127.409 24.7805 127.52 24.4227C127.631 24.065 127.666 23.6873 127.622 23.3147C127.608 23.0868 127.525 22.8689 127.384 22.6906C127.185 22.5117 126.945 22.387 126.686 22.3279C125.986 22.0782 125.346 21.6793 124.81 21.1578C123.747 20.1242 123.298 18.9112 121.828 17.94C120.584 17.1081 119.126 16.6685 117.638 16.6763C115.953 16.6763 114.433 17.1677 113.294 18.5835C111.413 18.5835 108.965 19.7186 107.292 24.4341C105.646 29.0756 106.244 34.4971 109.357 39.3452C111.409 42.5435 119.595 47.8559 125.447 45.7614C131.298 43.6669 128.839 37.6408 126.337 37.4926Z" fill="#263238"/>
<path d="M116.574 36.2368C121.117 37.0949 121.378 39.4 121.608 41.4165C122.203 46.6703 121.179 55.3486 120.822 57.2598C120.822 57.2598 114.713 55.3643 114.782 55.0561C114.851 54.748 116.574 36.2368 116.574 36.2368Z" fill="#FFA8A7"/>
<path d="M116.648 54.2137C116.648 54.2137 118.704 53.7261 120.259 54.2137C120.259 54.2137 118.981 52.8642 116.061 53.7417L116.648 54.2137Z" fill="#F28F8F"/>
<path d="M116.125 55.7035C116.782 54.0238 117.296 52.2895 117.66 50.5199C120.695 48.9325 121.359 46.5649 120.73 44.3456C119.425 39.7783 118.155 37.5551 116.988 36.2368C116.083 35.5854 112.859 34.6766 112.859 34.6766C112.284 34.583 107.069 33.916 105.476 33.7834C104.615 34.4606 103.96 35.3721 103.588 36.4123C103.281 37.3796 102.744 38.2025 102.744 41.5101L103.35 47.423C103.35 47.423 103.511 49.1938 102.901 50.2235C102.291 51.2532 99.8046 53.1371 98.6572 55.684C98.6572 55.684 98.7954 59.561 105.81 61.1796C111.516 62.498 115.749 60.3996 115.749 60.3996C115.999 58.8472 116.125 57.2766 116.125 55.7035Z" fill="#D2ECFF"/>
<path d="M120.891 46.5222C120.702 46.2773 120.427 46.1155 120.124 46.0697C119.464 45.9878 118.838 46.3388 118.228 46.6158C117.1 47.1267 115.803 47.3958 114.625 47.0253C113.351 46.608 112.323 45.4652 110.999 45.3482C109.736 45.2467 108.608 46.1282 107.679 46.9902C106.306 48.289 105.032 49.7205 103.458 50.7697C102.783 51.2096 102.084 51.6094 101.363 51.9671L101.056 52.2947L100.995 52.361C100.761 52.6145 100.519 52.8837 100.285 53.1645L100.196 53.2737L99.9432 53.5857L99.8204 53.7457L99.6094 54.0304L99.4828 54.2098L99.287 54.5062L99.1719 54.6895C99.1028 54.7988 99.0415 54.908 98.9762 55.0211L98.8841 55.1849C98.7959 55.3526 98.7076 55.5242 98.6309 55.6997C98.6554 55.967 98.7161 56.2294 98.8112 56.4798C98.9624 56.8845 99.1649 57.2674 99.4137 57.6187C99.5173 57.763 99.6286 57.9074 99.7552 58.0556C100.718 59.175 102.495 60.4309 105.78 61.1759C107.08 61.4775 108.41 61.6228 109.744 61.6088C110.193 61.6088 110.623 61.5815 111.033 61.5425C111.444 61.5035 111.831 61.4567 112.184 61.3982C112.668 61.3202 113.113 61.2266 113.512 61.1291C114.268 60.9541 115.004 60.7033 115.711 60.3802C115.886 59.3219 115.999 58.2539 116.049 57.1819C116.049 56.9518 116.072 56.7138 116.079 56.4642C116.087 56.2146 116.079 55.9533 116.079 55.6841C116.463 54.5803 116.816 53.5779 117.077 52.7043C117.142 52.4858 117.204 52.2752 117.257 52.0724C117.406 51.5597 117.525 51.0388 117.614 50.5122C119.709 49.4474 120.676 48.0199 120.891 46.5222Z" fill="#C4E1F7"/>
<path d="M122.887 22.9867C123.221 23.7473 123.743 24.9642 122.561 29.7383C121.559 33.783 120.04 34.4889 119.322 34.6255C118.605 34.762 117.404 34.3017 116.544 33.9663L115.14 36.5015C115.266 37.5937 115.635 39.7935 114.925 41.182C112.86 39.5828 110.75 37.6483 109.303 34.6216L111.567 29.5862C111.567 29.5862 110.255 30.2258 109.552 28.6969C108.904 27.2889 109.146 26.1148 110.109 25.4869C110.333 25.3408 110.591 25.2547 110.857 25.2366C111.123 25.2185 111.389 25.269 111.631 25.3833C111.873 25.4977 112.083 25.6722 112.24 25.8908C112.398 26.1093 112.499 26.3648 112.534 26.6336C112.741 27.8388 113.892 27.9285 114.211 26.1383C114.307 25.5922 114.76 22.6279 116.836 21.9688C119.288 25.1086 122.411 24.6678 122.887 22.9867Z" fill="#FFA8A7"/>
<path d="M117.522 27.1141C117.499 27.2193 117.447 27.3155 117.371 27.3907C117.295 27.4659 117.199 27.5168 117.095 27.5371C116.991 27.5574 116.883 27.5462 116.786 27.5048C116.688 27.4635 116.604 27.3938 116.545 27.3045C116.485 27.2152 116.453 27.1102 116.452 27.0025C116.451 26.8948 116.481 26.7892 116.539 26.6987C116.596 26.6082 116.679 26.5368 116.776 26.4935C116.873 26.4502 116.98 26.4368 117.084 26.4549C117.156 26.4689 117.224 26.4971 117.284 26.5378C117.345 26.5786 117.397 26.6311 117.438 26.6923C117.478 26.7535 117.507 26.8223 117.521 26.8947C117.536 26.967 117.536 27.0416 117.522 27.1141Z" fill="#263238"/>
<path d="M118.136 31.404C118.126 31.4733 118.102 31.5399 118.067 31.5998C118.031 31.6597 117.984 31.7119 117.928 31.7532C117.872 31.7945 117.809 31.8243 117.742 31.8407C117.675 31.8571 117.606 31.8598 117.538 31.8487C117.431 31.8345 117.331 31.7882 117.251 31.7158C117.171 31.6434 117.114 31.5482 117.087 31.4425C117.06 31.3368 117.066 31.2254 117.102 31.1228C117.138 31.0201 117.204 30.9308 117.291 30.8664C117.377 30.802 117.481 30.7655 117.588 30.7616C117.695 30.7577 117.801 30.7865 117.892 30.8443C117.983 30.9022 118.055 30.9864 118.099 31.0862C118.142 31.186 118.155 31.2967 118.136 31.404Z" fill="#B16668"/>
<path d="M122.081 26.3648L121.226 25.4092C121.283 25.3485 121.351 25.3003 121.427 25.2673C121.503 25.2343 121.584 25.2173 121.667 25.2173C121.749 25.2173 121.831 25.2343 121.907 25.2673C121.983 25.3003 122.051 25.3485 122.108 25.4092C122.229 25.5399 122.293 25.7136 122.288 25.8926C122.283 26.0716 122.209 26.2413 122.081 26.3648Z" fill="#263238"/>
<path d="M117.345 24.8402L116.174 25.3395C116.138 25.2633 116.118 25.1804 116.115 25.096C116.111 25.0115 116.125 24.9273 116.155 24.8484C116.185 24.7695 116.23 24.6976 116.288 24.6372C116.346 24.5768 116.416 24.529 116.493 24.497C116.651 24.432 116.828 24.4313 116.987 24.4952C117.145 24.5592 117.273 24.6827 117.345 24.8402Z" fill="#263238"/>
<path d="M121.547 27.8745C121.534 27.9457 121.508 28.0137 121.47 28.0747C121.432 28.1357 121.382 28.1884 121.324 28.2299C121.266 28.2713 121.2 28.3007 121.131 28.3164C121.061 28.3321 120.989 28.3337 120.919 28.3211C120.849 28.3086 120.782 28.2821 120.722 28.2433C120.662 28.2044 120.61 28.154 120.57 28.0947C120.529 28.0355 120.5 27.9687 120.485 27.8981C120.469 27.8276 120.468 27.7546 120.48 27.6834C120.505 27.5396 120.585 27.4118 120.703 27.328C120.82 27.2443 120.966 27.2115 121.107 27.2368C121.249 27.2621 121.375 27.3436 121.457 27.4632C121.539 27.5828 121.572 27.7307 121.547 27.8745Z" fill="#263238"/>
<path d="M119.077 26.7942L118.823 30.4176L120.723 30.0081L119.077 26.7942Z" fill="#F28F8F"/>
<path d="M116.544 33.9669C115.297 33.4989 112.492 31.9582 112.323 30.7998C112.371 31.3717 112.588 31.9156 112.945 32.36C113.582 33.2297 116.08 34.7938 116.08 34.7938L116.544 33.9669Z" fill="#F28F8F"/>
<path d="M118.052 35.8079C117.917 35.3749 117.369 35.332 117.369 35.332C117.411 35.1625 117.415 34.9855 117.381 34.8141C117.347 34.6426 117.276 34.4811 117.173 34.3413C116.986 34.2025 116.759 34.1311 116.528 34.1385C116.666 33.8304 116.486 33.1283 116.11 33.0425C115.753 33.004 115.392 33.0211 115.039 33.0932C114.673 33.3432 114.355 33.6607 114.103 34.0293L114.682 32.9099C115.194 32.775 115.696 32.607 116.187 32.4067C116.762 32.1103 116.735 31.4707 116.513 31.4355C116.009 31.4452 115.507 31.4973 115.012 31.5916C114.383 31.6969 113.589 31.693 113.374 32.0908C113.159 32.4886 112.921 32.9645 112.48 33.8772C112.039 34.7899 111.916 35.0668 111.973 35.5894C112.031 36.1121 112.023 37.1496 112.18 38.4484C112.338 39.7472 112.085 40.0515 111.52 40.7886C111.137 41.284 108.765 43.6749 106.263 45.9995L106.605 40.9486C106.605 40.9486 107.418 35.7533 105.48 33.8109C102.871 33.3818 101.605 34.591 101.025 36.0146C100.008 38.5342 100.308 45.7148 100.503 49.4943C100.699 53.2737 102.161 54.7052 103.282 54.9548C104.402 55.2044 107.472 53.89 109.483 51.2026C111.064 49.3578 114.448 43.281 114.943 42.4346C115.305 41.7806 115.747 41.1764 116.26 40.6365C116.643 40.2465 116.95 38.6863 116.95 37.7542C117.035 38.0467 117.334 38.2807 117.576 38.0974C117.626 37.6176 118.09 36.1238 118.052 35.8079Z" fill="#FFA8A7"/>
<path d="M111.509 40.7766C111.709 40.5351 111.885 40.2738 112.035 39.9966C112.162 39.7036 112.218 39.384 112.2 39.0644C112.2 38.7445 112.146 38.4247 112.111 38.1088C112.077 37.7928 112.05 37.4691 112.027 37.1493L111.973 36.1898L111.942 35.71C111.921 35.5485 111.914 35.3853 111.923 35.2225C111.977 34.9022 112.08 34.5928 112.23 34.3059C112.361 34.0134 112.503 33.7286 112.648 33.4439L113.074 32.5819L113.289 32.1529C113.357 31.9963 113.482 31.8731 113.639 31.8097C113.939 31.7014 114.253 31.6345 114.571 31.6107C114.886 31.5756 115.193 31.5132 115.507 31.4742C115.822 31.4352 116.133 31.3962 116.455 31.3884C116.506 31.3859 116.557 31.4026 116.597 31.4352C116.632 31.4684 116.659 31.51 116.674 31.5561C116.695 31.6419 116.695 31.7317 116.674 31.8175C116.647 31.9864 116.568 32.1422 116.447 32.2621C116.193 32.4663 115.899 32.6126 115.584 32.6912C115.281 32.7926 114.978 32.8823 114.675 32.9681L114.709 32.9408L114.137 34.068L114.049 34.0134C114.187 33.8362 114.334 33.667 114.49 33.5063C114.567 33.4257 114.648 33.3477 114.732 33.2723C114.815 33.1909 114.907 33.1213 115.008 33.0656C115.202 33.0272 115.398 33.0025 115.596 32.9915C115.798 32.9662 116.004 32.9875 116.198 33.0539C116.373 33.1713 116.497 33.353 116.543 33.5609C116.609 33.761 116.609 33.9771 116.543 34.1772L116.501 34.1148C116.65 34.1146 116.797 34.1383 116.939 34.185C117.013 34.2087 117.082 34.2471 117.142 34.2981C117.195 34.353 117.242 34.4146 117.28 34.4814C117.42 34.7511 117.455 35.064 117.38 35.359L117.345 35.3083C117.497 35.3262 117.644 35.3767 117.775 35.4565C117.909 35.5375 118.01 35.6649 118.059 35.8153C118.053 36.013 118.025 36.2093 117.975 36.4004L117.833 36.966C117.741 37.356 117.629 37.7148 117.564 38.0893C117.501 38.132 117.427 38.1549 117.351 38.1549C117.275 38.1549 117.201 38.132 117.138 38.0893C117.017 38.0032 116.93 37.8759 116.893 37.7304H116.95C116.941 38.1707 116.894 38.6093 116.808 39.041C116.727 39.4741 116.598 39.8967 116.424 40.3008C116.329 40.4974 116.199 40.6746 116.041 40.8234C115.895 40.9872 115.753 41.1511 115.622 41.3227C115.359 41.6693 115.118 42.0328 114.901 42.4109C115.114 42.0298 115.35 41.6625 115.607 41.311C115.738 41.1394 115.876 40.9716 116.022 40.8078C116.18 40.6595 116.311 40.4822 116.405 40.2852C116.569 39.8814 116.688 39.4601 116.758 39.0293C116.839 38.601 116.884 38.1665 116.893 37.7304V37.5237L116.95 37.7226C116.987 37.8518 117.065 37.9646 117.173 38.0425C117.223 38.0823 117.285 38.1039 117.349 38.1039C117.413 38.1039 117.475 38.0823 117.526 38.0425V38.0659C117.595 37.6758 117.702 37.3092 117.794 36.9309L117.929 36.3692C117.977 36.1859 118.005 35.9974 118.009 35.8075C117.953 35.678 117.862 35.5672 117.747 35.4878C117.631 35.4085 117.496 35.3638 117.357 35.359H117.311V35.3122C117.377 35.0376 117.343 34.7481 117.215 34.497C117.185 34.4361 117.144 34.3818 117.093 34.3376C117.042 34.2933 116.983 34.26 116.919 34.2396C116.787 34.1974 116.648 34.1763 116.509 34.1772H116.447L116.47 34.1148C116.528 33.9348 116.528 33.7409 116.47 33.5609C116.431 33.3771 116.322 33.2163 116.167 33.1124C115.987 33.0556 115.798 33.0383 115.611 33.0617C115.419 33.0746 115.228 33.0994 115.039 33.1358C114.951 33.1919 114.867 33.2559 114.79 33.3269C114.709 33.401 114.629 33.479 114.556 33.557C114.402 33.717 114.26 33.8847 114.122 34.0602L113.807 34.4502L114.034 33.9978L114.606 32.8667V32.8433H114.629C114.932 32.7575 115.235 32.6717 115.53 32.5702C115.831 32.502 116.114 32.369 116.359 32.1802C116.463 32.0728 116.533 31.9374 116.563 31.7902C116.586 31.6537 116.563 31.4586 116.424 31.4742C116.111 31.481 115.798 31.5071 115.488 31.5522C115.177 31.5912 114.866 31.6498 114.552 31.6849C114.24 31.705 113.933 31.768 113.639 31.8721C113.498 31.9291 113.385 32.0397 113.324 32.1802L113.109 32.6092L112.679 33.4634C112.537 33.7482 112.391 34.0329 112.257 34.3254C112.11 34.6044 112.009 34.9062 111.958 35.2186C111.941 35.3754 111.941 35.5337 111.958 35.6905L111.985 36.1742L112.031 37.1337C112.05 37.4535 112.073 37.7733 112.104 38.0932C112.134 38.413 112.176 38.7289 112.18 39.0527C112.194 39.3748 112.132 39.6957 112 39.9887C111.863 40.2676 111.698 40.5316 111.509 40.7766Z" fill="#B16668"/>
<path d="M116.543 34.1852C116.574 34.075 116.585 33.96 116.574 33.8459C116.26 33.9317 115.853 33.9746 115.592 34.0682C115.38 34.1481 115.205 34.3071 115.104 34.5129C115.239 34.3686 115.623 34.1813 116.543 34.1852Z" fill="#B16668"/>
<path d="M116.261 35.6124C116.598 35.4231 116.982 35.339 117.366 35.3706C117.385 35.2637 117.397 35.1555 117.4 35.0469C116.502 35.1795 116.261 35.6124 116.261 35.6124Z" fill="#B16668"/>
<path d="M116.901 37.9806C116.937 37.5686 116.926 37.1538 116.87 36.7442C116.828 36.4985 116.813 36.3541 117.085 36.397C117.358 36.44 117.734 36.1006 117.661 36.3307C117.623 36.4556 117.139 36.6623 117.108 36.8378C117.076 37.2247 117.007 37.6075 116.901 37.9806Z" fill="#B16668"/>
<path d="M106.24 45.9877C105.549 46.5689 103.209 48.3865 102.883 50.2391C102.883 50.2391 102.556 48.8506 103.899 47.3061C104.654 46.4283 105.462 45.5985 106.317 44.8215L106.24 45.9877Z" fill="#F28F8F"/>
<path d="M120.823 57.2601C120.589 58.6447 120.155 59.1517 118.766 59.7719C116.502 60.7821 107.434 63.3914 104.756 63.4109C103.234 63.4396 101.719 63.2075 100.274 62.7245C100.014 62.6617 99.7821 62.5136 99.6137 62.3032C99.5161 62.1239 99.3859 61.965 99.2299 61.8352C99.0369 61.7176 98.837 61.6121 98.6313 61.5193C98.3897 61.3663 98.2152 61.1247 98.144 60.8445C98.1308 60.6606 98.0742 60.4827 97.979 60.3257C97.8646 60.206 97.7618 60.0754 97.672 59.9357C97.5688 59.749 97.5171 59.5374 97.5223 59.3234C97.5309 59.216 97.5218 59.1079 97.4954 59.0035C97.454 58.9089 97.394 58.824 97.3189 58.7539C97.2394 58.6634 97.1651 58.5684 97.0964 58.4692C97.0261 58.3884 96.9819 58.2877 96.9697 58.1805C96.9835 58.0942 97.0177 58.0125 97.0695 57.9426C97.3842 57.4395 98.0902 57.5526 98.6044 57.6072C99.2146 57.6774 99.8132 57.7983 100.423 57.8724C101.273 57.9758 102.13 57.9954 102.983 57.9309V56.3279C103.6 56.4669 104.186 56.7265 104.706 57.0923C105.704 57.7164 106.306 58.5589 108.159 58.0596C110.013 57.5604 114.43 55.0095 116.648 54.2217C118.866 53.4338 120.957 56.441 120.823 57.2601Z" fill="#FFA8A7"/>
<path d="M47.0088 128.6L89.3469 121.921V28.664L47.0088 35.3587V128.6Z" fill="#455A64"/>
<path d="M88.0583 27.9073L89.3469 28.6639L47.0088 35.3586L49.2481 34.0427L88.0583 27.9073Z" fill="#37474F"/>
<path d="M51.9775 83.6403L81.6061 78.9605V116.864L51.9775 121.541V83.6403Z" fill="#455A64"/>
<path opacity="0.1" d="M51.9775 83.6403L81.6061 78.9605V116.864L51.9775 121.541V83.6403Z" fill="black"/>
<path d="M54.2012 85.5762L79.384 81.5952V114.926L54.2012 118.906V85.5762Z" fill="#455A64"/>
<path d="M51.9775 121.541L54.2019 118.906L79.3847 114.925L81.6061 116.864L51.9775 121.541Z" fill="#263238"/>
<path d="M51.9775 83.6402L54.2019 85.5759V118.906L51.9775 121.541V83.6402Z" fill="#37474F"/>
<path d="M79.3848 81.5951L81.6062 78.9604V116.864L79.3848 114.925V81.5951Z" fill="#37474F"/>
<path d="M68.8105 37.741L81.6067 35.7171V73.621L68.8135 75.6418L68.8105 37.741Z" fill="#455A64"/>
<path opacity="0.1" d="M68.8105 37.741L81.6067 35.7171V73.621L68.8135 75.6418L68.8105 37.741Z" fill="black"/>
<path d="M71.0342 39.6769L79.3846 38.355V71.6853L71.0342 73.0072V39.6769Z" fill="#455A64"/>
<path d="M68.8135 75.6417L71.0349 73.007L79.3853 71.6851L81.6067 73.6208L68.8135 75.6417Z" fill="#263238"/>
<path d="M68.8105 37.7411L71.0349 39.6769V73.0072L68.8135 75.6419L68.8105 37.7411Z" fill="#37474F"/>
<path d="M79.3848 38.3549L81.6062 35.7171V73.621L79.3848 71.6852V38.3549Z" fill="#37474F"/>
<path d="M51.999 40.3881L64.7952 38.3642V76.268L51.999 78.2889V40.3881Z" fill="#455A64"/>
<path opacity="0.1" d="M51.999 40.3881L64.7952 38.3642V76.268L51.999 78.2889V40.3881Z" fill="black"/>
<path d="M54.2197 42.3239L62.5701 40.999L62.5731 74.3323L54.2197 75.6542V42.3239Z" fill="#455A64"/>
<path d="M51.999 78.2888L54.2204 75.6541L62.5738 74.3322L64.7952 76.268L51.999 78.2888Z" fill="#263238"/>
<path d="M51.999 40.3877L54.2204 42.3235V75.6538L51.999 78.2885V40.3877Z" fill="#37474F"/>
<path d="M62.5713 40.999L64.7957 38.3643V76.2681L62.5743 74.3324L62.5713 40.999Z" fill="#37474F"/>
<path d="M83.6416 72.0591L84.2186 72.6517V82.3882L83.6416 81.7987V72.0591Z" fill="#FCF4EF"/>
<path d="M84.2188 72.6513L87.3311 72.1773V81.9169L84.2188 82.3879V72.6513Z" fill="#FAFAFA"/>
<path opacity="0.05" d="M87.3311 74.8575L84.2188 75.3194V77.2247L87.3311 76.7659V74.8575Z" fill="black"/>
<path d="M87.331 72.1775L86.7539 71.5879L83.6416 72.0589L84.2186 72.6515L87.331 72.1775Z" fill="#EBEBEB"/>
<path d="M85.4118 74.4961L86.8409 75.9548L87.4119 75.1951L85.9828 73.7395C85.9466 73.7013 85.9019 73.6726 85.8525 73.6557C85.803 73.6388 85.7504 73.6341 85.6988 73.6422C85.5811 73.6702 85.4766 73.7388 85.403 73.8363C85.3294 73.9338 85.2913 74.0542 85.2952 74.1771C85.2921 74.2947 85.3338 74.4091 85.4118 74.4961Z" fill="#FCF4EF"/>
<path opacity="0.1" d="M84.2188 75.3381L86.488 75.5934V74.9005L87.0411 74.8185L86.5209 74.2867L84.2188 74.6422V75.3381Z" fill="black"/>
<path d="M79.5459 76.1738V77.6932L87.6541 76.4594V74.94L79.5459 76.1738Z" fill="#FAFAFA"/>
<path d="M79.5456 76.1736L79.0283 75.6418V77.1643L79.5456 77.693V76.1736Z" fill="#FCF4EF"/>
<path d="M87.6538 74.9397L87.1336 74.4079L79.0283 75.6417L79.5456 76.1735L87.6538 74.9397Z" fill="#EBEBEB"/>
<path d="M85.2504 78.7263C85.2467 78.5667 85.2969 78.4106 85.3927 78.284C85.4884 78.1574 85.6239 78.0679 85.7766 78.0304C85.8475 78.0238 85.919 78.0331 85.9858 78.0579C86.0527 78.0827 86.1133 78.1222 86.1634 78.1736C86.2134 78.2251 86.2516 78.2871 86.2752 78.3554C86.2988 78.4236 86.3072 78.4964 86.2998 78.5683C86.2992 78.6881 86.2701 78.806 86.2149 78.9118C86.1597 79.0177 86.0801 79.1084 85.9829 79.1761V80.1698C85.9845 80.2238 85.9679 80.2768 85.9358 80.3199C85.9037 80.363 85.8581 80.3937 85.8065 80.4068H85.7437C85.7197 80.4093 85.6955 80.4062 85.6728 80.3979C85.6501 80.3895 85.6295 80.3761 85.6126 80.3586C85.5957 80.3411 85.5828 80.32 85.575 80.2968C85.5672 80.2736 85.5646 80.2489 85.5674 80.2245V79.2308C85.4701 79.1898 85.3875 79.1195 85.3308 79.0292C85.2741 78.939 85.2461 78.8333 85.2504 78.7263Z" fill="#455A64"/>
<path d="M42.7235 131.277C45.2678 128.609 46.7627 117.742 44.2812 115.624H31.6465C29.1649 117.751 30.6568 128.603 33.2011 131.274L33.2729 131.35L33.3596 131.438C33.4313 131.508 33.5091 131.578 33.5898 131.648C33.611 131.663 33.631 131.679 33.6496 131.697C33.7124 131.745 33.7752 131.797 33.8439 131.846C33.9492 131.924 34.059 131.996 34.1728 132.061C36.2656 133.304 39.662 133.304 41.7549 132.061C41.8703 131.996 41.9812 131.923 42.0867 131.843C42.1495 131.8 42.2063 131.751 42.2661 131.706L42.3408 131.645C42.4186 131.578 42.4933 131.511 42.5621 131.441L42.6637 131.341L42.7235 131.277Z" fill="#455A64"/>
<path d="M32.7436 114.77C29.8615 116.481 29.8615 119.256 32.7436 120.966C35.6258 122.677 40.2988 122.677 43.1839 120.966C46.069 119.256 46.066 116.481 43.1839 114.77C40.3018 113.059 35.6258 113.059 32.7436 114.77Z" fill="#455A64"/>
<g opacity="0.1">
<path d="M32.7436 114.77C29.8615 116.481 29.8615 119.255 32.7436 120.966C35.6258 122.677 40.2988 122.677 43.1839 120.966C46.069 119.255 46.066 116.481 43.1839 114.77C40.3018 113.059 35.6258 113.059 32.7436 114.77Z" fill="white"/>
</g>
<path d="M34.1315 115.594C32.0148 116.849 32.0148 118.888 34.1315 120.152C36.2483 121.416 39.6805 121.41 41.7973 120.152C43.914 118.894 43.914 116.858 41.7973 115.594C39.6805 114.329 36.2542 114.339 34.1315 115.594Z" fill="#263238"/>
<path d="M41.7967 117.754C39.6799 116.496 36.2477 116.496 34.1309 117.754C33.6161 118.037 33.1801 118.448 32.8633 118.948C33.1819 119.447 33.6175 119.858 34.1309 120.143C36.2477 121.401 39.6799 121.401 41.7967 120.143C42.3101 119.858 42.7458 119.447 43.0644 118.948C42.7475 118.448 42.3115 118.037 41.7967 117.754Z" fill="#F5F5F5"/>
<path d="M30.9583 94.5435L36.011 98.0564L31.2274 96.2179C31.2688 97.5172 31.5914 98.7913 32.1721 99.9496C32.1721 99.9496 35.3264 101.506 37.0425 103.147L32.8448 101.803C32.7132 102.548 32.7583 103.314 32.9764 104.037C33.0033 104.134 33.0332 104.237 33.0661 104.341C33.2873 105.025 33.6042 106.316 34.1424 107.848C34.5987 109.188 35.1804 110.48 35.8795 111.707C36.2253 112.311 36.6108 112.891 37.0335 113.442C37.0574 113.479 37.0843 113.512 37.1112 113.546C37.8906 113.017 38.7018 112.499 39.5449 111.993C40.0322 110.735 40.5674 107.671 40.6631 105.186C41.0368 95.6739 33.6371 90.7692 27.8818 89.3591C27.8818 89.3591 29.9747 91.693 30.9583 94.5435Z" fill="#EFBFA5"/>
<path opacity="0.3" d="M30.9583 94.5435L36.011 98.0564L31.2274 96.2179C31.2688 97.5172 31.5914 98.7913 32.1721 99.9496C32.1721 99.9496 35.3264 101.506 37.0425 103.147L32.8448 101.803C32.7132 102.548 32.7583 103.314 32.9764 104.037C33.0033 104.134 33.0332 104.237 33.0661 104.341C33.2873 105.025 33.6042 106.316 34.1424 107.848C34.5987 109.188 35.1804 110.48 35.8795 111.707C36.2253 112.311 36.6108 112.891 37.0335 113.442C37.0574 113.479 37.0843 113.512 37.1112 113.546C37.8906 113.017 38.7018 112.499 39.5449 111.993C40.0322 110.735 40.5674 107.671 40.6631 105.186C41.0368 95.6739 33.6371 90.7692 27.8818 89.3591C27.8818 89.3591 29.9747 91.693 30.9583 94.5435Z" fill="black"/>
<path d="M34.9883 94.6528C35.5017 95.1196 35.9441 95.6614 36.3008 96.2604C36.6543 96.8611 36.9631 97.4878 37.2246 98.1354C37.7422 99.4308 38.1182 100.78 38.3458 102.159C38.8427 104.911 38.69 107.744 37.9003 110.425C37.89 110.46 37.8936 110.497 37.9104 110.53C37.9271 110.562 37.9557 110.587 37.99 110.598C38.0241 110.608 38.0609 110.604 38.0922 110.587C38.1236 110.57 38.1471 110.541 38.1574 110.507C38.9141 107.781 39.0237 104.912 38.4773 102.135C38.2241 100.752 37.8231 99.4019 37.2814 98.108C37.008 97.4631 36.6882 96.8394 36.3247 96.2422C35.9577 95.6491 35.5075 95.1137 34.9883 94.6528Z" fill="#FAFAFA"/>
<path d="M52.6522 99.4028C52.5385 99.5517 50.7477 101.138 48.0031 105.882L42.4361 107.325L46.9626 107.738L44.8698 111.434L40.14 112.613L43.8921 113.099C43.8921 113.099 42.9952 116.849 40.3822 118.499C38.9351 119.411 38.2206 119.569 37.7601 119.159C37.4372 118.87 37.2997 117.095 36.9798 115.512C36.6599 113.929 36.5403 111.355 37.8947 108.185C38.2642 107.336 38.7515 106.545 39.3417 105.836C42.7291 101.679 49.3425 99.4849 52.6522 99.4028Z" fill="#EFBFA5"/>
<path opacity="0.15" d="M52.6522 99.4028C52.5385 99.5517 50.7477 101.138 48.0031 105.882L42.4361 107.325L46.9626 107.738L44.8698 111.434L40.14 112.613L43.8921 113.099C43.8921 113.099 42.9952 116.849 40.3822 118.499C38.9351 119.411 38.2206 119.569 37.7601 119.159C37.4372 118.87 37.2997 117.095 36.9798 115.512C36.6599 113.929 36.5403 111.355 37.8947 108.185C38.2642 107.336 38.7515 106.545 39.3417 105.836C42.7291 101.679 49.3425 99.4849 52.6522 99.4028Z" fill="black"/>
<path opacity="0.1" d="M38.9438 109.786C38.4319 111.11 38.1087 112.502 37.9841 113.919C37.8973 115.712 37.9183 117.508 38.0469 119.298C37.9461 119.265 37.8526 119.213 37.7719 119.143C37.449 118.854 37.3114 117.08 36.9915 115.496C36.6716 113.913 36.552 111.339 37.9064 108.17C38.2759 107.32 38.7632 106.529 39.3534 105.821C42.7408 101.673 49.3542 99.4785 52.6639 99.3964C47.6172 100.439 42.2894 104.088 39.7451 108.188C39.4342 108.697 39.1662 109.232 38.9438 109.786Z" fill="black"/>
<path d="M47.614 101.22C45.1414 102.436 42.8304 104.074 41.0365 106.234C40.1263 107.305 39.3895 108.517 38.854 109.823C38.334 111.131 38.0309 112.517 37.957 113.926C37.9618 113.928 37.9672 113.928 37.972 113.926C38.1783 112.55 38.5561 111.206 39.0961 109.927C39.6333 108.651 40.3373 107.455 41.189 106.371C42.0588 105.293 43.0502 104.323 44.1429 103.481C45.2396 102.632 46.4093 101.884 47.6379 101.248V101.223L47.614 101.22Z" fill="#FAFAFA"/>
<path d="M23.167 102.995C23.5752 102.97 23.9846 102.97 24.3928 102.995C26.0024 103.094 27.5939 103.394 29.1316 103.888C29.7026 104.07 30.2767 104.277 30.8417 104.514C31.1257 104.632 31.4068 104.757 31.6818 104.891C33.0578 105.524 34.3199 106.387 35.4161 107.443C35.9275 107.949 36.3745 108.517 36.7465 109.136C36.7943 109.215 36.8452 109.294 36.89 109.376C37.0036 109.589 37.1113 109.796 37.2099 110.002C38.1431 111.782 38.6163 113.774 38.5852 115.791C38.6121 117.213 38.2235 118.86 37.9693 119.134C37.934 119.171 37.8949 119.205 37.8527 119.234C37.467 119.514 36.8272 119.398 35.6104 118.794C33.1678 117.578 32.0526 114.235 32.0526 114.235L35.3114 113.482L31.039 112.874L29.1734 110.248L32.3037 109.452L27.9745 109.027C26.4942 106.922 24.8908 104.91 23.173 103.001L23.167 102.995Z" fill="#EFBFA5"/>
<path opacity="0.05" d="M24.3937 102.982C26.0033 103.082 27.5948 103.382 29.1325 103.875C29.7035 104.058 30.2776 104.264 30.8426 104.501C31.1267 104.62 31.4077 104.745 31.6828 104.878C33.0587 105.512 34.3208 106.375 35.417 107.431C35.9284 107.936 36.3754 108.505 36.7474 109.124C36.7953 109.203 36.8461 109.282 36.8909 109.364C37.0045 109.576 37.1122 109.783 37.2108 109.99C38.144 111.77 38.6172 113.762 38.5861 115.779C38.613 117.201 38.2244 118.848 37.9702 119.121C37.9349 119.159 37.8958 119.193 37.8536 119.222C37.7751 119.274 37.6881 119.312 37.5965 119.334C37.7699 117.119 36.4006 111.606 34.6665 109.403C32.8727 107.115 28.687 103.879 23.1709 102.994C23.5779 102.967 23.9862 102.963 24.3937 102.982Z" fill="black"/>
</svg>
