<svg width="180" height="246" viewBox="0 0 180 246" fill="none" xmlns="http://www.w3.org/2000/svg">
<g filter="url(#filter0_d_544_4311)">
<path d="M85.4418 6.45975C85.4631 6.44927 85.484 6.43804 85.5045 6.42607C87.3032 5.37507 88.6102 4.95476 89.9605 5.00386C89.9848 5.00474 90.009 5.00474 90.0333 5.00386C91.3619 4.95544 92.6486 5.36383 94.4116 6.38521C94.4319 6.39696 94.4526 6.40799 94.4737 6.41829L94.5582 6.45976C95.0272 6.69078 96.5187 7.59758 98.8496 9.06796C101.151 10.5199 104.213 12.4833 107.774 14.7862C114.897 19.3915 124.011 25.3488 133.033 31.2751C142.055 37.2013 150.982 43.0955 157.73 47.5744C161.104 49.814 163.932 51.6991 165.955 53.0571C166.966 53.7363 167.774 54.2825 168.347 54.6748C168.634 54.8712 168.86 55.0272 169.021 55.1413C169.148 55.2302 169.213 55.2786 169.239 55.2976C169.25 55.3058 169.254 55.3085 169.252 55.3067C169.914 55.884 170.327 56.3853 170.587 56.8883C170.84 57.3793 170.977 57.9294 171 58.6505V177H9V58.6508C9.02324 57.9296 9.15981 57.3793 9.41323 56.8883C9.67293 56.3851 10.0865 55.8837 10.749 55.3062C10.7459 55.3089 10.7493 55.3064 10.7611 55.2976C10.7868 55.2787 10.8524 55.2303 10.9786 55.1413C11.1403 55.0272 11.3658 54.8712 11.6528 54.6748C12.2261 54.2825 13.0341 53.7363 14.0455 53.0571C16.0677 51.6991 18.8959 49.814 22.27 47.5744C29.018 43.0955 37.9454 37.2013 46.967 31.2751C55.9889 25.3488 65.1033 19.3915 72.2259 14.7862C75.7874 12.4833 78.8487 10.5199 81.1504 9.06796C83.4813 7.59758 84.9728 6.69078 85.4418 6.45975Z" fill="#FCFCFC" stroke="#D2ECFF" stroke-width="2" stroke-linecap="round" stroke-linejoin="round"/>
<path d="M46.71 155.481C27.0967 144.121 27.0967 125.721 46.71 114.376C66.3233 103.031 98.1204 103.023 117.731 114.376C137.342 125.729 137.344 144.136 117.731 155.489C98.1178 166.842 66.3233 166.834 46.71 155.481Z" fill="#F5F5F5"/>
<path d="M92.287 143.126L93.4185 143.781L56.2422 149.58V148.748L92.287 143.126Z" fill="#FCF4EF"/>
<path d="M43.4781 153.07C40.9474 154.552 40.9474 156.953 43.4781 158.435C46.0089 159.917 50.1122 159.917 52.6455 158.435C55.1789 156.953 55.1763 154.552 52.6455 153.07C50.1148 151.588 46.0089 151.578 43.4781 153.07Z" fill="#FCF4EF"/>
<path d="M87.4221 139.511C81.3 143.096 81.3 148.905 87.4221 152.488C93.5442 156.071 103.468 156.071 109.587 152.488C115.707 148.905 115.707 143.096 109.587 139.511C103.468 135.926 93.5521 135.939 87.4221 139.511Z" fill="#FCF4EF"/>
<path d="M50.4448 83.3706V84.3761C50.4448 84.6946 50.668 84.8236 50.941 84.663L51.9097 84.1024V81.9465L50.941 82.5072C50.7967 82.6021 50.6766 82.7297 50.5904 82.8797C50.5042 83.0296 50.4544 83.1978 50.4448 83.3706Z" fill="#FCF4EF"/>
<path d="M51.9097 116.366L47.8668 118.709C47.7222 118.803 47.6019 118.93 47.5157 119.079C47.4294 119.229 47.3797 119.397 47.3706 119.569V120.578C47.3706 120.893 47.5911 121.022 47.8668 120.865L51.9097 118.524V116.366Z" fill="#FCF4EF"/>
<path d="M47.3735 82.5046V83.5127C47.3735 83.8286 47.5941 83.9576 47.8697 83.7997L51.9126 81.4569V79.3011L47.8697 81.6438C47.7251 81.7379 47.6048 81.8649 47.5186 82.0145C47.4323 82.1641 47.3826 82.332 47.3735 82.5046Z" fill="#FCF4EF"/>
<path d="M49.5577 93.8996L44.9635 96.5609C44.8193 96.6554 44.6993 96.7825 44.6132 96.932C44.527 97.0815 44.477 97.2492 44.4673 97.4216V98.4298C44.4673 98.7456 44.6904 98.8746 44.9635 98.7167L49.5577 96.0581C49.7023 95.9635 49.8226 95.836 49.9088 95.686C49.995 95.5359 50.0447 95.3676 50.0538 95.1947V94.1892C50.0538 93.8575 49.8333 93.7285 49.5577 93.8996Z" fill="#FCF4EF"/>
<path d="M51.9097 105.776L47.8668 108.119C47.7222 108.213 47.6019 108.34 47.5157 108.49C47.4294 108.639 47.3797 108.807 47.3706 108.98V109.988C47.3706 110.304 47.5911 110.433 47.8668 110.275L51.9097 107.932V105.776Z" fill="#FCF4EF"/>
<path d="M47.3735 71.915V72.9205C47.3735 73.239 47.5941 73.368 47.8697 73.2101L51.9126 70.8673V68.7115L47.8697 71.0542C47.7248 71.148 47.6043 71.2749 47.518 71.4246C47.4317 71.5742 47.3822 71.7423 47.3735 71.915Z" fill="#FCF4EF"/>
<path d="M51.9097 132.252L47.8668 134.594C47.7222 134.688 47.6019 134.815 47.5157 134.965C47.4294 135.115 47.3797 135.283 47.3706 135.455V136.463C47.3706 136.779 47.5911 136.908 47.8668 136.75L51.9097 134.408V132.252Z" fill="#FCF4EF"/>
<path d="M42.7686 103.75V104.755C42.7686 105.074 42.9891 105.203 43.2647 105.042L47.8563 102.383C48.0012 102.29 48.1219 102.163 48.2086 102.013C48.2953 101.863 48.3455 101.695 48.3551 101.523V100.515C48.3551 100.199 48.132 100.07 47.8563 100.228L43.2647 102.886C43.1201 102.981 42.9998 103.108 42.9136 103.258C42.8274 103.408 42.7777 103.577 42.7686 103.75Z" fill="#FCF4EF"/>
<path d="M47.3735 93.0942V94.1023C47.3735 94.4182 47.5941 94.5472 47.8697 94.3893L51.9126 92.0492V89.8907L47.8697 92.2334C47.7251 92.3275 47.6048 92.4545 47.5186 92.6041C47.4323 92.7537 47.3826 92.9216 47.3735 93.0942Z" fill="#FCF4EF"/>
<path d="M46.9796 110.22V109.214C46.9796 108.896 46.7565 108.767 46.4834 108.927L41.8892 111.586C41.7451 111.68 41.6251 111.807 41.5389 111.957C41.4528 112.106 41.4028 112.274 41.3931 112.447V113.455C41.3931 113.771 41.6162 113.9 41.8892 113.742L46.4834 111.083C46.6278 110.988 46.7479 110.861 46.834 110.711C46.9202 110.561 46.9701 110.392 46.9796 110.22Z" fill="#FCF4EF"/>
<path d="M44.9635 135.768L49.5577 133.11C49.7023 133.015 49.8226 132.888 49.9088 132.738C49.995 132.588 50.0447 132.419 50.0538 132.246V131.241C50.0538 130.922 49.8333 130.793 49.5577 130.954L44.9635 133.613C44.8193 133.707 44.6993 133.834 44.6132 133.984C44.527 134.133 44.477 134.301 44.4673 134.473V135.489C44.4673 135.797 44.6904 135.926 44.9635 135.768Z" fill="#FCF4EF"/>
<path d="M47.0035 68.93L42.4093 71.5886C42.2647 71.6826 42.1444 71.8096 42.0581 71.9592C41.9719 72.1088 41.9222 72.2768 41.9131 72.4493V73.4575C41.9131 73.7734 42.1336 73.9023 42.4093 73.7444L47.0035 71.0858C47.1478 70.9909 47.2679 70.8633 47.3541 70.7134C47.4402 70.5634 47.4901 70.3953 47.4996 70.2224V69.2169C47.4996 68.8931 47.2765 68.7694 47.0035 68.93Z" fill="#FCF4EF"/>
<path d="M49.5577 72.7073L44.9635 75.3659C44.8191 75.4608 44.699 75.5884 44.6129 75.7383C44.5267 75.8883 44.4768 76.0565 44.4673 76.2293V77.2348C44.4673 77.5533 44.6904 77.6823 44.9635 77.5217L49.5577 74.8631C49.7022 74.7691 49.8226 74.6421 49.9088 74.4925C49.995 74.3429 50.0447 74.1749 50.0538 74.0024V72.9942C50.0538 72.6783 49.8333 72.5494 49.5577 72.7073Z" fill="#FCF4EF"/>
<path d="M49.5577 83.2969L44.9635 85.9581C44.819 86.0523 44.6988 86.1794 44.6126 86.3289C44.5264 86.4785 44.4766 86.6464 44.4673 86.8189V87.827C44.4673 88.1429 44.6904 88.2719 44.9635 88.1139L49.5577 85.4527C49.7022 85.3587 49.8226 85.2317 49.9088 85.082C49.995 84.9324 50.0447 84.7645 50.0538 84.592V83.5838C50.0538 83.2679 49.8333 83.139 49.5577 83.2969Z" fill="#FCF4EF"/>
<path d="M44.9635 114.589L49.5577 111.928C49.7025 111.834 49.8231 111.707 49.9093 111.558C49.9956 111.408 50.0451 111.24 50.0538 111.067V110.059C50.0538 109.743 49.8333 109.614 49.5577 109.772L44.9635 112.433C44.819 112.528 44.6988 112.655 44.6126 112.804C44.5264 112.954 44.4766 113.122 44.4673 113.294V114.302C44.4673 114.618 44.6904 114.747 44.9635 114.589Z" fill="#FCF4EF"/>
<path d="M51.9097 121.662L47.8668 124.005C47.7219 124.099 47.6014 124.225 47.5151 124.375C47.4288 124.525 47.3793 124.693 47.3706 124.866V125.871C47.3706 126.19 47.5911 126.319 47.8668 126.161L51.9097 123.818V121.662Z" fill="#FCF4EF"/>
<path d="M94.8248 60.9648V61.9703C94.8162 62.1441 94.7668 62.3133 94.6806 62.4643C94.5944 62.6153 94.4737 62.7437 94.3286 62.8389L93.3599 63.3996V61.2385L94.3286 60.6779C94.6016 60.5199 94.8248 60.6463 94.8248 60.9648Z" fill="#FCF4EF"/>
<path d="M93.3599 95.6633L97.4054 93.3232C97.6679 93.1626 97.9016 93.2916 97.9016 93.6101V94.6156C97.892 94.7884 97.8422 94.9566 97.756 95.1065C97.6698 95.2565 97.5497 95.3841 97.4054 95.479L93.3599 97.8191V95.6633Z" fill="#FCF4EF"/>
<path d="M97.9016 56.5452V57.5507C97.892 57.7235 97.8422 57.8917 97.756 58.0416C97.6698 58.1916 97.5497 58.3192 97.4054 58.4141L93.3599 60.7542V58.5984L97.4054 56.2583C97.6784 56.0977 97.9016 56.2267 97.9016 56.5452Z" fill="#FCF4EF"/>
<path d="M95.7125 70.4725L100.307 67.8113C100.569 67.6534 100.803 67.7823 100.803 68.0982V69.1064C100.794 69.2789 100.744 69.4467 100.658 69.5963C100.571 69.7459 100.451 69.8729 100.307 69.9671L95.7125 72.6283C95.4368 72.7863 95.2163 72.6573 95.2163 72.3414V71.3333C95.2254 71.1607 95.2751 70.9928 95.3614 70.8432C95.4476 70.6936 95.5679 70.5666 95.7125 70.4725Z" fill="#FCF4EF"/>
<path d="M93.3599 85.0737L97.4054 82.7336C97.6679 82.573 97.9016 82.702 97.9016 83.0205V84.026C97.892 84.1988 97.8422 84.367 97.756 84.5169C97.6698 84.6669 97.5497 84.7945 97.4054 84.8894L93.3599 87.2295V85.0737Z" fill="#FCF4EF"/>
<path d="M97.9016 45.953V46.9611C97.8943 47.1359 97.8455 47.3064 97.7592 47.4584C97.6728 47.6104 97.5515 47.7396 97.4054 47.835L93.3599 50.1778V48.0088L97.4054 45.6661C97.6784 45.5081 97.9016 45.6371 97.9016 45.953Z" fill="#FCF4EF"/>
<path d="M93.3599 111.549L97.4054 109.209C97.6679 109.048 97.9016 109.177 97.9016 109.496V110.501C97.892 110.674 97.8422 110.842 97.756 110.992C97.6698 111.142 97.5497 111.27 97.4054 111.365L93.3599 113.705V111.549Z" fill="#FCF4EF"/>
<path d="M102.504 72.4599V73.468C102.494 73.6404 102.444 73.8081 102.358 73.9576C102.272 74.1071 102.152 74.2342 102.008 74.3288L97.4137 76.9873C97.138 77.1479 96.9175 77.0189 96.9175 76.7004V75.6949C96.9266 75.522 96.9763 75.3537 97.0625 75.2037C97.1487 75.0536 97.269 74.9261 97.4137 74.8315L102.008 72.1729C102.281 72.015 102.504 72.144 102.504 72.4599Z" fill="#FCF4EF"/>
<path d="M97.9016 67.1348V68.1403C97.8922 68.3132 97.8425 68.4814 97.7563 68.6314C97.6701 68.7814 97.5499 68.9089 97.4054 69.0037L93.3599 71.3438V69.188L97.4054 66.8479C97.6784 66.6873 97.9016 66.8163 97.9016 67.1348Z" fill="#FCF4EF"/>
<path d="M98.3032 83.7944V82.7889C98.3125 82.616 98.3623 82.4478 98.4485 82.2978C98.5347 82.1478 98.6549 82.0203 98.7994 81.9255L103.394 79.2669C103.669 79.109 103.89 79.2353 103.89 79.5538V80.562C103.881 80.7345 103.831 80.9025 103.745 81.0521C103.658 81.2017 103.538 81.3287 103.394 81.4227L98.7994 84.0813C98.5132 84.2419 98.3032 84.1129 98.3032 83.7944Z" fill="#FCF4EF"/>
<path d="M100.307 107.024L95.7125 109.693C95.4368 109.851 95.2163 109.722 95.2163 109.406V108.377C95.2254 108.205 95.2751 108.037 95.3614 107.887C95.4476 107.737 95.5679 107.61 95.7125 107.516L100.307 104.858C100.569 104.697 100.803 104.826 100.803 105.145V106.15C100.795 106.325 100.746 106.495 100.66 106.647C100.573 106.799 100.452 106.928 100.307 107.024Z" fill="#FCF4EF"/>
<path d="M95.7125 49.2801L100.307 46.6216C100.569 46.4636 100.803 46.5926 100.803 46.9085V47.9166C100.793 48.089 100.743 48.2567 100.657 48.4062C100.571 48.5557 100.451 48.6829 100.307 48.7774L95.7125 51.436C95.4368 51.5965 95.2163 51.4676 95.2163 51.1491V50.1435C95.2254 49.9706 95.2751 49.8023 95.3613 49.6523C95.4476 49.5023 95.5679 49.3748 95.7125 49.2801Z" fill="#FCF4EF"/>
<path d="M95.7125 59.8697L100.307 57.2112C100.569 57.0532 100.803 57.1822 100.803 57.4981V58.5062C100.793 58.6786 100.743 58.8463 100.657 58.9958C100.571 59.1453 100.451 59.2725 100.307 59.367L95.7125 62.0282C95.4368 62.1861 95.2163 62.0572 95.2163 61.7387V60.7331C95.2254 60.5602 95.2751 60.3919 95.3613 60.2419C95.4476 60.0919 95.5679 59.9644 95.7125 59.8697Z" fill="#FCF4EF"/>
<path d="M100.307 85.8423L95.7125 88.5035C95.4368 88.6615 95.2163 88.5325 95.2163 88.214V87.2084C95.2254 87.0355 95.2751 86.8672 95.3613 86.7172C95.4476 86.5672 95.5679 86.4397 95.7125 86.3451L100.307 83.6865C100.569 83.5285 100.803 83.6575 100.803 83.9734V84.9815C100.793 85.1539 100.743 85.3217 100.657 85.4712C100.571 85.6207 100.451 85.7478 100.307 85.8423Z" fill="#FCF4EF"/>
<path d="M93.3599 100.959L97.4054 98.6166C97.6679 98.4587 97.9016 98.5877 97.9016 98.9036V99.9117C97.8918 100.084 97.8419 100.252 97.7557 100.401C97.6695 100.551 97.5495 100.678 97.4054 100.772L93.3599 103.113V100.959Z" fill="#FCF4EF"/>
<path d="M56.0054 111.946L89.1466 131.141V50.8253L56.0054 70.0224V111.946Z" fill="#EFBFA5"/>
<path opacity="0.4" d="M56.0054 111.946L89.1466 131.141V50.8253L56.0054 70.0224V111.946Z" fill="black"/>
<path d="M89.1466 131.141L56.0054 111.946V150.32L89.1466 131.141Z" fill="#FCF4EF"/>
<path d="M89.1465 132.746L90.6954 133.638V51.5327L89.1465 52.4303V132.746Z" fill="#EFBFA5"/>
<path opacity="0.4" d="M89.1465 132.746L90.6954 133.638V51.5327L89.1465 52.4303V132.746Z" fill="white"/>
<path opacity="0.1" d="M89.1465 132.746L90.6954 133.638V51.5327L89.1465 52.4303V132.746Z" fill="black"/>
<path d="M90.6953 133.638L93.36 132.096V45.8997L53.4351 69.011L53.4377 155.207L56.0052 153.72V71.6274L90.6953 51.5327V133.638Z" fill="#EFBFA5"/>
<path opacity="0.7" d="M90.6953 133.638L93.36 132.096V45.8997L53.4351 69.011L53.4377 155.207L56.0052 153.72V71.6274L90.6953 51.5327V133.638Z" fill="white"/>
<path d="M93.3599 45.8997L53.4349 69.011L51.9097 68.1213L91.8346 45.0126L93.3599 45.8997Z" fill="#EFBFA5"/>
<path opacity="0.85" d="M93.3599 45.8997L53.4349 69.011L51.9097 68.1213L91.8346 45.0126L93.3599 45.8997Z" fill="white"/>
<path d="M53.4351 155.207V69.011L51.9099 68.1213L51.8862 154.309L53.4351 155.207Z" fill="#EFBFA5"/>
<path opacity="0.6" d="M51.9099 68.1213L51.8862 154.309L53.4351 155.207V69.011" fill="white"/>
<path d="M125.299 41.0117C125.593 40.986 125.889 41.0028 126.178 41.0617C126.457 41.1152 126.724 41.2187 126.966 41.367C127.195 41.5075 127.391 41.6961 127.541 41.9198C127.676 42.1381 127.764 42.3822 127.799 42.6365C127.834 42.8908 127.816 43.1497 127.746 43.3965C127.685 43.5841 127.596 43.7615 127.483 43.923C127.374 44.0816 127.251 44.2305 127.116 44.3678L126.732 44.7521C126.616 44.8679 126.511 44.9939 126.417 45.1286C126.334 45.2479 126.284 45.3883 126.275 45.5339C126.268 45.6013 126.244 45.6656 126.205 45.7208C126.186 45.7472 126.162 45.7691 126.134 45.7846C126.105 45.8001 126.074 45.8089 126.042 45.8103L125.32 45.8709C125.286 45.8739 125.251 45.8701 125.218 45.8597C125.185 45.8493 125.155 45.8325 125.128 45.8103C125.101 45.7902 125.079 45.7639 125.064 45.7338C125.049 45.7036 125.041 45.6703 125.042 45.6366C125.03 45.4099 125.065 45.1833 125.144 44.9706C125.218 44.7831 125.316 44.6061 125.435 44.4442C125.55 44.2878 125.679 44.1416 125.819 44.0072C125.958 43.873 126.081 43.744 126.202 43.6255C126.31 43.5161 126.406 43.3952 126.488 43.2649C126.56 43.1532 126.592 43.0207 126.58 42.8885C126.572 42.7722 126.535 42.6597 126.474 42.5607C126.413 42.4616 126.328 42.379 126.228 42.3199C125.978 42.175 125.688 42.1167 125.401 42.1541C125.145 42.1716 124.9 42.2682 124.7 42.4308C124.5 42.5934 124.355 42.8139 124.286 43.0622C124.265 43.1217 124.236 43.1776 124.199 43.2281C124.151 43.2704 124.089 43.2938 124.026 43.2939L123.259 43.357C123.232 43.3604 123.204 43.3582 123.178 43.3505C123.152 43.3428 123.128 43.3298 123.107 43.3123C123.085 43.295 123.067 43.2731 123.054 43.2481C123.041 43.2231 123.034 43.1956 123.033 43.1675C123.024 42.9264 123.075 42.6868 123.18 42.47C123.289 42.216 123.442 41.9834 123.632 41.7829C123.845 41.5693 124.092 41.3915 124.362 41.2565C124.655 41.1131 124.973 41.0299 125.299 41.0117ZM126.128 46.3789C126.196 46.3749 126.263 46.3976 126.315 46.4421C126.341 46.463 126.363 46.4893 126.378 46.5193C126.394 46.5492 126.402 46.5821 126.404 46.6158L126.475 47.4528C126.48 47.5206 126.458 47.5876 126.415 47.6397C126.393 47.6661 126.366 47.6877 126.336 47.7031C126.306 47.7185 126.273 47.7274 126.239 47.7292L125.425 47.7977C125.391 47.801 125.357 47.7974 125.325 47.787C125.293 47.7765 125.264 47.7596 125.238 47.7371C125.212 47.716 125.19 47.6897 125.175 47.6598C125.159 47.6299 125.149 47.5971 125.147 47.5634L125.078 46.7263C125.074 46.6927 125.078 46.6585 125.088 46.6262C125.098 46.594 125.116 46.5644 125.139 46.5394C125.159 46.5127 125.186 46.4906 125.215 46.4747C125.245 46.4589 125.278 46.4495 125.312 46.4473L126.128 46.3789Z" fill="#EFBFA5"/>
<path d="M131.179 50.0904C131.403 50.1526 131.616 50.2475 131.812 50.372C132.001 50.4869 132.167 50.635 132.303 50.809C132.43 50.9776 132.519 51.1714 132.565 51.3775C132.615 51.598 132.606 51.8277 132.539 52.0435C132.496 52.2165 132.417 52.3787 132.308 52.5199C132.212 52.6419 132.099 52.7492 131.972 52.8384C131.847 52.9241 131.716 52.999 131.578 53.0622L131.19 53.2412C131.073 53.2937 130.961 53.3572 130.856 53.4307C130.761 53.4955 130.686 53.587 130.641 53.6939C130.617 53.7419 130.581 53.7828 130.536 53.8124C130.515 53.8267 130.491 53.8361 130.466 53.8397C130.441 53.8434 130.416 53.8412 130.392 53.8334L129.843 53.6781C129.817 53.6717 129.792 53.6597 129.771 53.6429C129.75 53.6261 129.732 53.6049 129.72 53.5807C129.706 53.5587 129.697 53.5336 129.694 53.5076C129.691 53.4815 129.695 53.4552 129.704 53.4307C129.759 53.2609 129.849 53.1041 129.966 52.9701C130.073 52.851 130.194 52.7458 130.326 52.6568C130.454 52.5731 130.59 52.5009 130.73 52.441C130.87 52.3804 130.993 52.3225 131.116 52.2646C131.226 52.2148 131.33 52.153 131.426 52.0804C131.511 52.0146 131.571 51.9218 131.597 51.8171C131.625 51.7278 131.63 51.6328 131.612 51.5408C131.595 51.4489 131.554 51.3629 131.494 51.2907C131.351 51.1153 131.153 50.9923 130.933 50.9406C130.738 50.8822 130.531 50.8855 130.339 50.9501C130.146 51.0146 129.979 51.1373 129.859 51.3012C129.829 51.3395 129.792 51.3724 129.751 51.3986C129.705 51.4162 129.653 51.4162 129.607 51.3986L129.024 51.2328C129.003 51.2277 128.984 51.2186 128.967 51.206C128.95 51.1933 128.935 51.1774 128.924 51.1591C128.913 51.1399 128.905 51.1185 128.903 51.0963C128.9 51.074 128.902 51.0515 128.909 51.0301C128.968 50.85 129.071 50.6874 129.208 50.5563C129.361 50.4058 129.538 50.2829 129.733 50.193C129.949 50.0951 130.179 50.032 130.415 50.0061C130.673 49.9842 130.933 50.0128 131.179 50.0904ZM130.316 54.273C130.341 54.2799 130.365 54.2919 130.386 54.3081C130.406 54.3244 130.424 54.3447 130.436 54.3678C130.45 54.3911 130.458 54.4169 130.461 54.4436C130.465 54.4702 130.462 54.4973 130.455 54.5231L130.276 55.1575C130.269 55.183 130.257 55.2068 130.241 55.2276C130.225 55.2484 130.205 55.2657 130.182 55.2786C130.158 55.2918 130.133 55.3002 130.106 55.3033C130.08 55.3065 130.053 55.3043 130.027 55.297L129.407 55.1232C129.382 55.1162 129.358 55.1038 129.338 55.0871C129.318 55.0703 129.301 55.0494 129.289 55.0259C129.275 55.0032 129.267 54.9779 129.263 54.9517C129.259 54.9254 129.261 54.8987 129.268 54.8732L129.447 54.2362C129.454 54.2106 129.467 54.1867 129.483 54.1659C129.5 54.1452 129.52 54.1279 129.544 54.1151C129.567 54.1018 129.592 54.0933 129.618 54.0902C129.644 54.087 129.671 54.0892 129.696 54.0967L130.316 54.273Z" fill="#EFBFA5"/>
<g opacity="0.2">
<path d="M131.179 50.0904C131.403 50.1526 131.616 50.2475 131.812 50.372C132.001 50.4869 132.167 50.635 132.303 50.809C132.43 50.9776 132.519 51.1714 132.565 51.3775C132.615 51.598 132.606 51.8277 132.539 52.0435C132.496 52.2165 132.417 52.3787 132.308 52.5199C132.212 52.6419 132.099 52.7492 131.972 52.8384C131.847 52.9241 131.716 52.999 131.578 53.0622L131.19 53.2412C131.073 53.2937 130.961 53.3572 130.856 53.4307C130.761 53.4955 130.686 53.587 130.641 53.6939C130.617 53.7419 130.581 53.7828 130.536 53.8124C130.515 53.8267 130.491 53.8361 130.466 53.8397C130.441 53.8434 130.416 53.8412 130.392 53.8334L129.843 53.6781C129.817 53.6717 129.792 53.6597 129.771 53.6429C129.75 53.6261 129.732 53.6049 129.72 53.5807C129.706 53.5587 129.697 53.5336 129.694 53.5076C129.691 53.4815 129.695 53.4552 129.704 53.4307C129.759 53.2609 129.849 53.1041 129.966 52.9701C130.073 52.851 130.194 52.7458 130.326 52.6568C130.454 52.5731 130.59 52.5009 130.73 52.441C130.87 52.3804 130.993 52.3225 131.116 52.2646C131.226 52.2148 131.33 52.153 131.426 52.0804C131.511 52.0146 131.571 51.9218 131.597 51.8171C131.625 51.7278 131.63 51.6328 131.612 51.5408C131.595 51.4489 131.554 51.3629 131.494 51.2907C131.351 51.1153 131.153 50.9923 130.933 50.9406C130.738 50.8822 130.531 50.8855 130.339 50.9501C130.146 51.0146 129.979 51.1373 129.859 51.3012C129.829 51.3395 129.792 51.3724 129.751 51.3986C129.705 51.4162 129.653 51.4162 129.607 51.3986L129.024 51.2328C129.003 51.2277 128.984 51.2186 128.967 51.206C128.95 51.1933 128.935 51.1774 128.924 51.1591C128.913 51.1399 128.905 51.1185 128.903 51.0963C128.9 51.074 128.902 51.0515 128.909 51.0301C128.968 50.85 129.071 50.6874 129.208 50.5563C129.361 50.4058 129.538 50.2829 129.733 50.193C129.949 50.0951 130.179 50.032 130.415 50.0061C130.673 49.9842 130.933 50.0128 131.179 50.0904ZM130.316 54.273C130.341 54.2799 130.365 54.2919 130.386 54.3081C130.406 54.3244 130.424 54.3447 130.436 54.3678C130.45 54.3911 130.458 54.4169 130.461 54.4436C130.465 54.4702 130.462 54.4973 130.455 54.5231L130.276 55.1575C130.269 55.183 130.257 55.2068 130.241 55.2276C130.225 55.2484 130.205 55.2657 130.182 55.2786C130.158 55.2918 130.133 55.3002 130.106 55.3033C130.08 55.3065 130.053 55.3043 130.027 55.297L129.407 55.1232C129.382 55.1162 129.358 55.1038 129.338 55.0871C129.318 55.0703 129.301 55.0494 129.289 55.0259C129.275 55.0032 129.267 54.9779 129.263 54.9517C129.259 54.9254 129.261 54.8987 129.268 54.8732L129.447 54.2362C129.454 54.2106 129.467 54.1867 129.483 54.1659C129.5 54.1452 129.52 54.1279 129.544 54.1151C129.567 54.1018 129.592 54.0933 129.618 54.0902C129.644 54.087 129.671 54.0892 129.696 54.0967L130.316 54.273Z" fill="black"/>
</g>
<path d="M134.022 47.0922C134.044 47.1062 134.063 47.1247 134.078 47.1465C134.092 47.1682 134.102 47.1928 134.106 47.2186C134.112 47.2438 134.112 47.2699 134.107 47.2952C134.102 47.3205 134.092 47.3446 134.078 47.366L133.718 47.8924C133.704 47.9145 133.685 47.9334 133.664 47.948C133.642 47.9625 133.618 47.9722 133.592 47.9767C133.567 47.9818 133.541 47.9819 133.515 47.977C133.49 47.972 133.466 47.962 133.445 47.9477L132.92 47.595C132.898 47.5808 132.88 47.5623 132.866 47.5405C132.852 47.5187 132.842 47.4942 132.838 47.4686C132.833 47.4434 132.833 47.4173 132.838 47.392C132.843 47.3667 132.853 47.3427 132.867 47.3212L133.227 46.7948C133.256 46.7549 133.3 46.7275 133.348 46.7177C133.397 46.708 133.447 46.7167 133.489 46.7421L134.022 47.0922ZM136.096 43.4887C136.283 43.6154 136.451 43.7678 136.595 43.9414C136.734 44.1058 136.843 44.294 136.915 44.4968C136.986 44.6912 137.013 44.8988 136.994 45.1049C136.973 45.3247 136.895 45.5351 136.768 45.7155C136.674 45.8612 136.553 45.9872 136.411 46.0867C136.284 46.1689 136.147 46.2327 136.002 46.2762C135.86 46.318 135.715 46.3471 135.569 46.3631L135.157 46.4078C135.032 46.4215 134.909 46.4471 134.789 46.4842C134.682 46.5145 134.586 46.5737 134.511 46.6553C134.476 46.6941 134.43 46.7216 134.379 46.7342C134.355 46.7411 134.33 46.7422 134.305 46.7377C134.281 46.7331 134.258 46.7229 134.238 46.7079L133.778 46.3973C133.757 46.383 133.738 46.3644 133.723 46.3427C133.709 46.321 133.699 46.2966 133.694 46.271C133.687 46.2457 133.687 46.219 133.692 46.1934C133.697 46.1677 133.709 46.1438 133.726 46.1235C133.829 45.9849 133.957 45.867 134.104 45.7761C134.238 45.6993 134.382 45.64 134.532 45.5997C134.675 45.5609 134.822 45.5345 134.97 45.5208C135.117 45.5208 135.254 45.4944 135.382 45.4786C135.498 45.4651 135.613 45.4396 135.724 45.4023C135.82 45.3684 135.902 45.3048 135.96 45.2207C136.01 45.1472 136.042 45.0626 136.053 44.9741C136.063 44.8856 136.052 44.7959 136.02 44.7127C135.942 44.5056 135.797 44.3306 135.608 44.2152C135.446 44.102 135.254 44.0414 135.057 44.0414C134.86 44.0414 134.667 44.102 134.505 44.2152C134.466 44.2418 134.423 44.2614 134.377 44.2731C134.328 44.2759 134.279 44.261 134.24 44.2309L133.752 43.9072C133.734 43.8962 133.719 43.8816 133.707 43.8644C133.696 43.8472 133.688 43.8277 133.684 43.8072C133.679 43.7859 133.678 43.7637 133.683 43.7423C133.687 43.7208 133.697 43.7007 133.71 43.6834C133.82 43.5361 133.964 43.4178 134.13 43.3386C134.318 43.2443 134.522 43.1854 134.731 43.1649C134.961 43.1396 135.193 43.152 135.419 43.2017C135.661 43.2533 135.891 43.3507 136.096 43.4887Z" fill="#EFBFA5"/>
<g opacity="0.6">
<path d="M134.022 47.0922C134.044 47.1062 134.063 47.1247 134.078 47.1465C134.092 47.1682 134.102 47.1928 134.106 47.2186C134.112 47.2438 134.112 47.2699 134.107 47.2952C134.102 47.3205 134.092 47.3446 134.078 47.366L133.718 47.8924C133.704 47.9145 133.685 47.9334 133.664 47.948C133.642 47.9625 133.618 47.9722 133.592 47.9767C133.567 47.9818 133.541 47.9819 133.515 47.977C133.49 47.972 133.466 47.962 133.445 47.9477L132.92 47.595C132.898 47.5808 132.88 47.5623 132.866 47.5405C132.852 47.5187 132.842 47.4942 132.838 47.4686C132.833 47.4434 132.833 47.4173 132.838 47.392C132.843 47.3667 132.853 47.3427 132.867 47.3212L133.227 46.7948C133.256 46.7549 133.3 46.7275 133.348 46.7177C133.397 46.708 133.447 46.7167 133.489 46.7421L134.022 47.0922ZM136.096 43.4887C136.283 43.6154 136.451 43.7678 136.595 43.9414C136.734 44.1058 136.843 44.294 136.915 44.4968C136.986 44.6912 137.013 44.8988 136.994 45.1049C136.973 45.3247 136.895 45.5351 136.768 45.7155C136.674 45.8612 136.553 45.9872 136.411 46.0867C136.284 46.1689 136.147 46.2327 136.002 46.2762C135.86 46.318 135.715 46.3471 135.569 46.3631L135.157 46.4078C135.032 46.4215 134.909 46.4471 134.789 46.4842C134.682 46.5145 134.586 46.5737 134.511 46.6553C134.476 46.6941 134.43 46.7216 134.379 46.7342C134.355 46.7411 134.33 46.7422 134.305 46.7377C134.281 46.7331 134.258 46.7229 134.238 46.7079L133.778 46.3973C133.757 46.383 133.738 46.3644 133.723 46.3427C133.709 46.321 133.699 46.2966 133.694 46.271C133.687 46.2457 133.687 46.219 133.692 46.1934C133.697 46.1677 133.709 46.1438 133.726 46.1235C133.829 45.9849 133.957 45.867 134.104 45.7761C134.238 45.6993 134.382 45.64 134.532 45.5997C134.675 45.5609 134.822 45.5345 134.97 45.5208C135.117 45.5208 135.254 45.4944 135.382 45.4786C135.498 45.4651 135.613 45.4396 135.724 45.4023C135.82 45.3684 135.902 45.3048 135.96 45.2207C136.01 45.1472 136.042 45.0626 136.053 44.9741C136.063 44.8856 136.052 44.7959 136.02 44.7127C135.942 44.5056 135.797 44.3306 135.608 44.2152C135.446 44.102 135.254 44.0414 135.057 44.0414C134.86 44.0414 134.667 44.102 134.505 44.2152C134.466 44.2418 134.423 44.2614 134.377 44.2731C134.328 44.2759 134.279 44.261 134.24 44.2309L133.752 43.9072C133.734 43.8962 133.719 43.8816 133.707 43.8644C133.696 43.8472 133.688 43.8277 133.684 43.8072C133.679 43.7859 133.678 43.7637 133.683 43.7423C133.687 43.7208 133.697 43.7007 133.71 43.6834C133.82 43.5361 133.964 43.4178 134.13 43.3386C134.318 43.2443 134.522 43.1854 134.731 43.1649C134.961 43.1396 135.193 43.152 135.419 43.2017C135.661 43.2533 135.891 43.3507 136.096 43.4887Z" fill="white"/>
</g>
<path d="M107.711 145.523C107.637 146.327 108.159 148.422 108.159 148.422C108.159 148.422 108.604 149.097 109.871 149.408L109.959 146.368L107.711 145.523Z" fill="#263238"/>
<path d="M109.871 149.391L112.371 148.125L112.648 145.689L109.922 147.638L109.871 149.391Z" fill="black"/>
<path d="M111.772 142.013L111.721 141.503C112.105 141.624 113.113 144.472 114.477 146.29C115.724 147.949 117.8 148.655 118.544 149.351C119.538 150.273 118.123 151.878 115.431 151.716C114.083 151.635 112.011 151.108 111.347 150.314C110.683 149.52 110.255 147.949 109.723 147.361C109.191 146.773 108.038 146.202 107.718 145.503C107.536 145.118 107.604 144.226 107.718 143.476C107.819 142.776 107.93 142.009 108.17 142.047C108.17 142.131 108.227 142.476 108.227 142.476C108.308 142.814 108.756 143.172 110.154 143.02C110.774 142.945 111.883 142.705 111.772 142.013Z" fill="#455A64"/>
<path d="M84.1954 129.948C83.7675 130.54 83.0127 134.678 83.0127 134.678C83.0127 134.678 84 136.124 84.5694 136.563L86.399 132.671L84.1954 129.948Z" fill="#263238"/>
<path d="M84.5693 136.546L87.9254 135.773L89.1721 133.181L85.6779 134.158L84.5693 136.546Z" fill="black"/>
<path d="M86.6956 127.323C86.5035 127.178 86.2272 127.556 85.5567 128.158C85.085 128.58 84.0674 128.979 84.0674 130.185C84.0674 131.053 84.6436 132.124 85.1962 133.023C85.7488 133.921 85.8296 134.729 85.8263 136.006C85.8263 137.55 85.5432 138.496 87.4369 139.871C88.9532 140.969 92.0329 141.172 92.7102 140.547C93.8693 139.459 91.1636 137.965 90.7222 135.739C90.1156 132.668 90.0483 132.154 90.1325 129.996L86.6956 127.323Z" fill="#455A64"/>
<path d="M116.327 89.5752C114.851 90.3759 110.37 90.5887 104.082 89.2373L104.827 107.481C104.827 107.481 99.3178 111.4 97.6229 113.539C95.9281 115.677 87.7772 126.066 87.7772 126.066L86.6518 127.374C85.9543 128.185 86.3149 129.279 87.1236 129.979C87.9019 130.621 88.9161 131.073 89.6743 130.411L90.6043 129.6C90.6043 129.6 108.82 115.522 109.473 114.623C110.127 113.725 111.66 111.495 113.315 106.789C115.451 100.751 115.808 96.3795 116.327 89.5752Z" fill="#FFA8A7"/>
<path d="M116.324 89.5752C112.344 91.4064 104.345 90.7814 104.345 90.7814L104.712 107.454C102.701 108.681 100.818 110.109 99.0921 111.715C96.7064 114.019 93.0674 118.809 93.0674 118.809C94.3141 122.326 97.8656 123.968 97.8656 123.968C97.8656 123.968 105.336 118.722 109.514 115.752C111.701 114.201 113.345 113.336 114.002 110.812C114.519 108.88 114.917 106.918 115.195 104.937C115.552 102.758 115.724 100.278 115.933 98.4438C116.289 95.5019 116.419 92.5371 116.324 89.5752Z" fill="#EFBFA5"/>
<path opacity="0.4" d="M116.324 89.5752C112.344 91.4064 104.345 90.7814 104.345 90.7814L104.712 107.454C102.701 108.681 100.818 110.109 99.0921 111.715C96.7064 114.019 93.0674 118.809 93.0674 118.809C94.3141 122.326 97.8656 123.968 97.8656 123.968C97.8656 123.968 105.336 118.722 109.514 115.752C111.701 114.201 113.345 113.336 114.002 110.812C114.519 108.88 114.917 106.918 115.195 104.937C115.552 102.758 115.724 100.278 115.933 98.4438C116.289 95.5019 116.419 92.5371 116.324 89.5752Z" fill="black"/>
<path opacity="0.1" d="M109.679 111.208L109.045 101.991L106.687 99.7917L104.665 105.214L104.715 107.454C103.411 108.254 102.156 109.133 100.958 110.086L101.295 110.9L103.213 115.546C103.213 115.546 102.539 118.715 102.822 120.465C105.029 118.911 107.539 117.137 109.423 115.802L109.679 111.208Z" fill="black"/>
<path d="M111.899 142.415V142.037C111.61 138.628 112.078 119.884 112.058 114.826C112.034 109.35 111.047 96.0822 111.047 96.0822C111.047 96.0822 114.275 91.8557 116.354 89.5753C114.389 91.8287 104.483 90.6868 103.887 86.3488C103.075 88.0583 100.18 89.8219 99.9409 95.4403C99.604 102.599 104.658 115.259 104.658 115.259C104.466 116.215 103.6 120.222 104.109 123.921C104.911 129.759 107.789 140.08 108.092 141.489L108.277 142.689C108.907 143.472 111.444 143.354 111.899 142.415Z" fill="#FFA8A7"/>
<path d="M112.129 104.809L111.839 97.3323C111.839 97.3323 114.841 96.5485 116.057 94.018C116.284 92.5487 116.375 91.0613 116.327 89.5753C116.327 89.5753 113.702 90.7949 110.012 89.8928C107.686 89.2698 105.563 88.0481 103.853 86.3488C103.853 86.3488 103.145 87.0481 101.693 89.2205C100.999 90.2577 99.8265 92.9369 99.7254 95.0282C99.4929 99.802 101.013 104.897 101.013 104.897C101.788 108.633 104.139 115.434 104.139 115.434C104.139 115.434 103.243 120.387 103.695 123.938C104.146 127.489 105.578 131.502 105.578 131.502C105.578 131.502 109.571 132.854 112.196 131.286C112.196 131.286 112.321 118.938 112.368 114.12C112.415 109.302 112.129 104.809 112.129 104.809Z" fill="#EFBFA5"/>
<path opacity="0.3" d="M112.129 104.809L111.839 97.3323C111.839 97.3323 114.841 96.5485 116.057 94.018C116.284 92.5487 116.375 91.0613 116.327 89.5753C116.327 89.5753 113.702 90.7949 110.012 89.8928C107.686 89.2698 105.563 88.0481 103.853 86.3488C103.853 86.3488 103.145 87.0481 101.693 89.2205C100.999 90.2577 99.8265 92.9369 99.7254 95.0282C99.4929 99.802 101.013 104.897 101.013 104.897C101.788 108.633 104.139 115.434 104.139 115.434C104.139 115.434 103.243 120.387 103.695 123.938C104.146 127.489 105.578 131.502 105.578 131.502C105.578 131.502 109.571 132.854 112.196 131.286C112.196 131.286 112.321 118.938 112.368 114.12C112.415 109.302 112.129 104.809 112.129 104.809Z" fill="black"/>
<path d="M125.66 73.4765C126.116 72.9587 126.382 72.301 126.415 71.6115C126.448 70.9219 126.246 70.2416 125.842 69.6824C124.458 67.5101 121.189 68.3547 121.189 68.3547L120.316 66.9459C120.646 66.8581 120.99 66.8375 121.327 66.8851C121.94 66.9085 122.551 66.8215 123.133 66.6283C123.758 66.4553 124.301 66.0663 124.666 65.5303C124.84 65.2587 124.919 64.9368 124.889 64.6156C124.86 64.2943 124.725 63.992 124.505 63.7566C124.829 63.7588 125.15 63.6919 125.446 63.5603C125.742 63.4287 126.007 63.2353 126.223 62.9931C126.439 62.7509 126.602 62.4653 126.699 62.1554C126.797 61.8455 126.827 61.5184 126.789 61.1957C126.777 60.9982 126.704 60.8095 126.58 60.6551C126.406 60.5001 126.195 60.3921 125.967 60.3409C125.352 60.1247 124.79 59.7791 124.319 59.3274C123.386 58.4321 122.992 57.3813 121.701 56.5401C120.609 55.8195 119.329 55.4387 118.022 55.4455C116.543 55.4455 115.208 55.8712 114.207 57.0975C112.556 57.0975 110.407 58.0807 108.938 62.1653C107.492 66.1857 108.018 70.8818 110.75 75.0813C112.553 77.8516 119.74 82.4532 124.879 80.6389C130.017 78.8247 127.857 73.6049 125.66 73.4765Z" fill="#263238"/>
<path d="M117.088 72.3887C121.078 73.132 121.307 75.1287 121.509 76.8754C122.031 81.4262 121.132 88.9433 120.818 90.5988C120.818 90.5988 115.454 88.9569 115.515 88.69C115.575 88.4231 117.088 72.3887 117.088 72.3887Z" fill="#FFA8A7"/>
<path d="M117.152 87.9602C117.152 87.9602 118.958 87.5379 120.323 87.9602C120.323 87.9602 119.201 86.7912 116.637 87.5514L117.152 87.9602Z" fill="#F28F8F"/>
<path d="M116.694 89.2507C117.272 87.7957 117.723 86.2935 118.042 84.7607C120.708 83.3857 121.29 81.3349 120.738 79.4125C119.592 75.4563 118.477 73.5306 117.453 72.3887C116.657 71.8244 113.827 71.0373 113.827 71.0373C113.322 70.9562 108.742 70.3784 107.344 70.2636C106.588 70.8501 106.013 71.6397 105.686 72.5407C105.417 73.3786 104.945 74.0914 104.945 76.9564L105.477 82.0782C105.477 82.0782 105.619 83.612 105.083 84.5039C104.547 85.3959 102.364 87.0277 101.356 89.2338C101.356 89.2338 101.478 92.5921 107.637 93.9941C112.648 95.1361 116.364 93.3184 116.364 93.3184C116.584 91.9737 116.694 90.6134 116.694 89.2507Z" fill="#D2ECFF"/>
<path d="M120.879 81.2979C120.712 81.0858 120.471 80.9456 120.205 80.906C119.626 80.835 119.076 81.1391 118.541 81.3789C117.55 81.8215 116.411 82.0546 115.377 81.7337C114.258 81.3722 113.355 80.3823 112.192 80.2809C111.084 80.1931 110.093 80.9566 109.278 81.7033C108.072 82.8283 106.953 84.0682 105.571 84.977C104.979 85.3581 104.364 85.7044 103.732 86.0142L103.462 86.298L103.408 86.3555C103.203 86.5751 102.99 86.8082 102.785 87.0514L102.707 87.146L102.485 87.4163L102.377 87.5548L102.192 87.8015L102.081 87.9569L101.909 88.2136L101.808 88.3724C101.747 88.467 101.693 88.5616 101.636 88.6596L101.555 88.8015C101.477 88.9468 101.4 89.0954 101.333 89.2475C101.354 89.4789 101.407 89.7063 101.491 89.9232C101.624 90.2737 101.801 90.6054 102.02 90.9097C102.111 91.0347 102.209 91.1597 102.32 91.2881C103.166 92.2577 104.726 93.3456 107.61 93.9909C108.751 94.2521 109.92 94.378 111.091 94.3659C111.485 94.3659 111.862 94.3422 112.223 94.3085C112.583 94.2747 112.924 94.2341 113.234 94.1834C113.658 94.1159 114.049 94.0348 114.399 93.9503C115.063 93.7988 115.71 93.5815 116.33 93.3017C116.484 92.385 116.583 91.4599 116.627 90.5313C116.627 90.332 116.647 90.1259 116.654 89.9097C116.66 89.6934 116.654 89.4671 116.654 89.234C116.991 88.2778 117.301 87.4096 117.53 86.6528C117.587 86.4636 117.641 86.2811 117.688 86.1055C117.818 85.6614 117.923 85.2102 118.001 84.7541C119.841 83.8317 120.69 82.5952 120.879 81.2979Z" fill="#C4E1F7"/>
<path d="M122.631 60.912C122.924 61.5708 123.383 62.6249 122.345 66.7601C121.465 70.2636 120.131 70.8751 119.501 70.9934C118.871 71.1116 117.816 70.713 117.061 70.4224L115.828 72.6184C115.939 73.5644 116.263 75.4699 115.639 76.6726C113.827 75.2875 111.973 73.6117 110.703 70.99L112.691 66.6284C112.691 66.6284 111.539 67.1824 110.922 65.8581C110.353 64.6384 110.565 63.6215 111.411 63.0776C111.608 62.951 111.834 62.8765 112.068 62.8608C112.301 62.8451 112.535 62.8888 112.748 62.9879C112.96 63.0869 113.144 63.2381 113.282 63.4274C113.421 63.6167 113.51 63.838 113.54 64.0708C113.722 65.1148 114.733 65.1925 115.013 63.6418C115.097 63.1688 115.495 60.6011 117.318 60.0302C119.471 62.7499 122.213 62.3681 122.631 60.912Z" fill="#FFA8A7"/>
<path d="M117.921 64.4864C117.901 64.5775 117.855 64.6609 117.788 64.726C117.722 64.7912 117.637 64.8352 117.546 64.8528C117.455 64.8704 117.36 64.8607 117.274 64.8248C117.188 64.789 117.115 64.7287 117.063 64.6514C117.011 64.574 116.982 64.4831 116.981 64.3898C116.981 64.2965 117.007 64.2049 117.057 64.1266C117.108 64.0482 117.18 63.9864 117.265 63.9489C117.351 63.9113 117.445 63.8997 117.537 63.9154C117.599 63.9276 117.659 63.952 117.712 63.9872C117.765 64.0225 117.811 64.068 117.847 64.121C117.882 64.1741 117.907 64.2336 117.92 64.2963C117.933 64.359 117.933 64.4236 117.921 64.4864Z" fill="#263238"/>
<path d="M118.46 68.2028C118.451 68.2628 118.43 68.3204 118.399 68.3723C118.367 68.4242 118.326 68.4694 118.277 68.5052C118.228 68.541 118.173 68.5668 118.114 68.581C118.055 68.5951 117.994 68.5975 117.934 68.5879C117.841 68.5756 117.753 68.5355 117.683 68.4728C117.612 68.4101 117.562 68.3277 117.539 68.2361C117.515 68.1445 117.52 68.0481 117.552 67.9591C117.584 67.8702 117.641 67.7928 117.717 67.7371C117.793 67.6813 117.884 67.6497 117.979 67.6463C118.073 67.6428 118.166 67.6678 118.246 67.7179C118.326 67.768 118.389 67.841 118.427 67.9274C118.465 68.0138 118.477 68.1097 118.46 68.2028Z" fill="#B16668"/>
<path d="M121.924 63.8377L121.172 63.0099C121.222 62.9574 121.283 62.9156 121.349 62.887C121.416 62.8584 121.487 62.8437 121.56 62.8437C121.632 62.8437 121.704 62.8584 121.771 62.887C121.837 62.9156 121.897 62.9574 121.947 63.0099C122.053 63.1231 122.11 63.2736 122.106 63.4287C122.101 63.5837 122.036 63.7307 121.924 63.8377Z" fill="#263238"/>
<path d="M117.766 62.5168L116.738 62.9492C116.706 62.8832 116.688 62.8115 116.685 62.7383C116.683 62.6652 116.695 62.5922 116.721 62.5238C116.747 62.4555 116.787 62.3932 116.838 62.3409C116.889 62.2886 116.95 62.2472 117.018 62.2195C117.157 62.1631 117.312 62.1626 117.451 62.218C117.59 62.2733 117.703 62.3803 117.766 62.5168Z" fill="#263238"/>
<path d="M121.455 65.1451C121.444 65.2068 121.421 65.2657 121.388 65.3185C121.354 65.3713 121.311 65.417 121.26 65.4529C121.208 65.4888 121.151 65.5143 121.09 65.5279C121.029 65.5414 120.966 65.5428 120.904 65.5319C120.843 65.5211 120.784 65.4981 120.731 65.4645C120.679 65.4309 120.633 65.3871 120.597 65.3359C120.561 65.2846 120.536 65.2267 120.523 65.1656C120.509 65.1044 120.508 65.0412 120.518 64.9795C120.54 64.855 120.611 64.7443 120.714 64.6717C120.817 64.5992 120.945 64.5708 121.069 64.5927C121.194 64.6147 121.304 64.6852 121.376 64.7888C121.449 64.8924 121.477 65.0205 121.455 65.1451Z" fill="#263238"/>
<path d="M119.285 64.2095L119.063 67.3481L120.731 66.9933L119.285 64.2095Z" fill="#F28F8F"/>
<path d="M117.062 70.4225C115.967 70.0171 113.504 68.6826 113.355 67.6791C113.397 68.1745 113.588 68.6456 113.901 69.0305C114.461 69.7839 116.654 71.1387 116.654 71.1387L117.062 70.4225Z" fill="#F28F8F"/>
<path d="M118.386 72.0171C118.268 71.6421 117.786 71.605 117.786 71.605C117.823 71.4582 117.827 71.3049 117.797 71.1563C117.767 71.0078 117.705 70.8679 117.614 70.7468C117.45 70.6266 117.251 70.5647 117.048 70.5712C117.169 70.3043 117.011 69.6961 116.681 69.6218C116.367 69.5885 116.05 69.6033 115.741 69.6657C115.419 69.8823 115.14 70.1573 114.918 70.4766L115.427 69.5069C115.876 69.3901 116.318 69.2446 116.748 69.0711C117.253 68.8143 117.23 68.2603 117.034 68.2299C116.592 68.2382 116.152 68.2834 115.717 68.365C115.164 68.4562 114.467 68.4528 114.278 68.7974C114.09 69.142 113.881 69.5542 113.493 70.3448C113.106 71.1354 112.998 71.3752 113.048 71.828C113.099 72.2807 113.092 73.1794 113.23 74.3044C113.368 75.4294 113.146 75.693 112.651 76.3315C112.314 76.7606 110.231 78.8316 108.035 80.8452L108.334 76.47C108.334 76.47 109.049 71.9699 107.347 70.2874C105.056 69.9157 103.944 70.9631 103.435 72.1962C102.542 74.3787 102.805 80.5985 102.977 83.8723C103.149 87.1461 104.433 88.386 105.416 88.6022C106.4 88.8184 109.096 87.6799 110.862 85.3521C112.25 83.754 115.222 78.4903 115.656 77.7572C115.974 77.1908 116.362 76.6673 116.812 76.1997C117.149 75.8619 117.419 74.5105 117.419 73.703C117.493 73.9564 117.756 74.1591 117.968 74.0003C118.012 73.5848 118.419 72.2908 118.386 72.0171Z" fill="#FFA8A7"/>
<path d="M112.641 76.3212C112.817 76.112 112.971 75.8857 113.102 75.6455C113.214 75.3918 113.264 75.115 113.247 74.8381C113.247 74.561 113.2 74.284 113.17 74.0104C113.139 73.7367 113.116 73.4563 113.095 73.1792L113.048 72.3481L113.021 71.9326C113.002 71.7927 112.997 71.6513 113.005 71.5103C113.051 71.2329 113.142 70.9648 113.274 70.7163C113.389 70.4629 113.513 70.2163 113.641 69.9697L114.015 69.223L114.204 68.8514C114.263 68.7158 114.374 68.609 114.511 68.5541C114.775 68.4603 115.05 68.4023 115.329 68.3818C115.606 68.3514 115.875 68.2973 116.152 68.2635C116.428 68.2298 116.701 68.196 116.984 68.1892C117.029 68.187 117.073 68.2015 117.109 68.2297C117.139 68.2585 117.163 68.2945 117.176 68.3345C117.195 68.4088 117.195 68.4865 117.176 68.5608C117.152 68.7072 117.083 68.8421 116.977 68.946C116.754 69.1228 116.495 69.2496 116.219 69.3176C115.953 69.4055 115.687 69.4832 115.42 69.5575L115.451 69.5338L114.949 70.5102L114.871 70.4629C114.992 70.3095 115.122 70.1629 115.259 70.0237C115.326 69.9539 115.397 69.8863 115.471 69.821C115.543 69.7505 115.625 69.6902 115.714 69.642C115.884 69.6087 116.056 69.5873 116.229 69.5778C116.407 69.5559 116.588 69.5743 116.758 69.6318C116.912 69.7335 117.021 69.8909 117.061 70.071C117.119 70.2443 117.119 70.4315 117.061 70.6048L117.024 70.5508C117.155 70.5506 117.284 70.5711 117.408 70.6116C117.474 70.6321 117.535 70.6654 117.587 70.7096C117.634 70.7572 117.675 70.8105 117.708 70.8684C117.831 71.102 117.862 71.373 117.796 71.6285L117.766 71.5846C117.899 71.6001 118.028 71.6438 118.143 71.713C118.261 71.7832 118.349 71.8935 118.392 72.0238C118.387 72.195 118.362 72.3651 118.318 72.5306L118.194 73.0205C118.113 73.3583 118.015 73.6691 117.958 73.9935C117.902 74.0305 117.837 74.0503 117.771 74.0503C117.704 74.0503 117.639 74.0305 117.584 73.9935C117.477 73.9189 117.401 73.8087 117.368 73.6826H117.419C117.411 74.064 117.369 74.4439 117.294 74.8178C117.222 75.193 117.109 75.559 116.957 75.9091C116.873 76.0794 116.759 76.2328 116.62 76.3618C116.492 76.5037 116.367 76.6456 116.253 76.7942C116.022 77.0945 115.81 77.4093 115.619 77.7368C115.806 77.4068 116.013 77.0886 116.239 76.7841C116.354 76.6354 116.475 76.4902 116.603 76.3483C116.743 76.2198 116.857 76.0662 116.94 75.8956C117.084 75.5458 117.188 75.1809 117.25 74.8077C117.321 74.4367 117.361 74.0603 117.368 73.6826V73.5036L117.419 73.6759C117.451 73.7878 117.519 73.8854 117.614 73.9529C117.658 73.9874 117.713 74.0062 117.769 74.0062C117.825 74.0062 117.88 73.9874 117.924 73.9529V73.9732C117.985 73.6353 118.079 73.3178 118.16 72.99L118.278 72.5035C118.321 72.3448 118.344 72.1815 118.349 72.017C118.299 71.9048 118.219 71.8088 118.118 71.7401C118.017 71.6714 117.898 71.6327 117.776 71.6285H117.735V71.588C117.793 71.3501 117.763 71.0993 117.651 70.8819C117.625 70.8291 117.589 70.7821 117.544 70.7437C117.5 70.7054 117.448 70.6766 117.392 70.6589C117.275 70.6223 117.153 70.6041 117.031 70.6048H116.977L116.997 70.5508C117.048 70.3949 117.048 70.2269 116.997 70.071C116.962 69.9118 116.867 69.7725 116.731 69.6825C116.573 69.6333 116.407 69.6183 116.243 69.6386C116.074 69.6498 115.906 69.6712 115.741 69.7028C115.663 69.7514 115.59 69.8068 115.522 69.8683C115.451 69.9325 115.38 70.0001 115.316 70.0677C115.181 70.2062 115.057 70.3514 114.935 70.5035L114.659 70.8413L114.858 70.4494L115.36 69.4697V69.4494H115.38C115.646 69.3751 115.912 69.3007 116.172 69.2129C116.436 69.1538 116.684 69.0386 116.9 68.875C116.99 68.782 117.052 68.6647 117.078 68.5372C117.098 68.4189 117.078 68.25 116.957 68.2635C116.682 68.2694 116.407 68.292 116.135 68.3311C115.862 68.3649 115.589 68.4156 115.313 68.446C115.039 68.4635 114.769 68.518 114.511 68.6081C114.387 68.6575 114.288 68.7533 114.234 68.875L114.046 69.2467L113.668 69.9866C113.544 70.2332 113.416 70.4798 113.298 70.7332C113.168 70.9749 113.08 71.2363 113.035 71.5069C113.02 71.6427 113.02 71.7798 113.035 71.9157L113.058 72.3346L113.099 73.1657C113.116 73.4428 113.136 73.7198 113.163 73.9968C113.19 74.2739 113.227 74.5475 113.23 74.828C113.242 75.107 113.188 75.3849 113.072 75.6388C112.952 75.8803 112.807 76.109 112.641 76.3212Z" fill="#B16668"/>
<path d="M117.061 70.6116C117.088 70.5161 117.098 70.4165 117.088 70.3177C116.812 70.392 116.455 70.4292 116.226 70.5102C116.04 70.5794 115.887 70.7171 115.798 70.8954C115.916 70.7704 116.253 70.6082 117.061 70.6116Z" fill="#B16668"/>
<path d="M116.812 71.848C117.108 71.684 117.445 71.6111 117.782 71.6385C117.799 71.5459 117.81 71.4522 117.813 71.3581C117.024 71.473 116.812 71.848 116.812 71.848Z" fill="#B16668"/>
<path d="M117.375 73.899C117.406 73.5421 117.397 73.1828 117.348 72.828C117.311 72.6151 117.297 72.4901 117.537 72.5273C117.776 72.5645 118.106 72.2705 118.042 72.4699C118.008 72.578 117.584 72.757 117.557 72.9091C117.529 73.2442 117.468 73.5758 117.375 73.899Z" fill="#B16668"/>
<path d="M108.015 80.8349C107.408 81.3383 105.353 82.9127 105.066 84.5174C105.066 84.5174 104.78 83.3147 105.959 81.9768C106.622 81.2165 107.331 80.4977 108.082 79.8247L108.015 80.8349Z" fill="#F28F8F"/>
<path d="M120.819 90.5987C120.613 91.7981 120.233 92.2373 119.013 92.7745C117.025 93.6495 109.063 95.9097 106.711 95.9266C105.375 95.9515 104.044 95.7504 102.775 95.332C102.547 95.2776 102.343 95.1494 102.196 94.9671C102.11 94.8118 101.996 94.6742 101.859 94.5617C101.689 94.4598 101.514 94.3684 101.333 94.2881C101.121 94.1555 100.968 93.9462 100.905 93.7036C100.894 93.5443 100.844 93.3902 100.76 93.2542C100.66 93.1505 100.57 93.0374 100.491 92.9164C100.4 92.7547 100.355 92.5714 100.359 92.386C100.367 92.2929 100.359 92.1993 100.336 92.1089C100.299 92.027 100.247 91.9534 100.181 91.8927C100.111 91.8143 100.046 91.732 99.9852 91.6461C99.9235 91.5761 99.8847 91.4888 99.874 91.3961C99.8861 91.3212 99.9162 91.2505 99.9616 91.19C100.238 90.7541 100.858 90.8521 101.309 90.8994C101.845 90.9602 102.371 91.065 102.907 91.1292C103.652 91.2187 104.405 91.2357 105.154 91.1798V89.7913C105.696 89.9117 106.21 90.1366 106.667 90.4535C107.543 90.994 108.072 91.7238 109.7 91.2913C111.327 90.8589 115.205 88.6493 117.153 87.9669C119.1 87.2844 120.937 89.8892 120.819 90.5987Z" fill="#FFA8A7"/>
<path d="M56.0054 152.393L93.1817 146.607V65.8286L56.0054 71.6275V152.393Z" fill="#455A64"/>
<path d="M92.0502 65.1732L93.1817 65.8286L56.0054 71.6275L57.9717 70.4877L92.0502 65.1732Z" fill="#37474F"/>
<path d="M60.3687 113.449L86.385 109.395V142.227L60.3687 146.278V113.449Z" fill="#455A64"/>
<path opacity="0.1" d="M60.3687 113.449L86.385 109.395V142.227L60.3687 146.278V113.449Z" fill="black"/>
<path d="M62.3218 115.126L84.4343 111.677V140.548L62.3218 143.996V115.126Z" fill="#455A64"/>
<path d="M60.3687 146.278L62.3218 143.996L84.4344 140.548L86.385 142.227L60.3687 146.278Z" fill="#263238"/>
<path d="M60.3687 113.449L62.3218 115.126V143.996L60.3687 146.278V113.449Z" fill="#37474F"/>
<path d="M84.4341 111.677L86.3847 109.395V142.227L84.4341 140.548V111.677Z" fill="#37474F"/>
<path d="M75.1489 73.6912L86.385 71.9381V104.77L75.1515 106.521L75.1489 73.6912Z" fill="#455A64"/>
<path opacity="0.1" d="M75.1489 73.6912L86.385 71.9381V104.77L75.1515 106.521L75.1489 73.6912Z" fill="black"/>
<path d="M77.1021 75.3679L84.4344 74.2229V103.094L77.1021 104.239V75.3679Z" fill="#455A64"/>
<path d="M75.1514 106.521L77.1019 104.239L84.4343 103.094L86.3849 104.77L75.1514 106.521Z" fill="#263238"/>
<path d="M75.1489 73.6912L77.1021 75.3679V104.239L75.1515 106.521L75.1489 73.6912Z" fill="#37474F"/>
<path d="M84.4341 74.2229L86.3847 71.9381V104.77L84.4341 103.094V74.2229Z" fill="#37474F"/>
<path d="M60.3867 75.9839L71.6228 74.2308V107.063L60.3867 108.813V75.9839Z" fill="#455A64"/>
<path opacity="0.1" d="M60.3867 75.9839L71.6228 74.2308V107.063L60.3867 108.813V75.9839Z" fill="black"/>
<path d="M62.3374 77.6606L69.6697 76.513L69.6724 105.386L62.3374 106.531V77.6606Z" fill="#455A64"/>
<path d="M60.3867 108.813L62.3373 106.531L69.6723 105.386L71.6228 107.063L60.3867 108.813Z" fill="#263238"/>
<path d="M60.3867 75.9839L62.3373 77.6606V106.531L60.3867 108.813V75.9839Z" fill="#37474F"/>
<path d="M69.6699 76.513L71.6231 74.2308V107.063L69.6725 105.386L69.6699 76.513Z" fill="#37474F"/>
<path d="M88.1729 103.417L88.6795 103.931V112.364L88.1729 111.854V103.417Z" fill="#FCF4EF"/>
<path d="M88.6797 103.931L91.4126 103.52V111.956L88.6797 112.364V103.931Z" fill="#FAFAFA"/>
<path opacity="0.05" d="M91.4126 105.842L88.6797 106.242V107.892L91.4126 107.495V105.842Z" fill="black"/>
<path d="M91.4124 103.52L90.9057 103.009L88.1729 103.417L88.6795 103.931L91.4124 103.52Z" fill="#EBEBEB"/>
<path d="M89.7271 105.528L90.982 106.792L91.4834 106.134L90.2286 104.873C90.1967 104.84 90.1575 104.815 90.1141 104.8C90.0707 104.786 90.0244 104.782 89.9792 104.789C89.8758 104.813 89.784 104.872 89.7194 104.957C89.6548 105.041 89.6213 105.146 89.6247 105.252C89.622 105.354 89.6587 105.453 89.7271 105.528Z" fill="#FCF4EF"/>
<path opacity="0.1" d="M88.6797 106.258L90.6723 106.479V105.878L91.1579 105.807L90.7011 105.347L88.6797 105.655V106.258Z" fill="black"/>
<path d="M84.5762 106.981V108.298L91.6959 107.229V105.913L84.5762 106.981Z" fill="#FAFAFA"/>
<path d="M84.5762 106.981L84.1221 106.521V107.84L84.5762 108.298V106.981Z" fill="#FCF4EF"/>
<path d="M91.6959 105.913L91.2391 105.452L84.1221 106.521L84.5762 106.981L91.6959 105.913Z" fill="#EBEBEB"/>
<path d="M89.5853 109.192C89.5821 109.054 89.6262 108.919 89.7102 108.809C89.7943 108.7 89.9133 108.622 90.0474 108.59C90.1096 108.584 90.1724 108.592 90.2311 108.613C90.2898 108.635 90.343 108.669 90.387 108.714C90.4309 108.758 90.4645 108.812 90.4852 108.871C90.5059 108.93 90.5133 108.993 90.5068 109.056C90.5063 109.159 90.4807 109.261 90.4322 109.353C90.3838 109.445 90.3139 109.523 90.2285 109.582V110.443C90.2299 110.49 90.2153 110.535 90.1872 110.573C90.159 110.61 90.1189 110.637 90.0736 110.648H90.0185C89.9974 110.65 89.9761 110.648 89.9562 110.64C89.9363 110.633 89.9182 110.622 89.9033 110.606C89.8885 110.591 89.8772 110.573 89.8703 110.553C89.8635 110.533 89.8612 110.511 89.8636 110.49V109.629C89.7782 109.594 89.7057 109.533 89.6559 109.455C89.6062 109.377 89.5815 109.285 89.5853 109.192Z" fill="#455A64"/>
<path d="M52.241 156.445C54.4751 154.134 55.7877 144.721 53.6087 142.886H42.5144C40.3354 144.729 41.6454 154.128 43.8795 156.442L43.9425 156.508L44.0187 156.584C44.0817 156.645 44.1499 156.705 44.2208 156.766C44.2394 156.778 44.257 156.793 44.2733 156.808C44.3284 156.85 44.3836 156.895 44.444 156.937C44.5364 157.005 44.6328 157.068 44.7327 157.124C46.5704 158.201 49.5527 158.201 51.3904 157.124C51.4918 157.068 51.5891 157.004 51.6818 156.934C51.7369 156.898 51.7868 156.855 51.8393 156.816L51.9049 156.763C51.9732 156.705 52.0388 156.647 52.0992 156.587L52.1885 156.5L52.241 156.445Z" fill="#455A64"/>
<path d="M43.4777 142.146C40.9469 143.628 40.9469 146.032 43.4777 147.514C46.0084 148.995 50.1117 148.995 52.6451 147.514C55.1784 146.032 55.1758 143.628 52.6451 142.146C50.1143 140.664 46.0084 140.664 43.4777 142.146Z" fill="#455A64"/>
<g opacity="0.1">
<path d="M43.4777 142.146C40.9469 143.628 40.9469 146.032 43.4777 147.514C46.0084 148.995 50.1117 148.995 52.6451 147.514C55.1784 146.032 55.1758 143.628 52.6451 142.146C50.1143 140.664 46.0084 140.664 43.4777 142.146Z" fill="white"/>
</g>
<path d="M44.6958 142.86C42.8371 143.947 42.8371 145.713 44.6958 146.808C46.5545 147.903 49.5682 147.898 51.4269 146.808C53.2856 145.718 53.2856 143.955 51.4269 142.86C49.5682 141.765 46.5597 141.773 44.6958 142.86Z" fill="#263238"/>
<path d="M51.4273 144.731C49.5686 143.641 46.5548 143.641 44.6961 144.731C44.2441 144.977 43.8612 145.332 43.583 145.766C43.8628 146.198 44.2453 146.553 44.6961 146.8C46.5548 147.89 49.5686 147.89 51.4273 146.8C51.8781 146.553 52.2606 146.198 52.5404 145.766C52.2622 145.332 51.8793 144.977 51.4273 144.731Z" fill="#F5F5F5"/>
<path d="M41.9109 124.626L46.3476 127.669L42.1471 126.076C42.1835 127.202 42.4667 128.306 42.9767 129.309C42.9767 129.309 45.7464 130.657 47.2533 132.078L43.5674 130.914C43.4518 131.559 43.4914 132.223 43.6829 132.849C43.7065 132.933 43.7328 133.023 43.7617 133.112C43.9559 133.705 44.2342 134.823 44.7068 136.15C45.1075 137.311 45.6182 138.43 46.232 139.493C46.5357 140.016 46.8743 140.518 47.2454 140.996C47.2664 141.028 47.29 141.057 47.3136 141.086C47.998 140.628 48.7103 140.179 49.4506 139.74C49.8785 138.651 50.3484 135.997 50.4325 133.844C50.7606 125.605 44.2631 121.357 39.2095 120.135C39.2095 120.135 41.0472 122.157 41.9109 124.626Z" fill="#EFBFA5"/>
<path opacity="0.3" d="M41.9109 124.626L46.3476 127.669L42.1471 126.076C42.1835 127.202 42.4667 128.306 42.9767 129.309C42.9767 129.309 45.7464 130.657 47.2533 132.078L43.5674 130.914C43.4518 131.559 43.4914 132.223 43.6829 132.849C43.7065 132.933 43.7328 133.023 43.7617 133.112C43.9559 133.705 44.2342 134.823 44.7068 136.15C45.1075 137.311 45.6182 138.43 46.232 139.493C46.5357 140.016 46.8743 140.518 47.2454 140.996C47.2664 141.028 47.29 141.057 47.3136 141.086C47.998 140.628 48.7103 140.179 49.4506 139.74C49.8785 138.651 50.3484 135.997 50.4325 133.844C50.7606 125.605 44.2631 121.357 39.2095 120.135C39.2095 120.135 41.0472 122.157 41.9109 124.626Z" fill="black"/>
<path d="M45.4497 124.721C45.9006 125.125 46.289 125.594 46.6022 126.113C46.9126 126.634 47.1838 127.176 47.4134 127.737C47.8679 128.859 48.198 130.028 48.3979 131.222C48.8342 133.606 48.7001 136.06 48.0067 138.382C47.9976 138.413 48.0008 138.445 48.0155 138.473C48.0303 138.501 48.0554 138.523 48.0855 138.532C48.1154 138.541 48.1477 138.538 48.1752 138.523C48.2028 138.508 48.2234 138.483 48.2325 138.453C48.8969 136.092 48.9932 133.607 48.5134 131.201C48.291 130.004 47.9389 128.834 47.4633 127.714C47.2232 127.155 46.9424 126.615 46.6232 126.097C46.301 125.584 45.9056 125.12 45.4497 124.721Z" fill="#FAFAFA"/>
<path d="M60.9597 128.835C60.8599 128.964 59.2874 130.338 56.8774 134.447L51.9892 135.697L55.9638 136.055L54.1261 139.256L49.973 140.277L53.2677 140.699C53.2677 140.699 52.4801 143.947 50.1856 145.376C48.915 146.166 48.2875 146.303 47.8833 145.947C47.5997 145.697 47.479 144.16 47.1981 142.789C46.9172 141.417 46.8121 139.188 48.0014 136.442C48.3259 135.707 48.7538 135.021 49.272 134.407C52.2464 130.807 58.0535 128.906 60.9597 128.835Z" fill="#EFBFA5"/>
<path opacity="0.15" d="M60.9597 128.835C60.8599 128.964 59.2874 130.338 56.8774 134.447L51.9892 135.697L55.9638 136.055L54.1261 139.256L49.973 140.277L53.2677 140.699C53.2677 140.699 52.4801 143.947 50.1856 145.376C48.915 146.166 48.2875 146.303 47.8833 145.947C47.5997 145.697 47.479 144.16 47.1981 142.789C46.9172 141.417 46.8121 139.188 48.0014 136.442C48.3259 135.707 48.7538 135.021 49.272 134.407C52.2464 130.807 58.0535 128.906 60.9597 128.835Z" fill="black"/>
<path opacity="0.1" d="M48.9226 137.829C48.4731 138.976 48.1893 140.182 48.0799 141.409C48.0037 142.962 48.0221 144.518 48.135 146.068C48.0465 146.04 47.9644 145.994 47.8935 145.934C47.61 145.684 47.4892 144.147 47.2083 142.775C46.9274 141.404 46.8224 139.175 48.0116 136.429C48.3361 135.693 48.764 135.008 49.2823 134.394C52.2567 130.801 58.0638 128.901 60.9699 128.83C56.5385 129.733 51.8603 132.894 49.6262 136.445C49.3532 136.886 49.1178 137.349 48.9226 137.829Z" fill="black"/>
<path d="M56.5362 130.409C54.3651 131.462 52.3358 132.881 50.7607 134.752C49.9614 135.68 49.3145 136.729 48.8442 137.861C48.3877 138.994 48.1215 140.195 48.0566 141.415C48.0609 141.416 48.0655 141.416 48.0698 141.415C48.2509 140.223 48.5826 139.059 49.0569 137.951C49.5285 136.846 50.1467 135.81 50.8945 134.871C51.6583 133.937 52.5289 133.097 53.4883 132.367C54.4513 131.632 55.4784 130.984 56.5572 130.433V130.412L56.5362 130.409Z" fill="#FAFAFA"/>
<path d="M35.0693 131.946C35.4278 131.925 35.7872 131.925 36.1457 131.946C37.5591 132.033 38.9565 132.292 40.3067 132.72C40.8082 132.878 41.3122 133.057 41.8084 133.262C42.0578 133.365 42.3045 133.473 42.5461 133.589C43.7542 134.138 44.8625 134.885 45.825 135.8C46.2741 136.238 46.6666 136.73 46.9933 137.266C47.0353 137.335 47.0799 137.403 47.1193 137.474C47.219 137.658 47.3135 137.837 47.4002 138.016C48.2195 139.558 48.6351 141.284 48.6078 143.031C48.6314 144.263 48.2901 145.689 48.067 145.926C48.036 145.959 48.0017 145.988 47.9646 146.013C47.6259 146.255 47.0641 146.155 45.9957 145.631C43.8508 144.579 42.8716 141.683 42.8716 141.683L45.7331 141.03L41.9816 140.504L40.3435 138.23L43.0921 137.54L39.2908 137.171C37.9909 135.348 36.583 133.605 35.0746 131.952L35.0693 131.946Z" fill="#EFBFA5"/>
<path opacity="0.05" d="M36.1455 131.936C37.5589 132.022 38.9563 132.282 40.3065 132.71C40.808 132.868 41.312 133.047 41.8082 133.252C42.0576 133.355 42.3044 133.463 42.5459 133.578C43.7541 134.127 44.8623 134.874 45.8248 135.789C46.2739 136.227 46.6664 136.72 46.9931 137.256C47.0351 137.324 47.0797 137.392 47.1191 137.464C47.2188 137.648 47.3134 137.827 47.4 138.006C48.2194 139.548 48.6349 141.273 48.6076 143.02C48.6312 144.252 48.29 145.679 48.0668 145.916C48.0358 145.948 48.0015 145.977 47.9644 146.003C47.8955 146.048 47.819 146.081 47.7386 146.1C47.8909 144.181 46.6885 139.406 45.1659 137.498C43.5907 135.516 39.9154 132.712 35.0718 131.946C35.4292 131.922 35.7877 131.919 36.1455 131.936Z" fill="black"/>
<path d="M8 176.408C8 168.287 15.9053 162.432 23.7472 164.543C40.9934 169.183 68.9914 175.712 90 175.712C111.009 175.712 139.007 169.183 156.253 164.543C164.095 162.432 172 168.287 172 176.408V222C172 228.627 166.627 234 160 234H20C13.3726 234 8 228.627 8 222V176.408Z" fill="#83CBFF"/>
<path d="M68.1797 198H66.4453V188.328H60.8047V198H59.0469V186.727H68.1797V198ZM75.3828 189.352C76.4661 189.352 77.3255 189.747 77.9609 190.539C78.5964 191.326 78.9141 192.393 78.9141 193.742C78.9141 195.091 78.5964 196.161 77.9609 196.953C77.3307 197.745 76.4766 198.141 75.3984 198.141C74.7943 198.141 74.263 198.016 73.8047 197.766C73.3464 197.51 73.0052 197.159 72.7812 196.711H72.6484V200.828H70.9688V189.492H72.5859V190.898H72.7109C72.9661 190.414 73.3307 190.036 73.8047 189.766C74.2786 189.49 74.8047 189.352 75.3828 189.352ZM74.9062 196.633C75.6198 196.633 76.1771 196.378 76.5781 195.867C76.9844 195.352 77.1875 194.643 77.1875 193.742C77.1875 192.841 76.9844 192.135 76.5781 191.625C76.1771 191.115 75.6224 190.859 74.9141 190.859C74.2057 190.859 73.6458 191.12 73.2344 191.641C72.8229 192.156 72.6172 192.859 72.6172 193.75C72.6172 194.635 72.8229 195.339 73.2344 195.859C73.6458 196.375 74.2031 196.633 74.9062 196.633ZM84.6953 198.164C83.4453 198.164 82.4635 197.771 81.75 196.984C81.0365 196.198 80.6797 195.117 80.6797 193.742C80.6797 192.372 81.0365 191.294 81.75 190.508C82.4688 189.721 83.4505 189.328 84.6953 189.328C85.9349 189.328 86.9115 189.721 87.625 190.508C88.3438 191.294 88.7031 192.372 88.7031 193.742C88.7031 195.117 88.3464 196.198 87.6328 196.984C86.9193 197.771 85.9401 198.164 84.6953 198.164ZM84.6953 196.672C85.4193 196.672 85.9792 196.417 86.375 195.906C86.776 195.391 86.9766 194.669 86.9766 193.742C86.9766 192.82 86.776 192.104 86.375 191.594C85.9792 191.078 85.4193 190.82 84.6953 190.82C83.9661 190.82 83.4036 191.076 83.0078 191.586C82.612 192.096 82.4141 192.815 82.4141 193.742C82.4141 194.674 82.612 195.396 83.0078 195.906C83.4036 196.417 83.9661 196.672 84.6953 196.672ZM96.3984 198V190.906H92.5547V198H90.875V189.492H98.0703V198H96.3984ZM103.445 196.727C104.076 196.727 104.599 196.549 105.016 196.195C105.438 195.841 105.648 195.398 105.648 194.867V194.156L103.57 194.289C102.987 194.326 102.557 194.445 102.281 194.648C102.005 194.852 101.867 195.141 101.867 195.516C101.867 195.891 102.013 196.188 102.305 196.406C102.596 196.62 102.977 196.727 103.445 196.727ZM103.016 198.141C102.182 198.141 101.5 197.909 100.969 197.445C100.443 196.977 100.18 196.359 100.18 195.594C100.18 194.833 100.453 194.237 101 193.805C101.547 193.367 102.328 193.117 103.344 193.055L105.648 192.922V192.188C105.648 191.734 105.5 191.388 105.203 191.148C104.906 190.904 104.474 190.781 103.906 190.781C103.438 190.781 103.047 190.865 102.734 191.031C102.427 191.193 102.227 191.424 102.133 191.727H100.508C100.591 190.997 100.948 190.417 101.578 189.984C102.214 189.547 103.016 189.328 103.984 189.328C105.047 189.328 105.867 189.581 106.445 190.086C107.029 190.586 107.32 191.286 107.32 192.188V198H105.703V196.805H105.57C105.315 197.232 104.964 197.562 104.516 197.797C104.073 198.026 103.573 198.141 103.016 198.141ZM112.164 194.109C112.122 194.75 112.049 195.302 111.945 195.766C111.841 196.224 111.688 196.635 111.484 197C111.286 197.359 111.023 197.63 110.695 197.812C110.367 197.995 109.974 198.086 109.516 198.086C109.292 198.086 109.099 198.055 108.938 197.992V196.422C109.078 196.464 109.229 196.484 109.391 196.484C109.781 196.484 110.068 196.273 110.25 195.852C110.438 195.43 110.56 194.82 110.617 194.023L110.914 189.492H116.773V198H115.094V190.906H112.398L112.164 194.109ZM62.0703 219V211.906H58.2266V219H56.5469V210.492H63.7422V219H62.0703ZM67.9922 219H66.3281V210.492H67.9922V216.344H68.125L72.0469 210.492H73.7109V219H72.0469V213.117H71.9219L67.9922 219ZM82.6406 210.492V211.906H79.9609V219H78.2812V211.906H75.6016V210.492H82.6406ZM87.8516 219.164C86.6016 219.164 85.6198 218.771 84.9062 217.984C84.1927 217.198 83.8359 216.117 83.8359 214.742C83.8359 213.372 84.1927 212.294 84.9062 211.508C85.625 210.721 86.6068 210.328 87.8516 210.328C89.0911 210.328 90.0677 210.721 90.7812 211.508C91.5 212.294 91.8594 213.372 91.8594 214.742C91.8594 216.117 91.5026 217.198 90.7891 217.984C90.0755 218.771 89.0964 219.164 87.8516 219.164ZM87.8516 217.672C88.5755 217.672 89.1354 217.417 89.5312 216.906C89.9323 216.391 90.1328 215.669 90.1328 214.742C90.1328 213.82 89.9323 213.104 89.5312 212.594C89.1354 212.078 88.5755 211.82 87.8516 211.82C87.1224 211.82 86.5599 212.076 86.1641 212.586C85.7682 213.096 85.5703 213.815 85.5703 214.742C85.5703 215.674 85.7682 216.396 86.1641 216.906C86.5599 217.417 87.1224 217.672 87.8516 217.672ZM95.6641 219H94.0312V210.492H96.1406L98.8828 216.578H99.0156L101.766 210.492H103.82V219H102.18V213.133H102.031L99.5391 218.656H98.3047L95.8125 213.133H95.6641V219ZM111.398 212.359C111.023 211.958 110.526 211.758 109.906 211.758C109.286 211.758 108.776 211.958 108.375 212.359C107.974 212.76 107.75 213.294 107.703 213.961H112C111.979 213.289 111.779 212.755 111.398 212.359ZM111.992 216.703H113.609C113.417 217.469 112.995 218.07 112.344 218.508C111.698 218.945 110.891 219.164 109.922 219.164C108.703 219.164 107.742 218.773 107.039 217.992C106.341 217.206 105.992 216.133 105.992 214.773C105.992 213.414 106.346 212.333 107.055 211.531C107.763 210.729 108.716 210.328 109.914 210.328C111.096 210.328 112.023 210.708 112.695 211.469C113.372 212.229 113.711 213.279 113.711 214.617V215.203H107.703V215.297C107.729 216.047 107.945 216.641 108.352 217.078C108.758 217.516 109.297 217.734 109.969 217.734C110.995 217.734 111.669 217.391 111.992 216.703ZM124.336 221.227H122.781V219H115.875V210.492H117.555V217.586H121.328V210.492H123.008V217.586H124.336V221.227Z" fill="#FCFCFC"/>
</g>
<defs>
<filter id="filter0_d_544_4311" x="0" y="0" width="180" height="246" filterUnits="userSpaceOnUse" color-interpolation-filters="sRGB">
<feFlood flood-opacity="0" result="BackgroundImageFix"/>
<feColorMatrix in="SourceAlpha" type="matrix" values="0 0 0 0 0 0 0 0 0 0 0 0 0 0 0 0 0 0 127 0" result="hardAlpha"/>
<feOffset dy="4"/>
<feGaussianBlur stdDeviation="4"/>
<feComposite in2="hardAlpha" operator="out"/>
<feColorMatrix type="matrix" values="0 0 0 0 0.354167 0 0 0 0 0.354167 0 0 0 0 0.354167 0 0 0 0.06 0"/>
<feBlend mode="normal" in2="BackgroundImageFix" result="effect1_dropShadow_544_4311"/>
<feBlend mode="normal" in="SourceGraphic" in2="effect1_dropShadow_544_4311" result="shape"/>
</filter>
</defs>
</svg>
