<svg width="180" height="246" viewBox="0 0 180 246" fill="none" xmlns="http://www.w3.org/2000/svg">
<g filter="url(#filter0_d_544_4532)">
<path d="M85.4418 6.45975C85.4631 6.44927 85.484 6.43804 85.5045 6.42607C87.3032 5.37507 88.6102 4.95476 89.9605 5.00386C89.9848 5.00474 90.009 5.00474 90.0333 5.00386C91.3619 4.95544 92.6486 5.36383 94.4116 6.38521C94.4319 6.39696 94.4526 6.40799 94.4737 6.41829L94.5582 6.45976C95.0272 6.69078 96.5187 7.59758 98.8496 9.06796C101.151 10.5199 104.213 12.4833 107.774 14.7862C114.897 19.3915 124.011 25.3488 133.033 31.2751C142.055 37.2013 150.982 43.0955 157.73 47.5744C161.104 49.814 163.932 51.6991 165.955 53.0571C166.966 53.7363 167.774 54.2825 168.347 54.6748C168.634 54.8712 168.86 55.0272 169.021 55.1413C169.148 55.2302 169.213 55.2786 169.239 55.2976C169.25 55.3058 169.254 55.3085 169.252 55.3067C169.914 55.884 170.327 56.3853 170.587 56.8883C170.84 57.3793 170.977 57.9294 171 58.6505V177H9V58.6508C9.02324 57.9296 9.15981 57.3793 9.41323 56.8883C9.67293 56.3851 10.0865 55.8837 10.749 55.3062C10.7459 55.3089 10.7493 55.3064 10.7611 55.2976C10.7868 55.2787 10.8524 55.2303 10.9786 55.1413C11.1403 55.0272 11.3658 54.8712 11.6528 54.6748C12.2261 54.2825 13.0341 53.7363 14.0455 53.0571C16.0677 51.6991 18.8959 49.814 22.27 47.5744C29.018 43.0955 37.9454 37.2013 46.967 31.2751C55.9889 25.3488 65.1033 19.3915 72.2259 14.7862C75.7874 12.4833 78.8487 10.5199 81.1504 9.06796C83.4813 7.59758 84.9728 6.69078 85.4418 6.45975Z" fill="#FCFCFC" stroke="#D2ECFF" stroke-width="2" stroke-linecap="round" stroke-linejoin="round"/>
<path d="M42.6305 120.117C16.4565 131.075 16.4565 148.833 42.6305 159.786C68.8046 170.738 111.217 170.738 137.383 159.786C163.548 148.833 163.537 131.075 137.363 120.117C111.189 109.159 68.7846 109.17 42.6305 120.117Z" fill="#FAFAFA"/>
<path opacity="0.16" d="M41.6093 86.3036C41.8432 85.7514 42.0991 85.2085 42.3768 84.675C45.6468 78.397 51.5961 73.8716 55.3112 67.8444C57.0232 65.0548 58.2473 61.9862 59.9394 59.1797C60.8798 57.6209 61.9629 56.1504 63.1751 54.7868C71.507 45.4177 84.5526 41.1939 96.9848 42.1266C108.969 43.0311 120.494 49.0527 126.303 59.732C128.142 63.1183 129.321 66.8153 129.779 70.6312C131.628 86.1092 121.906 102.052 110.033 111.433C102.552 117.35 93.4837 121.258 84.0675 123.002C74.9567 124.693 64.2793 123.236 55.9817 119.125C48.5972 115.462 42.4168 108.964 40.4365 101.043C39.2306 96.132 39.6414 90.9688 41.6093 86.3036Z" fill="#F5D095"/>
<path opacity="0.07" d="M55.9674 59.0785C53.3994 61.3018 50.9997 59.7999 50.5745 56.706C50.1545 53.5475 50.9777 50.3504 52.8744 47.7736C55.4224 44.3416 60.159 41.6055 64.5418 42.6847C66.5535 43.1806 68.9646 45.3334 67.1498 47.3932C66.6949 47.858 66.1808 48.2624 65.6204 48.5964C63.623 49.932 62.0137 51.8566 60.4244 53.6402C58.8779 55.376 57.6766 57.5964 55.9674 59.0785Z" fill="#F5D095"/>
<path d="M53.4449 155.128C66.8651 155.128 77.7442 148.926 77.7442 141.276C77.7442 133.625 66.8651 127.423 53.4449 127.423C40.0247 127.423 29.1455 133.625 29.1455 141.276C29.1455 148.926 40.0247 155.128 53.4449 155.128Z" fill="#FCF4EF"/>
<path d="M115.657 157.644C132.922 157.644 146.919 149.663 146.919 139.819C146.919 129.974 132.922 121.993 115.657 121.993C98.3918 121.993 84.3955 129.974 84.3955 139.819C84.3955 149.663 98.3918 157.644 115.657 157.644Z" fill="#FCF4EF"/>
<path d="M142.611 93.5313C142.22 93.675 141.92 93.9878 141.555 94.1822C141.004 94.464 140.336 94.4922 139.789 94.7937C139.44 95.0016 139.162 95.3069 138.989 95.6711C138.816 96.0353 138.757 96.4419 138.818 96.8394C138.893 97.2349 139.07 97.6046 139.332 97.9127C139.594 98.2208 139.932 98.4568 140.314 98.5977C140.844 98.7921 141.409 98.8795 141.943 99.0682C142.428 99.2458 142.833 99.5529 143.355 99.6487C143.842 99.7529 144.351 99.6735 144.782 99.4261C145.033 99.2724 145.232 99.0475 145.353 98.7808C145.57 98.3356 145.815 97.6537 145.681 97.1578C145.547 96.6619 145.219 96.3604 144.976 95.9659C144.767 95.5271 144.6 95.0694 144.48 94.5993C144.211 93.8159 143.487 93.2073 142.611 93.5313Z" fill="#F5F5F5"/>
<path d="M140.448 93.6722C140.573 93.5975 140.692 93.5117 140.802 93.4157C140.953 93.3006 141.067 93.1442 141.129 92.966C141.191 92.7878 141.2 92.5954 141.153 92.4126C141.092 92.0736 140.972 91.7475 140.799 91.4489C140.682 91.2175 140.527 91.0063 140.342 90.8234C140.281 90.7637 140.208 90.718 140.127 90.6893C140.046 90.6605 139.96 90.6496 139.874 90.6571C139.755 90.6902 139.645 90.7491 139.553 90.8296C139.46 90.91 139.386 91.01 139.338 91.1221C139.15 91.4498 139.018 91.8058 138.947 92.1759C138.878 92.4762 138.884 92.7885 138.964 93.0861C139.005 93.2341 139.08 93.371 139.183 93.4862C139.286 93.6014 139.414 93.692 139.558 93.7511C139.826 93.8422 140.12 93.826 140.376 93.706L140.448 93.6722Z" fill="#F5F5F5"/>
<path d="M141.828 90.1106C142.017 89.547 142.376 89.0623 142.998 88.9835C143.723 88.8989 144.054 89.7443 144.068 90.3275C144.109 90.9722 143.925 91.6112 143.549 92.1394C143.03 92.7734 142.248 92.5987 141.883 91.9168C141.628 91.3445 141.608 90.6967 141.828 90.1106Z" fill="#F5F5F5"/>
<path d="M145.938 95.6529C145.879 95.52 145.831 95.3824 145.795 95.2415C145.741 95.0607 145.741 94.8684 145.794 94.6875C145.848 94.5066 145.953 94.3448 146.098 94.2215C146.347 93.9803 146.637 93.783 146.954 93.6382C147.185 93.5155 147.434 93.4308 147.693 93.3874C147.778 93.3739 147.864 93.3787 147.947 93.4016C148.03 93.4245 148.107 93.4648 148.172 93.5198C148.25 93.6146 148.305 93.7252 148.333 93.8437C148.362 93.9622 148.363 94.0854 148.338 94.2045C148.303 94.5782 148.207 94.9438 148.052 95.2866C147.934 95.571 147.747 95.8225 147.507 96.0192C147.387 96.1172 147.245 96.1869 147.094 96.2231C146.942 96.2592 146.784 96.2608 146.631 96.2277C146.36 96.1475 146.13 95.9668 145.989 95.7233L145.938 95.6529Z" fill="#F5F5F5"/>
<path d="M147.088 91.8913C147.259 91.3278 147.245 90.7191 146.774 90.3106C146.226 89.8344 145.467 90.3415 145.119 90.8121C144.713 91.3199 144.495 91.949 144.5 92.5958C144.56 93.4073 145.301 93.706 145.995 93.3509C146.538 93.0239 146.93 92.5001 147.088 91.8913Z" fill="#F5F5F5"/>
<path d="M38.4996 67.3034C38.1115 67.4471 37.8091 67.7599 37.4438 67.9543C36.8931 68.2361 36.2254 68.2671 35.6804 68.5658C35.3306 68.773 35.0513 69.0787 34.8785 69.4437C34.7056 69.8086 34.6471 70.2163 34.7103 70.6143C34.784 71.0098 34.9606 71.3796 35.2227 71.6874C35.4848 71.9951 35.8235 72.2303 36.2055 72.3698C36.7362 72.5642 37.3012 72.6516 37.8347 72.8403C38.317 73.0179 38.7222 73.3278 39.2614 73.4236C39.7489 73.525 40.2571 73.4447 40.6881 73.1982C40.947 73.0484 41.1523 72.8229 41.2759 72.5529C41.4928 72.1077 41.7353 71.4258 41.6012 70.9299C41.4671 70.434 41.139 70.1353 40.8993 69.738C40.6886 69.2997 40.5223 68.8419 40.4028 68.3714C40.0975 67.5908 39.3784 66.9794 38.4996 67.3034Z" fill="#F5F5F5"/>
<path d="M36.3368 67.4442C36.4627 67.3696 36.582 67.2848 36.6935 67.1906C36.8441 67.0743 36.9574 66.9174 37.0197 66.7389C37.0819 66.5604 37.0906 66.3679 37.0445 66.1846C36.9815 65.8458 36.8609 65.52 36.6878 65.221C36.5697 64.9942 36.4166 64.787 36.2341 64.6067C36.1727 64.5468 36.0986 64.5012 36.0172 64.4729C35.9358 64.4446 35.8491 64.4345 35.7633 64.4433C35.646 64.4735 35.537 64.5291 35.4442 64.6061C35.3514 64.6831 35.2772 64.7796 35.2269 64.8885C35.0402 65.2168 34.9082 65.5726 34.8359 65.9423C34.7688 66.2428 34.7746 66.5547 34.8531 66.8525C34.8948 67.0007 34.9698 67.1377 35.0726 67.2533C35.1753 67.369 35.3032 67.4602 35.4466 67.5203C35.7156 67.609 36.0089 67.5919 36.2655 67.4724C36.2899 67.4646 36.3137 67.4552 36.3368 67.4442Z" fill="#F5F5F5"/>
<path d="M37.7176 63.8827C37.9088 63.3191 38.2683 62.8345 38.8875 62.7556C39.6151 62.6738 39.9461 63.5164 39.9603 64.0996C39.9996 64.7446 39.8155 65.3836 39.4382 65.9115C38.9217 66.5455 38.137 66.3736 37.7718 65.6917C37.5181 65.1182 37.4987 64.47 37.7176 63.8827Z" fill="#F5F5F5"/>
<path d="M41.8291 69.4255C41.7697 69.2926 41.722 69.155 41.6864 69.0141C41.6295 68.835 41.6261 68.6434 41.6768 68.4625C41.7274 68.2815 41.8298 68.1189 41.9718 67.994C42.2219 67.7534 42.5113 67.5563 42.8278 67.4107C43.0594 67.2897 43.3088 67.2051 43.5668 67.16C43.6516 67.1461 43.7386 67.1507 43.8214 67.1736C43.9042 67.1965 43.9809 67.237 44.0462 67.2924C44.124 67.387 44.1795 67.4975 44.2086 67.616C44.2377 67.7344 44.2398 67.8578 44.2145 67.9771C44.1799 68.3508 44.0835 68.7163 43.9292 69.0591C43.8107 69.3435 43.6236 69.595 43.3842 69.7918C43.2643 69.8897 43.1233 69.9594 42.972 69.9956C42.8207 70.0317 42.6631 70.0333 42.5111 70.0003C42.2393 69.9201 42.0093 69.7394 41.869 69.4959C41.854 69.4734 41.8407 69.4498 41.8291 69.4255Z" fill="#F5F5F5"/>
<path d="M42.9795 65.6635C43.1479 65.1 43.1336 64.4913 42.6657 64.0828C42.115 63.6066 41.356 64.1138 41.0079 64.5843C40.605 65.0936 40.387 65.7217 40.3887 66.368C40.4515 67.1795 41.1933 67.4782 41.8867 67.1232C42.4291 66.7953 42.8211 66.2718 42.9795 65.6635Z" fill="#F5F5F5"/>
<path d="M139.54 57.8863C139.349 58.3625 139.389 58.8979 139.255 59.3967C139.069 60.1462 138.527 60.7746 138.353 61.5269C138.256 62.0199 138.31 62.5303 138.507 62.9934C138.704 63.4564 139.036 63.8512 139.46 64.1277C139.894 64.3913 140.389 64.5393 140.898 64.557C141.406 64.5748 141.911 64.4618 142.362 64.2291C142.99 63.9079 143.538 63.4571 144.168 63.133C144.739 62.8513 145.37 62.7273 145.898 62.3271C146.396 61.9665 146.743 61.4383 146.873 60.8422C146.949 60.4804 146.909 60.1043 146.759 59.7658C146.523 59.2022 146.089 58.3992 145.51 58.1033C144.973 57.8215 144.368 57.8638 143.798 57.7511C143.227 57.6384 142.656 57.2946 142.086 57.0607C141.144 56.6634 139.968 56.8099 139.54 57.8863Z" fill="#F5F5F5"/>
<path d="M137.859 59.9828C137.894 59.8053 137.914 59.6253 137.919 59.4446C137.937 59.2093 137.884 58.9741 137.769 58.7676C137.653 58.5611 137.48 58.392 137.269 58.2809C136.899 58.0552 136.493 57.8932 136.068 57.8019C135.752 57.7143 135.425 57.6781 135.097 57.6948C134.991 57.6994 134.887 57.727 134.792 57.7757C134.697 57.8244 134.615 57.8929 134.55 57.9766C134.481 58.1133 134.444 58.2634 134.442 58.416C134.439 58.5686 134.471 58.7197 134.535 58.8585C134.687 59.3035 134.91 59.7213 135.197 60.0956C135.418 60.4086 135.711 60.6647 136.053 60.8423C136.227 60.9291 136.418 60.9757 136.612 60.9786C136.806 60.9816 136.999 60.9407 137.175 60.8592C137.484 60.6878 137.715 60.4052 137.82 60.0702L137.859 59.9828Z" fill="#F5F5F5"/>
<path d="M135.674 55.7364C135.303 55.0939 135.146 54.3557 135.599 53.7273C136.13 52.9947 137.2 53.3976 137.759 53.8738C138.319 54.3501 138.901 55.0968 139.026 55.8688C139.186 56.872 138.37 57.444 137.423 57.2073C136.672 57.0185 136.047 56.3873 135.674 55.7364Z" fill="#F5F5F5"/>
<path d="M144.32 56.6156C144.145 56.5588 143.976 56.4872 143.814 56.4015C143.599 56.3007 143.418 56.1408 143.293 55.9409C143.167 55.741 143.103 55.5095 143.107 55.2744C143.09 54.8444 143.147 54.4148 143.275 54.0036C143.353 53.69 143.482 53.3912 143.658 53.1188C143.715 53.029 143.792 52.953 143.883 52.896C143.974 52.839 144.076 52.8025 144.183 52.7891C144.337 52.797 144.488 52.8391 144.624 52.9123C144.759 52.9854 144.877 53.0878 144.967 53.2118C145.285 53.5606 145.544 53.9585 145.732 54.3896C145.902 54.7406 145.982 55.1279 145.963 55.5167C145.955 55.7084 145.902 55.8957 145.809 56.0642C145.716 56.2328 145.585 56.378 145.427 56.4888C145.125 56.6717 144.762 56.7313 144.417 56.6551L144.32 56.6156Z" fill="#F5F5F5"/>
<path d="M141.749 52.4114C141.358 51.7774 140.778 51.2843 140.002 51.3745C139.098 51.4787 138.935 52.6002 139.086 53.3131C139.238 54.026 139.617 54.8939 140.228 55.3729C141.041 55.9956 141.94 55.5673 142.191 54.6346C142.402 53.8992 142.142 53.0539 141.749 52.4114Z" fill="#F5F5F5"/>
<path d="M29.7908 108.215C29.6168 108.654 29.6539 109.15 29.5397 109.61C29.3685 110.303 28.8664 110.883 28.7066 111.582C28.6153 112.038 28.6637 112.51 28.8457 112.938C29.0277 113.366 29.3349 113.731 29.7281 113.986C30.1285 114.23 30.5864 114.367 31.0567 114.383C31.527 114.399 31.9935 114.294 32.4102 114.079C32.9809 113.783 33.4945 113.366 34.0766 113.067C34.6045 112.785 35.1866 112.692 35.6774 112.32C36.1366 111.988 36.4565 111.501 36.5762 110.951C36.646 110.616 36.6091 110.269 36.4706 109.956C36.2537 109.426 35.8514 108.694 35.3293 108.42C34.8071 108.147 34.2821 108.198 33.7513 108.096C33.2206 107.995 32.707 107.674 32.182 107.46C31.2832 107.085 30.196 107.223 29.7908 108.215Z" fill="#F5F5F5"/>
<path d="M28.247 110.153C28.2803 109.989 28.2994 109.822 28.3041 109.655C28.3195 109.437 28.2708 109.22 28.164 109.03C28.0571 108.839 27.8967 108.683 27.702 108.581C27.3607 108.371 26.9852 108.22 26.5921 108.136C26.3006 108.056 25.9982 108.023 25.6961 108.037C25.596 108.044 25.4987 108.073 25.4113 108.122C25.3239 108.17 25.2487 108.238 25.1911 108.319C25.1289 108.446 25.0967 108.584 25.0967 108.725C25.0967 108.865 25.1289 109.004 25.1911 109.131C25.3291 109.535 25.5334 109.915 25.796 110.255C26.0026 110.546 26.2778 110.783 26.5978 110.945C26.7593 111.022 26.9363 111.062 27.1157 111.062C27.295 111.062 27.4721 111.022 27.6335 110.945C27.9103 110.795 28.1208 110.549 28.2242 110.255C28.2328 110.21 28.2413 110.182 28.247 110.153Z" fill="#F5F5F5"/>
<path d="M26.2297 106.228C25.8873 105.634 25.7418 104.955 26.1613 104.374C26.652 103.695 27.6393 104.07 28.1586 104.506C28.7491 104.972 29.1617 105.622 29.3285 106.349C29.4769 107.279 28.7207 107.806 27.8476 107.586C27.1492 107.36 26.5684 106.872 26.2297 106.228Z" fill="#F5F5F5"/>
<path d="M34.2162 107.04C34.0545 106.988 33.8978 106.922 33.7482 106.843C33.549 106.75 33.3813 106.602 33.2654 106.417C33.1494 106.232 33.0902 106.017 33.0948 105.8C33.0797 105.403 33.1328 105.007 33.2517 104.628C33.3215 104.337 33.4401 104.06 33.6027 103.808C33.655 103.723 33.726 103.65 33.8104 103.595C33.8949 103.541 33.9906 103.506 34.0906 103.492C34.2326 103.5 34.3711 103.539 34.4959 103.606C34.6208 103.674 34.7289 103.767 34.8125 103.881C35.1067 104.203 35.3458 104.571 35.5202 104.969C35.6754 105.29 35.7488 105.644 35.7342 106C35.7261 106.177 35.6771 106.35 35.5911 106.506C35.5051 106.662 35.3842 106.796 35.2377 106.899C34.958 107.066 34.6239 107.121 34.3046 107.051L34.2162 107.04Z" fill="#F5F5F5"/>
<path d="M31.8398 103.157C31.4802 102.574 30.9467 102.12 30.2276 102.202C29.3916 102.298 29.2432 103.329 29.3716 103.988C29.4971 104.725 29.8736 105.397 30.4388 105.893C31.1892 106.457 32.0224 106.071 32.2507 105.211C32.3908 104.5 32.2433 103.762 31.8398 103.157Z" fill="#F5F5F5"/>
<path d="M64.8871 118.634C65.2534 118.835 65.601 119.067 65.9257 119.328C66.4637 119.776 66.943 120.289 67.3524 120.855C69.1329 123.267 69.8177 126.606 68.5394 129.308C67.875 130.695 66.8018 131.85 65.4606 132.624C64.1193 133.397 62.5727 133.752 61.0236 133.642C62.5873 133.986 63.7343 133.774 65.2038 134.225C65.9485 134.453 66.5049 135.248 66.6476 136C66.7903 136.753 66.5563 137.53 65.5919 137.53C65.5919 137.902 64.8785 138.579 63.6202 138.238C63.5546 138.52 63.3976 139.004 61.2975 138.655C59.1974 138.305 53.0456 135.837 50.5432 134.428C49.5503 133.91 48.6207 133.281 47.7725 132.554C46.2374 131.244 45.2216 129.334 44.7622 127.361C44.1915 124.862 44.3799 122.255 44.7308 119.716C45.3015 115.628 46.2802 110.841 50.9797 109.733C51.5158 109.6 52.0751 109.586 52.6176 109.691C53.4881 109.927 54.2311 110.489 54.6891 111.258C55.8019 112.948 55.8476 115.112 55.7277 117.13C55.6307 118.787 56.8691 117.975 57.9391 117.798C59.0341 117.607 60.1483 117.549 61.2576 117.623C62.527 117.699 63.765 118.044 64.8871 118.634Z" fill="#37474F"/>
<path d="M65.5916 137.55C65.74 136.674 65.6829 135.623 64.8411 135.262C63.9994 134.902 62.4614 134.981 62.4614 134.981C62.4614 134.981 64.5044 134.676 65.2634 135.147C66.0224 135.617 65.8341 136.877 65.5916 137.55Z" fill="#263238"/>
<path d="M63.6199 138.252C63.7683 137.373 63.7112 136.322 62.8723 135.964C62.0334 135.606 60.4897 135.682 60.4897 135.682C60.4897 135.682 62.5356 135.378 63.2918 135.849C64.0479 136.319 63.8624 137.587 63.6199 138.252Z" fill="#263238"/>
<path d="M59.1431 131.081C58.9322 131.112 58.7167 131.074 58.5299 130.972C58.3432 130.87 58.1957 130.71 58.1102 130.517C58.4755 131.427 57.8905 132.509 57.0231 132.983C56.1557 133.456 55.0999 133.442 54.1212 133.281C50.6315 132.718 47.45 130.196 46.4428 126.846C45.9035 125.062 45.9748 123.143 46.3486 121.317C46.913 118.602 48.1141 116.055 49.8554 113.881C51.1936 112.207 52.9256 110.722 55.0257 110.218C57.1258 109.714 59.6225 110.455 60.6726 112.32C61.0094 112.966 61.225 113.667 61.3089 114.388C61.6941 117.037 61.1748 119.72 61.5029 122.371C61.7083 124.062 62.1335 125.789 61.8025 127.491C61.5371 128.886 60.8266 130.903 59.1431 131.081Z" fill="#F0F0F0"/>
<path d="M49.7295 123.639C50.7289 123.215 51.8337 123.095 52.9024 123.295C53.6814 123.411 54.5003 123.664 54.9625 124.293C55.0653 123.777 55.8186 123.63 56.258 123.915C56.6974 124.2 56.9114 124.729 57.0912 125.222C57.2167 124.481 57.4136 123.639 58.0898 123.298C58.7661 122.957 59.7106 123.422 60.1785 123.949C60.5438 124.392 60.8094 124.907 60.9575 125.459C61.0745 125.22 61.4197 125.222 61.6765 125.304C61.7536 125.327 61.8249 125.361 61.8963 125.389C61.96 126.096 61.9293 126.808 61.8049 127.508C61.5396 128.886 60.8291 130.889 59.1427 131.081C58.9322 131.111 58.7174 131.073 58.5312 130.971C58.3451 130.869 58.198 130.71 58.1127 130.517C58.4779 131.427 57.893 132.509 57.0255 132.983C56.1581 133.456 55.1024 133.442 54.1237 133.281C53.1104 133.111 52.1297 132.788 51.2161 132.323C50.0776 131.082 49.1471 129.67 48.4597 128.139C48.1142 127.511 47.9291 126.81 47.9204 126.096C47.9718 125.037 48.7564 124.098 49.7295 123.639Z" fill="#FCF4EF"/>
<path d="M69.6235 103.134C69.692 103.252 69.7576 103.374 69.8232 103.495C70.9046 105.467 71.6066 107.823 70.879 110.04C70.1171 112.362 67.9885 114.293 65.9826 115.603C64.8926 116.319 61.6797 118.063 60.7124 116.29C60.4499 115.808 60.4641 115.236 60.4499 114.69C60.427 113.997 60.33 113.267 59.9077 112.717C59.4854 112.168 58.6494 111.872 58.053 112.233C57.5765 112.529 57.4025 113.132 57.3482 113.687C57.294 114.242 57.314 114.814 57.0629 115.324C57.0094 115.453 56.9154 115.561 56.7947 115.634C56.6206 115.724 56.4066 115.676 56.224 115.724C54.9999 116.006 55.368 119.294 55.485 120.162C55.5392 120.548 55.5306 121.052 55.1625 121.193C54.9029 121.292 54.6233 121.137 54.3779 121.004C53.8177 120.697 53.2121 120.478 52.5831 120.356C52.3691 120.314 52.0895 120.32 52.0124 120.52C51.9354 120.72 52.1009 120.886 52.2264 121.038C52.4392 121.304 52.5699 121.625 52.6031 121.963C52.6134 122.007 52.614 122.054 52.6046 122.099C52.5953 122.145 52.5763 122.187 52.5489 122.225C52.4805 122.282 52.3933 122.313 52.3035 122.312C51.8098 122.351 51.3133 122.287 50.8169 122.312C49.4986 122.343 48.2888 123.546 48.3487 124.848C51.5873 123.501 54.6775 125.693 56.4409 128.26C57.4264 129.66 57.8976 131.35 57.7762 133.05C57.6954 134.393 57.2271 135.685 56.4266 136.773C55.4793 138.125 52.8627 139.695 51.3419 139.65C52.0531 139.868 52.7799 140.033 53.5162 140.143C55.7989 140.526 56.5036 140.289 57.6393 140.639C58.3812 140.867 58.9404 141.659 59.0831 142.414C59.2258 143.169 58.9918 143.944 58.0245 143.944C58.0245 144.316 57.314 144.992 56.0557 144.651C55.99 144.933 55.8331 145.418 53.7302 145.068C51.6272 144.719 45.4782 142.25 42.9758 140.842C41.9842 140.323 41.0557 139.694 40.208 138.968C38.6729 137.658 37.6571 135.747 37.1948 133.772C36.6242 131.275 36.8153 128.669 37.1634 126.13C38.6215 115.535 44.4824 110.319 46.6852 108.122C48.3972 106.403 50.3946 105.095 52.5203 103.915C54.1572 103.065 55.6779 102.013 57.0458 100.784C58.5039 99.5133 59.1687 98.8511 60.096 97.5775C60.6211 96.8618 61.0491 95.7656 61.7681 94.616C61.7681 94.616 64.0137 96.6561 64.7499 97.2816C66.7058 98.9386 68.3549 100.919 69.6235 103.134Z" fill="#455A64"/>
<path d="M58.0188 143.938C58.1672 143.062 58.1101 142.011 57.2712 141.65C56.4323 141.289 54.8887 141.368 54.8887 141.368C54.8887 141.368 56.9345 141.064 57.6907 141.535C58.4468 142.005 58.2642 143.265 58.0188 143.938Z" fill="#263238"/>
<path d="M56.0413 144.632C56.1897 143.755 56.1326 142.704 55.2908 142.346C54.4491 141.989 52.9111 142.065 52.9111 142.065C52.9111 142.065 54.9542 141.76 55.7132 142.231C56.4722 142.701 56.2924 143.967 56.0413 144.632Z" fill="#263238"/>
<path d="M83.7593 109.917C84.3557 110.48 84.932 111.072 85.4713 111.695C86.1818 112.515 82.618 119.097 81.8618 119.179C80.4836 119.325 78.9114 118.762 77.4961 118.139C76.9525 117.849 76.3497 117.685 75.7327 117.657C74.6684 117.694 73.8838 118.502 73.0791 119.066C72.1255 119.706 71.08 120.201 69.9775 120.534C69.2088 120.791 68.415 120.967 67.6092 121.061C67.4266 121.092 67.2582 123.391 67.2325 123.636C67.1184 124.673 67.0414 125.719 66.9814 126.761C66.8285 128.741 66.5684 130.712 66.2025 132.665C65.6917 135.713 65.9999 139.314 68.2712 141.681C69.7949 143.259 71.0846 143.017 70.9847 144.781C70.9534 145.012 70.8396 145.224 70.6637 145.379C70.4879 145.534 70.2617 145.622 70.026 145.626C69.812 146.367 68.8047 146.272 68.8047 146.272C68.8047 146.272 68.4909 147.21 65.5433 146.396C63.9854 145.964 63.6344 144.071 63.3034 143.133C63.3034 142.786 62.9896 142.304 62.8726 141.977C62.6985 141.49 62.5501 140.991 62.3932 140.495C62.0546 139.441 61.7246 138.385 61.4031 137.325C61.1444 136.564 60.9638 135.78 60.8638 134.984C60.8239 134.37 60.8239 133.754 60.8638 133.141C60.8638 132.859 60.8638 132.594 60.8838 132.321C60.9206 129.094 60.6935 125.869 60.2047 122.678C59.9142 120.609 59.4367 118.569 58.778 116.583C56.6351 110.26 62.4246 94.2498 66.7674 94.323C69.7977 94.4104 75.2762 94.7992 76.1237 99.9586C76.5688 102.661 77.9156 104.467 79.8587 106.335C81.1342 107.575 82.4896 108.702 83.7593 109.917Z" fill="#455A64"/>
<path d="M68.8043 146.282C68.9356 145.896 69.044 145.265 68.4791 145.02C67.9141 144.775 67.2578 144.442 67.2578 144.442C67.784 144.587 68.2997 144.767 68.8015 144.981C69.0868 145.158 69.1953 145.688 68.8043 146.282Z" fill="#37474F"/>
<path d="M70.0231 145.637C70.1543 145.251 70.2628 144.62 69.6978 144.375C69.1328 144.13 68.4766 143.811 68.4766 143.811C69.0037 143.956 69.5204 144.136 70.0231 144.35C70.3084 144.513 70.4169 145.043 70.0231 145.637Z" fill="#37474F"/>
<path d="M71.4009 103.731C71.1913 104.319 70.9106 104.88 70.5649 105.402C69.9286 106.346 69.0583 107.093 68.3164 107.966C67.5746 108.84 66.9497 109.877 66.9611 111.007C66.9611 110.931 67.974 110.556 68.0853 110.511C67.9227 110.959 67.5603 111.356 67.4034 111.83C67.2252 112.366 67.1621 112.933 67.2179 113.495C67.5415 113.006 67.9582 112.584 68.4448 112.252C68.2537 112.382 68.1823 113.159 68.1452 113.379C68.0792 113.78 68.0515 114.185 68.0625 114.591C68.0825 115.25 68.1224 115.91 68.1253 116.577C68.171 118.092 67.9971 119.606 67.6088 121.072C68.2788 121.019 68.9409 120.895 69.5833 120.7C70.7306 120.364 71.8354 119.9 72.8761 119.316C74.6139 118.364 75.4442 117.519 76.5142 115.859C79.476 111.235 77.4701 104.988 73.5381 101.59C73.3502 101.406 73.1258 101.263 72.879 101.17C72.7547 101.126 72.6205 101.116 72.4911 101.143C72.3617 101.169 72.2422 101.23 72.1457 101.319C72.0304 101.473 71.9577 101.653 71.9345 101.843C71.8013 102.484 71.623 103.115 71.4009 103.731Z" fill="#F0F0F0"/>
<path d="M74.5714 82.9223C74.4487 82.5616 74.4116 82.1643 74.1034 81.9022C73.7439 81.5923 73.2474 81.5387 73.0534 81.0569C72.9962 80.9049 72.9778 80.7414 72.9997 80.5807C73.0216 80.42 73.0831 80.2671 73.1789 80.1355C73.5128 79.6846 74.1491 79.6001 74.714 79.5719C75.6726 79.4666 76.6407 79.4799 77.5959 79.6114C78.558 79.7479 79.4419 80.2112 80.0955 80.9216C80.3388 81.2358 80.5582 81.5673 80.7518 81.9135C81.1636 82.5939 81.6251 83.2437 82.1328 83.8578C82.2074 83.9242 82.2661 84.0062 82.3046 84.0978C82.3431 84.1895 82.3605 84.2884 82.3554 84.3875C82.2983 84.6326 81.9873 84.72 81.7333 84.7059C81.4351 84.6914 81.1459 84.6001 80.8944 84.441C81.1341 84.9539 81.371 85.4695 81.6106 85.9824C81.8098 86.3246 81.9086 86.7149 81.896 87.1095C81.8544 87.3663 81.721 87.5998 81.52 87.7678C81.3189 87.9358 81.0636 88.0272 80.8003 88.0252C81.0086 88.0252 81.214 89.2932 81.2311 89.4651C81.2689 89.9343 81.1518 90.4029 80.8973 90.8008C80.4065 91.5616 79.2509 91.6461 78.5147 91.215C77.7098 90.6912 77.0997 89.9226 76.777 89.0256C76.3633 88.0224 76.2406 86.8953 75.7783 85.926C75.3172 84.9488 74.9141 83.9459 74.5714 82.9223Z" fill="black"/>
<path d="M76.1261 96.5881C75.8551 97.208 75.8408 98.0787 76.0919 99.9243C75.3044 100.33 70.9758 101.88 67.2008 100.953C63.4257 100.026 61.4427 98.8789 60.1929 97.6138C61.9677 92.3727 61.5539 86.6526 61.5539 86.6526L76.1261 96.5881Z" fill="#455A64"/>
<path d="M70.9332 80.6679C74.0291 80.2678 74.8451 81.0793 76.0692 81.8908C77.1001 82.6041 77.9585 83.5336 78.5831 84.6128C79.1081 85.4581 78.7571 87.1798 78.9683 87.7743C79.1794 88.3689 80.7602 89.651 81.2253 90.6992C81.6904 91.7474 81.3451 92.7026 81.0741 94.151C80.803 95.5993 79.6873 95.8416 79.6873 95.8416C79.2222 96.6426 78.4729 97.2449 77.5844 97.5323C76.1577 97.9578 74.0776 97.1293 74.0776 97.1293C74.0776 97.1293 73.2558 98.1156 71.1814 97.5886C68.1368 96.8166 67.8544 97.2759 66.2251 96.7264C63.3717 95.7712 63.1263 94.4722 61.925 91.9897C60.7238 89.5073 60.6667 86.9882 63.5772 83.8886C65.8484 81.4569 68.3651 80.9919 70.9332 80.6679Z" fill="#455A64"/>
<path d="M80.2094 89.3015C79.3534 88.8196 78.4431 88.4251 77.6413 87.8362C76.1547 86.7401 75.1018 85.2016 73.8292 83.8913C73.5781 83.6293 72.9247 83.046 72.939 83.294C73.0672 83.784 73.2651 84.2536 73.5268 84.6888C74.146 85.7877 74.8707 86.9289 75.059 88.211C75.2474 89.4931 74.5683 90.4652 73.601 91.2598C72.9361 91.8065 72.1999 92.3193 71.8005 93.0773C71.401 93.8353 71.2954 95.0131 71.9032 95.6753C72.5291 96.2853 73.2607 96.7797 74.0632 97.1349C74.0632 97.1349 76.1319 97.9633 77.57 97.5378C78.4586 97.2504 79.2078 96.6481 79.673 95.8472C79.673 95.8472 80.7886 95.6076 81.0597 94.1565C81.3308 92.7053 81.676 91.7529 81.2109 90.7047C80.9477 90.1915 80.6103 89.7189 80.2094 89.3015Z" fill="#FCF4EF"/>
<path d="M74.5197 94.1932C74.5372 94.225 74.5413 94.2624 74.5311 94.2971C74.521 94.3319 74.4974 94.3614 74.4655 94.3792C74.4418 94.3918 74.4148 94.3972 74.3879 94.3947C74.3611 94.3922 74.3356 94.382 74.3146 94.3653C74.2937 94.3486 74.2781 94.3261 74.27 94.3008C74.2619 94.2754 74.2616 94.2482 74.269 94.2226C74.2765 94.197 74.2914 94.1742 74.3119 94.157C74.3325 94.1397 74.3577 94.1289 74.3845 94.1257C74.4112 94.1226 74.4383 94.1273 74.4624 94.1393C74.4864 94.1513 74.5064 94.1701 74.5197 94.1932Z" fill="#37474F"/>
<path d="M75.7296 93.9114C75.7441 93.9425 75.7462 93.9779 75.7353 94.0105C75.7244 94.043 75.7014 94.0702 75.671 94.0867C75.6406 94.1031 75.605 94.1076 75.5714 94.0991C75.5378 94.0906 75.5087 94.0699 75.4899 94.0411C75.4798 94.0254 75.473 94.0079 75.47 93.9896C75.467 93.9713 75.4679 93.9526 75.4725 93.9346C75.4772 93.9166 75.4855 93.8998 75.497 93.8851C75.5085 93.8705 75.523 93.8583 75.5394 93.8494C75.5559 93.8405 75.5741 93.835 75.5928 93.8334C75.6115 93.8317 75.6303 93.8338 75.6482 93.8396C75.666 93.8454 75.6824 93.8548 75.6965 93.8672C75.7105 93.8795 75.7218 93.8946 75.7296 93.9114Z" fill="#37474F"/>
<path d="M75.4728 94.9935C75.4817 95.0089 75.4875 95.026 75.4896 95.0437C75.4917 95.0614 75.4902 95.0793 75.4851 95.0964C75.4801 95.1135 75.4716 95.1294 75.4601 95.1432C75.4487 95.157 75.4345 95.1684 75.4186 95.1766C75.3868 95.1937 75.3494 95.1977 75.3146 95.1877C75.2799 95.1776 75.2506 95.1544 75.2331 95.1231C75.223 95.1075 75.2162 95.09 75.2132 95.0716C75.2102 95.0533 75.211 95.0346 75.2157 95.0166C75.2203 94.9987 75.2287 94.9818 75.2402 94.9672C75.2517 94.9525 75.2661 94.9404 75.2826 94.9314C75.2991 94.9225 75.3172 94.9171 75.3359 94.9154C75.3546 94.9137 75.3735 94.9158 75.3913 94.9216C75.4092 94.9275 75.4256 94.9368 75.4396 94.9492C75.4536 94.9616 75.4649 94.9766 75.4728 94.9935Z" fill="#37474F"/>
<path d="M77.7557 95.2217C77.8757 95.1056 78.011 95.0061 78.158 94.9258C78.2876 94.841 78.4106 94.7468 78.5261 94.644C78.5587 94.616 78.5979 94.5966 78.6402 94.5877C78.6994 94.5881 78.7563 94.6102 78.8 94.6497C79.0891 94.8502 79.3443 95.0946 79.5562 95.3738C79.5644 95.3833 79.5694 95.3952 79.5704 95.4077C79.5704 95.4077 79.5704 95.4217 79.5533 95.4302C79.2943 95.6347 78.9897 95.7754 78.6647 95.8405C78.3397 95.9057 78.0036 95.8935 77.6844 95.805C77.5559 95.7683 77.3191 95.6979 77.4275 95.5429C77.5254 95.4249 77.6353 95.3172 77.7557 95.2217Z" fill="black"/>
<path d="M73.3212 97.0814C73.3218 97.4424 73.4628 97.7894 73.7149 98.0507C73.9094 98.2087 74.1465 98.3066 74.3969 98.3325C74.5561 98.3635 74.7199 98.3635 74.8791 98.3325C75.0411 98.2887 75.1896 98.2061 75.3115 98.0921C75.4335 97.9781 75.5251 97.8361 75.5782 97.6788C75.6324 97.5266 75.6552 97.366 75.698 97.2082C75.7527 97.0247 75.8263 96.8472 75.9177 96.6785C76.0062 96.5122 76.1375 96.3544 76.2031 96.1854C75.7614 96.2453 75.3131 96.2386 74.8734 96.1656C74.6521 96.1284 74.4337 96.0757 74.22 96.0079C74.0573 95.9543 73.7777 95.9008 73.6693 95.7683C73.4032 96.1329 73.2805 96.5806 73.324 97.0279C73.3247 97.0458 73.3237 97.0637 73.3212 97.0814Z" fill="#FFA8A7"/>
<path d="M74.7624 96.222C74.7168 96.1516 74.5827 96.1798 74.5085 96.2389C74.4089 96.3288 74.3359 96.4438 74.2973 96.5714C74.2489 96.7139 74.2257 96.8636 74.2288 97.0138C74.2186 97.1929 74.2688 97.3703 74.3715 97.5182C74.3754 97.5261 74.3815 97.5327 74.3891 97.5372C74.3967 97.5417 74.4054 97.5439 74.4143 97.5436C74.44 97.5436 74.4485 97.5069 74.4514 97.4788C74.4514 97.3689 74.4514 97.259 74.4514 97.1491C74.4519 97.0669 74.4596 96.9849 74.4742 96.9039C74.5068 96.7533 74.5731 96.6117 74.6683 96.4897C74.7104 96.442 74.7424 96.3864 74.7624 96.3263C74.7696 96.3098 74.7732 96.2921 74.7732 96.2742C74.7732 96.2562 74.7696 96.2385 74.7624 96.222Z" fill="#F28F8F"/>
<path opacity="0.2" d="M72.1284 86.9233C71.9461 86.5633 71.6667 86.26 71.3208 86.047C70.7844 85.7934 70.1424 86.047 69.6459 86.3598C68.9428 86.7692 68.4145 87.4172 68.1593 88.1829C68.1291 88.2631 68.1241 88.3505 68.145 88.4337C68.1756 88.51 68.2294 88.575 68.2991 88.6196C68.6714 88.8588 69.116 88.9633 69.5575 88.9155C69.995 88.8658 70.436 88.8526 70.8757 88.876C71.6433 88.9719 72.2739 89.4396 72.9216 89.8172C73.1613 89.9581 73.6007 90.2906 73.8946 90.2708C74.237 90.2511 74.2399 89.9496 74.0972 89.7073C73.5351 88.7098 72.7418 87.8814 72.1284 86.9233Z" fill="black"/>
<path opacity="0.2" d="M78.9566 87.7657C78.8368 87.3796 78.9053 86.6385 78.8796 86.1032C78.8539 85.5678 78.1263 85.2917 77.6869 85.1564C77.547 85.0973 77.396 85.0684 77.2439 85.0718C77.0918 85.0752 76.9422 85.1108 76.8052 85.1761C76.6826 85.2734 76.5894 85.4022 76.5361 85.5484C76.4827 85.6945 76.4712 85.8524 76.5027 86.0046C76.6055 86.9231 77.5128 87.4134 78.269 87.7854L78.7027 87.9939C78.9024 88.0869 79.1022 88.1883 79.3019 88.2757C79.1491 88.1338 79.031 87.9594 78.9566 87.7657Z" fill="black"/>
<path d="M76.4373 90.8879C76.2701 91.0683 76.147 91.2843 76.0778 91.5191C76.0275 91.6884 76.0122 91.8659 76.0328 92.0411C76.0534 92.2164 76.1094 92.3857 76.1976 92.5391C76.3104 92.7056 76.4588 92.8457 76.6323 92.9494C76.8059 93.0531 77.0004 93.1179 77.202 93.1393C77.214 93.1436 77.2271 93.1436 77.2391 93.1393C77.2521 93.1328 77.2623 93.1217 77.2677 93.1083C77.2924 93.0558 77.3052 92.9986 77.3052 92.9407C77.3052 92.8827 77.2924 92.8255 77.2677 92.773C77.2143 92.7005 77.1737 92.6195 77.1478 92.5335C77.1447 92.4849 77.1594 92.4367 77.1893 92.3979C77.2191 92.3591 77.2622 92.3322 77.3105 92.3222C77.6814 92.263 77.6529 92.7364 77.6586 92.9534C77.6535 93.0139 77.6664 93.0746 77.6957 93.1281C77.7309 93.1708 77.7759 93.2046 77.8269 93.2267L78.5174 93.593C78.5756 93.6312 78.6421 93.6553 78.7115 93.6634C78.7655 93.6624 78.8188 93.6509 78.8684 93.6296C79.073 93.5525 79.2537 93.4242 79.3928 93.2572C79.5319 93.0902 79.6245 92.8903 79.6616 92.6772C79.6816 92.511 79.6616 92.3419 79.6788 92.1756C79.6796 92.1517 79.6856 92.1283 79.6964 92.1069C79.7073 92.0855 79.7227 92.0666 79.7415 92.0517C79.8328 91.9925 79.9755 92.0742 80.0269 92.1559C80.0782 92.2376 80.0468 92.5166 80.1553 92.3532C80.2311 92.1887 80.2691 92.0097 80.2666 91.8291C80.3179 91.1641 80.0269 90.3976 79.3192 90.2314C79.0534 90.179 78.7809 90.1686 78.5117 90.2004C78.1341 90.2343 77.7599 90.2993 77.3932 90.3948C77.1628 90.4465 76.9416 90.5319 76.7369 90.6484C76.6265 90.7145 76.5258 90.7951 76.4373 90.8879Z" fill="black"/>
<path d="M79.5874 95.0527C79.4119 94.9549 79.2432 94.8457 79.0824 94.7258C78.9632 94.5781 78.8881 94.4005 78.8655 94.213C78.8342 94.0214 78.8284 93.8269 78.8056 93.6494C78.8056 93.6015 78.7856 93.5452 78.74 93.5254C78.7147 93.5201 78.6883 93.5244 78.6661 93.5375C78.6439 93.5506 78.6275 93.5714 78.6201 93.5959C78.6087 93.645 78.6087 93.6961 78.6201 93.7452C78.6334 93.9602 78.5981 94.1754 78.5166 94.3753C78.4352 94.5751 78.3097 94.7545 78.1493 94.9005C77.9478 95.0657 77.7373 95.22 77.5187 95.3626C76.9481 95.7951 76.2587 96.0476 75.5405 96.0873C74.8223 96.127 74.1086 95.9521 73.4926 95.5852C73.3956 95.5261 73.3043 95.4612 73.2073 95.3964C73.1588 95.4753 73.2273 95.5683 73.2929 95.6303C73.6681 96.0058 74.1395 96.2736 74.6568 96.4052C75.6897 96.6109 76.7968 96.2474 77.6614 95.6979C78.0466 95.4528 78.5317 95.1344 78.7029 94.6807C78.6401 94.8442 79.0795 95.14 79.1794 95.2076C79.3252 95.2967 79.4505 95.4147 79.5475 95.5542C79.6044 95.6413 79.6477 95.7363 79.6759 95.836C79.8122 95.8066 79.9405 95.749 80.0525 95.6669C79.9526 95.4266 79.7926 95.2153 79.5874 95.0527Z" fill="#263238"/>
<path d="M66.3964 81.6343C66.064 81.2277 65.5918 80.9559 65.0696 80.8707C64.6307 80.8247 64.187 80.863 63.7628 80.9834C62.5729 81.2652 61.3117 82.1866 60.3815 82.9558C59.5124 83.6479 58.8399 84.5509 58.4298 85.5764C58.0788 86.5288 58.0189 87.6052 57.4169 88.4251C57.3237 88.5187 57.2697 88.6434 57.2656 88.7745C57.2913 88.9549 57.5082 89.0422 57.6936 89.0563C57.9932 89.0665 58.287 88.9728 58.524 88.7915C58.2391 89.3781 58.0989 90.0229 58.1148 90.6733C58.1306 91.3237 58.3021 91.9611 58.6153 92.5335C58.6813 92.6813 58.7973 92.8018 58.9434 92.8744C59.2716 92.9956 59.5683 92.649 59.7424 92.3503C59.8524 92.8475 60.027 93.3286 60.2617 93.7817C60.5511 94.4227 61.0548 94.946 61.6884 95.2639C61.9737 95.3822 62.3332 95.4217 62.5444 95.1963C62.6303 95.0843 62.6854 94.9523 62.7042 94.813C62.8522 94.1537 62.9183 93.4791 62.901 92.804C63.0346 92.9408 63.2156 93.0227 63.4077 93.0331C63.5999 93.0436 63.7889 92.9818 63.9368 92.8603C64.2283 92.6056 64.4285 92.2646 64.5075 91.8882C64.779 90.9315 64.8123 89.9242 64.6045 88.9521C64.8413 89.0112 65.0639 88.8112 65.198 88.6055C65.5414 87.9862 65.7025 87.2844 65.6631 86.5795C65.6212 85.8055 65.6365 85.0295 65.7088 84.2577C65.715 84.0308 65.7643 83.8071 65.8543 83.5983C65.9001 83.4944 65.9743 83.4051 66.0685 83.3405C66.1627 83.2758 66.2733 83.2382 66.3879 83.232C66.5078 83.2443 66.6263 83.2679 66.7417 83.3024C66.7995 83.3189 66.8606 83.3203 66.9192 83.3064C66.9777 83.2926 67.0315 83.264 67.0755 83.2235C67.3495 82.891 66.599 81.871 66.3964 81.6343Z" fill="black"/>
<path d="M72.0203 96.5205C71.3516 96.2701 70.6484 96.121 69.9345 96.0782C69.2336 96.0163 68.5383 95.9033 67.8544 95.74C67.2515 95.5938 66.6886 95.3187 66.2051 94.9341C65.9927 94.7696 65.8011 94.5804 65.6344 94.3706C65.4583 94.0951 65.3075 93.8047 65.1836 93.5027C65.1551 93.4407 64.9839 93.3365 64.9668 93.4661C64.8983 94.0296 65.2949 94.6101 65.6573 95.0074C66.1145 95.4807 66.6859 95.8316 67.3179 96.0274C68.0033 96.2432 68.712 96.3785 69.4294 96.4304C69.8318 96.467 70.2369 96.4924 70.6421 96.529C71.0958 96.5684 71.5438 96.6502 71.9975 96.6727C72.0717 96.6642 72.0603 96.5431 72.0203 96.5205Z" fill="#263238"/>
<path d="M69.4837 83.8466C68.953 84.1706 68.3852 84.6722 68.1911 85.2752C68.1341 85.4527 68.0399 85.7711 68.2682 85.8669C68.4964 85.9627 68.8389 85.6809 69.0243 85.5372C69.3961 85.2686 69.7818 85.0193 70.1799 84.7905C70.3573 84.6895 70.5157 84.5589 70.6479 84.4045C71.1729 83.7141 70.16 83.4803 69.6663 83.7423L69.4837 83.8466Z" fill="#37474F"/>
<path d="M77.3904 82.9784C77.9611 83.2264 78.5945 83.6462 78.8713 84.2154C78.9512 84.3845 79.0882 84.6888 78.8713 84.8156C78.6544 84.9424 78.2721 84.7085 78.0781 84.5902C77.6929 84.3591 77.2392 84.1985 76.8311 84.0069C76.6404 83.9318 76.4646 83.824 76.3118 83.6885C75.6983 83.0771 76.6656 82.7051 77.1907 82.8995C77.262 82.9221 77.3248 82.9503 77.3904 82.9784Z" fill="#37474F"/>
<path d="M60.5012 96.0923C62.5899 98.0901 66.8385 100.063 70.8846 99.6822C75.1048 99.282 76.0492 98.4423 76.0492 98.4423L76.4088 100.451C75.0511 101.09 73.6016 101.518 72.1116 101.719C69.398 102.142 63.6485 101.587 59.7422 97.8224L60.5012 96.0923Z" fill="#EBB461"/>
<path d="M71.3097 87.1205C71.3716 87.2609 71.3898 87.4162 71.3621 87.5667C71.3344 87.7173 71.262 87.8563 71.1541 87.9662C71.0462 88.076 70.9076 88.1518 70.7561 88.1837C70.6045 88.2156 70.4468 88.2024 70.3028 88.1456C70.1589 88.0889 70.0353 87.9911 69.9478 87.8649C69.8602 87.7386 69.8126 87.5895 69.8111 87.4364C69.8095 87.2834 69.854 87.1334 69.939 87.0054C70.0239 86.8774 70.1455 86.7772 70.2882 86.7176C70.3821 86.6776 70.483 86.6563 70.5852 86.6549C70.6874 86.6535 70.7888 86.6721 70.8837 86.7095C70.9787 86.7469 71.0652 86.8025 71.1383 86.8731C71.2114 86.9436 71.2696 87.0277 71.3097 87.1205Z" fill="white"/>
<path d="M71.4269 87.0276C71.4885 87.1678 71.5065 87.323 71.4787 87.4734C71.4508 87.6238 71.3784 87.7626 71.2706 87.8724C71.1628 87.9821 71.0244 88.0577 70.8731 88.0897C70.7217 88.1216 70.5641 88.1085 70.4202 88.0519C70.2764 87.9954 70.1528 87.8979 70.0652 87.7719C69.9775 87.6459 69.9297 87.497 69.9278 87.3441C69.9259 87.1913 69.97 87.0413 70.0545 86.9132C70.139 86.7851 70.2601 86.6847 70.4025 86.6246C70.4965 86.5842 70.5977 86.5625 70.7002 86.5609C70.8027 86.5593 70.9045 86.5778 70.9998 86.6152C71.095 86.6527 71.1818 86.7084 71.2551 86.7792C71.3284 86.85 71.3868 86.9344 71.4269 87.0276Z" fill="black"/>
<path d="M70.6538 87.1261C70.6649 87.1711 70.6893 87.2119 70.7239 87.2433C70.7586 87.2746 70.8019 87.2951 70.8483 87.302C70.8947 87.309 70.9422 87.3022 70.9847 87.2824C71.0272 87.2627 71.0628 87.2309 71.087 87.1911C71.1112 87.1514 71.1228 87.1054 71.1205 87.0591C71.1181 87.0127 71.1018 86.9682 71.0738 86.931C71.0457 86.8938 71.007 86.8657 70.9627 86.8503C70.9184 86.8348 70.8705 86.8328 70.825 86.8443C70.7949 86.8515 70.7666 86.8646 70.7417 86.8827C70.7168 86.9009 70.6958 86.9237 70.6798 86.9499C70.6639 86.9761 70.6534 87.0052 70.6489 87.0354C70.6445 87.0657 70.6461 87.0965 70.6538 87.1261Z" fill="#FAFAFA"/>
<path d="M78.0437 85.7989C77.8734 85.7872 77.7052 85.8421 77.5755 85.9518C77.4458 86.0614 77.3649 86.217 77.3504 86.385C77.3433 86.4678 77.353 86.5512 77.3788 86.6302C77.4047 86.7093 77.4461 86.7826 77.5008 86.8457C77.5554 86.9089 77.6222 86.9607 77.6973 86.9982C77.7724 87.0357 77.8543 87.0581 77.9382 87.0641C78.1085 87.0758 78.2767 87.0209 78.4064 86.9113C78.5361 86.8016 78.617 86.646 78.6315 86.478C78.6385 86.3952 78.6289 86.3119 78.603 86.2328C78.5772 86.1537 78.5358 86.0805 78.4811 86.0174C78.4265 85.9542 78.3597 85.9024 78.2846 85.8649C78.2095 85.8274 78.1276 85.805 78.0437 85.7989Z" fill="white"/>
<path d="M78.0894 85.6862C77.919 85.6744 77.7509 85.7293 77.6212 85.839C77.4914 85.9486 77.4106 86.1042 77.396 86.2723C77.3886 86.3551 77.398 86.4386 77.4237 86.5178C77.4493 86.5971 77.4908 86.6705 77.5455 86.7337C77.6002 86.7969 77.6672 86.8487 77.7424 86.8861C77.8177 86.9235 77.8998 86.9457 77.9838 86.9513C78.1541 86.963 78.3223 86.9082 78.452 86.7985C78.5817 86.6889 78.6626 86.5332 78.6772 86.3652C78.6842 86.2824 78.6745 86.1991 78.6487 86.12C78.6229 86.041 78.5814 85.9677 78.5268 85.9046C78.4721 85.8414 78.4053 85.7896 78.3302 85.7521C78.2551 85.7146 78.1733 85.6922 78.0894 85.6862Z" fill="black"/>
<path d="M78.2124 86.3034C78.1872 86.3057 78.1618 86.3029 78.1377 86.2953C78.1136 86.2877 78.0912 86.2754 78.0721 86.2591C78.0529 86.2428 78.0372 86.2228 78.026 86.2004C78.0149 86.178 78.0084 86.1536 78.0069 86.1287C78.003 86.0783 78.0194 86.0284 78.0525 85.9898C78.0856 85.9513 78.1328 85.9273 78.1838 85.923C78.209 85.921 78.2342 85.924 78.2582 85.9318C78.2821 85.9395 78.3043 85.9519 78.3233 85.9681C78.3424 85.9844 78.3581 86.0042 78.3694 86.0264C78.3807 86.0486 78.3875 86.0728 78.3893 86.0977C78.3932 86.1481 78.3769 86.198 78.3437 86.2365C78.3106 86.275 78.2634 86.299 78.2124 86.3034Z" fill="#FAFAFA"/>
<path d="M79.2108 117.95C79.1163 117.704 79.0652 117.444 79.0596 117.181C78.9512 114.363 79.3449 111.435 80.6061 108.871C81.9101 106.222 83.6107 103.92 83.8133 100.863C83.879 99.8963 83.8133 98.8904 84.1586 97.9915C84.3184 97.5885 84.5581 97.2222 84.7064 96.8165C84.9547 96.1374 84.929 95.3935 85.0317 94.6806C85.0882 94.137 85.3011 93.6208 85.6452 93.1928C85.7922 93.0242 85.9714 92.8858 86.1727 92.7857C86.3739 92.6856 86.5932 92.6258 86.8179 92.6095C86.8179 91.6346 87.7909 90.9189 88.6584 91.2007C88.8277 90.9456 89.0729 90.7487 89.3603 90.6371C89.6221 90.5368 89.9104 90.5259 90.1792 90.6061C90.4866 90.7106 90.7486 90.9156 90.9219 91.1871C91.0953 91.4587 91.1694 91.7806 91.1322 92.0995C91.1195 92.176 91.1195 92.2541 91.1322 92.3306C91.1561 92.4125 91.1959 92.489 91.2492 92.556C91.8199 93.4013 92.0482 94.6637 91.3691 95.4921C91.1608 95.7457 90.8869 95.943 90.6985 96.2107C90.2648 96.8278 90.3847 97.6674 90.1507 98.3832C89.9481 99.0087 89.4858 99.5103 89.0835 100.034C87.517 102.077 87.1204 104.402 86.8008 106.901C86.6211 108.254 86.4527 109.812 86.3528 111.173C86.2621 112.658 86.0271 114.131 85.6509 115.572C85.0802 117.637 83.6535 119.119 81.388 119.136C80.9591 119.152 80.532 119.073 80.1382 118.905C79.7133 118.72 79.3798 118.377 79.2108 117.95Z" fill="#455A64"/>
<path d="M85.3259 116.454C85.0603 117.143 84.6189 117.753 84.0445 118.224C83.4701 118.696 82.7822 119.013 82.0473 119.145C80.9687 119.35 79.562 119.145 79.1397 117.981C79.011 117.629 78.951 117.256 78.9628 116.882C78.9063 115.417 79.0144 113.95 79.2853 112.509C79.7532 109.561 81.5252 107.124 82.7464 104.475C83.3613 103.16 83.6972 101.734 83.7337 100.285C83.7167 99.5444 83.8129 98.8053 84.019 98.0929C84.2815 97.3997 84.7295 96.8249 84.8037 96.0754C84.915 95.3709 84.8864 94.6158 85.1547 93.9085C85.2663 93.5467 85.4838 93.2255 85.7798 92.9853C86.0758 92.7452 86.437 92.5968 86.8182 92.5588L86.7725 92.6095C86.7788 92.2647 86.9028 91.9321 87.1244 91.6656C87.3461 91.3992 87.6525 91.2144 87.9938 91.1415C88.2195 91.0979 88.4529 91.1144 88.67 91.1894H88.6472C88.8088 90.9449 89.0447 90.7573 89.321 90.6535C89.5973 90.5497 89.8999 90.5351 90.1852 90.6117C89.902 90.5304 89.5989 90.5504 89.3291 90.6681C89.0588 90.7901 88.8292 90.9856 88.6672 91.2316C88.4547 91.1642 88.2284 91.1515 88.0096 91.1949C87.7908 91.2383 87.5869 91.3363 87.4174 91.4796C87.241 91.6205 87.1002 91.8001 87.0061 92.004C86.912 92.2079 86.8672 92.4307 86.8752 92.6546C85.0976 92.8378 85.1033 94.7229 84.972 96.0979C84.9121 96.839 84.4556 97.4843 84.2073 98.1549C83.7822 99.5384 84.0903 101.071 83.6795 102.477C83.1687 104.627 81.9503 106.529 80.9431 108.462C79.5535 111.032 79.0884 113.985 79.1426 116.876C79.0684 118.037 79.7133 118.978 80.9459 119.066C81.8635 119.154 82.7855 118.948 83.5747 118.477C84.3638 118.006 84.978 117.297 85.3259 116.454Z" fill="#37474F"/>
<path d="M89.8199 95.3401C89.4176 94.7146 89.8199 94.027 90.325 93.61C90.6103 93.3846 91.0098 93.269 91.2837 93.5536C91.4203 93.7139 91.5075 93.9095 91.5348 94.1172C91.5979 94.38 91.5785 94.6556 91.4791 94.9073C91.3797 95.159 91.2051 95.3748 90.9784 95.5261C90.8784 95.6012 90.7652 95.6576 90.6446 95.6923C90.4871 95.7236 90.3238 95.7067 90.1764 95.6437C90.029 95.5808 89.9046 95.4748 89.8199 95.3401Z" fill="#37474F"/>
<path d="M89.8197 95.3401C89.4887 94.8555 89.6856 94.213 90.0451 93.8073C90.4046 93.2973 91.1864 93.0127 91.526 93.7284C91.6497 93.9942 91.6907 94.2903 91.644 94.5792C91.5973 94.8681 91.4648 95.1368 91.2635 95.3514C90.8469 95.7966 90.182 95.8952 89.8197 95.3514V95.3401ZM89.8197 95.3401C90.1992 95.9037 90.8126 95.7544 91.1864 95.281C91.3419 95.0723 91.4376 94.8262 91.4637 94.5684C91.4898 94.3106 91.4453 94.0507 91.3348 93.8157C91.098 93.2522 90.4446 93.503 90.125 93.8749C89.7341 94.2412 89.4915 94.8555 89.8197 95.3401Z" fill="#263238"/>
<path d="M89.6716 91.5305C89.6084 91.56 89.549 91.5969 89.4946 91.6404C89.3362 91.7904 89.2168 91.976 89.1465 92.1814C88.9825 92.5879 88.8946 93.0204 88.8869 93.4579C88.8723 93.6875 88.9093 93.9174 88.9953 94.1313C89.2806 94.7907 90.285 94.4469 90.5675 93.9341C90.6396 93.7912 90.6924 93.6396 90.7245 93.4832C90.8199 92.9555 90.7387 92.4115 90.4933 91.9334C90.424 91.7477 90.2851 91.5954 90.1053 91.508C89.9633 91.4587 89.8075 91.4668 89.6716 91.5305Z" fill="#37474F"/>
<path d="M89.6709 91.5304C89.0803 91.8629 89.0004 92.6575 88.9462 93.2605C88.892 93.8635 89.1117 94.6187 89.8935 94.3341C90.5355 94.1397 90.7495 93.4352 90.701 92.8322C90.6497 92.2997 90.4157 91.2317 89.6709 91.5304ZM89.6709 91.5304C90.4185 91.2289 90.6982 92.2799 90.8123 92.821C90.935 93.486 90.6896 94.32 89.9563 94.5313C89.009 94.8441 88.7094 94.0157 88.8378 93.2521C88.9405 92.6547 89.0831 91.8432 89.6652 91.5304H89.6709Z" fill="#263238"/>
<path d="M87.6113 92.252C87.3972 92.5332 87.2482 92.8574 87.1747 93.2016C87.0989 93.5212 87.1218 93.8559 87.2403 94.1625C87.3117 94.3316 87.383 94.5513 87.5685 94.6218C87.8513 94.6944 88.1516 94.6571 88.4074 94.5175C88.5319 94.4674 88.6475 94.3979 88.7498 94.3118C89.1179 93.9709 89.1321 93.2833 89.1407 92.8212C89.1407 92.3084 88.8382 91.6152 88.1934 91.8012C87.9559 91.8868 87.752 92.0446 87.6113 92.252Z" fill="#37474F"/>
<path d="M87.6113 92.2519C87.4082 92.5048 87.2703 92.8024 87.2092 93.1194C87.148 93.4364 87.1656 93.7634 87.2603 94.0722C87.3123 94.2188 87.3884 94.3559 87.4857 94.478C87.8024 94.7372 88.4387 94.4441 88.7041 94.1962C89.0636 93.7735 89.1121 92.9592 89.0322 92.4153C88.8468 91.5897 88.0507 91.6095 87.6056 92.2406L87.6113 92.2519ZM87.6113 92.2519C88.0592 91.5926 88.881 91.5644 89.135 92.3956C89.3033 93.148 89.3062 94.3371 88.4017 94.6273C87.791 94.8724 87.3259 94.7964 87.1633 94.1088C87.0926 93.7859 87.0962 93.4515 87.1737 93.1301C87.2512 92.8088 87.4008 92.5087 87.6113 92.2519Z" fill="#263238"/>
<path d="M90.3877 95.6727C90.3718 95.5084 90.3324 95.3471 90.2707 95.1937C89.954 94.385 89.0951 94.2159 88.3361 94.4977C87.5128 94.8231 86.8526 95.4559 86.4985 96.2588C86.3188 96.6843 86.2503 97.2169 86.5413 97.5775C86.6255 97.6784 86.7321 97.7586 86.8529 97.8119C86.9737 97.8652 87.1054 97.8901 87.2376 97.8847C87.6399 97.8621 87.9909 97.555 88.396 97.5606C88.9382 97.5606 89.4917 98.0002 89.9654 97.4902C90.1581 97.2538 90.2797 96.9687 90.3164 96.6674C90.3898 96.3411 90.4138 96.0059 90.3877 95.6727Z" fill="#263238"/>
<path d="M86.3215 95.9006C86.7296 96.0584 87.4001 95.6188 87.5656 95.261C87.6015 95.1798 87.6274 95.0947 87.6426 95.0074C87.7188 94.5693 87.6466 94.1187 87.4372 93.7253C87.3787 93.6188 87.2921 93.5298 87.1866 93.4678C87.0812 93.4058 86.9607 93.3731 86.838 93.3731C86.686 93.4033 86.5442 93.4707 86.4255 93.5692C86.3069 93.6676 86.2152 93.794 86.1589 93.9366C85.9135 94.3959 85.6196 95.6273 86.3215 95.9006Z" fill="#37474F"/>
<path d="M86.3217 95.9009C86.8553 96.0418 87.5173 95.5431 87.5858 95.0246C87.6543 94.5061 87.5487 93.844 87.1235 93.5509C86.1848 93.0268 85.3944 95.591 86.3217 95.9009ZM86.3217 95.9009C85.3373 95.5008 86.0364 92.7112 87.232 93.3649C87.8226 93.7538 87.9082 94.9063 87.4888 95.4332C87.2034 95.7319 86.7526 96.0165 86.3217 95.8925V95.9009Z" fill="#263238"/>
<path d="M85.7849 100.567C85.7282 100.632 85.6897 100.71 85.6732 100.794C85.6566 100.878 85.6627 100.965 85.6907 101.046C85.7906 101.266 86.0759 101.328 86.3156 101.328L86.4925 101.345C86.6561 101.37 86.8226 101.37 86.9861 101.345C87.1203 101.323 87.2446 101.261 87.3423 101.168C87.44 101.074 87.5065 100.954 87.5329 100.822C87.5593 100.69 87.5443 100.554 87.4899 100.431C87.4355 100.308 87.3444 100.204 87.2287 100.133C86.8149 99.8909 86.2043 100.133 85.8904 100.443C85.8505 100.48 85.8151 100.522 85.7849 100.567Z" fill="#37474F"/>
<path d="M52.2122 151.318C50.6228 149.317 47.4356 147.852 44.6536 146.998C44.0829 146.824 43.5122 146.655 42.9416 146.494L41.1154 145.987C41.9757 146.694 42.9217 147.293 43.9317 147.77C42.6734 147.955 41.3936 147.941 40.1395 147.731C38.8014 147.464 37.5366 146.917 36.4301 146.128C35.4021 145.381 34.5335 144.442 33.8744 143.363C33.2153 142.284 32.7786 141.087 32.5895 139.841C32.1508 140.376 31.8924 141.033 31.8505 141.721C30.3698 139.578 29.8001 136.948 30.264 134.395C30.712 131.816 32.0416 129.308 34.3757 127.897C35.2008 127.359 36.1156 126.969 37.0779 126.744C36.9694 127.801 36.8838 128.672 36.8296 129.776C34.8323 131.399 35.7767 133.98 36.5785 135.048C37.7684 136.632 39.7344 137.486 41.6975 137.866C43.3667 138.184 45.0844 138.345 46.6852 138.948C47.5888 139.261 48.4037 139.783 49.062 140.47L46.494 140.244C48.4144 140.969 50.031 142.312 51.0822 144.057C52.1466 145.843 52.3292 147.351 52.3406 149.425C52.3309 150.057 52.288 150.69 52.2122 151.318Z" fill="#37474F"/>
<path d="M112.054 82.1165C110.002 82.6378 106.447 83.8466 105.588 88.634C104.729 93.4214 104.107 103.706 104.101 103.726C103.976 104.571 101.102 112.65 100.472 113.811C100.186 114.326 99.9495 114.817 99.4331 115.121C98.754 115.524 97.9721 115.741 97.2616 116.076C95.5496 116.885 94.1657 118.232 92.8189 119.556C92.7162 119.642 92.6367 119.751 92.5878 119.875C92.2854 120.9 94.3227 120.548 94.7307 120.297C95.4583 119.849 97.3187 118.443 96.3457 120.373C95.464 122.12 94.0345 123.518 92.7048 124.935C92.4879 125.166 92.2625 125.499 92.4423 125.767C92.6649 126.082 93.1728 125.862 93.5523 125.95C93.6036 126.175 93.3811 126.367 93.3126 126.587C93.1927 126.978 93.5979 127.361 94.0145 127.395C94.4281 127.387 94.8335 127.28 95.1958 127.083C95.3178 127.026 95.4493 126.991 95.5839 126.981C95.7592 126.996 95.9314 127.037 96.0946 127.102C96.4512 127.202 96.8297 127.195 97.1822 127.082C97.5347 126.969 97.8454 126.756 98.0749 126.468C98.1391 126.354 98.2313 126.257 98.3431 126.186C98.4467 126.152 98.5566 126.139 98.6655 126.15C99.6385 126.164 99.8782 125.724 100.466 125.121C101.114 124.454 101.77 123.817 102.363 123.095C103.639 121.548 104.601 119.015 105.659 117.319C108.441 112.864 109.591 111.061 110.618 109.052C111.508 107.415 112.148 105.657 112.519 103.836C113.403 99.8685 113.56 97.2141 113.903 95.4277C115.218 88.5579 114.821 83.7142 112.054 82.1165Z" fill="#F1B7B6"/>
<path d="M118.319 138.433C118.733 138.822 120.379 138.151 121.381 137.379C122.383 136.607 125.09 135.375 126.169 134.812C127.633 134.133 129.154 133.583 130.714 133.166C133.197 132.589 134.281 132.504 135.494 131.27C135.764 131.002 135.971 130.679 136.103 130.324C136.234 129.969 136.286 129.59 136.256 129.213C136.256 129.213 135.306 130.36 131.568 129.793C127.83 129.227 125.861 128.182 124.5 128.385C123.139 128.587 119.618 129.591 117.289 127.779C116.567 127.215 116.87 126.35 117.181 126.249C116.593 126.57 116.422 127.046 116.256 127.536C116.151 127.855 116.025 128.292 115.928 128.582C115.689 129.329 115.295 130.735 114.285 131.425C113.734 131.803 113.54 131.918 113.74 132.36L118.319 138.433Z" fill="#816859"/>
<path d="M135.445 127.624C136.552 128.542 136.421 129.033 136.301 129.746C136.181 130.459 135.862 130.667 135.129 130.923C134.21 131.245 132.561 131.247 130.931 130.923C129.302 130.599 125.932 129.309 124.908 129.405C123.883 129.5 122.177 130.185 120.114 129.985C118.051 129.785 117.206 129.224 116.69 128.72C116.527 128.576 116.403 128.394 116.329 128.191C116.255 127.988 116.233 127.77 116.265 127.556C116.265 127.556 116.288 126.291 117.94 125.894C119.355 125.544 135.445 127.624 135.445 127.624Z" fill="#263238"/>
<path d="M108.133 134.533L110.35 143.414L115.044 140.487L116.927 139.255C117.692 138.805 118.924 138.072 120.134 137.367C120.907 136.917 120.188 136.522 120.733 135.916C121.278 135.31 122.662 134.831 122.662 134.831C121.778 134.831 120.898 134.95 120.046 135.184C118.388 135.649 117.92 135.598 117.121 134.691C116.322 133.783 115.537 131.67 113.965 132.273L108.133 134.533Z" fill="#F1B7B6"/>
<path d="M136.256 129.213C136.609 127.962 133.205 125.372 129.225 125.248C125.244 125.124 125.601 125.978 122.793 125.781C119.986 125.584 118.702 125.355 117.181 126.243C116.436 126.669 116.216 128.165 118.93 128.807C121.644 129.45 123.578 128.551 124.848 128.478C126.118 128.404 128.375 129.531 132.03 130.101C134.969 130.543 135.959 130.261 136.256 129.213Z" fill="#F0F0F0"/>
<path d="M134.598 141.884C135.011 142.273 136.658 141.603 137.659 140.831C138.661 140.058 141.369 138.827 142.45 138.264C143.913 137.585 145.433 137.034 146.993 136.618C149.475 136.04 150.562 135.956 151.772 134.722C152.042 134.453 152.25 134.131 152.382 133.776C152.514 133.421 152.567 133.042 152.537 132.665C152.537 132.665 151.584 133.811 147.846 133.245C144.108 132.679 142.139 131.633 140.778 131.836C139.417 132.039 135.896 133.042 133.57 131.23C132.846 130.667 133.148 129.802 133.459 129.7C132.871 130.022 132.7 130.498 132.537 130.988C132.432 131.306 132.304 131.743 132.209 132.033C131.967 132.78 131.573 134.186 130.566 134.877C130.012 135.254 129.818 135.37 130.018 135.812L134.598 141.884Z" fill="#A88674"/>
<path d="M151.724 131.075C152.831 131.994 152.699 132.484 152.58 133.197C152.46 133.91 152.14 134.118 151.407 134.375C150.488 134.696 148.839 134.699 147.209 134.375C145.58 134.051 142.21 132.76 141.186 132.856C140.162 132.952 138.455 133.637 136.392 133.437C134.329 133.236 133.488 132.676 132.968 132.171C132.806 132.027 132.682 131.845 132.608 131.642C132.534 131.439 132.512 131.221 132.543 131.008C132.543 131.008 132.566 129.742 134.218 129.345C135.65 128.996 151.724 131.075 151.724 131.075Z" fill="#263238"/>
<path d="M124.414 137.985L126.628 146.866L131.322 143.939L133.205 142.707C133.973 142.256 135.203 141.524 136.415 140.819C137.189 140.369 136.467 139.974 137.015 139.368C137.562 138.762 138.941 138.283 138.941 138.283C138.056 138.283 137.176 138.402 136.324 138.636C134.666 139.101 134.198 139.05 133.402 138.142C132.606 137.235 131.816 135.111 130.229 135.725L124.414 137.985Z" fill="#F1B7B6"/>
<path d="M152.537 132.665C152.891 131.414 149.487 128.824 145.504 128.7C141.52 128.576 141.883 129.43 139.072 129.233C136.262 129.035 134.98 128.807 133.46 129.695C132.715 130.12 132.495 131.616 135.209 132.259C137.922 132.901 139.86 132.002 141.127 131.929C142.394 131.856 144.653 132.983 148.309 133.552C151.25 134.006 152.238 133.724 152.537 132.665Z" fill="#F0F0F0"/>
<path d="M121.783 132.498C121.09 130.041 119.412 129.799 119.412 129.799L110.49 131.926C110.49 131.926 131.793 120.196 131.784 117.778L108.156 111.063C108.156 111.063 92.5248 128.7 89.6286 135.184C87.9166 139.007 87.657 141.896 89.2035 143.851C91.8229 147.162 95.8319 146.951 102.614 144.823C109.462 142.673 120.24 139.393 120.24 139.393C120.24 139.393 122.876 136.378 121.783 132.498Z" fill="#A88674"/>
<path d="M121.954 133.214C121.912 132.98 121.86 132.741 121.792 132.499C121.749 132.346 121.701 132.2 121.649 132.065C121.649 132.028 121.621 131.997 121.606 131.96C121.569 131.865 121.532 131.766 121.492 131.679L121.447 131.591C121.404 131.504 121.361 131.417 121.315 131.34L121.273 131.27C121.224 131.191 121.178 131.112 121.13 131.042C121.13 131.025 121.104 131.011 121.093 130.991C121.041 130.921 120.987 130.85 120.936 130.785L120.902 130.749C120.847 130.684 120.793 130.622 120.739 130.566L120.71 130.54C120.653 130.484 120.596 130.43 120.539 130.382C120.539 130.382 120.525 130.382 120.519 130.363L120.348 130.23L120.328 130.216C120.271 130.177 120.217 130.137 120.163 130.103H120.148C120.094 130.07 120.04 130.039 119.989 130.013L119.84 129.943L119.715 129.892L119.612 129.858L119.538 129.839H119.523H119.483H119.463L118.174 130.146L110.541 131.966C110.541 131.966 112.638 129.712 114.559 127.238L114.79 126.939V126.925C114.864 126.829 114.938 126.733 115.009 126.643V126.629C115.355 126.17 115.688 125.711 115.994 125.265L116.014 125.237C116.114 125.091 116.211 124.955 116.299 124.803L107.762 116.88C106.834 121.698 110.236 126.037 110.236 126.037C110.236 126.037 101.961 136.198 98.7794 140.786C96.2798 144.39 92.9756 144.852 90.5616 143.634C88.413 142.55 88.2219 140.681 88.2076 140.433C88.1505 141.811 88.473 142.969 89.2177 143.916C91.8371 147.227 95.8461 147.016 102.629 144.888C109.477 142.741 120.248 139.461 120.254 139.458C120.254 139.458 122.425 136.982 122.02 133.629C121.983 133.448 121.954 133.333 121.954 133.214Z" fill="#816859"/>
<path opacity="0.15" d="M112.384 135.367C115.237 132.682 122.459 129.481 124.054 128.745C123.198 127.649 122.202 127.581 122.18 127.579L117.834 129.035L113.488 130.492C113.488 130.492 108.352 138.289 104.979 139.106C107.751 138.561 110.314 137.267 112.384 135.367Z" fill="black"/>
<path d="M129.758 140.278C129.39 138.914 128.636 137.681 127.584 136.725L126.157 137.26C126.157 137.26 129.556 132.867 131.901 129.624C135.819 124.208 136.838 117.158 133.57 110.632L117.323 114.859L108.155 111.058C105.545 120.3 113.14 126.181 113.14 126.181C113.14 126.181 105.559 138.038 103.795 142.4C102.135 146.511 102.397 149.822 104.118 151.631C107.025 154.697 111.597 155.404 117.908 152.18C123.9 149.126 129.989 144.795 129.989 144.795C129.989 144.795 130.552 143.459 129.758 140.278Z" fill="#A88674"/>
<path d="M127.584 136.725L126.157 137.261C126.157 137.261 119.101 145.666 115.72 146.483C115.72 146.483 119.951 145.962 123.139 142.747C125.204 140.645 127.584 136.725 127.584 136.725Z" fill="#816859"/>
<path d="M129.088 116.172C129.27 116.843 129.383 117.53 129.424 118.223C129.424 118.395 129.447 118.57 129.467 118.742L129.501 119.257C129.524 119.604 129.553 119.948 129.558 120.294C129.564 120.641 129.59 120.985 129.601 121.329C129.601 121.5 129.601 121.675 129.601 121.847C129.601 122.019 129.601 122.191 129.601 122.365C129.607 123.062 129.572 123.758 129.496 124.451C129.822 123.808 130.027 123.112 130.101 122.396C130.19 121.689 130.217 120.975 130.181 120.263C130.147 119.551 130.051 118.843 129.895 118.147C129.852 117.973 129.81 117.798 129.761 117.626C129.713 117.454 129.65 117.285 129.59 117.116C129.477 116.776 129.307 116.457 129.088 116.172ZM127.604 118.085C127.525 117.073 127.262 116.083 126.825 115.163C127.017 116.135 127.113 117.123 127.11 118.113C127.11 119.097 127.062 120.086 126.968 121.058C126.931 121.551 126.871 122.041 126.811 122.529C126.779 122.774 126.751 123.019 126.717 123.264C126.682 123.509 126.645 123.755 126.611 124C126.463 124.98 126.297 125.958 126.112 126.944C126.537 126.028 126.865 125.07 127.09 124.087C127.216 123.6 127.307 123.104 127.398 122.608C127.49 122.112 127.544 121.61 127.593 121.109C127.691 120.101 127.694 119.086 127.601 118.077L127.604 118.085ZM105.228 148.946L105.102 149.633L105.028 150.329L104.994 150.676C104.994 150.791 104.994 150.91 104.994 151.025V151.721C105.228 149.897 105.715 148.113 106.443 146.421C106.523 146.207 106.623 145.998 106.714 145.787L107 145.156C107.182 144.733 107.391 144.31 107.585 143.907C107.987 143.079 108.404 142.256 108.849 141.447C109.705 139.824 110.655 138.23 111.602 136.643L114.498 131.892C113.317 133.332 112.216 134.834 111.18 136.381C110.144 137.928 109.183 139.514 108.281 141.152C107.386 142.789 106.623 144.493 105.998 146.249C105.677 147.129 105.42 148.03 105.228 148.946ZM91.8739 140.492L91.7198 141.177L91.6428 141.515C91.6257 141.631 91.6143 141.749 91.6 141.862L91.5229 142.555C91.9672 140.769 92.6605 139.052 93.5831 137.455C93.6887 137.252 93.8085 137.055 93.9255 136.857L94.2708 136.26C94.5047 135.863 94.7587 135.477 94.9984 135.088C95.4977 134.31 96.0056 133.544 96.542 132.791C97.5949 131.275 98.7135 129.799 99.8405 128.331L103.265 123.943C101.924 125.24 100.657 126.606 99.4439 128.021C98.2312 129.435 97.0813 130.906 96.0027 132.431C94.9211 133.952 93.9604 135.553 93.1294 137.221C92.7159 138.068 92.3649 138.944 92.0794 139.841L91.8739 140.492Z" fill="#816859"/>
<path d="M126.235 61.3017C127.156 62.071 127.419 63.1587 128.232 63.9871C129.533 65.3143 131.89 65.2692 133.043 66.726C133.535 67.4047 133.77 68.2323 133.708 69.0647C133.67 70.1017 133.337 71.1696 133.685 72.1474C134.15 73.4576 135.491 74.2917 135.791 75.6386C135.878 76.0235 135.874 76.4229 135.781 76.8063C135.687 77.1897 135.506 77.5469 135.251 77.8505C134.943 78.2056 134.529 78.462 134.247 78.8368C133.73 79.5271 133.759 80.4598 133.716 81.3164C133.659 82.4435 133.371 83.689 132.455 84.3821C131.488 85.1148 130.109 85.0302 129.031 85.6079C128.309 85.9967 127.778 86.6617 127.113 87.1379C126.52 87.5662 125.647 87.8649 124.959 87.4873C124.337 87.167 123.755 86.7745 123.227 86.318C122.628 85.7375 122.357 84.8922 121.772 84.2976C120.83 83.348 119.332 83.255 118.125 82.6689C117.287 82.2456 116.595 81.5854 116.138 80.7725C115.68 79.9596 115.478 79.0308 115.557 78.1041C115.788 75.8781 117.643 73.9507 117.472 71.7191C117.389 70.6258 116.824 69.6339 116.467 68.597C116.111 67.56 116.008 66.2977 116.733 65.4664C117.303 64.8183 118.208 64.6211 118.787 63.9786C119.466 63.2432 119.178 62.1837 119.643 61.344C119.862 60.9788 120.163 60.6677 120.522 60.4343C120.88 60.2009 121.289 60.0514 121.715 59.9971C122.927 59.8222 124.165 60.0429 125.239 60.6255C125.592 60.8186 125.926 61.045 126.235 61.3017Z" fill="#263238"/>
<path d="M123.407 61.3746C123.574 61.5823 123.698 61.8208 123.772 62.0763C123.82 62.3652 123.772 62.6615 123.637 62.9221C123.502 63.1827 123.287 63.3938 123.021 63.5246C122.753 63.646 122.461 63.7088 122.165 63.7088C121.87 63.7088 121.578 63.646 121.309 63.5246C120.214 63.0766 118.456 61.4479 119.472 60.194C120.57 58.8217 122.67 60.38 123.407 61.3746Z" fill="#D2ECFF"/>
<path d="M103.733 93.892C104.962 88.5805 108.238 85.9656 112.053 82.1165C112.053 82.1165 112.647 81.9249 115.363 81.4346C118.079 80.9443 123.207 81.8488 126.896 82.5617C127.601 82.9421 133.625 85.3429 133.373 90.0908C133.108 95.0783 132.537 96.0504 132.517 102.466C132.5 106.933 134.406 109.249 135.331 114.448C132.66 119.506 113.985 122.118 106.563 112.892C107.402 110.506 108.324 107.085 106.64 101.661C104.118 100.111 103.159 96.3632 103.733 93.892Z" fill="#D2ECFF"/>
<path d="M121.57 79.2958C121.855 77.2276 124.138 75.2072 124.994 73.3785C125.85 71.6202 126.42 70.0507 126.269 68.4277C126.178 67.464 125.413 66.2439 124.694 65.9903C124.674 62.4624 121.501 59.9011 116.759 59.4446C115.172 59.3297 113.576 59.4609 112.031 59.8335C110.972 60.0424 109.956 60.4233 109.023 60.9606C108.124 61.4931 107.083 61.6791 106.275 62.3976C105.553 63.0373 105.094 64.0601 105.405 64.9674C105.588 65.5056 106.03 66.0213 105.882 66.5736C105.782 66.9427 105.439 67.1907 105.185 67.4809C104.93 67.771 104.754 68.1209 104.674 68.4972C104.594 68.8735 104.613 69.2637 104.728 69.6308C104.844 69.998 105.053 70.3297 105.335 70.5946C105.618 70.8594 105.964 71.0486 106.341 71.144C106.161 71.0232 106.036 70.8372 105.994 70.6262C105.952 70.4152 105.995 70.1963 106.116 70.0169C106.103 70.1671 106.131 70.3178 106.198 70.4536C106.264 70.5893 106.365 70.7051 106.492 70.789C106.894 71.1124 107.381 71.3164 107.896 71.3773C108.41 71.4381 108.932 71.3533 109.4 71.1327C109.602 71.0341 109.771 70.851 109.996 70.8312C110.282 70.8031 110.71 70.9918 110.995 71.051C111.697 71.206 112.399 71.3525 113.095 71.53C114.332 71.8128 115.524 72.2632 116.636 72.8685C117.392 73.3052 117.812 74.1759 118.322 74.8719L121.31 78.938L121.57 79.2958Z" fill="#263238"/>
<path d="M124.303 75.7033C122.925 76.6979 121.849 75.8554 121.849 75.8554L122.99 81.9615C122.745 84.9174 119.155 88.6199 114.564 87.9493C110.778 87.3858 113.777 84.1932 114.345 83.3845L113.905 81.3416C113.104 81.4127 112.297 81.3929 111.5 81.2824C109.354 80.8598 108.361 79.1663 107.745 77.4672C107.088 75.692 107.131 73.3222 107.214 72.2233C107.267 71.5172 107.223 70.8072 107.083 70.1128C106.766 68.3574 107.159 66.5492 108.178 65.0774C108.502 65.4216 108.89 65.7017 109.32 65.903C109.851 66.133 110.417 66.2766 110.995 66.3285C111.928 66.4166 112.868 66.3643 113.785 66.1735C114.258 66.0867 114.723 65.9614 115.175 65.7988C115.546 65.6397 115.891 65.427 116.199 65.1676C116.179 67.14 117.055 69.7324 119.278 70.1832C119.333 70.1885 119.384 70.2124 119.424 70.2509C119.446 70.2883 119.457 70.3314 119.455 70.3748C119.495 71.0455 119.455 72.6854 120.542 72.553C121.275 72.4656 121.238 71.5499 121.917 70.6763C122.597 69.8028 124.34 69.4281 125.133 70.5495C126.235 72.1162 125.815 74.6128 124.303 75.7033Z" fill="#F1B7B6"/>
<path d="M112.256 69.7635L109.24 74.0747L112.096 74.9623L112.256 69.7635Z" fill="#F28F8F"/>
<path d="M107.58 70.1127L109.203 69.3491C109.159 69.2418 109.093 69.1446 109.009 69.0636C108.925 68.9826 108.825 68.9195 108.715 68.8783C108.605 68.8371 108.488 68.8186 108.371 68.8239C108.254 68.8293 108.139 68.8585 108.033 68.9096C107.817 69.0151 107.649 69.1985 107.564 69.4222C107.48 69.6458 107.486 69.8929 107.58 70.1127Z" fill="#263238"/>
<path d="M115.725 70.0959L114.073 69.3971C114.113 69.2891 114.175 69.1903 114.255 69.1067C114.335 69.0231 114.431 68.9564 114.538 68.9108C114.644 68.8652 114.76 68.8415 114.876 68.8413C114.992 68.8411 115.108 68.8644 115.215 68.9097C115.438 69.0039 115.617 69.1801 115.712 69.4012C115.807 69.6224 115.812 69.8713 115.725 70.0959Z" fill="#263238"/>
<path d="M113.894 81.3416C116.448 80.8034 118.459 80.3159 119.632 78.3435C120.17 77.3356 120.596 76.2738 120.905 75.1763C120.905 75.1763 120.853 77.4587 120.154 79.0677C119.615 80.3075 118.103 81.5304 114.085 82.2489L113.894 81.3416Z" fill="#F28F8F"/>
<path d="M113.86 71.5078C113.866 71.7011 113.95 71.884 114.093 72.0165C114.236 72.149 114.426 72.2203 114.622 72.215C114.819 72.2013 115.002 72.1113 115.133 71.9646C115.263 71.818 115.33 71.6265 115.318 71.4317C115.317 71.3344 115.297 71.2383 115.258 71.1491C115.219 71.0599 115.162 70.9794 115.09 70.9124C115.019 70.8455 114.934 70.7935 114.842 70.7596C114.75 70.7257 114.651 70.7106 114.553 70.7152C114.455 70.7197 114.358 70.7439 114.27 70.7862C114.181 70.8285 114.102 70.888 114.037 70.9613C113.972 71.0345 113.923 71.1199 113.893 71.2124C113.862 71.3049 113.851 71.4024 113.86 71.4993V71.5078Z" fill="#263238"/>
<path d="M108.176 71.5725C108.201 71.7113 108.268 71.8395 108.367 71.9414C108.465 72.0433 108.592 72.1144 108.731 72.1458C108.871 72.1772 109.016 72.1676 109.15 72.1183C109.284 72.0689 109.4 71.9818 109.484 71.8679C109.568 71.754 109.617 71.6181 109.624 71.4773C109.631 71.3364 109.596 71.1966 109.523 71.0752C109.45 70.9538 109.343 70.8561 109.215 70.7943C109.086 70.7324 108.942 70.7091 108.801 70.7272C108.703 70.7416 108.609 70.775 108.525 70.8254C108.441 70.8758 108.367 70.9423 108.309 71.0209C108.251 71.0995 108.209 71.1888 108.186 71.2835C108.164 71.3782 108.16 71.4764 108.176 71.5725Z" fill="#263238"/>
<path d="M112.205 76.5739C112.351 76.9338 112.636 77.222 112.996 77.3761C113.357 77.5301 113.765 77.5375 114.131 77.3967C114.312 77.3301 114.479 77.2284 114.621 77.0977C114.762 76.967 114.876 76.8097 114.956 76.6351C115.036 76.4605 115.079 76.2721 115.085 76.0806C115.09 75.8892 115.057 75.6987 114.987 75.5201L112.205 76.5739Z" fill="#B16668"/>
<path d="M115.089 75.982C115.098 76.2862 115.01 76.5856 114.838 76.8382C114.666 77.0908 114.419 77.284 114.13 77.3909C113.965 77.4534 113.79 77.4868 113.614 77.4895C113.612 77.0979 113.765 76.7211 114.041 76.4395C114.317 76.1579 114.693 75.9937 115.089 75.982Z" fill="#F28F8F"/>
<path d="M131.967 85.0835C130.826 83.8634 129.499 83.1872 126.897 82.5475C125.185 84.0381 124.237 86.6361 123.15 87.8027C121.104 90.0006 113.201 97.4169 113.201 97.4169C113.201 97.4169 111.203 96.5857 109.137 95.7263C107.93 95.2275 102.323 92.7535 102.164 91.9448C102.038 91.3221 101.907 89.4398 101.724 88.8312C101.47 87.9223 101.118 87.0429 100.674 86.2078C100.557 85.964 100.407 85.7366 100.229 85.5316C100.105 85.3937 99.9465 85.2899 99.7697 85.2301C99.6442 85.2028 99.513 85.2197 99.3988 85.278C99.3988 85.278 98.9451 84.3143 98.7767 84.0297C98.3402 83.2886 97.7238 82.2094 97.233 81.4937C97.0781 81.2998 96.9073 81.1188 96.7223 80.9527C96.656 80.9077 96.5808 80.877 96.5017 80.8627C96.4226 80.8484 96.3413 80.8507 96.2632 80.8696C96.185 80.8885 96.1118 80.9235 96.0483 80.9723C95.9849 81.0211 95.9325 81.0826 95.8948 81.1527C95.7293 81.412 95.8463 81.953 95.9604 82.232C96.1117 82.6011 96.5311 83.4267 96.6795 83.793C96.2658 83.1308 95.8235 82.3137 95.4697 81.8206C95.2521 81.513 95.0014 81.2295 94.7221 80.9752C94.4701 80.7403 94.172 80.559 93.8461 80.4427C93.738 80.4158 93.6252 80.4135 93.5161 80.436C93.4069 80.4584 93.3044 80.5051 93.2162 80.5723C93.128 80.6396 93.0565 80.7258 93.0069 80.8244C92.9573 80.923 92.9311 81.0314 92.9302 81.1415C92.7263 81.133 92.5248 81.1863 92.3524 81.294C92.1801 81.4018 92.0452 81.5589 91.9657 81.7445C91.8031 82.1249 92.1483 82.9082 92.5079 83.4351C91.9372 83.1675 91.3665 83.7169 91.3893 84.241C91.4122 84.6891 92 85.6077 92.2054 86.005C93.0272 87.6055 93.7177 88.9383 94.0116 90.1048C94.1799 90.7726 94.6365 92.2717 94.8362 92.9226C95.2728 94.354 95.8891 95.2952 96.9791 96.1292C97.4528 96.4899 98.0092 96.8083 99.0421 97.5128C101.125 98.9357 104.135 101.018 105.197 101.785C106.701 102.872 108.741 104.447 111.038 105.701C114.362 107.516 115.963 107.262 118.148 105.851C120.38 104.413 127.051 98.4736 130.418 95.1712C133.505 92.1674 134.686 88.0084 131.967 85.0835Z" fill="#F1B7B6"/>
<path d="M92.6164 83.5565C92.8554 83.7893 93.0749 84.0409 93.2726 84.3088C93.4809 84.5906 93.8833 85.3373 94.0602 85.636C94.257 85.9689 94.4333 86.3133 94.588 86.6673C94.7599 87.0094 94.8856 87.3722 94.9618 87.7465C94.9618 87.7803 94.9276 87.8423 94.8962 87.7944C94.7089 87.4855 94.5448 87.1634 94.4054 86.8307C94.2542 86.5292 94.0944 86.2277 93.9261 85.9319C93.7577 85.636 93.3554 84.9062 93.1842 84.6216C92.9759 84.2919 92.7704 83.9623 92.565 83.6326C92.5422 83.5959 92.565 83.5086 92.6164 83.5565Z" fill="#F28F8F"/>
<path d="M93.07 81.2149C93.4126 81.5585 93.7265 81.9288 94.0088 82.3222C94.3968 82.8816 94.7558 83.46 95.0845 84.0552C95.3394 84.4797 95.5762 84.9146 95.795 85.3598C96.0607 85.7961 96.2534 86.2718 96.3657 86.7687C96.3657 86.811 96.32 86.9265 96.2687 86.8645C96.1421 86.6913 96.0403 86.5016 95.9662 86.3009C95.8635 86.0755 95.7636 85.8501 95.6552 85.6275C95.444 85.1936 95.2158 84.7822 94.9732 84.3539C94.7307 83.9256 94.2713 83.1084 94.0145 82.7224C93.849 82.4716 93.6978 82.2123 93.518 81.97C93.3382 81.7277 93.167 81.5164 93.013 81.2768C92.9873 81.2599 93.0158 81.1641 93.07 81.2149Z" fill="#F28F8F"/>
<path d="M95.9489 82.2489C95.8162 81.9416 95.7775 81.6027 95.8376 81.2739C95.9461 81.9192 96.7421 83.3563 97.2986 84.3284C97.9377 85.4555 97.9234 86.0867 97.9234 86.0867C97.9234 86.0867 97.6838 85.5739 96.668 83.8099C96.5196 83.4436 96.1001 82.618 95.9489 82.2489Z" fill="#F28F8F"/>
<path d="M99.7581 85.2385C99.8194 85.2572 99.8779 85.2837 99.9322 85.3174C100.19 86.2823 100.376 87.2646 100.489 88.2564C100.489 88.2564 99.8865 86.4079 99.3872 85.2864C99.5014 85.2282 99.6326 85.2113 99.7581 85.2385Z" fill="#F28F8F"/>
<path d="M86.2127 87.7291C85.9962 87.2567 85.7444 86.8008 85.4595 86.3653C85.4338 86.323 85.3967 86.3822 85.4138 86.4132C85.6493 86.8479 85.8525 87.299 86.0216 87.7629C86.1963 88.2043 86.343 88.656 86.461 89.1154C86.5786 89.4798 86.6383 89.86 86.6379 90.2425C86.6378 90.3292 86.6183 90.4149 86.5808 90.4933C86.5433 90.5717 86.4888 90.641 86.421 90.6962C86.2492 90.761 86.0593 90.761 85.8875 90.6962C85.5343 90.6066 85.2152 90.4176 84.9687 90.1524C84.9344 90.1157 84.9059 90.0819 84.8745 90.0425C85.0474 90.3993 85.3469 90.6811 85.7163 90.8343C86.1585 91.0174 86.7035 90.9329 86.8376 90.4172C86.8987 89.9972 86.8557 89.5689 86.7121 89.169C86.5834 88.677 86.4164 88.1956 86.2127 87.7291ZM90.801 85.5425C90.6064 86.4679 90.2604 87.3559 89.7766 88.1715C89.6035 88.493 89.3262 88.748 88.9891 88.8956C88.8116 88.9458 88.6246 88.9535 88.4436 88.9182C88.2625 88.883 88.0925 88.8057 87.9476 88.6927C87.6348 88.4459 87.3888 88.1265 87.2314 87.7629C87.0471 87.3712 86.8879 86.9684 86.7549 86.5569C86.4745 85.722 86.2486 84.8702 86.0786 84.0068C85.9873 83.5672 85.896 83.1276 85.819 82.6853C85.7419 82.2429 85.6678 81.8146 85.565 81.3834C85.565 81.3271 85.4965 81.3834 85.4994 81.4229C85.5905 82.4953 85.7516 83.5607 85.9816 84.6126C86.1726 85.5347 86.4408 86.4395 86.7834 87.3177C87.0688 88.0531 87.4739 88.8759 88.3214 89.0957C88.5035 89.143 88.694 89.1491 88.8788 89.1135C89.0636 89.0778 89.2379 89.0014 89.3886 88.89C89.678 88.654 89.9068 88.3537 90.0562 88.0137C90.4417 87.2357 90.7007 86.4028 90.8238 85.5453C90.8267 85.5397 90.8038 85.5199 90.801 85.5425ZM95.5062 102.773C95.2177 101.876 94.8521 101.005 94.4134 100.17C94.0396 99.4707 93.5573 98.6959 92.7013 98.569C92.5147 98.5414 92.3241 98.5557 92.1438 98.6108C91.9634 98.6659 91.798 98.7605 91.6598 98.8875C91.3971 99.1534 91.2015 99.4768 91.0892 99.8314C90.7911 100.646 90.6254 101.502 90.5984 102.367C90.5984 102.384 90.6212 102.401 90.6241 102.367C90.7137 101.426 90.9595 100.505 91.3517 99.6426C91.487 99.3052 91.7332 99.0224 92.0508 98.8396C92.2222 98.7703 92.4079 98.7424 92.5925 98.7581C92.7771 98.7737 92.9552 98.8326 93.1122 98.9297C93.4504 99.1401 93.73 99.4307 93.9254 99.7751C94.1521 100.143 94.3551 100.526 94.5332 100.919C94.9037 101.72 95.2221 102.544 95.4862 103.385C95.626 103.81 95.7716 104.23 95.8914 104.67C96.0112 105.109 96.1368 105.515 96.2852 105.938C96.3023 105.988 96.3508 105.921 96.3451 105.89C96.1353 104.834 95.855 103.793 95.5062 102.773ZM94.9355 99.7074C95.2035 100.154 95.5039 100.58 95.8343 100.984C95.8657 101.021 95.8971 100.959 95.8771 100.93C95.5935 100.525 95.3408 100.099 95.121 99.6567C94.9041 99.2346 94.7135 98.7999 94.5503 98.3549C94.3903 98.0041 94.2882 97.6302 94.2479 97.2475C94.2383 97.1614 94.2482 97.0743 94.2768 96.9925C94.3054 96.9106 94.3521 96.8361 94.4134 96.7741C94.5747 96.6877 94.7625 96.6626 94.9412 96.7037C95.3029 96.7553 95.6417 96.9089 95.9171 97.1461L96.0198 97.2447C95.8082 96.9094 95.4808 96.6612 95.0982 96.5459C94.6359 96.4135 94.1023 96.5459 94.0281 97.0841C94.0139 97.5076 94.104 97.9282 94.2907 98.3098C94.4695 98.7911 94.6851 99.2583 94.9355 99.7074Z" fill="#F5D095"/>
<path d="M83.2089 66.3597C82.6987 68.3617 81.4343 70.0961 79.6736 71.2091L78.8518 71.6684C76.9949 72.5772 74.8593 72.7613 72.871 72.1837C70.8828 71.6062 69.1881 70.3095 68.1253 68.5525C67.0625 66.7956 66.7096 64.7074 67.1371 62.7048C67.5645 60.7022 68.7409 58.9324 70.4315 57.7486L71.2304 57.2526C72.6358 56.4808 74.2393 56.1322 75.843 56.2499C77.4467 56.3676 78.9804 56.9464 80.2548 57.9149C81.5292 58.8834 82.4886 60.1991 83.0146 61.6998C83.5406 63.2005 83.6101 64.8204 83.2146 66.3597H83.2089Z" fill="#FAFAFA"/>
<path d="M77.4019 55.8067C75.2264 55.2607 72.9225 55.5429 70.9479 56.5972C68.9734 57.6515 67.4728 59.4008 66.7442 61.4974C66.0157 63.5941 66.1125 65.8847 67.0155 67.9141C67.9184 69.9435 69.5615 71.5632 71.6181 72.4513L71.9605 75.1733C71.9734 75.2759 72.0173 75.3722 72.0866 75.4497C72.1559 75.5272 72.2473 75.5822 72.3488 75.6075C72.4503 75.6327 72.5572 75.6271 72.6554 75.5914C72.7536 75.5557 72.8386 75.4914 72.8993 75.4072L74.5057 73.1698C76.7427 73.3501 78.9666 72.6928 80.7354 71.3286C82.5043 69.9643 83.6888 67.9928 84.0536 65.8058C84.4184 63.6189 83.9368 61.3764 82.7045 59.5239C81.4721 57.6714 79.5793 56.3445 77.4019 55.8067ZM83.2085 66.3593C82.6983 68.3613 81.4339 70.0957 79.6732 71.2087L78.8514 71.668C76.9945 72.5769 74.8588 72.7609 72.8706 72.1833C70.8823 71.6058 69.1877 70.3092 68.1249 68.5522C67.0621 66.7952 66.7092 64.707 67.1366 62.7044C67.5641 60.7018 68.7405 58.932 70.4311 57.7482L71.23 57.2522C72.6354 56.4804 74.2389 56.1319 75.8426 56.2495C77.4462 56.3672 78.9799 56.946 80.2544 57.9145C81.5288 58.883 82.4882 60.1987 83.0142 61.6994C83.5402 63.2001 83.6097 64.82 83.2142 66.3593H83.2085Z" fill="#455A64"/>
<g filter="url(#filter1_d_544_4532)">
<path fill-rule="evenodd" clip-rule="evenodd" d="M70.8794 63.8536C70.8794 62.8219 70.8794 62.306 71.1164 61.8784C71.3535 61.4507 71.7865 61.1853 72.6526 60.6545L73.5657 60.0949C74.4812 59.5338 74.939 59.2532 75.4448 59.2532C75.9506 59.2532 76.4084 59.5338 77.3239 60.0949L78.237 60.6545C79.1031 61.1853 79.5361 61.4507 79.7732 61.8784C80.0102 62.306 80.0102 62.8219 80.0102 63.8536V64.5393C80.0102 66.298 80.0102 67.1774 79.4753 67.7237C78.99 68.2195 78.2362 68.2654 76.8144 68.2697V66.2413C76.8144 66.2413 76.8239 66.1034 76.8144 66.0159C76.7459 65.3847 76.0876 64.8888 75.4448 64.8888C74.802 64.8888 74.1437 65.3847 74.0752 66.0159C74.0657 66.1034 74.0752 66.2413 74.0752 66.2413V68.2697C72.6534 68.2654 71.8996 68.2195 71.4143 67.7237C70.8794 67.1774 70.8794 66.298 70.8794 64.5393V63.8536ZM74.0752 68.2697C74.2203 68.2701 74.3723 68.2701 74.5317 68.2701H76.3579C76.5173 68.2701 76.6693 68.2701 76.8144 68.2697H74.0752Z" fill="#EBB461"/>
</g>
<path d="M8 176.408C8 168.287 15.9053 162.432 23.7472 164.543C40.9934 169.183 68.9914 175.712 90 175.712C111.009 175.712 139.007 169.183 156.253 164.543C164.095 162.432 172 168.287 172 176.408V222C172 228.627 166.627 234 160 234H20C13.3726 234 8 228.627 8 222V176.408Z" fill="#83CBFF"/>
<path d="M70.3281 198H68.5859V193.055H62.7969V198H61.0469V186.727H62.7969V191.461H68.5859V186.727H70.3281V198ZM75.8984 196.727C76.5286 196.727 77.0521 196.549 77.4688 196.195C77.8906 195.841 78.1016 195.398 78.1016 194.867V194.156L76.0234 194.289C75.4401 194.326 75.0104 194.445 74.7344 194.648C74.4583 194.852 74.3203 195.141 74.3203 195.516C74.3203 195.891 74.4661 196.188 74.7578 196.406C75.0495 196.62 75.4297 196.727 75.8984 196.727ZM75.4688 198.141C74.6354 198.141 73.9531 197.909 73.4219 197.445C72.8958 196.977 72.6328 196.359 72.6328 195.594C72.6328 194.833 72.9062 194.237 73.4531 193.805C74 193.367 74.7812 193.117 75.7969 193.055L78.1016 192.922V192.188C78.1016 191.734 77.9531 191.388 77.6562 191.148C77.3594 190.904 76.9271 190.781 76.3594 190.781C75.8906 190.781 75.5 190.865 75.1875 191.031C74.8802 191.193 74.6797 191.424 74.5859 191.727H72.9609C73.0443 190.997 73.401 190.417 74.0312 189.984C74.6667 189.547 75.4688 189.328 76.4375 189.328C77.5 189.328 78.3203 189.581 78.8984 190.086C79.4818 190.586 79.7734 191.286 79.7734 192.188V198H78.1562V196.805H78.0234C77.7682 197.232 77.4167 197.562 76.9688 197.797C76.526 198.026 76.026 198.141 75.4688 198.141ZM83.9766 198H82.3125V189.492H83.9766V195.344H84.1094L88.0312 189.492H89.6953V198H88.0312V192.117H87.9062L83.9766 198ZM83.1641 185.641H84.5625C84.5625 186.073 84.6901 186.44 84.9453 186.742C85.2005 187.044 85.5339 187.195 85.9453 187.195C86.3672 187.195 86.7031 187.044 86.9531 186.742C87.2083 186.44 87.3385 186.073 87.3438 185.641H88.7344C88.7344 186.406 88.4766 187.039 87.9609 187.539C87.4453 188.034 86.7734 188.281 85.9453 188.281C85.1172 188.281 84.4453 188.034 83.9297 187.539C83.4193 187.039 83.1641 186.406 83.1641 185.641ZM97.7031 196.586V190.906H94.7109L94.4766 194.109C94.388 195.177 94.1667 195.958 93.8125 196.453V196.586H97.7031ZM92.8281 200.227H91.2656V196.586H91.9531C92.5156 196.242 92.8438 195.388 92.9375 194.023L93.25 189.492H99.375V196.586H100.703V200.227H99.1484V198H92.8281V200.227ZM107.398 191.359C107.023 190.958 106.526 190.758 105.906 190.758C105.286 190.758 104.776 190.958 104.375 191.359C103.974 191.76 103.75 192.294 103.703 192.961H108C107.979 192.289 107.779 191.755 107.398 191.359ZM107.992 195.703H109.609C109.417 196.469 108.995 197.07 108.344 197.508C107.698 197.945 106.891 198.164 105.922 198.164C104.703 198.164 103.742 197.773 103.039 196.992C102.341 196.206 101.992 195.133 101.992 193.773C101.992 192.414 102.346 191.333 103.055 190.531C103.763 189.729 104.716 189.328 105.914 189.328C107.096 189.328 108.023 189.708 108.695 190.469C109.372 191.229 109.711 192.279 109.711 193.617V194.203H103.703V194.297C103.729 195.047 103.945 195.641 104.352 196.078C104.758 196.516 105.297 196.734 105.969 196.734C106.995 196.734 107.669 196.391 107.992 195.703ZM117.477 198V194.312H113.555V198H111.875V189.492H113.555V192.898H117.477V189.492H119.148V198H117.477ZM62.0703 219V211.906H58.2266V219H56.5469V210.492H63.7422V219H62.0703ZM67.9922 219H66.3281V210.492H67.9922V216.344H68.125L72.0469 210.492H73.7109V219H72.0469V213.117H71.9219L67.9922 219ZM82.6406 210.492V211.906H79.9609V219H78.2812V211.906H75.6016V210.492H82.6406ZM87.8516 219.164C86.6016 219.164 85.6198 218.771 84.9062 217.984C84.1927 217.198 83.8359 216.117 83.8359 214.742C83.8359 213.372 84.1927 212.294 84.9062 211.508C85.625 210.721 86.6068 210.328 87.8516 210.328C89.0911 210.328 90.0677 210.721 90.7812 211.508C91.5 212.294 91.8594 213.372 91.8594 214.742C91.8594 216.117 91.5026 217.198 90.7891 217.984C90.0755 218.771 89.0964 219.164 87.8516 219.164ZM87.8516 217.672C88.5755 217.672 89.1354 217.417 89.5312 216.906C89.9323 216.391 90.1328 215.669 90.1328 214.742C90.1328 213.82 89.9323 213.104 89.5312 212.594C89.1354 212.078 88.5755 211.82 87.8516 211.82C87.1224 211.82 86.5599 212.076 86.1641 212.586C85.7682 213.096 85.5703 213.815 85.5703 214.742C85.5703 215.674 85.7682 216.396 86.1641 216.906C86.5599 217.417 87.1224 217.672 87.8516 217.672ZM95.6641 219H94.0312V210.492H96.1406L98.8828 216.578H99.0156L101.766 210.492H103.82V219H102.18V213.133H102.031L99.5391 218.656H98.3047L95.8125 213.133H95.6641V219ZM111.398 212.359C111.023 211.958 110.526 211.758 109.906 211.758C109.286 211.758 108.776 211.958 108.375 212.359C107.974 212.76 107.75 213.294 107.703 213.961H112C111.979 213.289 111.779 212.755 111.398 212.359ZM111.992 216.703H113.609C113.417 217.469 112.995 218.07 112.344 218.508C111.698 218.945 110.891 219.164 109.922 219.164C108.703 219.164 107.742 218.773 107.039 217.992C106.341 217.206 105.992 216.133 105.992 214.773C105.992 213.414 106.346 212.333 107.055 211.531C107.763 210.729 108.716 210.328 109.914 210.328C111.096 210.328 112.023 210.708 112.695 211.469C113.372 212.229 113.711 213.279 113.711 214.617V215.203H107.703V215.297C107.729 216.047 107.945 216.641 108.352 217.078C108.758 217.516 109.297 217.734 109.969 217.734C110.995 217.734 111.669 217.391 111.992 216.703ZM124.336 221.227H122.781V219H115.875V210.492H117.555V217.586H121.328V210.492H123.008V217.586H124.336V221.227Z" fill="#FCFCFC"/>
</g>
<defs>
<filter id="filter0_d_544_4532" x="0" y="0" width="180" height="246" filterUnits="userSpaceOnUse" color-interpolation-filters="sRGB">
<feFlood flood-opacity="0" result="BackgroundImageFix"/>
<feColorMatrix in="SourceAlpha" type="matrix" values="0 0 0 0 0 0 0 0 0 0 0 0 0 0 0 0 0 0 127 0" result="hardAlpha"/>
<feOffset dy="4"/>
<feGaussianBlur stdDeviation="4"/>
<feComposite in2="hardAlpha" operator="out"/>
<feColorMatrix type="matrix" values="0 0 0 0 0.354167 0 0 0 0 0.354167 0 0 0 0 0.354167 0 0 0 0.06 0"/>
<feBlend mode="normal" in2="BackgroundImageFix" result="effect1_dropShadow_544_4532"/>
<feBlend mode="normal" in="SourceGraphic" in2="effect1_dropShadow_544_4532" result="shape"/>
</filter>
<filter id="filter1_d_544_4532" x="62.8794" y="55.2532" width="25.1309" height="25.0169" filterUnits="userSpaceOnUse" color-interpolation-filters="sRGB">
<feFlood flood-opacity="0" result="BackgroundImageFix"/>
<feColorMatrix in="SourceAlpha" type="matrix" values="0 0 0 0 0 0 0 0 0 0 0 0 0 0 0 0 0 0 127 0" result="hardAlpha"/>
<feOffset dy="4"/>
<feGaussianBlur stdDeviation="4"/>
<feComposite in2="hardAlpha" operator="out"/>
<feColorMatrix type="matrix" values="0 0 0 0 0.354167 0 0 0 0 0.354167 0 0 0 0 0.354167 0 0 0 0.06 0"/>
<feBlend mode="normal" in2="BackgroundImageFix" result="effect1_dropShadow_544_4532"/>
<feBlend mode="normal" in="SourceGraphic" in2="effect1_dropShadow_544_4532" result="shape"/>
</filter>
</defs>
</svg>
