<svg width="150" height="142" viewBox="0 0 150 142" fill="none" xmlns="http://www.w3.org/2000/svg">
<path d="M26.2165 92.5736C-0.738839 103.885 -0.738839 122.215 26.2165 133.521C53.1719 144.827 96.8505 144.827 123.797 133.521C150.744 122.215 150.732 103.885 123.777 92.5736C96.8212 81.262 53.1513 81.2737 26.2165 92.5736Z" fill="#FAFAFA"/>
<path opacity="0.5" d="M25.1664 46.338C25.4074 45.7604 25.6709 45.1926 25.9569 44.6346C29.3245 38.0683 35.4514 33.3351 39.2774 27.0311C41.0405 24.1135 42.3012 20.904 44.0437 17.9686C45.0122 16.3382 46.1276 14.8002 47.376 13.374C55.9566 3.57464 69.3917 -0.84317 82.195 0.132343C94.5369 1.07838 106.406 7.37648 112.389 18.5462C114.283 22.088 115.497 25.9548 115.968 29.9459C117.872 46.1347 107.86 62.8098 95.633 72.6209C87.9281 78.8099 78.5894 82.8977 68.8921 84.722C59.5093 86.4903 48.5133 84.9666 39.9679 80.6667C32.363 76.8353 25.9981 70.0392 23.9587 61.7547C22.7168 56.6177 23.1399 51.2175 25.1664 46.338Z" fill="white"/>
<path opacity="0.07" d="M39.9544 24.8514C37.3097 27.1767 34.8383 25.6059 34.4005 22.3699C33.9679 19.0664 34.8157 15.7224 36.769 13.0274C39.3931 9.43771 44.2711 6.57601 48.7847 7.70477C50.8564 8.22348 53.3395 10.4751 51.4706 12.6295C51.0021 13.1156 50.4726 13.5386 49.8955 13.8879C47.8385 15.2849 46.1812 17.2978 44.5444 19.1634C42.9517 20.9788 41.7146 23.3012 39.9544 24.8514Z" fill="#F5D095"/>
<path d="M37.3548 125.311C51.1756 125.311 62.3795 118.825 62.3795 110.823C62.3795 102.821 51.1756 96.3348 37.3548 96.3348C23.534 96.3348 12.3301 102.821 12.3301 110.823C12.3301 118.825 23.534 125.311 37.3548 125.311Z" fill="#FCF4EF"/>
<path d="M101.424 127.942C119.205 127.942 133.619 119.595 133.619 109.299C133.619 99.0019 119.205 90.6548 101.424 90.6548C83.6436 90.6548 69.2295 99.0019 69.2295 109.299C69.2295 119.595 83.6436 127.942 101.424 127.942Z" fill="#FCF4EF"/>
<path d="M129.182 60.886C128.779 61.0363 128.47 61.3634 128.094 61.5668C127.527 61.8615 126.84 61.8909 126.275 62.2063C125.916 62.4237 125.63 62.7431 125.452 63.124C125.274 63.5049 125.213 63.9302 125.276 64.3459C125.353 64.7596 125.535 65.1463 125.805 65.4686C126.075 65.7908 126.423 66.0376 126.816 66.185C127.363 66.3883 127.944 66.4797 128.494 66.6771C128.993 66.8628 129.411 67.1841 129.949 67.2843C130.45 67.3932 130.974 67.3101 131.418 67.0514C131.677 66.8906 131.881 66.6555 132.006 66.3765C132.229 65.9109 132.482 65.1977 132.343 64.679C132.205 64.1603 131.867 63.8449 131.618 63.4323C131.402 62.9733 131.231 62.4947 131.106 62.0029C130.83 61.1836 130.084 60.547 129.182 60.886Z" fill="#F5F5F5"/>
<path d="M126.955 61.0337C127.084 60.9556 127.206 60.8659 127.319 60.7655C127.475 60.645 127.592 60.4815 127.656 60.2951C127.721 60.1087 127.729 59.9075 127.681 59.7163C127.618 59.3617 127.495 59.0207 127.316 58.7084C127.196 58.4663 127.037 58.2454 126.846 58.0541C126.783 57.9917 126.708 57.9438 126.624 57.9138C126.541 57.8838 126.452 57.8723 126.364 57.8802C126.242 57.9148 126.129 57.9764 126.033 58.0605C125.937 58.1447 125.862 58.2492 125.812 58.3665C125.618 58.7093 125.482 59.0817 125.409 59.4687C125.339 59.7828 125.345 60.1094 125.427 60.4207C125.469 60.5755 125.547 60.7186 125.652 60.8392C125.758 60.9597 125.89 61.0544 126.038 61.1162C126.315 61.2115 126.617 61.1946 126.881 61.069L126.955 61.0337Z" fill="#F5F5F5"/>
<path d="M128.376 57.3087C128.57 56.7192 128.941 56.2123 129.581 56.1298C130.328 56.0414 130.669 56.9255 130.683 57.5356C130.725 58.2099 130.536 58.8782 130.148 59.4306C129.614 60.0937 128.808 59.911 128.432 59.1978C128.17 58.5993 128.15 57.9217 128.376 57.3087Z" fill="#F5F5F5"/>
<path d="M132.608 63.105C132.547 62.966 132.498 62.8221 132.461 62.6747C132.405 62.4857 132.405 62.2845 132.46 62.0953C132.515 61.9061 132.624 61.7368 132.773 61.6078C133.03 61.3556 133.328 61.1493 133.654 60.9978C133.892 60.8695 134.149 60.7809 134.415 60.7355C134.503 60.7213 134.592 60.7264 134.677 60.7503C134.762 60.7742 134.841 60.8164 134.909 60.874C134.989 60.9731 135.045 61.0888 135.075 61.2127C135.104 61.3366 135.106 61.4656 135.079 61.5901C135.044 61.981 134.945 62.3633 134.785 62.7219C134.663 63.0193 134.471 63.2824 134.224 63.4881C134.1 63.5907 133.954 63.6636 133.798 63.7013C133.642 63.7391 133.479 63.7408 133.322 63.7062C133.042 63.6223 132.805 63.4333 132.661 63.1787L132.608 63.105Z" fill="#F5F5F5"/>
<path d="M133.792 59.1705C133.969 58.581 133.954 57.9444 133.469 57.5171C132.905 57.019 132.123 57.5495 131.765 58.0417C131.347 58.5728 131.122 59.2308 131.127 59.9072C131.189 60.756 131.953 61.0684 132.667 60.6971C133.226 60.3551 133.63 59.8072 133.792 59.1705Z" fill="#F5F5F5"/>
<path d="M21.963 33.4544C21.5634 33.6047 21.2519 33.9318 20.8758 34.1351C20.3086 34.4299 19.621 34.4623 19.0598 34.7747C18.6994 34.9914 18.4118 35.3112 18.2338 35.6929C18.0558 36.0746 17.9955 36.501 18.0606 36.9173C18.1365 37.331 18.3184 37.7177 18.5883 38.0396C18.8583 38.3615 19.2071 38.6075 19.6004 38.7534C20.147 38.9567 20.7289 39.0481 21.2784 39.2455C21.775 39.4312 22.1923 39.7554 22.7476 39.8556C23.2496 39.9616 23.773 39.8777 24.2169 39.6198C24.4835 39.4631 24.695 39.2273 24.8223 38.9449C25.0456 38.4793 25.2954 37.7661 25.1573 37.2474C25.0191 36.7287 24.6812 36.4163 24.4344 36.0007C24.2174 35.5423 24.0462 35.0635 23.9231 34.5713C23.6086 33.755 22.8681 33.1154 21.963 33.4544Z" fill="#F5F5F5"/>
<path d="M19.736 33.602C19.8656 33.524 19.9885 33.4353 20.1034 33.3368C20.2585 33.2151 20.3751 33.051 20.4393 32.8643C20.5034 32.6776 20.5123 32.4763 20.4648 32.2846C20.4 31.9303 20.2758 31.5895 20.0975 31.2767C19.9758 31.0396 19.8182 30.8228 19.6303 30.6342C19.567 30.5716 19.4907 30.5238 19.4069 30.4943C19.3231 30.4647 19.2338 30.4541 19.1454 30.4633C19.0246 30.4949 18.9124 30.5531 18.8168 30.6336C18.7212 30.7142 18.6448 30.815 18.5929 30.9289C18.4007 31.2723 18.2648 31.6445 18.1904 32.0312C18.1212 32.3454 18.1272 32.6716 18.208 32.9831C18.2509 33.1381 18.3282 33.2814 18.434 33.4024C18.5399 33.5233 18.6715 33.6187 18.8192 33.6816C19.0963 33.7744 19.3984 33.7565 19.6626 33.6315C19.6877 33.6234 19.7123 33.6135 19.736 33.602Z" fill="#F5F5F5"/>
<path d="M21.1576 29.8761C21.3545 29.2867 21.7248 28.7798 22.3624 28.6973C23.1118 28.6118 23.4527 29.493 23.4673 30.1031C23.5078 30.7776 23.3181 31.4459 22.9296 31.9981C22.3977 32.6612 21.5896 32.4814 21.2135 31.7682C20.9522 31.1683 20.9322 30.4904 21.1576 29.8761Z" fill="#F5F5F5"/>
<path d="M25.3928 35.674C25.3316 35.5351 25.2825 35.3911 25.2459 35.2437C25.1873 35.0564 25.1838 34.8561 25.2359 34.6668C25.2881 34.4776 25.3935 34.3074 25.5397 34.1768C25.7973 33.9252 26.0953 33.719 26.4213 33.5668C26.6599 33.4402 26.9166 33.3517 27.1824 33.3045C27.2698 33.2899 27.3593 33.2948 27.4446 33.3187C27.5299 33.3427 27.6089 33.3851 27.6761 33.443C27.7562 33.5419 27.8134 33.6576 27.8434 33.7815C27.8734 33.9053 27.8754 34.0344 27.8494 34.1592C27.8138 34.55 27.7146 34.9323 27.5556 35.2909C27.4335 35.5883 27.2408 35.8514 26.9943 36.0571C26.8708 36.1596 26.7256 36.2325 26.5698 36.2703C26.414 36.3081 26.2517 36.3098 26.0951 36.2752C25.8152 36.1913 25.5784 36.0024 25.434 35.7477C25.4185 35.7241 25.4048 35.6995 25.3928 35.674Z" fill="#F5F5F5"/>
<path d="M26.5774 31.7396C26.7508 31.1502 26.7361 30.5136 26.2542 30.0862C25.687 29.5882 24.9054 30.1186 24.5469 30.6108C24.132 31.1435 23.9074 31.8005 23.9092 32.4764C23.9738 33.3252 24.7379 33.6376 25.4519 33.2662C26.0106 32.9233 26.4142 32.3758 26.5774 31.7396Z" fill="#F5F5F5"/>
<path d="M126.021 23.6041C125.824 24.1022 125.865 24.6621 125.727 25.1838C125.536 25.9677 124.978 26.625 124.799 27.4118C124.699 27.9275 124.754 28.4614 124.957 28.9457C125.16 29.4299 125.501 29.8429 125.939 30.1321C126.385 30.4078 126.895 30.5625 127.419 30.5811C127.943 30.5997 128.463 30.4816 128.927 30.2382C129.574 29.9022 130.138 29.4307 130.787 29.0917C131.375 28.797 132.024 28.6673 132.568 28.2488C133.081 27.8716 133.438 27.3191 133.573 26.6957C133.651 26.3172 133.61 25.9239 133.456 25.5699C133.212 24.9804 132.765 24.1405 132.168 23.831C131.616 23.5363 130.993 23.5805 130.405 23.4626C129.818 23.3448 129.23 22.9852 128.642 22.7406C127.672 22.325 126.462 22.4783 126.021 23.6041Z" fill="#F5F5F5"/>
<path d="M124.29 25.7974C124.325 25.6117 124.346 25.4235 124.351 25.2345C124.369 24.9884 124.315 24.7424 124.196 24.5263C124.077 24.3103 123.898 24.1335 123.681 24.0173C123.3 23.7812 122.882 23.6118 122.444 23.5163C122.12 23.4247 121.782 23.3869 121.445 23.4043C121.335 23.4091 121.228 23.438 121.13 23.4889C121.033 23.5398 120.948 23.6115 120.881 23.699C120.81 23.842 120.772 23.999 120.77 24.1586C120.767 24.3182 120.8 24.4763 120.866 24.6215C121.022 25.0869 121.252 25.5238 121.548 25.9153C121.775 26.2427 122.078 26.5106 122.43 26.6963C122.608 26.7871 122.805 26.8359 123.005 26.8389C123.205 26.842 123.403 26.7992 123.584 26.714C123.903 26.5347 124.141 26.2392 124.249 25.8888L124.29 25.7974Z" fill="#F5F5F5"/>
<path d="M122.04 21.3553C121.658 20.6833 121.496 19.9111 121.963 19.2539C122.51 18.4877 123.612 18.9091 124.188 19.4072C124.764 19.9053 125.363 20.6863 125.492 21.4938C125.657 22.543 124.816 23.1412 123.841 22.8937C123.068 22.6962 122.424 22.0361 122.04 21.3553Z" fill="#F5F5F5"/>
<path d="M130.943 22.275C130.764 22.2156 130.59 22.1407 130.423 22.051C130.201 21.9456 130.015 21.7784 129.886 21.5693C129.756 21.3602 129.69 21.1181 129.694 20.8722C129.677 20.4225 129.736 19.9731 129.868 19.543C129.948 19.2151 130.081 18.9025 130.261 18.6176C130.321 18.5237 130.4 18.4442 130.493 18.3845C130.587 18.3249 130.692 18.2868 130.802 18.2728C130.961 18.281 131.117 18.3251 131.256 18.4016C131.396 18.4781 131.517 18.5852 131.61 18.7148C131.938 19.0797 132.204 19.4958 132.398 19.9468C132.573 20.3139 132.655 20.719 132.636 21.1256C132.627 21.3262 132.573 21.5221 132.477 21.6983C132.382 21.8746 132.247 22.0265 132.083 22.1424C131.772 22.3337 131.399 22.396 131.043 22.3163L130.943 22.275Z" fill="#F5F5F5"/>
<path d="M128.294 17.8778C127.891 17.2147 127.295 16.6989 126.496 16.7932C125.564 16.9023 125.397 18.0753 125.552 18.8209C125.708 19.5665 126.099 20.4743 126.728 20.9753C127.565 21.6266 128.491 21.1786 128.749 20.2031C128.967 19.4339 128.699 18.5498 128.294 17.8778Z" fill="#F5F5F5"/>
<path d="M12.995 76.2456C12.8157 76.7054 12.8539 77.2241 12.7364 77.7045C12.5601 78.4295 12.0429 79.0366 11.8783 79.7675C11.7843 80.244 11.8342 80.7377 12.0216 81.1856C12.209 81.6334 12.5254 82.015 12.9303 82.2814C13.3427 82.5367 13.8143 82.6799 14.2986 82.697C14.7829 82.714 15.2633 82.6043 15.6926 82.3787C16.2803 82.0692 16.8092 81.6331 17.4087 81.3207C17.9523 81.026 18.5518 80.9287 19.0572 80.5397C19.5302 80.192 19.8595 79.6823 19.9828 79.1073C20.0547 78.7576 20.0167 78.3942 19.8741 78.067C19.6508 77.5129 19.2365 76.7467 18.6987 76.4608C18.1609 76.1749 17.6202 76.228 17.0737 76.1219C16.5271 76.0158 15.9982 75.6798 15.4575 75.4558C14.5318 75.0638 13.4122 75.2082 12.995 76.2456Z" fill="#F5F5F5"/>
<path d="M11.4045 78.272C11.4388 78.1 11.4584 77.9255 11.4633 77.7503C11.4792 77.5231 11.4291 77.2961 11.319 77.0968C11.209 76.8975 11.0437 76.7345 10.8433 76.6274C10.4918 76.4074 10.1051 76.2499 9.70018 76.1618C9.40001 76.0786 9.08855 76.0438 8.77748 76.0586C8.67436 76.0658 8.57414 76.0959 8.48415 76.1469C8.39416 76.1979 8.31667 76.2684 8.25735 76.3533C8.19339 76.4856 8.16016 76.6307 8.16016 76.7777C8.16016 76.9247 8.19339 77.0698 8.25735 77.2021C8.39948 77.6256 8.60993 78.0229 8.88032 78.378C9.09315 78.6823 9.37653 78.9301 9.70606 79.1001C9.87236 79.1807 10.0547 79.2226 10.2394 79.2226C10.4241 79.2226 10.6065 79.1807 10.7728 79.1001C11.0578 78.9434 11.2746 78.6861 11.381 78.378C11.3898 78.3309 11.3987 78.3014 11.4045 78.272Z" fill="#F5F5F5"/>
<path d="M9.32638 74.1679C8.97375 73.546 8.82388 72.8358 9.25585 72.2287C9.76128 71.5184 10.778 71.9104 11.3128 72.3672C11.921 72.8538 12.3459 73.5336 12.5176 74.2946C12.6704 75.2672 11.8917 75.8183 10.9925 75.5884C10.2733 75.3517 9.67518 74.8417 9.32638 74.1679Z" fill="#F5F5F5"/>
<path d="M17.552 75.0161C17.3854 74.9621 17.2241 74.8931 17.07 74.8099C16.8649 74.7126 16.6922 74.5579 16.5728 74.3644C16.4534 74.1709 16.3924 73.9469 16.3971 73.7194C16.3816 73.3045 16.4362 72.89 16.5587 72.4934C16.6306 72.1893 16.7528 71.8994 16.9202 71.6357C16.9741 71.5466 17.0472 71.4707 17.1341 71.4136C17.2211 71.3565 17.3197 71.3196 17.4227 71.3057C17.5689 71.3139 17.7115 71.3547 17.8401 71.425C17.9687 71.4954 18.08 71.5935 18.1661 71.7124C18.4691 72.0493 18.7153 72.4335 18.8949 72.85C19.0547 73.1862 19.1304 73.5565 19.1153 73.9286C19.1069 74.114 19.0566 74.2951 18.968 74.458C18.8793 74.6209 18.7549 74.7614 18.604 74.8688C18.3159 75.0437 17.9718 75.1007 17.6431 75.0279L17.552 75.0161Z" fill="#F5F5F5"/>
<path d="M15.1041 70.9552C14.7339 70.3451 14.1843 69.8706 13.4438 69.9561C12.5828 70.0563 12.43 71.135 12.5623 71.8246C12.6915 72.5949 13.0793 73.2978 13.6613 73.8169C14.4341 74.4063 15.2922 74.0026 15.5273 73.1037C15.6716 72.3596 15.5197 71.5884 15.1041 70.9552Z" fill="#F5F5F5"/>
<path d="M49.1383 87.1421C49.5156 87.3515 49.8736 87.5941 50.208 87.8671C50.762 88.3362 51.2556 88.8728 51.6772 89.4645C53.5109 91.9872 54.2162 95.4796 52.8997 98.306C52.2154 99.7559 51.1102 100.965 49.7289 101.774C48.3477 102.582 46.7549 102.954 45.1595 102.839C46.7699 103.198 47.9512 102.977 49.4645 103.449C50.2315 103.687 50.8045 104.519 50.9514 105.305C51.0983 106.092 50.8574 106.906 49.8642 106.906C49.8642 107.295 49.1295 108.002 47.8336 107.646C47.766 107.94 47.6044 108.447 45.4416 108.082C43.2789 107.716 36.9433 105.135 34.3662 103.661C33.3437 103.119 32.3864 102.461 31.5129 101.701C29.9319 100.331 28.8858 98.3325 28.4127 96.2695C27.825 93.6553 28.0189 90.9292 28.3804 88.2738C28.9681 83.9975 29.976 78.9902 34.8158 77.832C35.368 77.6928 35.9439 77.6777 36.5026 77.7878C37.399 78.0351 38.1642 78.6228 38.6359 79.4264C39.782 81.1947 39.829 83.4581 39.7056 85.5683C39.6057 87.3012 40.881 86.4525 41.983 86.2668C43.1106 86.0677 44.2581 86.0063 45.4005 86.0841C46.7078 86.1632 47.9827 86.524 49.1383 87.1421Z" fill="#37474F"/>
<path d="M49.8642 106.926C50.017 106.009 49.9583 104.91 49.0914 104.533C48.2245 104.156 46.6406 104.238 46.6406 104.238C46.6406 104.238 48.7446 103.92 49.5263 104.412C50.3079 104.904 50.114 106.222 49.8642 106.926Z" fill="#263238"/>
<path d="M47.832 107.661C47.9848 106.742 47.926 105.642 47.0621 105.268C46.1982 104.894 44.6084 104.973 44.6084 104.973C44.6084 104.973 46.7153 104.655 47.4941 105.147C48.2728 105.639 48.0818 106.966 47.832 107.661Z" fill="#263238"/>
<path d="M43.2219 100.16C43.0046 100.193 42.7827 100.153 42.5904 100.047C42.3981 99.94 42.2462 99.7728 42.1581 99.5709C42.5343 100.523 41.9319 101.655 41.0385 102.15C40.1452 102.645 39.0579 102.63 38.05 102.462C34.4562 101.873 31.1797 99.2349 30.1424 95.7308C29.587 93.8652 29.6605 91.8582 30.0454 89.9484C30.6267 87.1085 31.8636 84.4447 33.6569 82.1708C35.0351 80.4202 36.8188 78.8671 38.9815 78.3395C41.1443 77.812 43.7156 78.5871 44.7969 80.5381C45.1438 81.2136 45.3658 81.9465 45.4522 82.7013C45.8489 85.4717 45.3141 88.2774 45.6521 91.0507C45.8636 92.819 46.3015 94.6256 45.9606 96.4057C45.6873 97.8645 44.9556 99.9747 43.2219 100.16Z" fill="#F0F0F0"/>
<path d="M33.5281 92.3756C34.5573 91.9322 35.6951 91.807 36.7958 92.016C37.598 92.1369 38.4413 92.4021 38.9174 93.0593C39.0232 92.52 39.799 92.3668 40.2515 92.6644C40.704 92.9621 40.9244 93.5162 41.1095 94.0319C41.2388 93.2568 41.4416 92.3756 42.138 92.019C42.8345 91.6624 43.8071 92.1487 44.2891 92.6998C44.6653 93.1633 44.9387 93.7018 45.0913 94.2795C45.2118 94.029 45.5673 94.0319 45.8318 94.1174C45.9111 94.141 45.9846 94.1763 46.0581 94.2058C46.1237 94.9455 46.0921 95.6906 45.964 96.4221C45.6908 97.8632 44.9591 99.9587 43.2224 100.159C43.0056 100.191 42.7843 100.151 42.5926 100.044C42.4009 99.9377 42.2494 99.771 42.1615 99.5696C42.5377 100.522 41.9353 101.653 41.042 102.148C40.1486 102.644 39.0614 102.629 38.0535 102.461C37.0099 102.283 35.9999 101.945 35.0591 101.459C33.8866 100.161 32.9284 98.6833 32.2204 97.0822C31.8646 96.426 31.674 95.6925 31.665 94.9455C31.7179 93.8374 32.526 92.856 33.5281 92.3756Z" fill="#FCF4EF"/>
<path d="M54.0154 70.9297C54.0859 71.0535 54.1535 71.1802 54.2211 71.3069C55.3348 73.3699 56.0577 75.8338 55.3084 78.1532C54.5238 80.5817 52.3316 82.6005 50.2658 83.9709C49.1433 84.7195 45.8345 86.5438 44.8383 84.69C44.568 84.1861 44.5826 83.5878 44.568 83.016C44.5444 82.291 44.4445 81.5277 44.0096 80.953C43.5747 80.3783 42.7137 80.0688 42.0996 80.4461C41.6088 80.7555 41.4296 81.3862 41.3737 81.9668C41.3179 82.5474 41.3385 83.1457 41.0799 83.6791C41.0248 83.8141 40.928 83.9277 40.8037 84.0033C40.6244 84.0976 40.404 84.0475 40.216 84.0976C38.9553 84.3923 39.3344 87.8317 39.4549 88.7394C39.5107 89.1432 39.5019 89.6707 39.1228 89.8181C38.8554 89.9212 38.5674 89.7591 38.3147 89.6206C37.7378 89.2989 37.1141 89.0701 36.4664 88.9428C36.246 88.8986 35.958 88.9045 35.8787 89.1137C35.7993 89.323 35.9697 89.4968 36.099 89.656C36.3181 89.9342 36.4528 90.2698 36.4869 90.6227C36.4976 90.6697 36.4982 90.7185 36.4885 90.7658C36.4789 90.813 36.4593 90.8577 36.4311 90.8968C36.3607 90.9569 36.2709 90.9893 36.1784 90.9881C35.67 91.0294 35.1587 90.9616 34.6474 90.9881C33.2898 91.0205 32.0438 92.279 32.1056 93.6406C35.4408 92.2318 38.6233 94.5247 40.4393 97.2096C41.4543 98.6733 41.9395 100.441 41.8145 102.22C41.7313 103.624 41.249 104.975 40.4246 106.113C39.449 107.528 36.7543 109.169 35.1881 109.122C35.9205 109.35 36.669 109.522 37.4273 109.638C39.7781 110.039 40.5039 109.791 41.6735 110.156C42.4375 110.395 43.0135 111.223 43.1604 112.013C43.3073 112.803 43.0664 113.614 42.0702 113.614C42.0702 114.003 41.3385 114.71 40.0426 114.353C39.975 114.648 39.8134 115.155 37.6477 114.789C35.4819 114.424 29.1494 111.842 26.5723 110.369C25.5511 109.826 24.5948 109.168 23.7219 108.409C22.1409 107.038 21.0948 105.04 20.6187 102.974C20.031 100.363 20.2279 97.6369 20.5864 94.9815C22.088 83.9002 28.1238 78.445 30.3924 76.1462C32.1555 74.3484 34.2125 72.9809 36.4017 71.746C38.0875 70.8574 39.6536 69.7571 41.0623 68.4717C42.5639 67.1426 43.2485 66.45 44.2036 65.1179C44.7443 64.3693 45.1851 63.2228 45.9256 62.0204C45.9256 62.0204 48.2382 64.1541 48.9964 64.8084C51.0107 66.5415 52.709 68.6128 54.0154 70.9297Z" fill="#455A64"/>
<path d="M42.0644 113.608C42.2172 112.691 42.1584 111.592 41.2945 111.214C40.4306 110.837 38.8408 110.92 38.8408 110.92C38.8408 110.92 40.9478 110.601 41.7265 111.094C42.5052 111.586 42.3171 112.903 42.0644 113.608Z" fill="#263238"/>
<path d="M40.0283 114.333C40.1811 113.417 40.1223 112.318 39.2554 111.943C38.3886 111.569 36.8047 111.649 36.8047 111.649C36.8047 111.649 38.9087 111.33 39.6903 111.822C40.472 112.315 40.2869 113.638 40.0283 114.333Z" fill="#263238"/>
<path d="M68.5725 78.0241C69.1866 78.6136 69.7802 79.2325 70.3356 79.8838C71.0673 80.7414 67.3971 87.626 66.6183 87.7115C65.199 87.8647 63.5799 87.2753 62.1224 86.624C61.5625 86.3212 60.9417 86.149 60.3063 86.12C59.2102 86.1583 58.4021 87.0042 57.5735 87.5936C56.5914 88.263 55.5147 88.7806 54.3793 89.1291C53.5876 89.3975 52.7702 89.5822 51.9403 89.6802C51.7522 89.7126 51.5788 92.1175 51.5524 92.3739C51.4348 93.4585 51.3555 94.5518 51.2938 95.6423C51.1362 97.7133 50.8684 99.7743 50.4916 101.817C49.9656 105.005 50.2829 108.772 52.622 111.248C54.1912 112.898 55.5194 112.645 55.4166 114.489C55.3843 114.731 55.2671 114.953 55.086 115.115C54.9049 115.277 54.6719 115.369 54.4292 115.374C54.2088 116.149 53.1715 116.048 53.1715 116.048C53.1715 116.048 52.8483 117.03 49.8127 116.178C48.2083 115.727 47.8469 113.747 47.506 112.765C47.506 112.403 47.1827 111.899 47.0623 111.557C46.883 111.047 46.7302 110.526 46.5686 110.007C46.2199 108.905 45.88 107.799 45.5489 106.691C45.2825 105.896 45.0965 105.075 44.9935 104.242C44.9524 103.6 44.9524 102.957 44.9935 102.315C44.9935 102.02 44.9935 101.743 45.0141 101.457C45.052 98.0819 44.8181 94.7092 44.3147 91.3719C44.0156 89.2072 43.5238 87.0738 42.8454 84.9971C40.6386 78.3837 46.6009 61.6379 51.0734 61.7145C54.1941 61.8059 59.8362 62.2126 60.7089 67.6088C61.1673 70.4352 62.5543 72.3243 64.5555 74.2783C65.869 75.575 67.2648 76.7539 68.5725 78.0241Z" fill="#455A64"/>
<path d="M53.1718 116.059C53.307 115.656 53.4186 114.995 52.8368 114.739C52.255 114.483 51.5791 114.135 51.5791 114.135C52.121 114.287 52.6521 114.475 53.1689 114.698C53.4627 114.883 53.5744 115.438 53.1718 116.059Z" fill="#37474F"/>
<path d="M54.4277 115.386C54.5628 114.982 54.6745 114.322 54.0927 114.065C53.5108 113.809 52.835 113.476 52.835 113.476C53.3779 113.627 53.91 113.815 54.4277 114.039C54.7215 114.21 54.8332 114.764 54.4277 115.386Z" fill="#37474F"/>
<path d="M55.847 71.5546C55.6311 72.1698 55.342 72.7566 54.986 73.3023C54.3307 74.2896 53.4344 75.0706 52.6704 75.9842C51.9064 76.8978 51.2628 77.9824 51.2746 79.1642C51.2746 79.0846 52.3178 78.6927 52.4324 78.6455C52.2649 79.1141 51.8917 79.5297 51.73 80.0248C51.5466 80.5858 51.4816 81.179 51.539 81.7666C51.8723 81.2553 52.3015 80.8139 52.8026 80.4669C52.6057 80.6024 52.5323 81.4158 52.4941 81.6457C52.426 82.0645 52.3975 82.4888 52.4089 82.913C52.4294 83.6027 52.4706 84.2923 52.4735 84.9908C52.5206 86.5751 52.3415 88.158 51.9416 89.6915C52.6316 89.6368 53.3135 89.5063 53.9751 89.3025C55.1566 88.9509 56.2943 88.4654 57.3662 87.8554C59.1558 86.8593 60.0109 85.9751 61.1129 84.2392C64.1631 79.4029 62.0973 72.8691 58.0479 69.3148C57.8544 69.1229 57.6233 68.9733 57.3691 68.8756C57.2411 68.8296 57.1029 68.8198 56.9697 68.8474C56.8364 68.8749 56.7134 68.9388 56.6139 69.0318C56.4952 69.1926 56.4203 69.3815 56.3965 69.58C56.2592 70.2502 56.0756 70.91 55.847 71.5546Z" fill="#F0F0F0"/>
<path d="M59.1093 49.7902C58.9829 49.413 58.9447 48.9974 58.6273 48.7233C58.2571 48.3991 57.7458 48.3431 57.546 47.8392C57.4871 47.6802 57.4681 47.5092 57.4907 47.3411C57.5132 47.1731 57.5766 47.0132 57.6753 46.8755C58.0191 46.4039 58.6744 46.3155 59.2562 46.286C60.2434 46.1759 61.2404 46.1897 62.2241 46.3273C63.215 46.47 64.1252 46.9546 64.7983 47.6977C65.0489 48.0263 65.2748 48.373 65.4742 48.7351C65.8983 49.4468 66.3736 50.1265 66.8964 50.7687C66.9733 50.8381 67.0337 50.9239 67.0734 51.0198C67.113 51.1156 67.1309 51.2191 67.1256 51.3227C67.0669 51.5791 66.7466 51.6705 66.485 51.6558C66.1779 51.6406 65.8801 51.5451 65.6211 51.3787C65.8679 51.9151 66.1118 52.4544 66.3587 52.9908C66.5638 53.3488 66.6655 53.757 66.6525 54.1697C66.6097 54.4383 66.4723 54.6826 66.2653 54.8583C66.0583 55.034 65.7953 55.1295 65.5241 55.1275C65.7386 55.1275 65.9502 56.4537 65.9678 56.6335C66.0067 57.1242 65.8861 57.6143 65.624 58.0305C65.1186 58.8262 63.9285 58.9146 63.1703 58.4637C62.3414 57.9159 61.7131 57.112 61.3808 56.1738C60.9547 55.1246 60.8283 53.9457 60.3523 52.9319C59.8773 51.9098 59.4623 50.8608 59.1093 49.7902Z" fill="black"/>
<path d="M60.7136 64.0838C60.4344 64.7322 60.4197 65.6429 60.6783 67.5733C59.8673 67.9977 55.4095 69.6186 51.5218 68.649C47.6341 67.6794 45.5918 66.4799 44.3047 65.1566C46.1325 59.6749 45.7064 53.6921 45.7064 53.6921L60.7136 64.0838Z" fill="#455A64"/>
<path d="M55.3649 47.4323C58.5532 47.0138 59.3936 47.8626 60.6543 48.7114C61.7159 49.4574 62.5999 50.4296 63.2431 51.5584C63.7838 52.4425 63.4224 54.2432 63.6398 54.8651C63.8573 55.4869 65.4852 56.8279 65.9642 57.9242C66.4432 59.0206 66.0876 60.0197 65.8085 61.5345C65.5293 63.0494 64.3803 63.3028 64.3803 63.3028C63.9013 64.1406 63.1297 64.7706 62.2146 65.0711C60.7454 65.5161 58.6031 64.6497 58.6031 64.6497C58.6031 64.6497 57.7568 65.6812 55.6205 65.1301C52.4851 64.3225 52.1942 64.8029 50.5162 64.2282C47.5777 63.2291 47.325 61.8705 46.0878 59.274C44.8507 56.6776 44.7919 54.0428 47.7893 50.8009C50.1284 48.2575 52.7202 47.7712 55.3649 47.4323Z" fill="#455A64"/>
<path d="M64.9189 56.4621C64.0373 55.9581 63.0999 55.5455 62.2742 54.9296C60.7432 53.7831 59.6589 52.174 58.3483 50.8035C58.0897 50.5294 57.4167 49.9194 57.4314 50.1787C57.5634 50.6913 57.7673 51.1824 58.0368 51.6376C58.6744 52.787 59.4208 53.9806 59.6148 55.3215C59.8087 56.6625 59.1093 57.6793 58.1132 58.5104C57.4285 59.0821 56.6703 59.6185 56.2589 60.4113C55.8476 61.2041 55.7388 62.436 56.3647 63.1286C57.0094 63.7666 57.7628 64.2837 58.5892 64.6552C58.5892 64.6552 60.7197 65.5217 62.2007 65.0767C63.1158 64.7761 63.8874 64.1461 64.3664 63.3084C64.3664 63.3084 65.5154 63.0578 65.7946 61.5401C66.0737 60.0223 66.4293 59.0261 65.9503 57.9298C65.6792 57.393 65.3317 56.8986 64.9189 56.4621Z" fill="#FCF4EF"/>
<path d="M59.058 61.5782C59.076 61.6116 59.0802 61.6507 59.0697 61.6871C59.0593 61.7236 59.035 61.7544 59.0021 61.7731C58.9776 61.7863 58.9498 61.7919 58.9221 61.7894C58.8944 61.7868 58.8681 61.7761 58.8465 61.7585C58.8249 61.741 58.8089 61.7175 58.8005 61.6909C58.7921 61.6643 58.7918 61.6359 58.7995 61.6091C58.8071 61.5823 58.8225 61.5584 58.8437 61.5403C58.8649 61.5222 58.8909 61.5109 58.9185 61.5076C58.9461 61.5043 58.9741 61.5092 58.9989 61.5218C59.0237 61.5344 59.0442 61.554 59.058 61.5782Z" fill="#37474F"/>
<path d="M60.3057 61.2843C60.3206 61.3169 60.3227 61.3539 60.3115 61.388C60.3003 61.4221 60.2766 61.4506 60.2452 61.4679C60.2138 61.4851 60.1771 61.4898 60.1425 61.4809C60.1078 61.472 60.0778 61.4503 60.0585 61.4201C60.048 61.4037 60.041 61.3854 60.0379 61.3662C60.0349 61.347 60.0357 61.3274 60.0405 61.3086C60.0453 61.2897 60.0539 61.2721 60.0658 61.2567C60.0777 61.2414 60.0925 61.2286 60.1095 61.2193C60.1265 61.21 60.1452 61.2042 60.1645 61.2025C60.1838 61.2007 60.2033 61.2029 60.2217 61.209C60.2401 61.2151 60.257 61.225 60.2715 61.2379C60.2859 61.2508 60.2975 61.2666 60.3057 61.2843Z" fill="#37474F"/>
<path d="M60.04 62.4157C60.0493 62.4319 60.0552 62.4498 60.0573 62.4684C60.0595 62.4869 60.058 62.5057 60.0528 62.5236C60.0475 62.5415 60.0388 62.5582 60.027 62.5726C60.0152 62.5871 60.0006 62.599 59.9841 62.6076C59.9513 62.6255 59.9128 62.6297 59.8769 62.6192C59.8411 62.6087 59.8109 62.5844 59.7928 62.5515C59.7824 62.5352 59.7754 62.5168 59.7723 62.4977C59.7692 62.4785 59.7701 62.4589 59.7749 62.44C59.7797 62.4212 59.7883 62.4036 59.8002 62.3882C59.812 62.3728 59.8269 62.3601 59.8439 62.3508C59.8609 62.3414 59.8796 62.3357 59.8989 62.3339C59.9182 62.3322 59.9376 62.3344 59.956 62.3405C59.9744 62.3466 59.9914 62.3564 60.0058 62.3694C60.0203 62.3823 60.0319 62.3981 60.04 62.4157Z" fill="#37474F"/>
<path d="M62.3908 62.6547C62.5144 62.5334 62.6538 62.4293 62.8051 62.3453C62.9386 62.2566 63.0653 62.1581 63.1842 62.0506C63.2178 62.0212 63.2582 62.0009 63.3018 61.9916C63.3627 61.9921 63.4213 62.0152 63.4663 62.0565C63.764 62.2663 64.0268 62.5219 64.245 62.8139C64.2535 62.8238 64.2587 62.8362 64.2597 62.8493C64.2597 62.8493 64.2597 62.864 64.2421 62.8728C63.9753 63.0867 63.6616 63.2338 63.3269 63.302C62.9922 63.3702 62.6462 63.3574 62.3174 63.2648C62.1851 63.2265 61.9412 63.1528 62.0529 62.9907C62.1536 62.8673 62.2669 62.7547 62.3908 62.6547Z" fill="black"/>
<path d="M57.8233 64.5998C57.824 64.9774 57.9691 65.3403 58.2288 65.6136C58.4291 65.7788 58.6733 65.8813 58.9311 65.9084C59.0951 65.9408 59.2638 65.9408 59.4278 65.9084C59.5945 65.8625 59.7475 65.7762 59.8731 65.6569C59.9987 65.5376 60.093 65.3892 60.1477 65.2246C60.2035 65.0655 60.227 64.8975 60.2711 64.7324C60.3274 64.5405 60.4032 64.3548 60.4974 64.1784C60.5885 64.0045 60.7237 63.8395 60.7912 63.6626C60.3364 63.7253 59.8747 63.7183 59.4219 63.642C59.194 63.603 58.9691 63.5479 58.7489 63.477C58.5814 63.421 58.2935 63.365 58.1818 63.2264C57.9078 63.6077 57.7814 64.076 57.8262 64.5438C57.8269 64.5625 57.8259 64.5813 57.8233 64.5998Z" fill="#FFA8A7"/>
<path d="M59.3077 63.7009C59.2607 63.6272 59.1225 63.6567 59.0461 63.7186C58.9436 63.8126 58.8684 63.9328 58.8287 64.0663C58.7788 64.2153 58.755 64.3719 58.7582 64.529C58.7477 64.7163 58.7993 64.9018 58.9051 65.0566C58.9091 65.0648 58.9154 65.0717 58.9232 65.0764C58.931 65.0811 58.9401 65.0834 58.9492 65.0831C58.9756 65.0831 58.9844 65.0448 58.9874 65.0153C58.9874 64.9004 58.9874 64.7854 58.9874 64.6705C58.9879 64.5845 58.9958 64.4987 59.0109 64.4141C59.0444 64.2565 59.1127 64.1085 59.2107 63.9809C59.2541 63.9309 59.2871 63.8728 59.3077 63.8099C59.315 63.7927 59.3188 63.7741 59.3188 63.7554C59.3188 63.7366 59.315 63.7181 59.3077 63.7009Z" fill="#F28F8F"/>
<path opacity="0.2" d="M56.5958 53.9751C56.4081 53.5986 56.1203 53.2814 55.7642 53.0585C55.2117 52.7933 54.5505 53.0585 54.0392 53.3857C53.3152 53.814 52.771 54.4917 52.5083 55.2925C52.4771 55.3765 52.472 55.4679 52.4936 55.5548C52.525 55.6346 52.5805 55.7026 52.6522 55.7493C53.0356 55.9994 53.4935 56.1088 53.9481 56.0588C54.3987 56.0068 54.8529 55.993 55.3058 56.0175C56.0962 56.1177 56.7456 56.6069 57.4127 57.0019C57.6595 57.1492 58.1121 57.497 58.4147 57.4763C58.7674 57.4557 58.7703 57.1404 58.6234 56.8869C58.0445 55.8436 57.2276 54.9771 56.5958 53.9751Z" fill="black"/>
<path opacity="0.2" d="M63.6281 54.8554C63.5046 54.4516 63.5752 53.6765 63.5487 53.1166C63.5223 52.5566 62.7729 52.2678 62.3204 52.1263C62.1764 52.0645 62.0208 52.0343 61.8642 52.0379C61.7075 52.0414 61.5535 52.0786 61.4124 52.147C61.2861 52.2487 61.1902 52.3834 61.1353 52.5363C61.0803 52.6891 61.0684 52.8542 61.1009 53.0134C61.2067 53.9742 62.1411 54.487 62.9199 54.876L63.3665 55.0941C63.5722 55.1914 63.7779 55.2975 63.9836 55.3888C63.8262 55.2404 63.7046 55.058 63.6281 54.8554Z" fill="black"/>
<path d="M61.0332 58.1213C60.8609 58.31 60.7342 58.5359 60.6629 58.7815C60.6111 58.9585 60.5954 59.1442 60.6166 59.3275C60.6378 59.5108 60.6955 59.6879 60.7863 59.8483C60.9025 60.0225 61.0553 60.169 61.234 60.2774C61.4127 60.3859 61.613 60.4537 61.8207 60.4761C61.833 60.4806 61.8466 60.4806 61.8589 60.4761C61.8723 60.4692 61.8828 60.4577 61.8883 60.4437C61.9138 60.3887 61.927 60.3289 61.927 60.2683C61.927 60.2077 61.9138 60.1479 61.8883 60.093C61.8333 60.0171 61.7916 59.9324 61.7649 59.8425C61.7616 59.7916 61.7768 59.7412 61.8076 59.7006C61.8383 59.6601 61.8826 59.6319 61.9324 59.6214C62.3144 59.5595 62.285 60.0547 62.2909 60.2816C62.2856 60.3449 62.2989 60.4084 62.3291 60.4643C62.3653 60.509 62.4116 60.5443 62.4642 60.5675L63.1754 60.9506C63.2353 60.9905 63.3037 61.0158 63.3752 61.0243C63.4308 61.0232 63.4858 61.0112 63.5368 60.9889C63.7475 60.9083 63.9336 60.774 64.0768 60.5994C64.2201 60.4247 64.3155 60.2156 64.3537 59.9928C64.3743 59.8189 64.3537 59.642 64.3714 59.4682C64.3722 59.4432 64.3784 59.4186 64.3896 59.3962C64.4007 59.3739 64.4166 59.3542 64.436 59.3385C64.53 59.2766 64.677 59.3621 64.7299 59.4475C64.7828 59.533 64.7504 59.8248 64.8621 59.6538C64.9402 59.4818 64.9793 59.2946 64.9767 59.1057C65.0296 58.4101 64.7299 57.6085 64.0011 57.4346C63.7273 57.3799 63.4467 57.3689 63.1695 57.4022C62.7805 57.4377 62.3952 57.5057 62.0176 57.6056C61.7803 57.6596 61.5525 57.749 61.3417 57.8708C61.228 57.9399 61.1242 58.0242 61.0332 58.1213Z" fill="black"/>
<path d="M64.2779 62.4779C64.0971 62.3756 63.9234 62.2614 63.7578 62.136C63.635 61.9816 63.5576 61.7958 63.5344 61.5996C63.5021 61.3992 63.4962 61.1959 63.4727 61.0102C63.4727 60.9601 63.4522 60.9011 63.4051 60.8805C63.3791 60.875 63.3519 60.8795 63.3291 60.8931C63.3062 60.9068 63.2893 60.9286 63.2817 60.9542C63.2699 61.0056 63.2699 61.059 63.2817 61.1104C63.2954 61.3353 63.259 61.5604 63.1751 61.7694C63.0912 61.9784 62.962 62.166 62.7969 62.3187C62.5893 62.4916 62.3725 62.6529 62.1474 62.8021C61.5597 63.2544 60.8498 63.5185 60.1101 63.5601C59.3705 63.6016 58.6355 63.4186 58.0011 63.0349C57.9012 62.973 57.8072 62.9052 57.7073 62.8374C57.6573 62.92 57.7279 63.0172 57.7954 63.0821C58.1819 63.4748 58.6673 63.7549 59.2001 63.8925C60.2638 64.1077 61.404 63.7275 62.2944 63.1528C62.6911 62.8964 63.1906 62.5633 63.3669 62.0889C63.3023 62.2598 63.7548 62.5692 63.8577 62.64C64.0078 62.7331 64.1369 62.8565 64.2368 63.0025C64.2953 63.0935 64.3399 63.1929 64.369 63.2972C64.5093 63.2665 64.6415 63.2062 64.7569 63.1204C64.654 62.869 64.4892 62.648 64.2779 62.4779Z" fill="#263238"/>
<path d="M50.6924 48.4432C50.3501 48.0179 49.8637 47.7337 49.326 47.6446C48.874 47.5965 48.417 47.6365 47.9801 47.7624C46.7548 48.0572 45.4559 49.0209 44.498 49.8255C43.6029 50.5493 42.9103 51.4937 42.488 52.5663C42.1266 53.5625 42.0648 54.6883 41.4448 55.5459C41.3489 55.6437 41.2933 55.7742 41.2891 55.9114C41.3155 56.1 41.5388 56.1913 41.7298 56.2061C42.0384 56.2167 42.3409 56.1187 42.585 55.929C42.2916 56.5426 42.1472 57.217 42.1635 57.8973C42.1799 58.5775 42.3565 59.2442 42.679 59.8429C42.747 59.9975 42.8664 60.1236 43.0169 60.1995C43.3549 60.3262 43.6605 59.9637 43.8397 59.6513C43.9531 60.1714 44.1328 60.6746 44.3745 61.1485C44.6726 61.8189 45.1913 62.3662 45.8438 62.6987C46.1377 62.8225 46.5079 62.8637 46.7254 62.628C46.8139 62.5109 46.8706 62.3728 46.8899 62.2271C47.0424 61.5376 47.1105 60.8319 47.0927 60.1258C47.2302 60.2689 47.4166 60.3546 47.6145 60.3655C47.8124 60.3764 48.007 60.3119 48.1594 60.1848C48.4596 59.9183 48.6658 59.5616 48.7471 59.168C49.0268 58.1674 49.061 57.1138 48.847 56.097C49.0909 56.1589 49.3201 55.9497 49.4582 55.7345C49.8119 55.0868 49.9778 54.3528 49.9372 53.6155C49.8941 52.806 49.9098 51.9943 49.9842 51.1871C49.9906 50.9498 50.0415 50.7158 50.1341 50.4974C50.1813 50.3888 50.2577 50.2954 50.3547 50.2277C50.4518 50.1601 50.5656 50.1208 50.6836 50.1143C50.8071 50.1272 50.9292 50.1518 51.048 50.188C51.1075 50.2052 51.1705 50.2066 51.2308 50.1922C51.291 50.1777 51.3465 50.1478 51.3918 50.1054C51.6739 49.7577 50.9011 48.6908 50.6924 48.4432Z" fill="black"/>
<path d="M56.485 64.013C55.7963 63.7511 55.0721 63.5951 54.3369 63.5503C53.6151 63.4856 52.8991 63.3674 52.1947 63.1966C51.5739 63.0436 50.9941 62.7559 50.4962 62.3537C50.2774 62.1816 50.0801 61.9837 49.9085 61.7643C49.7272 61.4762 49.5718 61.1724 49.4442 60.8566C49.4148 60.7917 49.2385 60.6827 49.2209 60.8182C49.1504 61.4077 49.5588 62.0148 49.932 62.4303C50.4029 62.9254 50.9914 63.2924 51.6423 63.4972C52.3481 63.7229 53.078 63.8644 53.8168 63.9187C54.2311 63.957 54.6484 63.9835 55.0657 64.0218C55.5329 64.0631 55.9943 64.1485 56.4615 64.1721C56.5379 64.1633 56.5261 64.0366 56.485 64.013Z" fill="#263238"/>
<path d="M53.8715 50.757C53.3249 51.0959 52.7402 51.6205 52.5403 52.2512C52.4816 52.4369 52.3846 52.7699 52.6197 52.8701C52.8548 52.9703 53.2074 52.6756 53.3984 52.5253C53.7812 52.2443 54.1785 51.9836 54.5885 51.7443C54.7712 51.6387 54.9343 51.502 55.0704 51.3405C55.6111 50.6185 54.568 50.3739 54.0596 50.648L53.8715 50.757Z" fill="#37474F"/>
<path d="M62.0139 49.849C62.6016 50.1084 63.254 50.5475 63.539 51.1428C63.6213 51.3197 63.7624 51.638 63.539 51.7706C63.3157 51.9032 62.9219 51.6586 62.7221 51.5348C62.3254 51.2931 61.8582 51.1251 61.438 50.9247C61.2415 50.8462 61.0605 50.7334 60.9032 50.5917C60.2714 49.9522 61.2675 49.5631 61.8082 49.7665C61.8817 49.7901 61.9463 49.8195 62.0139 49.849Z" fill="#37474F"/>
<path d="M44.6215 63.5648C46.7725 65.6543 51.148 67.7173 55.3149 67.3194C59.661 66.9009 60.6337 66.0227 60.6337 66.0227L61.0039 68.124C59.6057 68.7921 58.1129 69.2395 56.5785 69.4503C53.7839 69.8923 47.8627 69.3117 43.8398 65.3743L44.6215 63.5648Z" fill="#EBB461"/>
<path d="M55.7534 54.1817C55.8171 54.3284 55.8359 54.4909 55.8073 54.6484C55.7788 54.8058 55.7042 54.9513 55.5931 55.0662C55.482 55.1811 55.3393 55.2602 55.1832 55.2937C55.0271 55.3271 54.8647 55.3132 54.7165 55.2538C54.5682 55.1945 54.441 55.0923 54.3508 54.9602C54.2606 54.8281 54.2116 54.6721 54.21 54.5121C54.2084 54.352 54.2542 54.1951 54.3417 54.0612C54.4292 53.9274 54.5544 53.8226 54.7014 53.7602C54.798 53.7184 54.902 53.6961 55.0072 53.6946C55.1125 53.6932 55.2169 53.7126 55.3147 53.7518C55.4124 53.7909 55.5015 53.8491 55.5768 53.9228C55.6521 53.9966 55.7121 54.0846 55.7534 54.1817Z" fill="white"/>
<path d="M55.873 54.0848C55.9364 54.2315 55.955 54.3938 55.9263 54.5511C55.8977 54.7084 55.8231 54.8536 55.7121 54.9683C55.601 55.0831 55.4585 55.1622 55.3026 55.1956C55.1467 55.2291 54.9844 55.2153 54.8363 55.1562C54.6882 55.097 54.5609 54.995 54.4706 54.8633C54.3804 54.7315 54.3311 54.5758 54.3292 54.4159C54.3272 54.256 54.3726 54.0991 54.4597 53.9651C54.5467 53.8312 54.6714 53.7261 54.8181 53.6633C54.9149 53.621 55.019 53.5984 55.1246 53.5967C55.2302 53.595 55.335 53.6143 55.4331 53.6535C55.5312 53.6927 55.6206 53.751 55.6961 53.825C55.7716 53.899 55.8317 53.9873 55.873 54.0848Z" fill="black"/>
<path d="M55.0779 54.1881C55.0893 54.2353 55.1145 54.278 55.1502 54.3109C55.1859 54.3437 55.2306 54.3651 55.2784 54.3724C55.3263 54.3797 55.3753 54.3726 55.4191 54.3519C55.463 54.3312 55.4997 54.2979 55.5246 54.2563C55.5495 54.2146 55.5615 54.1664 55.5591 54.1179C55.5567 54.0694 55.5399 54.0226 55.5109 53.9837C55.482 53.9447 55.4421 53.9153 55.3964 53.8991C55.3508 53.883 55.3013 53.8808 55.2544 53.8929C55.2234 53.9005 55.1942 53.9142 55.1685 53.9331C55.1428 53.9521 55.1211 53.976 55.1047 54.0035C55.0883 54.031 55.0774 54.0614 55.0728 54.0931C55.0682 54.1248 55.0699 54.1571 55.0779 54.1881Z" fill="#FAFAFA"/>
<path d="M62.688 52.7997C62.5126 52.7875 62.3394 52.8449 62.2058 52.9595C62.0722 53.0742 61.989 53.237 61.974 53.4127C61.9667 53.4993 61.9767 53.5865 62.0033 53.6692C62.0299 53.7519 62.0726 53.8285 62.1289 53.8945C62.1852 53.9606 62.2539 54.0148 62.3313 54.054C62.4086 54.0932 62.4929 54.1166 62.5793 54.123C62.7547 54.1352 62.9279 54.0778 63.0615 53.9631C63.1951 53.8484 63.2784 53.6857 63.2934 53.51C63.3006 53.4234 63.2906 53.3362 63.264 53.2535C63.2375 53.1708 63.1948 53.0942 63.1385 53.0281C63.0822 52.9621 63.0134 52.9079 62.9361 52.8687C62.8587 52.8295 62.7744 52.806 62.688 52.7997Z" fill="white"/>
<path d="M62.7342 52.6808C62.5588 52.6685 62.3856 52.7259 62.252 52.8406C62.1184 52.9553 62.0351 53.118 62.0201 53.2938C62.0125 53.3804 62.0222 53.4678 62.0486 53.5506C62.075 53.6335 62.1177 53.7103 62.174 53.7764C62.2304 53.8425 62.2994 53.8967 62.3769 53.9358C62.4544 53.9749 62.5389 53.9981 62.6254 54.004C62.8009 54.0163 62.9741 53.9589 63.1076 53.8442C63.2412 53.7295 63.3245 53.5667 63.3395 53.391C63.3467 53.3044 63.3368 53.2173 63.3102 53.1346C63.2836 53.0518 63.2409 52.9753 63.1846 52.9092C63.1283 52.8431 63.0595 52.7889 62.9822 52.7497C62.9049 52.7105 62.8206 52.6871 62.7342 52.6808Z" fill="black"/>
<path d="M62.8609 53.3278C62.8349 53.3302 62.8087 53.3274 62.7839 53.3194C62.759 53.3115 62.736 53.2985 62.7162 53.2815C62.6964 53.2644 62.6803 53.2435 62.6688 53.22C62.6572 53.1965 62.6505 53.1709 62.649 53.1448C62.645 53.092 62.6619 53.0397 62.696 52.9994C62.7302 52.959 62.7789 52.9338 62.8315 52.9293C62.8574 52.9273 62.8834 52.9304 62.9081 52.9386C62.9328 52.9467 62.9557 52.9596 62.9753 52.9766C62.995 52.9936 63.0112 53.0144 63.0228 53.0377C63.0345 53.061 63.0415 53.0863 63.0433 53.1123C63.0474 53.1651 63.0305 53.2174 62.9964 53.2578C62.9622 53.2981 62.9135 53.3233 62.8609 53.3278Z" fill="#FAFAFA"/>
<path d="M63.8902 86.4258C63.7929 86.1685 63.7402 85.8964 63.7344 85.6212C63.6228 82.6741 64.0283 79.6119 65.3271 76.93C66.67 74.1597 68.4214 71.7519 68.6301 68.5542C68.6976 67.5433 68.6301 66.4912 68.9856 65.551C69.1502 65.1296 69.397 64.7464 69.5498 64.322C69.8055 63.6118 69.779 62.8337 69.8848 62.0881C69.943 61.5195 70.1623 60.9796 70.5166 60.532C70.668 60.3556 70.8526 60.2109 71.0599 60.1062C71.2671 60.0015 71.4929 59.9389 71.7244 59.9219C71.7244 58.9022 72.7264 58.1536 73.6197 58.4483C73.7941 58.1816 74.0466 57.9756 74.3426 57.8589C74.6123 57.754 74.9091 57.7426 75.186 57.8265C75.5025 57.9357 75.7724 58.1502 75.9509 58.4342C76.1294 58.7183 76.2058 59.0549 76.1675 59.3885C76.1543 59.4685 76.1543 59.5501 76.1675 59.6301C76.192 59.7158 76.233 59.7959 76.2879 59.8659C76.8756 60.7501 77.1107 62.0704 76.4114 62.9369C76.1968 63.2021 75.9147 63.4084 75.7208 63.6884C75.2741 64.3338 75.3975 65.2121 75.1566 65.9607C74.948 66.6149 74.4719 67.1395 74.0576 67.6877C72.4443 69.8244 72.0358 72.2558 71.7067 74.87C71.5216 76.2846 71.3482 77.9144 71.2454 79.3379C71.1519 80.8911 70.9099 82.4317 70.5225 83.9384C69.9348 86.0987 68.4655 87.6489 66.1323 87.6666C65.6906 87.6835 65.2508 87.6009 64.8452 87.4249C64.4076 87.2317 64.0642 86.8724 63.8902 86.4258Z" fill="#455A64"/>
<path d="M70.1871 84.8606C69.9136 85.5816 69.4591 86.2196 68.8675 86.7127C68.276 87.2058 67.5675 87.5373 66.8107 87.6752C65.7 87.8903 64.2513 87.6752 63.8163 86.458C63.6838 86.0898 63.622 85.6998 63.6342 85.3086C63.5759 83.7763 63.6873 82.2423 63.9662 80.7346C64.4481 77.6519 66.273 75.1026 67.5307 72.3322C68.1639 70.9562 68.5099 69.4648 68.5474 67.9498C68.53 67.175 68.629 66.402 68.8413 65.6569C69.1116 64.9319 69.573 64.3307 69.6494 63.5467C69.764 62.8099 69.7346 62.0201 70.0108 61.2803C70.1258 60.9019 70.3498 60.5659 70.6546 60.3148C70.9595 60.0636 71.3315 59.9084 71.724 59.8686L71.677 59.9217C71.6834 59.5611 71.8111 59.2132 72.0394 58.9345C72.2677 58.6557 72.5832 58.4625 72.9347 58.3862C73.1671 58.3406 73.4075 58.3579 73.6311 58.4363H73.6076C73.774 58.1806 74.017 57.9844 74.3015 57.8758C74.5861 57.7673 74.8977 57.752 75.1915 57.8321C74.8999 57.7471 74.5877 57.768 74.3099 57.8911C74.0315 58.0187 73.7951 58.2232 73.6282 58.4805C73.4094 58.41 73.1763 58.3967 72.951 58.4421C72.7257 58.4875 72.5157 58.59 72.3411 58.7399C72.1594 58.8873 72.0144 59.0751 71.9175 59.2884C71.8206 59.5017 71.7745 59.7346 71.7828 59.9688C69.952 60.1604 69.9579 62.1321 69.8227 63.5703C69.761 64.3454 69.2909 65.0203 69.0352 65.7217C68.5974 67.1688 68.9147 68.772 68.4916 70.2427C67.9656 72.4914 66.7108 74.4807 65.6735 76.5025C64.2424 79.1903 63.7635 82.2789 63.8193 85.3027C63.7429 86.5169 64.407 87.5013 65.6765 87.5926C66.6214 87.6852 67.5709 87.4693 68.3837 86.9771C69.1964 86.4848 69.8289 85.7425 70.1871 84.8606Z" fill="#37474F"/>
<path d="M74.8136 62.778C74.3993 62.1237 74.8136 61.4046 75.3337 60.9684C75.6276 60.7327 76.039 60.6118 76.3211 60.9095C76.4618 61.0771 76.5515 61.2817 76.5797 61.4989C76.6447 61.7739 76.6247 62.0621 76.5223 62.3254C76.4199 62.5886 76.2401 62.8143 76.0066 62.9725C75.9037 63.0511 75.7871 63.1101 75.6628 63.1464C75.5007 63.1792 75.3325 63.1614 75.1807 63.0956C75.0289 63.0297 74.9008 62.9189 74.8136 62.778Z" fill="#37474F"/>
<path d="M74.814 62.7783C74.4731 62.2714 74.6759 61.5994 75.0461 61.175C75.4164 60.6416 76.2215 60.3439 76.5712 61.0925C76.6986 61.3706 76.7409 61.6802 76.6928 61.9824C76.6446 62.2846 76.5083 62.5656 76.3009 62.7901C75.8719 63.2557 75.1872 63.3589 74.814 62.7901V62.7783ZM74.814 62.7783C75.2048 63.3677 75.8366 63.2115 76.2215 62.7164C76.3816 62.4981 76.4802 62.2407 76.5071 61.9711C76.534 61.7015 76.4881 61.4296 76.3744 61.1839C76.1305 60.5944 75.4575 60.8567 75.1284 61.2458C74.7258 61.6289 74.476 62.2714 74.814 62.7783Z" fill="#263238"/>
<path d="M74.6619 58.794C74.5968 58.8249 74.5356 58.8635 74.4797 58.909C74.3165 59.0659 74.1935 59.26 74.1212 59.4748C73.9523 59.9 73.8617 60.3523 73.8538 60.8099C73.8388 61.0501 73.8769 61.2906 73.9654 61.5143C74.2593 62.2039 75.2937 61.8444 75.5846 61.308C75.6589 61.1586 75.7132 61 75.7462 60.8364C75.8444 60.2845 75.7609 59.7155 75.5082 59.2155C75.4368 59.0212 75.2937 58.8619 75.1085 58.7705C74.9624 58.719 74.8018 58.7274 74.6619 58.794Z" fill="#37474F"/>
<path d="M74.6615 58.7942C74.0532 59.1419 73.9709 59.973 73.9151 60.6037C73.8593 61.2344 74.0855 62.0243 74.8907 61.7266C75.5519 61.5232 75.7723 60.7864 75.7223 60.1558C75.6694 59.5987 75.4285 58.4818 74.6615 58.7942ZM74.6615 58.7942C75.4314 58.4788 75.7194 59.5781 75.8369 60.144C75.9633 60.8395 75.7106 61.7119 74.9554 61.9329C73.9798 62.26 73.6712 61.3936 73.8034 60.5949C73.9092 59.9701 74.0562 59.1213 74.6556 58.7942H74.6615Z" fill="#263238"/>
<path d="M72.5407 59.5486C72.3202 59.8427 72.1667 60.1818 72.0911 60.5418C72.013 60.8761 72.0365 61.2261 72.1587 61.5468C72.2321 61.7236 72.3056 61.9535 72.4966 62.0272C72.7879 62.1031 73.0971 62.0641 73.3605 61.9181C73.4887 61.8657 73.6078 61.7931 73.7132 61.703C74.0922 61.3464 74.1069 60.6273 74.1157 60.144C74.1157 59.6076 73.8042 58.8826 73.1401 59.0771C72.8955 59.1666 72.6856 59.3317 72.5407 59.5486Z" fill="#37474F"/>
<path d="M72.5397 59.5483C72.3306 59.8128 72.1886 60.1241 72.1256 60.4557C72.0627 60.7872 72.0807 61.1292 72.1783 61.4522C72.2318 61.6055 72.3102 61.7489 72.4104 61.8766C72.7366 62.1477 73.3919 61.8412 73.6652 61.5818C74.0354 61.1398 74.0854 60.288 74.0031 59.7192C73.8121 58.8557 72.9923 58.8764 72.5338 59.5365L72.5397 59.5483ZM72.5397 59.5483C73.0011 58.8587 73.8474 58.8292 74.1089 59.6986C74.2823 60.4855 74.2852 61.7292 73.3537 62.0328C72.7249 62.2892 72.2459 62.2096 72.0784 61.4905C72.0056 61.1528 72.0092 60.803 72.0891 60.4668C72.1689 60.1307 72.3229 59.8168 72.5397 59.5483Z" fill="#263238"/>
<path d="M75.3986 63.1261C75.3822 62.9542 75.3416 62.7855 75.2781 62.6251C74.9519 61.7792 74.0674 61.6024 73.2857 61.8971C72.4378 62.2374 71.7579 62.8993 71.3933 63.7391C71.2082 64.1841 71.1377 64.7411 71.4374 65.1184C71.524 65.2238 71.6339 65.3077 71.7583 65.3635C71.8827 65.4192 72.0183 65.4453 72.1544 65.4396C72.5687 65.416 72.9302 65.0948 73.3475 65.1007C73.9058 65.1007 74.4759 65.5604 74.9637 65.027C75.1621 64.7797 75.2874 64.4816 75.3251 64.1664C75.4007 63.8252 75.4255 63.4746 75.3986 63.1261Z" fill="#263238"/>
<path d="M71.213 63.3644C71.6332 63.5294 72.3238 63.0696 72.4942 62.6954C72.5312 62.6105 72.5579 62.5214 72.5736 62.4301C72.652 61.9719 72.5777 61.5006 72.362 61.0891C72.3017 60.9777 72.2126 60.8847 72.104 60.8199C71.9953 60.755 71.8713 60.7208 71.7449 60.7207C71.5884 60.7523 71.4423 60.8228 71.3201 60.9258C71.1979 61.0288 71.1035 61.161 71.0455 61.3102C70.7928 61.7906 70.4901 63.0785 71.213 63.3644Z" fill="#37474F"/>
<path d="M71.2126 63.3654C71.7621 63.5127 72.4439 62.9911 72.5144 62.4488C72.5849 61.9065 72.4762 61.2139 72.0384 60.9074C71.0716 60.3593 70.2576 63.0412 71.2126 63.3654ZM71.2126 63.3654C70.1988 62.9469 70.9188 60.0292 72.15 60.7129C72.7583 61.1196 72.8465 62.325 72.4145 62.8761C72.1206 63.1885 71.6563 63.4862 71.2126 63.3565V63.3654Z" fill="#263238"/>
<path d="M70.6586 68.2456C70.6002 68.3133 70.5606 68.3952 70.5435 68.4831C70.5265 68.571 70.5328 68.6619 70.5616 68.7466C70.6645 68.9765 70.9583 69.0413 71.2052 69.0413L71.3874 69.059C71.5558 69.0855 71.7273 69.0855 71.8957 69.059C72.0339 69.0362 72.1619 68.9717 72.2625 68.8739C72.3632 68.7762 72.4316 68.65 72.4588 68.5122C72.4859 68.3744 72.4705 68.2316 72.4145 68.1028C72.3585 67.9741 72.2647 67.8655 72.1455 67.7917C71.7194 67.5383 71.0906 67.7917 70.7673 68.1159C70.7262 68.1547 70.6897 68.1983 70.6586 68.2456Z" fill="#37474F"/>
<path d="M36.0849 121.327C34.4482 119.234 31.1658 117.702 28.3007 116.809C27.713 116.626 27.1253 116.449 26.5376 116.281L24.6569 115.751C25.5429 116.491 26.5172 117.117 27.5573 117.616C26.2614 117.809 24.9434 117.795 23.6519 117.575C22.2738 117.296 20.9713 116.724 19.8318 115.898C18.773 115.118 17.8786 114.135 17.1998 113.006C16.521 111.878 16.0713 110.626 15.8765 109.323C15.4247 109.883 15.1586 110.57 15.1154 111.289C13.5906 109.048 13.0039 106.296 13.4816 103.626C13.9429 100.929 15.3123 98.3064 17.716 96.8299C18.5658 96.2672 19.5078 95.8591 20.4989 95.6245C20.3872 96.7297 20.299 97.6403 20.2432 98.7956C18.1862 100.493 19.1589 103.193 19.9846 104.31C21.21 105.966 23.2346 106.859 25.2564 107.257C26.9754 107.59 28.7444 107.758 30.393 108.389C31.3236 108.716 32.1628 109.262 32.8408 109.98L30.1961 109.744C32.1738 110.502 33.8387 111.907 34.9213 113.732C36.0174 115.6 36.2054 117.177 36.2172 119.346C36.2072 120.008 36.1631 120.669 36.0849 121.327Z" fill="#37474F"/>
<path d="M97.7112 48.9464C95.5984 49.4916 91.937 50.756 91.0525 55.7632C90.168 60.7705 89.5274 71.5276 89.5215 71.5482C89.3922 72.4324 86.4331 80.8819 85.7836 82.0962C85.4898 82.6355 85.2459 83.1483 84.714 83.4666C84.0146 83.888 83.2095 84.115 82.4778 84.4657C80.7146 85.3115 79.2894 86.7203 77.9024 88.1054C77.7966 88.1948 77.7148 88.3093 77.6644 88.4385C77.3529 89.5112 79.4511 89.1428 79.8713 88.8805C80.6206 88.4119 82.5365 86.9413 81.5345 88.9601C80.6265 90.7874 79.1543 92.2492 77.7849 93.7316C77.5616 93.9732 77.3294 94.321 77.5146 94.601C77.7438 94.9311 78.2668 94.7012 78.6576 94.7926C78.7105 95.0283 78.4813 95.2287 78.4108 95.4586C78.2874 95.8683 78.7047 96.2691 79.1337 96.3045C79.5597 96.296 79.9772 96.1837 80.3503 95.9773C80.4759 95.9178 80.6113 95.8818 80.7499 95.8712C80.9305 95.8871 81.1078 95.9299 81.2759 95.998C81.6431 96.1023 82.0329 96.095 82.396 95.977C82.759 95.8589 83.079 95.6354 83.3153 95.3348C83.3814 95.2151 83.4764 95.1138 83.5915 95.0401C83.6982 95.0038 83.8114 94.9907 83.9235 95.0018C84.9256 95.0165 85.1724 94.5568 85.7778 93.9261C86.4448 93.2276 87.1207 92.5616 87.7319 91.8071C89.0454 90.1891 90.0357 87.5396 91.1259 85.7654C93.991 81.1059 95.1753 79.2197 96.2331 77.1184C97.1489 75.4062 97.8083 73.5681 98.1902 71.6632C99.1012 67.5136 99.2628 64.7373 99.6154 62.8688C100.97 55.6836 100.562 50.6175 97.7112 48.9464Z" fill="#F1B7B6"/>
<path d="M104.164 107.85C104.591 108.257 106.286 107.555 107.317 106.748C108.349 105.94 111.138 104.653 112.248 104.063C113.756 103.353 115.322 102.778 116.929 102.342C119.486 101.738 120.603 101.649 121.852 100.359C122.129 100.078 122.343 99.7403 122.479 99.3689C122.614 98.9976 122.668 98.6012 122.636 98.2071C122.636 98.2071 121.658 99.4066 117.808 98.8142C113.959 98.2218 111.931 97.1284 110.529 97.3406C109.128 97.5528 105.501 98.602 103.104 96.707C102.36 96.1175 102.672 95.2128 102.992 95.1067C102.387 95.4426 102.21 95.9407 102.04 96.4535C101.931 96.7865 101.802 97.2434 101.702 97.5469C101.455 98.3279 101.05 99.7985 100.009 100.521C99.4422 100.916 99.2423 101.036 99.448 101.499L104.164 107.85Z" fill="#816859"/>
<path d="M121.802 96.5442C122.942 97.505 122.807 98.0178 122.684 98.7634C122.56 99.5091 122.231 99.7272 121.476 99.9954C120.53 100.331 118.831 100.334 117.153 99.9954C115.475 99.6564 112.005 98.3066 110.95 98.4068C109.895 98.507 108.138 99.2232 106.013 99.0139C103.889 98.8047 103.019 98.2182 102.487 97.6907C102.319 97.54 102.191 97.3499 102.115 97.1374C102.039 96.925 102.016 96.6969 102.049 96.4735C102.049 96.4735 102.073 95.1502 103.774 94.7347C105.231 94.3692 121.802 96.5442 121.802 96.5442Z" fill="#263238"/>
<path d="M93.6738 103.77L95.9571 113.06L100.791 109.998L102.73 108.71C103.518 108.238 104.787 107.472 106.033 106.735C106.83 106.264 106.089 105.851 106.65 105.217C107.212 104.584 108.637 104.083 108.637 104.083C107.726 104.082 106.82 104.206 105.942 104.451C104.235 104.937 103.753 104.884 102.93 103.935C102.107 102.986 101.299 100.776 99.6802 101.407L93.6738 103.77Z" fill="#F1B7B6"/>
<path d="M122.638 98.2069C123.002 96.8984 119.496 94.1899 115.397 94.0603C111.298 93.9306 111.665 94.8236 108.773 94.6173C105.882 94.411 104.56 94.1723 102.993 95.1006C102.226 95.5456 102 97.1106 104.795 97.7825C107.589 98.4545 109.582 97.5144 110.889 97.4377C112.197 97.3611 114.521 98.54 118.286 99.1353C121.312 99.598 122.332 99.3033 122.638 98.2069Z" fill="#F0F0F0"/>
<path d="M120.929 111.459C121.355 111.866 123.051 111.164 124.082 110.357C125.114 109.549 127.902 108.261 129.016 107.672C130.522 106.962 132.087 106.386 133.694 105.951C136.251 105.347 137.37 105.258 138.616 103.967C138.894 103.687 139.108 103.349 139.244 102.978C139.38 102.607 139.434 102.21 139.404 101.816C139.404 101.816 138.422 103.015 134.573 102.423C130.723 101.831 128.696 100.737 127.294 100.949C125.892 101.162 122.266 102.211 119.871 100.316C119.125 99.7264 119.436 98.8216 119.757 98.7155C119.151 99.0515 118.975 99.5496 118.807 100.062C118.699 100.395 118.566 100.852 118.469 101.156C118.22 101.937 117.814 103.407 116.777 104.129C116.207 104.524 116.007 104.645 116.213 105.108L120.929 111.459Z" fill="#A88674"/>
<path d="M138.566 100.154C139.706 101.115 139.571 101.628 139.448 102.373C139.324 103.119 138.995 103.337 138.24 103.605C137.294 103.941 135.595 103.944 133.917 103.605C132.239 103.266 128.769 101.916 127.714 102.017C126.659 102.117 124.902 102.833 122.777 102.624C120.653 102.415 119.786 101.828 119.251 101.301C119.084 101.149 118.956 100.959 118.88 100.747C118.804 100.535 118.781 100.307 118.813 100.083C118.813 100.083 118.837 98.7601 120.538 98.3445C122.013 97.9791 138.566 100.154 138.566 100.154Z" fill="#263238"/>
<path d="M110.441 107.381L112.722 116.671L117.556 113.608L119.495 112.321C120.286 111.849 121.552 111.083 122.801 110.346C123.597 109.874 122.854 109.462 123.418 108.828C123.982 108.195 125.402 107.694 125.402 107.694C124.491 107.693 123.584 107.817 122.707 108.062C121 108.548 120.518 108.495 119.698 107.546C118.878 106.597 118.064 104.375 116.43 105.017L110.441 107.381Z" fill="#F1B7B6"/>
<path d="M139.403 101.816C139.768 100.508 136.262 97.7993 132.16 97.6696C128.057 97.54 128.431 98.433 125.536 98.2267C122.642 98.0204 121.322 97.7816 119.756 98.71C118.989 99.155 118.763 100.72 121.557 101.392C124.352 102.064 126.347 101.124 127.652 101.047C128.957 100.97 131.284 102.149 135.048 102.745C138.078 103.219 139.095 102.924 139.403 101.816Z" fill="#F0F0F0"/>
<path d="M107.732 101.642C107.018 99.0725 105.29 98.819 105.29 98.819L96.1009 101.044C96.1009 101.044 118.04 88.7751 118.031 86.2464L93.6972 79.2233C93.6972 79.2233 77.5998 97.6696 74.6172 104.451C72.854 108.45 72.5866 111.471 74.1793 113.517C76.8769 116.979 81.0056 116.758 87.9905 114.533C95.0431 112.285 106.142 108.854 106.142 108.854C106.142 108.854 108.857 105.701 107.732 101.642Z" fill="#A88674"/>
<path d="M107.908 102.392C107.864 102.147 107.811 101.897 107.741 101.643C107.697 101.484 107.647 101.331 107.594 101.19C107.594 101.151 107.565 101.119 107.55 101.081C107.512 100.98 107.473 100.877 107.432 100.786L107.385 100.694C107.341 100.603 107.297 100.512 107.25 100.432L107.206 100.358C107.156 100.276 107.109 100.193 107.059 100.12C107.059 100.102 107.033 100.087 107.021 100.067C106.968 99.993 106.912 99.9193 106.859 99.8516L106.824 99.8133C106.768 99.7455 106.712 99.6806 106.657 99.6217L106.627 99.5952C106.568 99.5362 106.51 99.4802 106.451 99.4301C106.451 99.4301 106.436 99.4301 106.43 99.4095L106.254 99.271L106.233 99.2562C106.175 99.215 106.119 99.1737 106.063 99.1384H106.048C105.992 99.103 105.937 99.0706 105.884 99.044L105.731 98.9704L105.602 98.9173L105.496 98.882L105.419 98.8613H105.405H105.364H105.343L104.015 99.1826L96.1541 101.086C96.1541 101.086 98.314 98.7287 100.292 96.1411L100.53 95.8287V95.8139C100.606 95.7137 100.682 95.6135 100.756 95.5192V95.5045C101.111 95.0241 101.455 94.5437 101.77 94.0781L101.79 94.0486C101.893 93.8953 101.993 93.7539 102.084 93.5947L93.292 85.3073C92.337 90.347 95.8397 94.8856 95.8397 94.8856C95.8397 94.8856 87.3179 105.513 84.0414 110.311C81.4672 114.08 78.0644 114.564 75.5784 113.291C73.3656 112.156 73.1688 110.202 73.1541 109.943C73.0953 111.384 73.4274 112.595 74.1943 113.585C76.8919 117.048 81.0206 116.827 88.0055 114.602C95.0581 112.356 106.151 108.926 106.157 108.923C106.157 108.923 108.393 106.332 107.976 102.825C107.938 102.637 107.908 102.516 107.908 102.392Z" fill="#816859"/>
<path opacity="0.15" d="M98.0513 104.644C100.99 101.835 108.427 98.4869 110.07 97.7177C109.188 96.5713 108.163 96.5006 108.139 96.4976L103.664 98.0213L99.1885 99.545C99.1885 99.545 93.8992 107.7 90.4258 108.554C93.2797 107.984 95.9197 106.63 98.0513 104.644Z" fill="black"/>
<path d="M115.945 109.78C115.566 108.352 114.789 107.063 113.706 106.063L112.237 106.623C112.237 106.623 115.736 102.029 118.152 98.6363C122.187 92.9719 123.236 85.5981 119.871 78.7724L103.139 83.1932L93.6973 79.2174C91.0085 88.8842 98.8309 95.0349 98.8309 95.0349C98.8309 95.0349 91.0232 107.437 89.2071 111.999C87.4969 116.299 87.7672 119.762 89.5392 121.654C92.5336 124.86 97.2411 125.6 103.741 122.228C109.912 119.034 116.183 114.504 116.183 114.504C116.183 114.504 116.762 113.107 115.945 109.78Z" fill="#A88674"/>
<path d="M113.706 106.063L112.237 106.623C112.237 106.623 104.969 115.415 101.487 116.269C101.487 116.269 105.845 115.724 109.128 112.362C111.255 110.163 113.706 106.063 113.706 106.063Z" fill="#816859"/>
<path d="M115.255 84.5663C115.444 85.2678 115.56 85.9867 115.602 86.7119C115.602 86.8916 115.626 87.0744 115.646 87.2541L115.681 87.7935C115.705 88.156 115.734 88.5155 115.74 88.878C115.746 89.2405 115.773 89.6001 115.784 89.9596C115.784 90.1394 115.784 90.3221 115.784 90.5019C115.784 90.6817 115.784 90.8615 115.784 91.0442C115.79 91.7727 115.754 92.5009 115.676 93.2251C116.012 92.5528 116.223 91.8248 116.299 91.0766C116.391 90.3367 116.418 89.5903 116.381 88.8456C116.346 88.1008 116.248 87.3603 116.087 86.6323C116.043 86.4496 115.999 86.2668 115.949 86.0871C115.899 85.9073 115.834 85.7304 115.773 85.5536C115.656 85.1979 115.481 84.8642 115.255 84.5663ZM113.727 86.5674C113.647 85.5084 113.375 84.4729 112.925 83.5112C113.123 84.5277 113.222 85.5612 113.219 86.5969C113.219 87.6255 113.169 88.6599 113.072 89.6767C113.034 90.1925 112.972 90.7053 112.91 91.2151C112.878 91.4715 112.849 91.7279 112.813 91.9843C112.778 92.2407 112.74 92.4971 112.705 92.7535C112.552 93.7792 112.381 94.8018 112.19 95.8333C112.629 94.8749 112.967 93.8734 113.198 92.8449C113.328 92.335 113.422 91.8163 113.516 91.2976C113.61 90.7789 113.666 90.2543 113.716 89.7297C113.817 88.6753 113.82 87.6136 113.724 86.5586L113.727 86.5674ZM90.6832 118.845L90.5539 119.564L90.4775 120.292L90.4422 120.654C90.4422 120.775 90.4422 120.899 90.4422 121.02V121.748C90.6831 119.84 91.1854 117.974 91.935 116.204C92.0173 115.98 92.1202 115.762 92.2142 115.541L92.508 114.881C92.6961 114.439 92.9106 113.997 93.1105 113.575C93.5248 112.709 93.9538 111.848 94.4122 111.002C95.2938 109.305 96.2723 107.637 97.2479 105.977L100.231 101.009C99.014 102.515 97.8797 104.085 96.813 105.703C95.7463 107.321 94.756 108.981 93.8275 110.693C92.9058 112.406 92.1198 114.188 91.4766 116.024C91.146 116.945 90.8808 117.887 90.6832 118.845ZM76.9308 110.003L76.7721 110.719L76.6928 111.073C76.6751 111.194 76.6634 111.318 76.6487 111.436L76.5693 112.161C77.0268 110.293 77.7409 108.497 78.691 106.826C78.7997 106.614 78.9231 106.408 79.0436 106.201L79.3992 105.577C79.6401 105.161 79.9017 104.757 80.1485 104.351C80.6627 103.537 81.1858 102.736 81.7383 101.949C82.8226 100.363 83.9745 98.8188 85.1352 97.2833L88.6615 92.6946C87.2804 94.0503 85.9756 95.4797 84.7268 96.9592C83.4779 98.4386 82.2936 99.9771 81.1829 101.571C80.0689 103.162 79.0796 104.837 78.2237 106.582C77.7979 107.468 77.4364 108.384 77.1423 109.323L76.9308 110.003Z" fill="#816859"/>
<path d="M112.317 27.1752C113.266 27.9797 113.536 29.1174 114.374 29.9838C115.714 31.3719 118.141 31.3248 119.328 32.8485C119.835 33.5584 120.077 34.424 120.013 35.2946C119.975 36.3792 119.631 37.4962 119.99 38.5188C120.469 39.8893 121.85 40.7616 122.158 42.1704C122.248 42.5729 122.244 42.9907 122.148 43.3917C122.052 43.7927 121.865 44.1663 121.603 44.4839C121.285 44.8552 120.859 45.1234 120.568 45.5154C120.037 46.2375 120.066 47.213 120.022 48.1089C119.963 49.2878 119.666 50.5904 118.723 51.3154C117.727 52.0817 116.308 51.9933 115.197 52.5974C114.453 53.0042 113.907 53.6997 113.222 54.1978C112.611 54.6457 111.712 54.9581 111.003 54.5632C110.362 54.2282 109.764 53.8176 109.22 53.3401C108.603 52.733 108.323 51.8489 107.721 51.227C106.751 50.2338 105.209 50.1366 103.966 49.5236C103.102 49.0807 102.39 48.3903 101.919 47.5401C101.448 46.6898 101.24 45.7183 101.321 44.7491C101.559 42.4209 103.469 40.405 103.293 38.0709C103.207 36.9274 102.626 35.8899 102.258 34.8054C101.891 33.7208 101.785 32.4005 102.532 31.5311C103.119 30.8532 104.051 30.6469 104.647 29.975C105.347 29.2058 105.05 28.0976 105.529 27.2194C105.754 26.8374 106.064 26.512 106.433 26.2679C106.803 26.0238 107.223 25.8674 107.662 25.8106C108.911 25.6277 110.185 25.8585 111.291 26.4678C111.655 26.6698 111.999 26.9067 112.317 27.1752Z" fill="#263238"/>
<path d="M109.405 27.2525C109.578 27.4697 109.706 27.7192 109.781 27.9864C109.831 28.2885 109.782 28.5985 109.643 28.8711C109.504 29.1436 109.282 29.3644 109.009 29.5012C108.732 29.6282 108.431 29.6939 108.127 29.6939C107.823 29.6939 107.522 29.6282 107.245 29.5012C106.117 29.0326 104.307 27.3292 105.353 26.0177C106.484 24.5824 108.647 26.2122 109.405 27.2525Z" fill="#D2ECFF"/>
<path d="M89.1431 61.2626C90.4097 55.7072 93.7831 52.9723 97.712 48.9464C97.712 48.9464 98.3232 48.746 101.121 48.2332C103.918 47.7204 109.199 48.6665 112.998 49.4121C113.724 49.81 119.927 52.3209 119.669 57.2869C119.396 62.5034 118.808 63.5202 118.787 70.2309C118.77 74.9021 120.733 77.3247 121.685 82.7622C118.934 88.0524 99.7014 90.7844 92.0582 81.1354C92.9221 78.6391 93.8713 75.0613 92.1375 69.388C89.5398 67.767 88.5525 63.8473 89.1431 61.2626Z" fill="#D2ECFF"/>
<path d="M107.512 45.9966C107.806 43.8334 110.157 41.7203 111.038 39.8076C111.92 37.9685 112.507 36.327 112.352 34.6294C112.258 33.6214 111.47 32.3453 110.73 32.0801C110.709 28.3902 107.441 25.7113 102.557 25.2338C100.923 25.1137 99.2802 25.2509 97.6883 25.6405C96.598 25.8591 95.5514 26.2575 94.591 26.8194C93.6654 27.3764 92.5928 27.5709 91.7612 28.3224C91.0177 28.9915 90.5446 30.0613 90.8649 31.0103C91.053 31.5732 91.5085 32.1125 91.3557 32.6901C91.2528 33.0762 90.9002 33.3356 90.6387 33.6391C90.3755 33.9426 90.1941 34.3085 90.1117 34.7021C90.0293 35.0957 90.0487 35.5038 90.1679 35.8878C90.2872 36.2718 90.5024 36.6188 90.7931 36.8958C91.0838 37.1728 91.4403 37.3706 91.8288 37.4705C91.6432 37.3441 91.5147 37.1495 91.4713 36.9288C91.4278 36.7082 91.4729 36.4792 91.5966 36.2916C91.5837 36.4486 91.6128 36.6063 91.681 36.7483C91.7492 36.8903 91.854 37.0114 91.9845 37.0991C92.3984 37.4374 92.8996 37.6508 93.4297 37.7144C93.9598 37.7781 94.4971 37.6894 94.9789 37.4587C95.1875 37.3555 95.3609 37.1639 95.5931 37.1433C95.8869 37.1138 96.3277 37.3113 96.6216 37.3732C97.3444 37.5353 98.0673 37.6885 98.7843 37.8742C100.058 38.17 101.286 38.6411 102.431 39.2741C103.21 39.7309 103.642 40.6416 104.168 41.3696L107.244 45.6223L107.512 45.9966Z" fill="#263238"/>
<path d="M110.328 42.2383C108.909 43.2786 107.801 42.3974 107.801 42.3974L108.976 48.7839C108.723 51.8755 105.027 55.7481 100.299 55.0467C96.3992 54.4572 99.4876 51.1181 100.072 50.2723L99.6198 48.1356C98.7945 48.2099 97.9633 48.1892 97.1426 48.0737C94.9328 47.6316 93.9102 45.8603 93.2755 44.0832C92.5996 42.2265 92.6437 39.7479 92.7289 38.5985C92.7837 37.86 92.7382 37.1174 92.5938 36.3911C92.2671 34.5551 92.6723 32.6638 93.7222 31.1245C94.0559 31.4844 94.4548 31.7775 94.8976 31.988C95.4449 32.2285 96.0274 32.3788 96.6225 32.433C97.5831 32.5251 98.5521 32.4705 99.4964 32.2709C99.9834 32.1802 100.462 32.0491 100.927 31.879C101.31 31.7126 101.665 31.4901 101.982 31.2188C101.962 33.2818 102.864 35.9932 105.153 36.4648C105.21 36.4703 105.263 36.4953 105.303 36.5355C105.326 36.5747 105.337 36.6197 105.335 36.6652C105.376 37.3666 105.335 39.0819 106.455 38.9433C107.21 38.852 107.172 37.8941 107.871 36.9805C108.571 36.0669 110.366 35.6749 111.183 36.8479C112.317 38.4865 111.885 41.0977 110.328 42.2383Z" fill="#F1B7B6"/>
<path d="M97.9205 36.0267L94.8145 40.5359L97.7559 41.4642L97.9205 36.0267Z" fill="#F28F8F"/>
<path d="M93.1043 36.3919L94.7763 35.5932C94.7307 35.4809 94.6625 35.3793 94.576 35.2945C94.4895 35.2098 94.3865 35.1438 94.2735 35.1007C94.1605 35.0576 94.0399 35.0383 93.9191 35.0439C93.7984 35.0495 93.68 35.08 93.5715 35.1334C93.3483 35.2438 93.1755 35.4356 93.0887 35.6696C93.0018 35.9035 93.0074 36.1619 93.1043 36.3919Z" fill="#263238"/>
<path d="M101.492 36.3742L99.791 35.6433C99.8321 35.5303 99.8957 35.427 99.9779 35.3395C100.06 35.252 100.159 35.1823 100.269 35.1346C100.379 35.0869 100.498 35.0621 100.618 35.0619C100.738 35.0617 100.856 35.0861 100.966 35.1334C101.197 35.232 101.381 35.4162 101.479 35.6475C101.577 35.8788 101.582 36.1393 101.492 36.3742Z" fill="#263238"/>
<path d="M99.6084 48.1358C102.238 47.5729 104.31 47.063 105.518 45C106.071 43.9459 106.511 42.8353 106.828 41.6874C106.828 41.6874 106.776 44.0746 106.056 45.7575C105.5 47.0542 103.943 48.3333 99.8053 49.0848L99.6084 48.1358Z" fill="#F28F8F"/>
<path d="M99.5723 37.8505C99.5792 38.0527 99.6655 38.244 99.8125 38.3825C99.9595 38.5211 100.155 38.5958 100.357 38.5902C100.56 38.5758 100.749 38.4817 100.883 38.3283C101.017 38.1749 101.086 37.9746 101.074 37.7709C101.073 37.6692 101.052 37.5687 101.012 37.4753C100.972 37.382 100.913 37.2978 100.839 37.2278C100.766 37.1578 100.679 37.1035 100.584 37.068C100.489 37.0326 100.388 37.0167 100.286 37.0215C100.185 37.0263 100.086 37.0515 99.9944 37.0958C99.9031 37.14 99.8217 37.2023 99.755 37.2789C99.6883 37.3555 99.6377 37.4448 99.6063 37.5416C99.5749 37.6383 99.5633 37.7403 99.5723 37.8416V37.8505Z" fill="#263238"/>
<path d="M93.7189 37.9188C93.7454 38.064 93.8137 38.1981 93.9155 38.3047C94.0172 38.4113 94.1478 38.4856 94.2912 38.5185C94.4346 38.5513 94.5845 38.5413 94.7223 38.4897C94.8601 38.438 94.9798 38.347 95.0665 38.2278C95.1532 38.1086 95.2032 37.9666 95.2103 37.8192C95.2174 37.6719 95.1812 37.5257 95.1063 37.3987C95.0314 37.2717 94.921 37.1696 94.7888 37.1049C94.6566 37.0402 94.5083 37.0158 94.3625 37.0347C94.262 37.0498 94.1656 37.0847 94.0788 37.1374C93.9919 37.1901 93.9163 37.2597 93.8565 37.3419C93.7966 37.4242 93.7536 37.5175 93.73 37.6165C93.7064 37.7156 93.7026 37.8183 93.7189 37.9188Z" fill="#263238"/>
<path d="M97.8691 43.1505C98.0202 43.527 98.3133 43.8284 98.6846 43.9895C99.056 44.1507 99.4757 44.1584 99.8527 44.0111C100.04 43.9414 100.211 43.8351 100.357 43.6984C100.503 43.5617 100.621 43.3972 100.703 43.2146C100.785 43.032 100.83 42.8348 100.835 42.6346C100.841 42.4344 100.806 42.2351 100.734 42.0483L97.8691 43.1505Z" fill="#B16668"/>
<path d="M100.84 42.5309C100.849 42.8491 100.758 43.1622 100.581 43.4264C100.404 43.6907 100.149 43.8928 99.8522 44.0045C99.6823 44.0699 99.5023 44.1048 99.3203 44.1076C99.3186 43.6981 99.4765 43.304 99.7603 43.0095C100.044 42.7149 100.431 42.5432 100.84 42.5309Z" fill="#F28F8F"/>
<path d="M118.22 52.0498C117.044 50.7737 115.678 50.0663 112.998 49.3973C111.235 50.9564 110.259 53.6737 109.139 54.8938C107.032 57.1926 98.8927 64.9495 98.8927 64.9495C98.8927 64.9495 96.8357 64.0801 94.7082 63.1812C93.4652 62.6596 87.6909 60.072 87.5264 59.2261C87.3971 58.5748 87.2619 56.6061 87.0738 55.9695C86.8118 55.0189 86.4493 54.0991 85.9924 53.2257C85.8714 52.9707 85.7172 52.7329 85.534 52.5184C85.406 52.3742 85.243 52.2656 85.0609 52.203C84.9316 52.1745 84.7965 52.1922 84.6789 52.2531C84.6789 52.2531 84.2117 51.2452 84.0383 50.9475C83.5887 50.1724 82.954 49.0437 82.4485 48.2951C82.289 48.0923 82.1131 47.903 81.9225 47.7292C81.8543 47.6821 81.7769 47.6501 81.6954 47.6351C81.6139 47.6201 81.5302 47.6226 81.4497 47.6423C81.3692 47.6621 81.2938 47.6987 81.2284 47.7497C81.1631 47.8008 81.1092 47.8651 81.0703 47.9385C80.8999 48.2096 81.0204 48.7755 81.1379 49.0673C81.2937 49.4533 81.7256 50.3169 81.8785 50.7C81.4524 50.0074 80.9969 49.1527 80.6325 48.637C80.4084 48.3152 80.1503 48.0188 79.8626 47.7528C79.6031 47.5071 79.2961 47.3175 78.9605 47.1958C78.8492 47.1677 78.7329 47.1653 78.6206 47.1888C78.5082 47.2123 78.4026 47.2611 78.3118 47.3314C78.221 47.4018 78.1473 47.492 78.0962 47.5951C78.0452 47.6982 78.0182 47.8116 78.0172 47.9267C77.8073 47.9179 77.5997 47.9735 77.4222 48.0862C77.2447 48.199 77.1058 48.3633 77.024 48.5574C76.8565 48.9553 77.212 49.7746 77.5823 50.3257C76.9946 50.0457 76.4069 50.6204 76.4304 51.1686C76.4539 51.6372 77.0592 52.598 77.2708 53.0135C78.1171 54.6875 78.8282 56.0815 79.1309 57.3016C79.3043 58.0001 79.7744 59.568 79.9801 60.2488C80.4297 61.746 81.0645 62.7303 82.187 63.6027C82.6748 63.9799 83.2478 64.313 84.3116 65.0497C86.4567 66.5381 89.5569 68.716 90.65 69.5177C92.1986 70.6553 94.2997 72.3027 96.6652 73.6142C100.089 75.5122 101.737 75.2469 103.988 73.7704C106.286 72.2674 113.156 66.0547 116.624 62.6006C119.803 59.459 121.02 55.1089 118.22 52.0498Z" fill="#F1B7B6"/>
<path d="M77.6938 50.4521C77.94 50.6956 78.166 50.9588 78.3697 51.239C78.5842 51.5337 78.9986 52.3148 79.1807 52.6272C79.3835 52.9754 79.565 53.3356 79.7244 53.7058C79.9014 54.0636 80.0308 54.4431 80.1093 54.8346C80.1093 54.8699 80.0741 54.9348 80.0418 54.8847C79.8488 54.5616 79.6799 54.2247 79.5363 53.8767C79.3806 53.5614 79.216 53.2461 79.0426 52.9366C78.8693 52.6271 78.4549 51.8638 78.2786 51.5662C78.0641 51.2213 77.8525 50.8765 77.6409 50.5317C77.6174 50.4934 77.6409 50.402 77.6938 50.4521Z" fill="#F28F8F"/>
<path d="M78.1614 48.0032C78.5141 48.3626 78.8374 48.7499 79.1282 49.1614C79.5277 49.7464 79.8975 50.3514 80.236 50.9739C80.4985 51.418 80.7424 51.8728 80.9677 52.3385C81.2413 52.7948 81.4397 53.2924 81.5554 53.8121C81.5554 53.8563 81.5084 53.9771 81.4555 53.9123C81.3251 53.7311 81.2203 53.5327 81.144 53.3228C81.0382 53.0871 80.9354 52.8513 80.8237 52.6185C80.6062 52.1646 80.3712 51.7343 80.1214 51.2863C79.8716 50.8384 79.3985 49.9837 79.134 49.5799C78.9636 49.3176 78.8079 49.0465 78.6227 48.793C78.4376 48.5396 78.2613 48.3185 78.1026 48.068C78.0762 48.0503 78.1055 47.9501 78.1614 48.0032Z" fill="#F28F8F"/>
<path d="M81.1264 49.0846C80.9897 48.7632 80.9499 48.4087 81.0118 48.0649C81.1235 48.7398 81.9433 50.2428 82.5163 51.2596C83.1746 52.4385 83.1599 53.0986 83.1599 53.0986C83.1599 53.0986 82.913 52.5623 81.8669 50.7173C81.7141 50.3342 81.2821 49.4707 81.1264 49.0846Z" fill="#F28F8F"/>
<path d="M85.049 52.2116C85.1121 52.2311 85.1724 52.2589 85.2283 52.2941C85.4942 53.3032 85.6858 54.3306 85.8013 55.368C85.8013 55.368 85.1812 53.4347 84.667 52.2617C84.7846 52.2008 84.9197 52.1831 85.049 52.2116Z" fill="#F28F8F"/>
<path d="M71.0999 54.817C70.8768 54.323 70.6175 53.8462 70.3241 53.3906C70.2976 53.3464 70.2594 53.4083 70.2771 53.4407C70.5196 53.8954 70.7288 54.3672 70.903 54.8524C71.0829 55.3141 71.234 55.7866 71.3555 56.267C71.4766 56.6482 71.5381 57.0459 71.5377 57.4459C71.5376 57.5366 71.5175 57.6262 71.4789 57.7082C71.4403 57.7902 71.3841 57.8627 71.3144 57.9204C71.1374 57.9882 70.9418 57.9882 70.7649 57.9204C70.4012 57.8267 70.0725 57.6291 69.8187 57.3516C69.7834 57.3133 69.754 57.2779 69.7217 57.2367C69.8997 57.6099 70.2082 57.9046 70.5886 58.0648C71.044 58.2564 71.6053 58.168 71.7434 57.6286C71.8063 57.1894 71.762 56.7413 71.6141 56.323C71.4816 55.8085 71.3096 55.305 71.0999 54.817ZM75.8251 52.53C75.6247 53.498 75.2684 54.4268 74.7701 55.2797C74.5918 55.6161 74.3063 55.8827 73.9591 56.0372C73.7763 56.0896 73.5838 56.0977 73.3973 56.0608C73.2108 56.0239 73.0357 55.9431 72.8865 55.825C72.5644 55.5668 72.311 55.2327 72.1489 54.8524C71.9591 54.4427 71.7952 54.0214 71.6582 53.591C71.3694 52.7178 71.1368 51.8269 70.9617 50.9238C70.8677 50.4641 70.7737 50.0043 70.6943 49.5416C70.615 49.0789 70.5386 48.6309 70.4328 48.18C70.4328 48.1211 70.3623 48.18 70.3652 48.2213C70.459 49.3429 70.6249 50.4573 70.8618 51.5575C71.0585 52.5219 71.3347 53.4682 71.6876 54.3868C71.9814 55.156 72.3987 56.0165 73.2715 56.2464C73.459 56.2959 73.6552 56.3022 73.8455 56.265C74.0358 56.2277 74.2153 56.1478 74.3705 56.0313C74.6685 55.7844 74.9042 55.4703 75.0581 55.1147C75.455 54.3011 75.7218 53.4298 75.8486 52.533C75.8515 52.5271 75.828 52.5065 75.8251 52.53ZM80.6707 70.552C80.3736 69.6137 79.9971 68.7027 79.5453 67.8288C79.1603 67.0979 78.6637 66.2874 77.7821 66.1548C77.5899 66.1259 77.3936 66.1408 77.2079 66.1985C77.0222 66.2561 76.8519 66.355 76.7096 66.4878C76.4389 66.766 76.2376 67.1042 76.1218 67.4751C75.8149 68.327 75.6443 69.2222 75.6164 70.1276C75.6164 70.1453 75.6399 70.1629 75.6429 70.1276C75.7352 69.1428 75.9883 68.18 76.3922 67.2777C76.5316 66.9247 76.7851 66.6289 77.1121 66.4377C77.2887 66.3653 77.48 66.3361 77.6701 66.3525C77.8602 66.3689 78.0436 66.4304 78.2053 66.532C78.5536 66.7521 78.8415 67.056 79.0428 67.4162C79.2762 67.8015 79.4853 68.2011 79.6687 68.6127C80.0503 69.4505 80.3781 70.3118 80.6502 71.1915C80.7941 71.6365 80.944 72.0757 81.0674 72.5354C81.1909 72.9952 81.3202 73.4196 81.473 73.8616C81.4906 73.9147 81.5405 73.844 81.5347 73.8115C81.3186 72.7071 81.03 71.6182 80.6707 70.552ZM80.083 67.3455C80.359 67.8123 80.6684 68.2585 81.0087 68.6805C81.041 68.7188 81.0733 68.654 81.0527 68.6245C80.7607 68.2004 80.5004 67.7551 80.274 67.2924C80.0507 66.8509 79.8544 66.3962 79.6863 65.9308C79.5215 65.5639 79.4164 65.1728 79.3748 64.7726C79.365 64.6825 79.3752 64.5914 79.4047 64.5058C79.4341 64.4202 79.4822 64.3422 79.5453 64.2775C79.7114 64.187 79.9048 64.1608 80.0889 64.2038C80.4613 64.2577 80.8103 64.4184 81.0939 64.6665L81.1997 64.7696C80.9818 64.4189 80.6446 64.1593 80.2505 64.0387C79.7745 63.9002 79.225 64.0387 79.1486 64.6016C79.1339 65.0446 79.2266 65.4846 79.4189 65.8837C79.6031 66.3871 79.8251 66.8757 80.083 67.3455Z" fill="#F5D095"/>
<path d="M68.0055 32.4669C67.4801 34.5609 66.1779 36.3749 64.3646 37.539L63.5183 38.0194C61.606 38.97 59.4066 39.1625 57.359 38.5584C55.3114 37.9543 53.5662 36.5982 52.4716 34.7605C51.3771 32.9228 51.0136 30.7388 51.4539 28.6442C51.8941 26.5496 53.1056 24.6986 54.8467 23.4604L55.6694 22.9417C57.1168 22.1344 58.7681 21.7698 60.4197 21.8929C62.0712 22.016 63.6507 22.6214 64.9632 23.6343C66.2757 24.6473 67.2637 26.0235 67.8054 27.5931C68.3471 29.1627 68.4187 30.857 68.0114 32.4669H68.0055Z" fill="#FAFAFA"/>
<path d="M62.025 21.4293C59.7845 20.8583 57.4119 21.1534 55.3784 22.2561C53.3449 23.3589 51.7995 25.1884 51.0492 27.3814C50.2989 29.5743 50.3986 31.9701 51.3285 34.0927C52.2585 36.2153 53.9505 37.9093 56.0685 38.8383L56.4212 41.6852C56.4344 41.7925 56.4797 41.8933 56.5511 41.9743C56.6225 42.0554 56.7166 42.1129 56.8211 42.1393C56.9256 42.1658 57.0357 42.1599 57.1368 42.1226C57.238 42.0852 57.3255 42.018 57.388 41.9298L59.0424 39.5898C61.3462 39.7784 63.6364 39.0909 65.4581 37.6639C67.2798 36.237 68.4996 34.175 68.8753 31.8876C69.251 29.6002 68.755 27.2548 67.4859 25.3172C66.2167 23.3797 64.2674 21.9918 62.025 21.4293ZM68.0049 32.4665C67.4795 34.5605 66.1774 36.3745 64.3641 37.5386L63.5178 38.019C61.6054 38.9696 59.406 39.162 57.3584 38.558C55.3108 37.9539 53.5656 36.5977 52.4711 34.7601C51.3765 32.9224 51.0131 30.7384 51.4533 28.6438C51.8936 26.5492 53.1051 24.6981 54.8461 23.4599L55.6689 22.9412C57.1162 22.134 58.7676 21.7694 60.4191 21.8925C62.0707 22.0156 63.6502 22.621 64.9626 23.6339C66.2751 24.6469 67.2632 26.023 67.8048 27.5926C68.3465 29.1622 68.4181 30.8566 68.0108 32.4665H68.0049Z" fill="#455A64"/>
<g filter="url(#filter0_d_1118_19156)">
<path fill-rule="evenodd" clip-rule="evenodd" d="M55.3086 29.8455C55.3086 28.7664 55.3086 28.2268 55.5527 27.7795C55.7968 27.3323 56.2428 27.0547 57.1347 26.4995L58.0751 25.9142C59.0179 25.3273 59.4894 25.0338 60.0103 25.0338C60.5312 25.0338 61.0026 25.3273 61.9455 25.9142L62.8858 26.4995C63.7778 27.0547 64.2237 27.3323 64.4679 27.7795C64.712 28.2268 64.712 28.7664 64.712 29.8455V30.5627C64.712 32.4022 64.712 33.3219 64.1611 33.8933C63.6613 34.4119 62.885 34.4599 61.4208 34.4643V32.3428C61.4208 32.3428 61.4306 32.1986 61.4208 32.107C61.3503 31.4469 60.6723 30.9282 60.0103 30.9282C59.3483 30.9282 58.6703 31.4469 58.5998 32.107C58.59 32.1986 58.5998 32.3428 58.5998 32.3428V34.4643C57.1355 34.4599 56.3593 34.4119 55.8594 33.8933C55.3086 33.3219 55.3086 32.4022 55.3086 30.5627V29.8455ZM58.5998 34.4643C58.7492 34.4648 58.9058 34.4648 59.0699 34.4648H60.9506C61.1148 34.4648 61.2714 34.4648 61.4208 34.4643H58.5998Z" fill="#EBB461"/>
</g>
<defs>
<filter id="filter0_d_1118_19156" x="47.3086" y="21.0338" width="25.4033" height="25.4309" filterUnits="userSpaceOnUse" color-interpolation-filters="sRGB">
<feFlood flood-opacity="0" result="BackgroundImageFix"/>
<feColorMatrix in="SourceAlpha" type="matrix" values="0 0 0 0 0 0 0 0 0 0 0 0 0 0 0 0 0 0 127 0" result="hardAlpha"/>
<feOffset dy="4"/>
<feGaussianBlur stdDeviation="4"/>
<feComposite in2="hardAlpha" operator="out"/>
<feColorMatrix type="matrix" values="0 0 0 0 0.354167 0 0 0 0 0.354167 0 0 0 0 0.354167 0 0 0 0.06 0"/>
<feBlend mode="normal" in2="BackgroundImageFix" result="effect1_dropShadow_1118_19156"/>
<feBlend mode="normal" in="SourceGraphic" in2="effect1_dropShadow_1118_19156" result="shape"/>
</filter>
</defs>
</svg>
