<svg width="24" height="24" viewBox="0 0 24 24" fill="none" xmlns="http://www.w3.org/2000/svg">
<path fill-rule="evenodd" clip-rule="evenodd" d="M0.333252 12.2378C0.333252 9.56799 0.333252 8.23307 0.938986 7.12645C1.54472 6.01983 2.65135 5.33302 4.86462 3.9594L7.19796 2.51127C9.53754 1.05926 10.7073 0.333252 11.9999 0.333252C13.2925 0.333252 14.4623 1.05926 16.8019 2.51127L19.1352 3.9594C21.3485 5.33302 22.4551 6.01983 23.0609 7.12645C23.6666 8.23307 23.6666 9.56799 23.6666 12.2378V14.0124C23.6666 18.5634 23.6666 20.8389 22.2997 22.2528C21.0595 23.5357 19.1333 23.6545 15.4999 23.6655V18.4166C15.4999 18.4166 15.5242 18.0598 15.4999 17.8333C15.3249 16.1999 13.6427 14.9166 11.9999 14.9166C10.3572 14.9166 8.67492 16.1999 8.49992 17.8333C8.47565 18.0598 8.49992 18.4166 8.49992 18.4166V23.6655C4.86656 23.6545 2.94036 23.5357 1.70009 22.2528C0.333252 20.8389 0.333252 18.5634 0.333252 14.0124V12.2378Z" fill="#DA2E23"/>
</svg>
