<svg width="20" height="20" viewBox="0 0 20 20" fill="none" xmlns="http://www.w3.org/2000/svg">
<path d="M9.37461 0.985893C9.57601 0.338035 10.424 0.338037 10.6254 0.985891L12.1911 6.02232C12.4077 6.71899 13.038 7.21135 13.7714 7.21135H18.8382C19.1446 7.21135 19.3735 7.40767 19.4636 7.69724C19.554 7.98816 19.4806 8.30581 19.2174 8.50564L15.1183 11.6183C14.5388 12.0584 14.3063 12.8264 14.522 13.52L16.0877 18.5564C16.1939 18.8982 16.0633 19.1964 15.8415 19.3648C15.623 19.5308 15.3382 19.5586 15.0831 19.3648L10.984 16.2521C10.3988 15.8078 9.60119 15.8078 9.01602 16.2521L4.91693 19.3648C4.66178 19.5586 4.37704 19.5308 4.15849 19.3648C3.93667 19.1964 3.80608 18.8982 3.91232 18.5564L5.47803 13.52C5.69365 12.8264 5.46119 12.0584 4.8817 11.6183L0.78261 8.50564C0.519444 8.30581 0.445997 7.98816 0.536438 7.69724C0.626459 7.40767 0.855373 7.21135 1.16183 7.21135H6.22858C6.96203 7.21135 7.59232 6.71899 7.80889 6.02232L9.37461 0.985893Z" stroke="#FF975F"/>
</svg>
