<svg width="15" height="18" viewBox="0 0 15 18" fill="none" xmlns="http://www.w3.org/2000/svg">
<path fill-rule="evenodd" clip-rule="evenodd" d="M9.09091 3C9.09091 1.34315 10.4137 0 12.0455 0C13.6772 0 15 1.34315 15 3C15 4.65685 13.6772 6 12.0455 6C11.2215 6 10.4769 5.65736 9.94155 5.10612L5.85147 7.94659C5.88929 8.13824 5.90909 8.33621 5.90909 8.53846C5.90909 8.93899 5.8315 9.32181 5.69081 9.67173L10.1756 12.6772C10.6845 12.2545 11.3359 12 12.0455 12C13.6772 12 15 13.3431 15 15C15 16.6569 13.6772 18 12.0455 18C10.4137 18 9.09091 16.6569 9.09091 15C9.09091 14.566 9.18198 14.153 9.34563 13.78L4.89712 10.7988C4.3782 11.2589 3.69847 11.5385 2.95455 11.5385C1.3228 11.5385 0 10.1953 0 8.53846C0 6.88161 1.3228 5.53846 2.95455 5.53846C3.89286 5.53846 4.72811 5.98253 5.26892 6.67366L9.23288 3.92078C9.14067 3.63023 9.09091 3.32064 9.09091 3Z" fill="#4A4A4A"/>
</svg>
