<svg width="34" height="34" viewBox="0 0 34 34" fill="none" xmlns="http://www.w3.org/2000/svg">
<path d="M15.1252 1.42368C15.7153 -0.474558 18.2847 -0.474563 18.8748 1.42368L21.5366 9.98561C21.8005 10.8345 22.5574 11.4093 23.4114 11.4093H32.0249C33.9346 11.4093 34.7286 13.9634 33.1836 15.1365L26.2152 20.4281C25.5242 20.9528 25.2351 21.8827 25.499 22.7317L28.1607 31.2936C28.7509 33.1918 26.6721 34.7703 25.1272 33.5972L18.1587 28.3056C17.4678 27.7809 16.5322 27.7809 15.8413 28.3056L8.87283 33.5972C7.32787 34.7703 5.24914 33.1918 5.83926 31.2936L8.50097 22.7317C8.76488 21.8828 8.47577 20.9528 7.78484 20.4281L0.816391 15.1365C-0.728567 13.9634 0.0654333 11.4093 1.97511 11.4093H10.5886C11.4426 11.4093 12.1995 10.8345 12.4634 9.98561L15.1252 1.42368Z" fill="#FF975F"/>
</svg>
