<svg width="27" height="26" viewBox="0 0 27 26" fill="none" xmlns="http://www.w3.org/2000/svg">
<path d="M16.4997 24.6656V25.1671L17.0012 25.1656C18.811 25.1601 20.2436 25.1287 21.3834 24.9287C22.5392 24.7258 23.442 24.342 24.159 23.6004C24.9477 22.7845 25.3136 21.7405 25.4913 20.3736C25.6664 19.0269 25.6663 17.2938 25.6663 15.0504V15.0125V13.2379V13.2125C25.6663 11.8991 25.6663 10.8785 25.5884 10.0493C25.5091 9.20463 25.3463 8.52063 24.9992 7.8865C24.6516 7.25154 24.1667 6.75325 23.5046 6.24621C22.856 5.7495 22.0087 5.22362 20.921 4.54858L20.8986 4.53469L18.5653 3.08656L18.5414 3.07174C17.3918 2.35827 16.4964 1.80251 15.7267 1.42823C14.9415 1.04637 14.2487 0.833374 13.4997 0.833374C12.7506 0.833374 12.0579 1.04637 11.2727 1.42823C10.503 1.80251 9.60751 2.35827 8.45793 3.07174L8.43405 3.08656L6.10072 4.53469L6.07829 4.54861C4.99064 5.22363 4.14331 5.74951 3.49473 6.24621C2.83264 6.75325 2.34771 7.25154 2.00015 7.8865C1.65304 8.52063 1.49029 9.20463 1.41092 10.0493C1.333 10.8785 1.333 11.8991 1.33301 13.2125V13.2379V15.0125L1.33301 15.0504C1.333 17.2938 1.333 19.0269 1.50803 20.3736C1.6857 21.7405 2.05161 22.7845 2.84037 23.6004C3.55733 24.342 4.4601 24.7258 5.61592 24.9287C6.75572 25.1287 8.18838 25.1601 9.99816 25.1656L10.4997 25.1671V24.6656V19.4167V19.3997L10.4985 19.383L10.4985 19.3829L10.4985 19.3829L10.4985 19.3828L10.4985 19.3828L10.4985 19.3826L10.4984 19.3805L10.4978 19.3708L10.4956 19.3318C10.4939 19.298 10.4918 19.2507 10.4904 19.1971C10.4875 19.0836 10.4884 18.9653 10.4968 18.8866C10.5675 18.2273 10.9468 17.6108 11.5141 17.151C12.0819 16.6908 12.804 16.4167 13.4997 16.4167C14.1953 16.4167 14.9175 16.6908 15.4853 17.151C16.0526 17.6108 16.4319 18.2273 16.5025 18.8866C16.5109 18.9653 16.5119 19.0836 16.5089 19.1971C16.5076 19.2507 16.5055 19.298 16.5037 19.3318L16.5016 19.3708L16.501 19.3805L16.5008 19.3826L16.5008 19.3828L16.5008 19.3828L16.5008 19.3829L16.5008 19.3829L16.5008 19.383L16.4997 19.3997V19.4167V24.6656Z" fill="#23DA36" stroke="#FCFCFC"/>
</svg>
