<svg width="36" height="39" viewBox="0 0 36 39" fill="none" xmlns="http://www.w3.org/2000/svg">
<g filter="url(#filter0_b_178_2316)">
<circle cx="18" cy="17" r="17" fill="#250404" fill-opacity="0.3"/>
</g>
<g filter="url(#filter1_d_178_2316)">
<path d="M16.8971 7.83746C17.2443 6.72085 18.7557 6.72085 19.1028 7.83746L20.6686 12.8739C20.8238 13.3733 21.269 13.7113 21.7714 13.7113H26.8382C27.9615 13.7113 28.4286 15.2137 27.5198 15.9038L23.4207 19.0165C23.0143 19.3252 22.8442 19.8722 22.9994 20.3716L24.5651 25.408C24.9123 26.5246 23.6895 27.4531 22.7807 26.763L18.6816 23.6504C18.2752 23.3417 17.7248 23.3417 17.3184 23.6504L13.2193 26.763C12.3105 27.4531 11.0877 26.5246 11.4349 25.408L13.0006 20.3716C13.1558 19.8722 12.9857 19.3252 12.5793 19.0165L8.48023 15.9038C7.57143 15.2137 8.03849 13.7113 9.16183 13.7113H14.2286C14.731 13.7113 15.1762 13.3733 15.3314 12.8739L16.8971 7.83746Z" fill="#FCFCFC"/>
</g>
<defs>
<filter id="filter0_b_178_2316" x="-19" y="-20" width="74" height="74" filterUnits="userSpaceOnUse" color-interpolation-filters="sRGB">
<feFlood flood-opacity="0" result="BackgroundImageFix"/>
<feGaussianBlur in="BackgroundImageFix" stdDeviation="10"/>
<feComposite in2="SourceAlpha" operator="in" result="effect1_backgroundBlur_178_2316"/>
<feBlend mode="normal" in="SourceGraphic" in2="effect1_backgroundBlur_178_2316" result="shape"/>
</filter>
<filter id="filter1_d_178_2316" x="0" y="3" width="36" height="36" filterUnits="userSpaceOnUse" color-interpolation-filters="sRGB">
<feFlood flood-opacity="0" result="BackgroundImageFix"/>
<feColorMatrix in="SourceAlpha" type="matrix" values="0 0 0 0 0 0 0 0 0 0 0 0 0 0 0 0 0 0 127 0" result="hardAlpha"/>
<feOffset dy="4"/>
<feGaussianBlur stdDeviation="4"/>
<feComposite in2="hardAlpha" operator="out"/>
<feColorMatrix type="matrix" values="0 0 0 0 0.354167 0 0 0 0 0.354167 0 0 0 0 0.354167 0 0 0 0.06 0"/>
<feBlend mode="normal" in2="BackgroundImageFix" result="effect1_dropShadow_178_2316"/>
<feBlend mode="normal" in="SourceGraphic" in2="effect1_dropShadow_178_2316" result="shape"/>
</filter>
</defs>
</svg>
