<svg width="21" height="20" viewBox="0 0 21 20" fill="none" xmlns="http://www.w3.org/2000/svg">
<path fill-rule="evenodd" clip-rule="evenodd" d="M12.5715 0.5C12.0192 0.5 11.5715 0.947715 11.5715 1.5C11.5715 2.05228 12.0192 2.5 12.5715 2.5H16.4183L13.4407 5.47759C12.1184 4.45575 10.4599 3.84778 8.65949 3.84778C4.33718 3.84778 0.833252 7.3517 0.833252 11.674C0.833252 15.9963 4.33718 19.5003 8.65949 19.5003C12.9818 19.5003 16.4857 15.9963 16.4857 11.674C16.4857 9.87307 15.8774 8.2142 14.8551 6.89167L17.8325 3.91421V7.76099C17.8325 8.31327 18.2802 8.76099 18.8325 8.76099C19.3848 8.76099 19.8325 8.31327 19.8325 7.76099V1.5C19.8325 0.947715 19.3848 0.5 18.8325 0.5H12.5715ZM14.4857 11.674C14.4857 14.8918 11.8772 17.5003 8.65949 17.5003C5.44175 17.5003 2.83325 14.8918 2.83325 11.674C2.83325 8.45627 5.44175 5.84778 8.65949 5.84778C11.8772 5.84778 14.4857 8.45627 14.4857 11.674Z" fill="#6DC2FF"/>
</svg>
