<svg width="25" height="26" viewBox="0 0 25 26" fill="none" xmlns="http://www.w3.org/2000/svg">
<g clip-path="url(#clip0_839_9945)">
<path fill-rule="evenodd" clip-rule="evenodd" d="M14.8405 0.197913C14.3532 0 13.7355 0 12.5 0C11.2645 0 10.6468 0 10.1595 0.197913C9.50974 0.461797 8.99354 0.96795 8.72442 1.60502C8.60156 1.89584 8.55349 2.23405 8.53467 2.72739C8.50702 3.45238 8.12784 4.12346 7.48706 4.48621C6.84629 4.84895 6.064 4.8354 5.40985 4.49639C4.96471 4.26569 4.64196 4.13741 4.32367 4.09632C3.62643 4.00632 2.92129 4.19158 2.36336 4.61136C1.94492 4.92619 1.63604 5.45077 1.01829 6.49991C0.400544 7.54906 0.0916698 8.07363 0.022825 8.58638C-0.0689677 9.27004 0.119975 9.96146 0.548088 10.5085C0.743494 10.7582 1.01812 10.9681 1.44435 11.2307C2.07094 11.6168 2.47411 12.2744 2.47407 13C2.47403 13.7256 2.07087 14.3831 1.44434 14.7691C1.01805 15.0317 0.743383 15.2417 0.547958 15.4914C0.119845 16.0385 -0.0690975 16.7299 0.0226953 17.4135C0.0915399 17.9263 0.400415 18.4509 1.01816 19.5C1.63591 20.5491 1.94479 21.0737 2.36323 21.3886C2.92116 21.8083 3.6263 21.9936 4.32354 21.9036C4.64181 21.8625 4.96455 21.7342 5.40964 21.5036C6.06384 21.1645 6.84619 21.151 7.487 21.5137C8.12782 21.8765 8.50702 22.5476 8.53468 23.2727C8.55349 23.766 8.60157 24.1042 8.72442 24.395C8.99354 25.0321 9.50974 25.5382 10.1595 25.8021C10.6468 26 11.2645 26 12.5 26C13.7355 26 14.3532 26 14.8405 25.8021C15.4903 25.5382 16.0065 25.0321 16.2756 24.395C16.3984 24.1041 16.4465 23.7659 16.4653 23.2726C16.493 22.5476 16.8721 21.8765 17.5129 21.5137C18.1537 21.1509 18.9361 21.1645 19.5903 21.5035C20.0353 21.7342 20.3581 21.8624 20.6763 21.9035C21.3736 21.9935 22.0787 21.8082 22.6366 21.3885C23.0551 21.0736 23.364 20.5491 23.9817 19.4999C24.5995 18.4508 24.9083 17.9262 24.9772 17.4134C25.069 16.7298 24.88 16.0384 24.4519 15.4913C24.2565 15.2416 23.9818 15.0317 23.5556 14.769C22.929 14.383 22.5259 13.7254 22.5259 12.9999C22.526 12.2744 22.9291 11.6169 23.5556 11.2309C23.9819 10.9683 24.2566 10.7584 24.452 10.5086C24.8802 9.96155 25.0691 9.27013 24.9773 8.58647C24.9085 8.07372 24.5996 7.54915 23.9818 6.5C23.3641 5.45086 23.0552 4.92628 22.6368 4.61145C22.0788 4.19167 21.3737 4.0064 20.6765 4.09641C20.3582 4.1375 20.0355 4.26576 19.5904 4.49644C18.9362 4.83547 18.1538 4.84902 17.513 4.48625C16.8722 4.12348 16.493 3.45236 16.4653 2.72732C16.4465 2.23402 16.3984 1.89583 16.2756 1.60502C16.0065 0.96795 15.4903 0.461797 14.8405 0.197913ZM12.5 16.9C14.6967 16.9 16.4774 15.1539 16.4774 13C16.4774 10.8461 14.6967 9.1 12.5 9.1C10.3033 9.1 8.52258 10.8461 8.52258 13C8.52258 15.1539 10.3033 16.9 12.5 16.9Z" fill="#83CBFF"/>
</g>
<defs>
<clipPath id="clip0_839_9945">
<rect width="25" height="26" rx="5" fill="white"/>
</clipPath>
</defs>
</svg>
