<svg width="14" height="14" viewBox="0 0 14 14" fill="none" xmlns="http://www.w3.org/2000/svg">
<path d="M7.6087 0.913043C7.6087 0.408783 8.01748 0 8.52174 0H13.087C13.5912 0 14 0.408783 14 0.913043V5.47826C14 5.98252 13.5912 6.3913 13.087 6.3913C12.5827 6.3913 12.1739 5.98252 12.1739 5.47826V3.11733L3.11733 12.1739H5.47826C5.98252 12.1739 6.3913 12.5827 6.3913 13.087C6.3913 13.5912 5.98252 14 5.47826 14H0.913043C0.408783 14 0 13.5912 0 13.087V8.52174C0 8.01748 0.408783 7.6087 0.913043 7.6087C1.4173 7.6087 1.82609 8.01748 1.82609 8.52174V10.8827L10.8827 1.82609H8.52174C8.01748 1.82609 7.6087 1.4173 7.6087 0.913043Z" fill="#FCFCFC"/>
</svg>
