<svg width="150" height="142" viewBox="0 0 150 142" fill="none" xmlns="http://www.w3.org/2000/svg">
<path d="M26.2083 128.824C-0.736084 111.242 -0.736084 82.7559 26.2083 65.1811C53.1526 47.6063 96.8432 47.6063 123.791 65.1811C150.738 82.7559 150.735 111.249 123.791 128.824C96.8463 146.399 53.1557 146.385 26.2083 128.824Z" fill="#F5F5F5"/>
<path d="M40.225 107.912C56.2371 107.912 69.2176 99.6518 69.2176 89.4627C69.2176 79.2736 56.2371 71.0137 40.225 71.0137C24.2128 71.0137 11.2324 79.2736 11.2324 89.4627C11.2324 99.6518 24.2128 107.912 40.225 107.912Z" fill="#FCF4EF"/>
<path d="M108.059 111.86C125.927 111.86 140.412 102.644 140.412 91.2755C140.412 79.9072 125.927 70.6914 108.059 70.6914C90.1909 70.6914 75.7061 79.9072 75.7061 91.2755C75.7061 102.644 90.1909 111.86 108.059 111.86Z" fill="#FCF4EF"/>
<path d="M69.0081 98.3483L41.4662 115.874C40.7886 116.305 40.7886 117.004 41.4662 117.436L69.0081 134.958C69.3892 135.174 69.8116 135.286 70.2401 135.286C70.6686 135.286 71.091 135.174 71.4721 134.958L99.0078 117.436C99.6854 117.004 99.6854 116.305 99.0078 115.874L71.4629 98.3483C71.0825 98.1357 70.662 98.0249 70.2355 98.0249C69.809 98.0249 69.3885 98.1357 69.0081 98.3483Z" fill="#FCF4EF"/>
<path d="M127.503 88.553L125.085 86.3737C125.085 86.3737 124.57 78.8142 126.169 72.3783C128.42 63.332 133.041 59.9544 135.871 61.4955C137.879 62.5852 138.588 65.9797 134.331 70.844C131.799 73.7123 128.297 79.9989 127.503 88.553Z" fill="#EFBFA5"/>
<path opacity="0.3" d="M127.503 88.553L125.085 86.3737C125.085 86.3737 124.57 78.8142 126.169 72.3783C128.42 63.332 133.041 59.9544 135.871 61.4955C137.879 62.5852 138.588 65.9797 134.331 70.844C131.799 73.7123 128.297 79.9989 127.503 88.553Z" fill="black"/>
<path d="M126.587 83.6622H126.611C126.636 83.6617 126.66 83.6559 126.683 83.6451C126.706 83.6343 126.726 83.6187 126.743 83.5991C126.76 83.5796 126.774 83.5565 126.783 83.5312C126.792 83.5059 126.797 83.4789 126.796 83.4517C126.587 74.6973 131.022 66.7576 134.943 63.3869C134.982 63.3523 135.006 63.3024 135.012 63.2478C135.018 63.1933 135.004 63.1384 134.974 63.095C134.959 63.0736 134.94 63.0557 134.919 63.0424C134.897 63.0291 134.874 63.0207 134.849 63.0175C134.825 63.0143 134.8 63.0166 134.777 63.024C134.753 63.0315 134.731 63.0441 134.712 63.061C130.708 66.4962 126.208 74.5785 126.42 83.4619C126.422 83.5118 126.439 83.5595 126.47 83.5963C126.5 83.6331 126.542 83.6565 126.587 83.6622Z" fill="white"/>
<path d="M132.392 95.5507C134.055 94.9533 134.434 93.901 134.721 92.5941C134.807 92.1555 134.865 91.7109 134.896 91.2635L135.016 89.9464C135.027 89.5106 135.12 89.0819 135.288 88.687C135.673 87.9199 136.52 87.6381 137.296 87.4107C138.143 87.1595 139.082 86.7318 139.427 85.7712C139.652 84.9957 139.636 84.16 139.384 83.395C139.175 82.6211 138.863 81.8811 138.706 81.0936C138.563 80.5317 138.599 79.9326 138.808 79.3963C138.969 79.0803 139.186 78.8032 139.446 78.5817C140.099 77.9842 140.869 77.5226 141.331 76.7079C141.511 76.4098 141.618 76.0644 141.639 75.7065C141.679 74.6339 140.893 74.1451 140.139 73.8769C139.614 73.7258 139.065 73.7015 138.531 73.8056C136.821 74.05 135.361 75.5266 133.64 75.5368C132.974 75.5368 132.324 75.3196 131.665 75.2347C131.006 75.1498 130.273 75.2143 129.777 75.7031C128.798 76.6638 129.278 78.5884 128.434 79.695C127.818 80.5063 126.845 80.6251 126.066 81.1615C125.161 81.7436 124.471 82.6581 124.116 83.7447C123.681 84.9535 123.546 86.268 123.725 87.5533C124.107 90.2315 125.85 91.8032 127.526 93.5446C128.234 94.2879 130.732 96.1515 132.392 95.5507Z" fill="#EFBFA5"/>
<path opacity="0.1" d="M132.392 95.5507C134.055 94.9533 134.434 93.901 134.721 92.5941C134.807 92.1555 134.865 91.7109 134.896 91.2635L135.016 89.9464C135.027 89.5106 135.12 89.0819 135.288 88.687C135.673 87.9199 136.52 87.6381 137.296 87.4107C138.143 87.1595 139.082 86.7318 139.427 85.7712C139.652 84.9957 139.636 84.16 139.384 83.395C139.175 82.6211 138.863 81.8811 138.706 81.0936C138.563 80.5317 138.599 79.9326 138.808 79.3963C138.969 79.0803 139.186 78.8032 139.446 78.5817C140.099 77.9842 140.869 77.5226 141.331 76.7079C141.511 76.4098 141.618 76.0644 141.639 75.7065C141.679 74.6339 140.893 74.1451 140.139 73.8769C139.614 73.7258 139.065 73.7015 138.531 73.8056C136.821 74.05 135.361 75.5266 133.64 75.5368C132.974 75.5368 132.324 75.3196 131.665 75.2347C131.006 75.1498 130.273 75.2143 129.777 75.7031C128.798 76.6638 129.278 78.5884 128.434 79.695C127.818 80.5063 126.845 80.6251 126.066 81.1615C125.161 81.7436 124.471 82.6581 124.116 83.7447C123.681 84.9535 123.546 86.268 123.725 87.5533C124.107 90.2315 125.85 91.8032 127.526 93.5446C128.234 94.2879 130.732 96.1515 132.392 95.5507Z" fill="black"/>
<path d="M139.183 75.2822C139.175 75.2568 139.161 75.2335 139.144 75.2138C139.127 75.194 139.107 75.1782 139.084 75.1672C139.062 75.1561 139.037 75.1501 139.013 75.1495C138.988 75.1488 138.963 75.1536 138.94 75.1634C136.981 76.012 133.941 78.8363 131.268 82.6313C131.247 82.6433 131.228 82.6601 131.213 82.6806C131.198 82.7011 131.187 82.7247 131.181 82.7501C129.277 85.4144 127.766 88.3929 126.703 91.5758C126.687 91.6262 126.689 91.6817 126.709 91.7304C126.729 91.7791 126.766 91.8174 126.811 91.8371C126.858 91.8547 126.909 91.8514 126.954 91.828C126.999 91.8046 127.034 91.7628 127.051 91.7115C128.098 88.5802 129.582 85.6482 131.449 83.0217C133.231 83.2513 134.986 83.6871 136.686 84.3218C136.709 84.3308 136.734 84.3347 136.759 84.3331C136.783 84.3315 136.808 84.3245 136.83 84.3125C136.852 84.3005 136.872 84.2838 136.889 84.2632C136.905 84.2427 136.918 84.2187 136.926 84.1928C136.934 84.1672 136.938 84.1399 136.937 84.1127C136.936 84.0854 136.929 84.0587 136.918 84.0342C136.908 84.0098 136.892 83.988 136.873 83.9703C136.854 83.9526 136.832 83.9394 136.809 83.9314C135.158 83.3145 133.456 82.8812 131.727 82.6381C134.311 79.0365 137.2 76.3685 139.076 75.5572C139.099 75.5471 139.121 75.5319 139.139 75.5126C139.157 75.4932 139.172 75.4701 139.182 75.4445C139.192 75.419 139.197 75.3914 139.197 75.3636C139.198 75.3357 139.193 75.3081 139.183 75.2822Z" fill="white"/>
<path d="M27.7984 76.464C27.9986 71.7117 28.4637 67.2514 26.477 60.4013C24.8076 54.6578 19.8488 48.8159 16.6424 48.9415C13.664 49.0603 11.8899 52.6754 15.4504 56.7488C16.205 57.611 23.5109 64.5561 23.8497 72.4449L24.6321 77.0037C24.656 77.1304 24.706 77.2493 24.7782 77.3513C24.8504 77.4532 24.9429 77.5356 25.0485 77.592C25.1541 77.6484 25.2701 77.6774 25.3875 77.6766C25.5048 77.6758 25.6205 77.6454 25.7255 77.5876L27.7984 76.464Z" fill="#EFBFA5"/>
<path opacity="0.3" d="M27.7984 76.464C27.9986 71.7117 28.4637 67.2514 26.477 60.4013C24.8076 54.6578 19.8488 48.8159 16.6424 48.9415C13.664 49.0603 11.8899 52.6754 15.4504 56.7488C16.205 57.611 23.5109 64.5561 23.8497 72.4449L24.6321 77.0037C24.656 77.1304 24.706 77.2493 24.7782 77.3513C24.8504 77.4532 24.9429 77.5356 25.0485 77.592C25.1541 77.6484 25.2701 77.6774 25.3875 77.6766C25.5048 77.6758 25.6205 77.6454 25.7255 77.5876L27.7984 76.464Z" fill="black"/>
<path d="M26.6247 76.1446C26.5848 76.1323 26.5495 76.1062 26.524 76.0701C26.4985 76.0341 26.4842 75.99 26.4831 75.9443C26.3414 63.8633 22.4081 55.4009 16.5068 51.5379C16.4824 51.5256 16.4607 51.5078 16.443 51.4856C16.4254 51.4635 16.4121 51.4375 16.4041 51.4093C16.3962 51.3811 16.3937 51.3514 16.3968 51.3221C16.3999 51.2928 16.4086 51.2645 16.4223 51.2392C16.436 51.2138 16.4544 51.1919 16.4762 51.1748C16.4981 51.1578 16.523 51.146 16.5492 51.1403C16.5755 51.1345 16.6026 51.1349 16.6287 51.1414C16.6548 51.148 16.6794 51.1605 16.7008 51.1781C22.6792 55.0886 26.7202 63.7072 26.865 75.9375C26.8658 75.9653 26.8616 75.9929 26.8525 76.0188C26.8434 76.0448 26.8297 76.0684 26.8122 76.0883C26.7947 76.1083 26.7737 76.1241 26.7505 76.135C26.7273 76.1458 26.7023 76.1514 26.6771 76.1514C26.6594 76.1524 26.6417 76.1501 26.6247 76.1446Z" fill="white"/>
<path d="M25.2455 77.8444C25.0711 77.9435 24.8796 78.0006 24.6837 78.0122C24.4877 78.0238 24.2918 77.9895 24.1087 77.9115C23.9257 77.8336 23.7597 77.7138 23.6217 77.5601C23.4837 77.4063 23.3769 77.2221 23.3082 77.0195C22.4965 74.8691 21.305 72.9179 19.8031 71.2795C17.0772 68.2075 13.2826 66.2522 12.6912 64.1918C11.9828 61.7138 13.9848 60.4782 17.2096 61.3642C21.0813 62.4267 25.264 67.5082 25.7014 77.5864L25.2455 77.8444Z" fill="#EFBFA5"/>
<path opacity="0.1" d="M25.2455 77.8444C25.0711 77.9435 24.8796 78.0006 24.6837 78.0122C24.4877 78.0238 24.2918 77.9895 24.1087 77.9115C23.9257 77.8336 23.7597 77.7138 23.6217 77.5601C23.4837 77.4063 23.3769 77.2221 23.3082 77.0195C22.4965 74.8691 21.305 72.9179 19.8031 71.2795C17.0772 68.2075 13.2826 66.2522 12.6912 64.1918C11.9828 61.7138 13.9848 60.4782 17.2096 61.3642C21.0813 62.4267 25.264 67.5082 25.7014 77.5864L25.2455 77.8444Z" fill="black"/>
<path d="M24.6219 77.2023C24.5863 77.1907 24.5545 77.1683 24.53 77.1377C24.5055 77.1071 24.4893 77.0695 24.4833 77.0292C23.2512 68.1865 18.0429 64.0622 15.4587 63.1118C15.4111 63.094 15.3718 63.0562 15.3493 63.0066C15.3268 62.957 15.3229 62.8997 15.3386 62.847C15.3459 62.8204 15.358 62.7958 15.3742 62.7745C15.3903 62.7532 15.4102 62.7357 15.4326 62.723C15.455 62.7104 15.4795 62.7028 15.5046 62.7007C15.5297 62.6987 15.555 62.7023 15.5788 62.7112C18.4371 63.7601 23.6085 67.9387 24.8621 76.9681C24.8661 76.9955 24.865 77.0235 24.8591 77.0505C24.8532 77.0775 24.8424 77.1029 24.8276 77.1253C24.8127 77.1477 24.7939 77.1667 24.7723 77.181C24.7508 77.1954 24.7269 77.2049 24.702 77.2091C24.6751 77.212 24.648 77.2097 24.6219 77.2023Z" fill="white"/>
<path d="M126.682 75.8103C128.034 80.2605 129.195 85.9938 131.025 94.6633C132.738 102.776 132.747 108.506 130.369 110.471C128.053 112.383 121.16 111.239 116.841 101.103C115.489 97.9356 110.028 87.596 110.028 87.596C108.655 87.2675 107.326 86.7497 106.07 86.0549L91.1691 86.8628C85.0706 85.488 74.8171 83.8858 75.5902 81.4316C76.4095 78.811 79.7667 76.7336 83.1178 75.4403C90.4453 72.6161 95.7091 71.9677 103.178 71.4382L126.682 75.8103Z" fill="#37474F"/>
<path d="M105.686 83.1757C103.691 79.6896 103.657 77.6631 103.657 77.6631C103.657 77.6631 103.238 81.9877 105.157 84.9918L92.0449 86.8078L106.071 86.0475C107.326 86.742 108.655 87.2598 110.026 87.5886C110.026 87.5886 107.685 86.6721 105.686 83.1757Z" fill="#263238"/>
<path d="M102.263 95.4307C103.289 96.2827 104.546 97.0634 105.685 97.2331C106.099 97.2953 106.519 97.2559 106.917 97.1177C108.297 96.6595 110.549 96.4388 111.584 99.4565C112.757 102.875 116.444 104.209 117.587 106.5C118.156 107.658 118.68 111.106 118.387 113.289C118.144 115.078 114.966 114.073 113.656 112.05C112.347 110.027 109.668 107.447 107.94 105.977C105.189 104.62 102.088 102.505 100.77 101.666L102.263 95.4307Z" fill="#874C4C"/>
<path d="M82.0281 77.5396C74.0199 78.9177 74.3279 84.135 76.6195 87.5024C79.0989 91.1311 87.4674 95.5439 91.9767 97.8488C96.1224 99.9703 103.625 103.511 103.625 103.511C103.579 101.208 104.314 98.9686 105.686 97.231C100.949 94.2336 95.9746 84.8105 88.4223 84.1758L82.0281 77.5396Z" fill="#37474F"/>
<path d="M117.248 114.477C117.719 114.509 118.183 114.342 118.545 114.009C118.884 113.693 119.469 111.141 118.576 108.201C117.899 106.023 116.706 104.085 115.12 102.587C114.159 101.646 113.743 100.496 113.309 99.0359C112.874 97.5763 111.735 95.8247 111.026 95.6856C110.318 95.5464 109.326 96.2355 109.326 96.2355L117.248 114.477Z" fill="#263238"/>
<path d="M105.763 104.898C106.009 105.832 106.739 106.005 107.534 106.256C108.612 106.612 109.69 107.702 110.749 108.938C111.461 109.773 112.064 110.635 112.717 111.514C113.37 112.393 113.974 113.71 114.661 114.372C115.665 115.336 117.507 114.959 117.895 113.412C118.231 112.078 118.166 108.846 116.577 105.9C115.711 104.294 113.564 102.845 112.853 100.628C112.375 99.1344 111.747 97.359 110.632 96.3C109.973 95.672 109.431 95.8926 108.692 96.2015C107.71 96.6101 106.706 96.9502 105.686 97.2199C105.783 98.1654 106.115 99.0629 106.647 99.8133C106.849 100.048 107.004 100.326 107.102 100.631C107.138 100.848 107.138 101.07 107.102 101.286C107.068 101.585 106.998 101.945 106.739 102.05C106.632 102.079 106.522 102.1 106.412 102.111C106.003 102.213 105.846 102.753 105.775 103.211C105.677 103.703 105.66 104.21 105.726 104.708C105.734 104.772 105.747 104.836 105.763 104.898Z" fill="#EFBFA5"/>
<path opacity="0.4" d="M105.763 104.898C106.009 105.832 106.739 106.005 107.534 106.256C108.612 106.612 109.69 107.702 110.749 108.938C111.461 109.773 112.064 110.635 112.717 111.514C113.37 112.393 113.974 113.71 114.661 114.372C115.665 115.336 117.507 114.959 117.895 113.412C118.231 112.078 118.166 108.846 116.577 105.9C115.711 104.294 113.564 102.845 112.853 100.628C112.375 99.1344 111.747 97.359 110.632 96.3C109.973 95.672 109.431 95.8926 108.692 96.2015C107.71 96.6101 106.706 96.9502 105.686 97.2199C105.783 98.1654 106.115 99.0629 106.647 99.8133C106.849 100.048 107.004 100.326 107.102 100.631C107.138 100.848 107.138 101.07 107.102 101.286C107.068 101.585 106.998 101.945 106.739 102.05C106.632 102.079 106.522 102.1 106.412 102.111C106.003 102.213 105.846 102.753 105.775 103.211C105.677 103.703 105.66 104.21 105.726 104.708C105.734 104.772 105.747 104.836 105.763 104.898Z" fill="black"/>
<path d="M109.708 107.817C109.502 107.766 109.311 107.659 109.153 107.505C108.994 107.351 108.873 107.157 108.8 106.938C108.529 106.31 108.689 105.017 109.055 104.134C109.09 104.051 109.142 103.978 109.207 103.922C109.273 103.866 109.35 103.828 109.431 103.813C109.513 103.797 109.597 103.803 109.676 103.832C109.755 103.86 109.826 103.909 109.884 103.975C109.956 104.058 110.003 104.163 110.019 104.277C110.034 104.391 110.017 104.507 109.97 104.61C109.508 105.601 109.414 106.751 109.708 107.817Z" fill="#F5F5F5"/>
<path d="M111.239 109.558C111.021 109.469 110.825 109.323 110.668 109.133C110.512 108.942 110.399 108.713 110.34 108.465C110.34 108.465 109.97 106.73 110.614 105.41C110.648 105.33 110.698 105.26 110.762 105.207C110.825 105.153 110.899 105.117 110.978 105.102C111.056 105.086 111.137 105.092 111.213 105.119C111.289 105.145 111.359 105.191 111.415 105.254C111.485 105.333 111.53 105.435 111.545 105.545C111.559 105.655 111.542 105.767 111.495 105.865C111.205 106.42 111.032 107.04 110.988 107.679C110.944 108.318 111.03 108.96 111.239 109.558Z" fill="#F5F5F5"/>
<path d="M112.719 111.54C112.51 111.425 112.326 111.262 112.179 111.062C112.032 110.861 111.926 110.629 111.869 110.379C111.869 110.379 111.536 108.76 112.177 107.429C112.21 107.35 112.261 107.28 112.324 107.226C112.387 107.173 112.461 107.136 112.54 107.121C112.619 107.106 112.699 107.112 112.776 107.138C112.852 107.165 112.921 107.211 112.977 107.273C113.046 107.354 113.091 107.456 113.106 107.566C113.12 107.676 113.103 107.789 113.057 107.888C112.746 108.425 112.552 109.035 112.493 109.669C112.435 110.304 112.512 110.945 112.719 111.54Z" fill="#F5F5F5"/>
<path d="M102.936 93.5851C101.5 93.1846 99.3937 92.6177 98.5221 91.3515C97.6504 90.0854 95.8455 88.8634 93.403 90.6353C91.863 91.7555 90.0149 92.1255 88.1885 92.2579C87.4 92.3156 86.5129 92.207 85.7429 92.3835C84.8189 92.5973 83.8363 93.2219 83.0386 93.765C82.5164 94.0874 82.0586 94.5227 81.6926 95.0447C81.3942 95.5343 81.2308 96.1086 81.222 96.6983C81.2133 97.288 81.3596 97.8679 81.6433 98.3679C81.7521 98.5699 81.9003 98.7426 82.0772 98.8735C82.2541 99.0044 82.4552 99.0903 82.6659 99.1249C83.5099 99.3286 84.2059 99.0367 85.0129 98.7855C85.6721 98.5852 86.3466 98.4291 87.0242 98.2933C88.55 97.9785 90.0937 97.78 91.6443 97.6992C92.3065 97.6687 93.6771 97.5567 94.3393 97.6076C97.1114 97.818 101.011 99.5289 101.011 99.5289L102.936 93.5851Z" fill="#BD8282"/>
<path d="M131.657 108.166C131.202 111.241 128.069 112.724 121.352 111.244C114.634 109.764 98.6484 98.6848 98.6484 98.6848C98.6484 98.6848 99.2644 94.4315 102.961 93.2876C102.961 93.2876 106.302 93.9665 111.757 95.2632C114.214 95.8586 116.642 96.5951 119.029 97.4696C122.725 102.925 126.551 100.722 127.934 102.639C130.231 105.844 131.657 108.166 131.657 108.166Z" fill="#37474F"/>
<path d="M80.9476 98.5336C80.5498 98.2535 80.2644 97.8163 80.1499 97.3116C80.0451 96.8364 80.9291 94.3855 83.2299 92.6034C84.9434 91.285 86.946 90.4961 89.0297 90.3189C90.3079 90.1832 91.2596 89.5246 92.3931 88.6217C93.5265 87.7188 95.3838 87.0568 96.0306 87.4031C96.6774 87.7493 97.1087 88.9544 97.1087 88.9544L80.9476 98.5336Z" fill="#263238"/>
<path d="M95.3393 98.2777C94.6401 98.8717 93.9563 98.5391 93.1832 98.2336C92.1206 97.8161 90.6607 97.9926 89.1514 98.3049C88.1289 98.5187 87.1864 98.814 86.1823 99.1026C85.1782 99.3911 83.9893 100.063 83.0806 100.148C81.7562 100.274 80.4718 98.7733 80.9862 97.2695C81.4297 95.9729 83.2131 93.4066 86.0745 92.0624C87.633 91.3292 90.134 91.5668 91.9019 90.2294C93.0877 89.3332 94.5446 88.3115 96.0138 88.1927C96.8824 88.1146 97.2027 88.6442 97.6339 89.374C98.209 90.3397 98.8396 91.2637 99.522 92.1405C98.9385 92.8381 98.1929 93.3464 97.366 93.6103C97.0766 93.667 96.8016 93.7908 96.559 93.9735C96.4157 94.1262 96.2979 94.3054 96.2109 94.503C96.0785 94.7678 95.943 95.1005 96.0939 95.3551C96.1664 95.448 96.2446 95.5353 96.328 95.6164C96.6052 95.9559 96.4389 96.5058 96.254 96.9199C96.0679 97.3796 95.8104 97.8 95.4933 98.1623C95.4317 98.1962 95.3855 98.2404 95.3393 98.2777Z" fill="#EFBFA5"/>
<path opacity="0.4" d="M95.3393 98.2777C94.6401 98.8717 93.9563 98.5391 93.1832 98.2336C92.1206 97.8161 90.6607 97.9926 89.1514 98.3049C88.1289 98.5187 87.1864 98.814 86.1823 99.1026C85.1782 99.3911 83.9893 100.063 83.0806 100.148C81.7562 100.274 80.4718 98.7733 80.9862 97.2695C81.4297 95.9729 83.2131 93.4066 86.0745 92.0624C87.633 91.3292 90.134 91.5668 91.9019 90.2294C93.0877 89.3332 94.5446 88.3115 96.0138 88.1927C96.8824 88.1146 97.2027 88.6442 97.6339 89.374C98.209 90.3397 98.8396 91.2637 99.522 92.1405C98.9385 92.8381 98.1929 93.3464 97.366 93.6103C97.0766 93.667 96.8016 93.7908 96.559 93.9735C96.4157 94.1262 96.2979 94.3054 96.2109 94.503C96.0785 94.7678 95.943 95.1005 96.0939 95.3551C96.1664 95.448 96.2446 95.5353 96.328 95.6164C96.6052 95.9559 96.4389 96.5058 96.254 96.9199C96.0679 97.3796 95.8104 97.8 95.4933 98.1623C95.4317 98.1962 95.3855 98.2404 95.3393 98.2777Z" fill="black"/>
<path d="M90.6006 98.0656C90.7943 98.1583 91.0061 98.1961 91.2165 98.1753C91.4269 98.1546 91.6292 98.076 91.8049 97.9468C92.3593 97.6073 92.9229 96.4668 93.0985 95.5163C93.1176 95.4262 93.1161 95.3323 93.0941 95.243C93.0722 95.1537 93.0306 95.0717 92.9729 95.0045C92.9153 94.9373 92.8434 94.8868 92.7637 94.8576C92.6841 94.8285 92.5991 94.8215 92.5164 94.8374C92.4131 94.8575 92.318 94.9123 92.2441 94.9944C92.1702 95.0764 92.1211 95.1817 92.1036 95.2957C91.9501 96.3999 91.4106 97.394 90.6006 98.0656Z" fill="#F5F5F5"/>
<path d="M88.4316 98.4711C88.6561 98.5406 88.8924 98.5498 89.1207 98.4978C89.349 98.4458 89.5627 98.3342 89.7437 98.1723C89.7437 98.1723 90.9758 97.0114 91.1636 95.5212C91.1794 95.4351 91.1761 95.346 91.154 95.2616C91.1318 95.1771 91.0916 95.0998 91.0365 95.0362C90.9815 94.9726 90.9134 94.9245 90.838 94.8961C90.7625 94.8677 90.6819 94.8597 90.6031 94.8729C90.5038 94.892 90.4125 94.9448 90.3418 95.024C90.2711 95.1031 90.2246 95.2045 90.2088 95.3142C90.146 95.9535 89.9536 96.569 89.646 97.1154C89.3385 97.6618 88.9234 98.1251 88.4316 98.4711Z" fill="#F5F5F5"/>
<path d="M86.1777 99.1077C86.4079 99.1516 86.644 99.1404 86.8698 99.0748C87.0957 99.0092 87.3061 98.8908 87.4868 98.7275C87.4868 98.7275 88.6233 97.6379 88.8143 96.1443C88.83 96.0581 88.8267 95.9691 88.8046 95.8846C88.7825 95.8002 88.7422 95.7229 88.6872 95.6592C88.6321 95.5956 88.564 95.5476 88.4886 95.5191C88.4131 95.4907 88.3325 95.4827 88.2537 95.4959C88.1545 95.5151 88.0631 95.5679 87.9924 95.647C87.9218 95.7261 87.8753 95.8276 87.8594 95.9372C87.8223 96.5734 87.6509 97.1913 87.359 97.7417C87.067 98.2921 86.6625 98.7598 86.1777 99.1077Z" fill="#F5F5F5"/>
<path d="M114.378 95.9472C114.378 95.9472 118.89 96.918 122.235 99.4028C122.235 99.4028 118.797 94.9662 113.484 94.1685L114.378 95.9472Z" fill="#263238"/>
<path d="M88.4219 84.1944C91.4034 84.4185 93.658 86.0919 94.2524 86.4925L94.5604 86.6996L96.3623 86.6011C95.5084 85.7953 94.5408 85.1487 93.4978 84.6866C91.8952 83.9372 90.1186 83.7649 88.4219 84.1944Z" fill="#263238"/>
<path d="M94.0576 68.4552C97.5134 69.1884 99.5155 69.1816 101.163 65.0912C103.319 59.7177 106.707 51.0448 106.707 51.0448L108.414 36.3501C104.958 35.8104 101.872 37.9183 99.8666 43.1391C97.8091 48.4956 93.8543 59.4903 93.8543 59.4903C91.3502 59.2629 88.8277 59.3002 86.3205 59.1033C85.1624 59.0117 84.1029 58.8963 83.1388 58.1054C82.5297 57.5438 81.891 57.0225 81.2261 56.5439C80.7811 56.2418 80.312 55.985 79.8247 55.7767C79.3956 55.5704 78.9945 55.2996 78.6327 54.9722C78.5267 54.8714 78.3959 54.8076 78.2569 54.7889C77.9982 54.7889 77.8165 55.0843 77.7641 55.366C77.6982 55.7609 77.7478 56.1686 77.9058 56.5303C78.0627 56.8902 78.2777 57.2157 78.5403 57.491C78.6265 57.586 78.722 57.7354 78.645 57.8304C78.6126 57.8604 78.5736 57.8803 78.5319 57.8881C78.4902 57.8958 78.4474 57.8912 78.4078 57.8745C77.5109 57.6794 76.6254 57.4255 75.7559 57.1142C75.3539 56.9628 74.9154 56.9798 74.5239 57.1617C73.8617 57.5011 73.7262 58.4889 73.8247 59.29C74.4685 64.616 79.874 65.1116 83.647 66.0145C86.3913 66.673 89.1357 67.3316 91.8862 67.963C92.6007 68.1361 93.3276 68.3024 94.0576 68.4552Z" fill="#874C4C"/>
<path d="M109.17 36.0854C106.706 36.1533 103.984 35.7664 101.495 39.4799C99.0062 43.1935 95.5596 54.7551 95.5596 54.7551C95.5596 54.7551 101.966 55.4035 103.426 59.263L109.093 47.2431L109.17 36.0854Z" fill="#EFBFA5"/>
<path d="M117.851 36.1659C122.733 37.1605 125.989 38.3214 126.91 39.3058C128.985 43.9902 126.293 59.7066 126.293 59.7066L126.383 68.7869L126.691 75.8101C121.415 80.7219 104.379 78.6038 101.499 71.7197C101.499 71.7197 100.763 54.2178 101.499 47.534C102.281 40.4328 105.195 36.2915 110.715 35.9351L117.851 36.1659Z" fill="#D2ECFF"/>
<path d="M105.826 27.0091C109.494 27.0091 112.467 23.7325 112.467 19.6906C112.467 15.6487 109.494 12.3721 105.826 12.3721C102.159 12.3721 99.1855 15.6487 99.1855 19.6906C99.1855 23.7325 102.159 27.0091 105.826 27.0091Z" fill="#263238"/>
<path d="M118.978 23.1841C118.978 23.1841 118.442 29.1754 118.085 30.1937C117.841 30.823 117.388 31.3257 116.819 31.599L116.483 27.4713L118.978 23.1841Z" fill="#263238"/>
<path d="M116.712 14.9766C117.102 14.877 117.508 14.8769 117.898 14.9764C118.288 15.0758 118.653 15.2721 118.963 15.5503C120.001 16.4838 119.814 19.8273 118.963 23.1845L116.872 23.7174L116.712 14.9766Z" fill="#263238"/>
<path d="M116.256 23.7934C116.709 24.0242 117.226 23.0432 117.691 22.3711C118.157 21.699 119.792 20.6739 120.852 22.5442C121.911 24.4146 120.525 27.2456 119.265 27.9754C119.073 28.1018 118.86 28.1846 118.639 28.2189C118.417 28.2531 118.192 28.2382 117.976 28.1749C117.76 28.1116 117.557 28.0013 117.38 27.8505C117.203 27.6996 117.056 27.5112 116.946 27.2965L117.747 36.7671C115.797 41.9369 106.683 42.7448 109.606 36.9979L109.369 34.598C108.296 34.8874 107.197 35.0479 106.092 35.0767C104.977 35.0597 103.542 34.0583 102.522 31.7704C101.164 28.6916 100.548 25.6366 100.606 19.0886C100.665 11.9093 108.356 11.2542 112.677 13.559C116.998 15.8639 116.256 23.7934 116.256 23.7934Z" fill="#BD8282"/>
<path d="M115.97 11.148C114.487 10.6536 112.959 10.345 111.414 10.2281C108.075 9.84791 104.681 9.5492 101.536 8.24571C101.164 8.03987 100.745 7.9607 100.332 8.01828C99.559 8.22874 99.3218 9.31837 99.3772 10.1941C99.4283 11.0135 99.6064 11.8172 99.9039 12.5703C99.4265 12.0679 98.5703 12.2512 98.1545 12.8147C97.963 13.1129 97.8357 13.4553 97.7824 13.8159C97.729 14.1765 97.7509 14.5457 97.8465 14.8955C98.8136 19.1963 102.645 19.6105 105.722 19.2099C106.788 19.0707 109.024 18.5751 109.985 17.2784C110.327 18.1507 110.893 18.8938 111.613 19.4161C112.333 19.9384 113.176 20.2172 114.038 20.2181C114.119 21.3771 114.318 22.5224 114.63 23.6329C114.774 24.1421 115.009 24.7124 115.477 24.8481C115.662 24.8848 115.852 24.8649 116.027 24.7907C116.203 24.7165 116.356 24.5908 116.472 24.4272C116.93 23.8468 117.165 23.0694 117.627 22.4618C118.215 21.6913 118.35 16.3993 118.369 15.4217C118.376 15.3449 118.4 15.2713 118.44 15.2078C119.056 13.9722 117.999 12.1528 117.02 11.6334C116.679 11.4478 116.328 11.2857 115.97 11.148Z" fill="#263238"/>
<path d="M118.038 15.3244C118.186 15.49 118.362 15.621 118.557 15.7095C118.752 15.7981 118.961 15.8423 119.172 15.8397C119.382 15.837 119.59 15.7875 119.783 15.694C119.976 15.6006 120.15 15.4652 120.294 15.2959C120.439 15.1266 120.55 14.927 120.623 14.709C120.695 14.4909 120.727 14.259 120.716 14.0271C120.706 13.7952 120.652 13.568 120.56 13.3593C120.468 13.1506 120.338 12.9646 120.179 12.8125L118.038 15.3244Z" fill="#263238"/>
<path d="M109.354 34.6343C109.354 34.6343 112.603 33.5481 113.863 32.5976C114.704 31.9629 115.335 30.1706 115.492 29.5596C115.532 30.7899 115.239 32.0055 114.651 33.0525C113.78 34.5291 109.511 36.1958 109.511 36.1958L109.354 34.6343Z" fill="#874C4C"/>
<path d="M108.771 24.0209C108.781 24.1456 108.814 24.2669 108.866 24.3778C108.919 24.4887 108.991 24.587 109.078 24.6672C109.166 24.7473 109.266 24.8076 109.375 24.8447C109.483 24.8817 109.598 24.8948 109.711 24.8831C109.887 24.8697 110.055 24.7985 110.194 24.6787C110.333 24.5589 110.436 24.3959 110.491 24.2109C110.545 24.0258 110.548 23.8271 110.499 23.6403C110.45 23.4534 110.351 23.2871 110.215 23.1626C110.08 23.0382 109.913 22.9613 109.738 22.9419C109.562 22.9225 109.385 22.9614 109.23 23.0538C109.075 23.1461 108.948 23.2875 108.866 23.4599C108.784 23.6323 108.751 23.8277 108.771 24.0209Z" fill="#263238"/>
<path d="M111.161 21.2516L109.433 20.4233C109.338 20.6838 109.337 20.9747 109.431 21.2357C109.525 21.4967 109.707 21.7079 109.938 21.8253C110.053 21.8785 110.175 21.9058 110.299 21.9057C110.424 21.9055 110.546 21.8778 110.66 21.8243C110.774 21.7708 110.878 21.6925 110.964 21.5941C111.05 21.4957 111.117 21.3792 111.161 21.2516Z" fill="#263238"/>
<path d="M110.429 28.8613L107.743 30.3651C107.825 30.565 107.943 30.7447 108.089 30.8933C108.235 31.042 108.408 31.1565 108.595 31.23C108.783 31.3036 108.982 31.3346 109.18 31.3213C109.379 31.308 109.573 31.2506 109.751 31.1526C110.112 30.9425 110.385 30.5859 110.511 30.1582C110.638 29.7306 110.608 29.2654 110.429 28.8613Z" fill="#874C4C"/>
<path d="M110.462 29.5435C110.097 29.5444 109.748 29.7046 109.49 29.9891C109.233 30.2735 109.088 30.659 109.088 31.0608C109.088 31.1508 109.097 31.2406 109.113 31.329C109.334 31.3261 109.552 31.2668 109.75 31.1558C110.014 31.0059 110.232 30.7753 110.38 30.4917C110.527 30.208 110.598 29.8835 110.582 29.557C110.542 29.5638 110.505 29.5435 110.462 29.5435Z" fill="#F28F8F"/>
<path d="M102.937 20.8101L101.375 22.0049C101.442 22.1198 101.529 22.2187 101.631 22.2958C101.733 22.373 101.848 22.4267 101.969 22.454C102.09 22.4812 102.215 22.4813 102.336 22.4543C102.458 22.4273 102.573 22.3738 102.675 22.2968C102.883 22.1332 103.026 21.8877 103.075 21.611C103.124 21.3344 103.074 21.0477 102.937 20.8101Z" fill="#263238"/>
<path d="M102.577 24.5576C102.602 24.7391 102.675 24.9085 102.787 25.0447C102.898 25.1808 103.044 25.2778 103.205 25.3236C103.367 25.3694 103.537 25.362 103.694 25.3022C103.852 25.2425 103.99 25.133 104.091 24.9875C104.193 24.842 104.253 24.6668 104.265 24.4836C104.277 24.3005 104.24 24.1176 104.159 23.9575C104.077 23.7975 103.954 23.6674 103.806 23.5834C103.658 23.4993 103.491 23.4651 103.325 23.485C103.212 23.5009 103.103 23.5413 103.004 23.6039C102.905 23.6665 102.818 23.75 102.749 23.8497C102.679 23.9494 102.628 24.0633 102.599 24.1848C102.569 24.3063 102.562 24.433 102.577 24.5576Z" fill="#263238"/>
<path d="M106.43 24.1187L106.692 29.2308L104.194 28.6231L106.43 24.1187Z" fill="#874C4C"/>
<path d="M126.91 39.3075C129.851 41.3951 130.96 45.1766 129.54 50.7435C127.981 56.8536 125.059 64.481 121.889 69.7221C120.611 71.8335 119.918 72.4377 114.161 71.4193C111.248 70.9 108.343 70.2109 105.46 69.515C102.007 68.68 97.9725 67.5734 95.2097 66.1205C94.2822 65.6459 93.4458 64.9799 92.7456 64.1585C92.5106 63.8877 92.3279 63.5672 92.2084 63.2164C92.0889 62.8656 92.0351 62.4917 92.0504 62.1173C92.0656 61.743 92.1496 61.3759 92.2971 61.0383C92.4447 60.7007 92.6528 60.3995 92.9089 60.153C95.7795 57.1387 96.568 59.7898 98.6562 60.5502C98.6562 60.5502 99.8883 60.5502 100.477 60.6384C101.009 60.7097 101.046 60.6113 101.493 60.9304C102.395 61.5719 102.978 62.1015 103.526 62.1897C107.188 62.7838 115.677 63.388 115.677 63.388L121.073 48.9988C121.073 48.9988 124.101 38.7644 126.91 39.3075Z" fill="#BD8282"/>
<path d="M102.419 61.6196C102.321 61.5822 101.865 60.5435 101.729 60.3331C101.423 59.8363 101.081 59.3675 100.707 58.9312C100.352 58.5132 99.9274 58.1744 99.4564 57.9332C98.7695 57.6311 97.9995 57.4715 97.3003 57.2543C97.2024 57.2106 97.0943 57.2034 96.9923 57.2339C96.9373 57.2611 96.8908 57.3056 96.8585 57.3617C96.8262 57.4178 96.8095 57.4831 96.8106 57.5496C96.8121 57.682 96.8417 57.8122 96.8968 57.9298C97.082 58.3776 97.3619 58.7699 97.7131 59.0737C97.981 59.3113 98.7972 60.2855 99.0252 60.5741C99.0067 60.5639 102.419 61.8776 102.419 61.6196Z" fill="#BD8282"/>
<path d="M125.397 38.3682C127.633 38.9792 129.564 39.7667 130.285 43.1578C131.006 46.5489 130.732 48.3174 127.981 56.1417C126.309 60.894 124.975 63.7589 124.975 63.7589C124.975 63.7589 123.373 59.2782 117.244 58.7826L121.22 45.6256C121.22 45.6256 123.531 39.8821 125.397 38.3682Z" fill="#EFBFA5"/>
<path d="M42.7581 86.2033C42.7581 86.2033 32.677 82.1299 31.4327 81.0233C30.3916 80.0932 31.0169 77.8664 29.5846 77.4862C27.9245 77.0483 26.7387 78.0293 25.673 79.1088C24.6627 80.1271 23.3445 80.5922 20.8588 79.6451C18.3732 78.698 15.9739 77.3504 14.9667 77.8868C13.9595 78.4231 14.6125 79.2887 18.9708 81.4951C21.4687 82.7646 24.6504 84.2446 26.6894 85.1306C28.1609 85.7336 29.5489 86.5596 30.8136 87.5848C33.4717 89.6215 33.9614 90.073 37.1061 92.1504C43.3925 96.3019 47.0917 97.3949 52.0937 96.3494L42.7581 86.2033Z" fill="#F1B7B6"/>
<path d="M33.3213 82.106C31.3162 83.3789 30.349 84.7808 30.2412 87.2282C30.2412 87.2282 31.5934 88.3824 33.734 90.0151C36.2966 91.9703 42.4998 96.4205 46.6425 96.8856C53.0675 97.6052 55.1034 95.4734 55.1034 95.4734L33.3213 82.106Z" fill="#455A64"/>
<path d="M31.4619 83.681C34.7514 89.7911 42.7873 93.5827 45.3222 93.8645C44.432 93.06 43.123 90.3206 41.8817 87.3504L33.3223 82.106C32.6315 82.5209 32.0038 83.0524 31.4619 83.681Z" fill="#37474F"/>
<path d="M12.6061 77.3742C12.5566 77.1571 12.5522 76.9305 12.5933 76.7113C12.6344 76.492 12.7198 76.2859 12.8433 76.1081C13.7303 74.9506 14.8638 74.3396 15.6369 73.9085C16.575 73.4279 17.6077 73.2154 18.6399 73.2907C20.6112 73.4197 22.3052 75.0388 24.2764 75.1644C25.7456 75.2595 27.0824 74.4346 28.5146 74.051C28.9659 73.9307 29.4311 73.8861 29.8945 73.9187C30.2887 73.9458 30.9109 74.2581 31.0526 74.6145C31.2483 75.0475 31.2868 75.5464 31.1604 76.0097C31.0711 76.3016 30.5259 76.8583 30.1316 77.1638C29.5957 77.5847 28.9243 77.7035 28.1234 77.9649C26.1029 78.6064 17.0599 78.8542 12.6061 77.3742Z" fill="#37474F"/>
<path d="M31.4799 80.4121C31.4799 80.609 31.5107 80.7991 31.5292 80.9993C31.5569 81.2675 31.4245 81.3388 31.2212 81.5051C30.3927 82.1331 29.3455 82.072 28.3999 81.8921C27.6637 81.7495 26.9153 81.5221 26.1792 81.6782C25.3044 81.8683 24.6052 82.5744 23.9523 83.2465C23.8093 83.3946 23.6896 83.5678 23.5981 83.7591C23.5981 83.7591 18.5129 81.3659 16.2059 80.0251C15.0355 79.3462 13.6834 78.7081 12.7624 77.6286C12.7101 77.5709 12.9873 77.1907 13.015 77.1534C13.3261 76.7847 13.7344 76.533 14.1823 76.4338C14.9117 76.2247 15.6702 76.1683 16.4185 76.2674C17.555 76.4541 18.6607 76.7834 19.788 77.0278C20.799 77.2467 21.82 77.4054 22.8465 77.503C23.9649 77.6116 25.0889 77.632 26.21 77.5641C27.2611 77.5378 28.2984 77.2949 29.2684 76.8479C29.6468 76.6664 30.0003 76.4276 30.3187 76.1384C30.5031 75.9343 30.6645 75.7064 30.7992 75.4595C30.9563 75.2117 31.0518 74.7806 31.212 75.1472C31.6001 75.9891 31.6801 77.2858 31.6247 78.2294C31.5877 78.8778 31.5107 79.5227 31.4892 80.1745C31.4769 80.2526 31.4769 80.3306 31.4799 80.4121Z" fill="#EFBFA5"/>
<path opacity="0.2" d="M31.4799 80.4121C31.4799 80.609 31.5107 80.7991 31.5292 80.9993C31.5569 81.2675 31.4245 81.3388 31.2212 81.5051C30.3927 82.1331 29.3455 82.072 28.3999 81.8921C27.6637 81.7495 26.9153 81.5221 26.1792 81.6782C25.3044 81.8683 24.6052 82.5744 23.9523 83.2465C23.8093 83.3946 23.6896 83.5678 23.5981 83.7591C23.5981 83.7591 18.5129 81.3659 16.2059 80.0251C15.0355 79.3462 13.6834 78.7081 12.7624 77.6286C12.7101 77.5709 12.9873 77.1907 13.015 77.1534C13.3261 76.7847 13.7344 76.533 14.1823 76.4338C14.9117 76.2247 15.6702 76.1683 16.4185 76.2674C17.555 76.4541 18.6607 76.7834 19.788 77.0278C20.799 77.2467 21.82 77.4054 22.8465 77.503C23.9649 77.6116 25.0889 77.632 26.21 77.5641C27.2611 77.5378 28.2984 77.2949 29.2684 76.8479C29.6468 76.6664 30.0003 76.4276 30.3187 76.1384C30.5031 75.9343 30.6645 75.7064 30.7992 75.4595C30.9563 75.2117 31.0518 74.7806 31.212 75.1472C31.6001 75.9891 31.6801 77.2858 31.6247 78.2294C31.5877 78.8778 31.5107 79.5227 31.4892 80.1745C31.4769 80.2526 31.4769 80.3306 31.4799 80.4121Z" fill="black"/>
<path d="M18.2358 76.6285C17.2871 78.0644 17.2933 80.6068 17.2933 80.6068C17.2933 80.6068 15.6609 79.8533 14.0562 78.8655C12.5161 77.9184 12.6055 77.3753 12.6055 77.3753C12.6828 77.0817 12.8397 76.8211 13.0551 76.6285C13.6381 76.1129 14.381 75.8693 15.1249 75.9496C16.1828 76.038 17.2272 76.2659 18.2358 76.6285Z" fill="#FAFAFA"/>
<path d="M18.1665 79.7524C18.0492 80.1601 18.0156 80.5913 18.0679 81.0151C18.2172 81.1413 18.3896 81.2305 18.5731 81.2765C18.5643 80.8403 18.6057 80.4046 18.6963 79.9798C18.801 79.6234 18.2804 79.4027 18.1665 79.7524Z" fill="#FAFAFA"/>
<path d="M19.7147 80.5369C19.5933 80.9435 19.5565 81.3751 19.6069 81.7996C19.761 81.9218 19.936 82.0084 20.1213 82.0542C20.1042 81.6199 20.1457 81.1852 20.2445 80.7643C20.3492 80.3909 19.8286 80.1838 19.7147 80.5369Z" fill="#FAFAFA"/>
<path d="M21.2615 81.3213C21.1438 81.7242 21.1101 82.1512 21.1629 82.5704C21.3108 82.7013 21.4834 82.7941 21.6681 82.842C21.6592 82.4069 21.7006 81.9723 21.7913 81.5487C21.896 81.1719 21.3908 80.9818 21.2615 81.3213Z" fill="#FAFAFA"/>
<path d="M31.2022 75.1394C31.195 74.9524 31.1429 74.7709 31.0513 74.6133C31.0513 74.6133 30.5431 75.764 28.7258 76.4293C27.001 77.0607 24.537 77.3662 20.9826 76.4633C17.4282 75.5603 15.3738 74.7185 13.766 75.4212C12.1582 76.1238 12.6048 77.373 12.6048 77.373C12.6048 77.373 13.3718 75.8149 15.6264 76.1069C17.8009 76.3886 20.998 77.6581 23.9733 77.7769C27.0811 77.9059 30.2197 77.4681 31.2022 75.1394Z" fill="#FCF4EF"/>
<path d="M67.3397 82.5723C65.7996 77.2293 61.6138 74.1166 57.8901 70.6746C54.1663 67.2326 48.2248 61.4653 48.2248 61.4653L27.2805 56.8081C25.9745 59.7545 24.6624 65.386 24.6562 69.6698C24.6562 73.6651 25.7558 79.0182 32.1007 84.2084C35.9477 87.3551 39.0186 89.8263 41.7752 91.7577C44.6889 93.7944 51.1201 97.3892 54.9116 95.9771C56.0809 95.5731 57.0632 94.6866 57.6533 93.503C58.2434 92.3195 58.3955 90.9303 58.0779 89.626C58.5246 89.6701 58.9681 89.6973 59.3808 89.7007C59.8613 89.7176 60.3048 89.7007 60.6467 89.7007C61.9023 89.7385 63.1539 89.5293 64.3428 89.0829C66.9731 88.0238 68.2298 85.6714 67.3397 82.5723Z" fill="#455A64"/>
<path d="M58.9859 89.4706C58.5762 89.4706 58.1296 89.4401 57.6861 89.3925C55.3453 83.8901 42.4922 72.6306 42.4922 72.6306C43.5302 72.0739 45.9357 70.655 46.7427 69.0596C46.4131 71.0963 45.3536 72.1146 44.3279 72.9496C45.9049 74.5077 52.5332 80.6653 54.3042 82.5153C56.1615 84.4536 58.0896 86.7075 58.9859 89.4706Z" fill="#37474F"/>
<path d="M43.8418 27.5894C46.5769 27.827 47.8798 28.6654 50.581 31.9547C53.2822 35.2439 58.2811 41.1979 59.1805 42.7423C60.0799 44.2868 62.6948 47.627 58.7585 50.1287C54.8222 52.6305 46.4044 53.4689 46.4044 53.4689L43.8418 27.5894Z" fill="#F28F8F"/>
<path d="M48.6477 46.0386C52.3037 42.7256 51.1117 38.4044 49.7657 35.4954C47.0953 29.6772 44.3171 27.3893 43.159 27.4097L35.7669 26.354C32.7903 26.8667 29.9152 27.9367 27.2659 29.5177C24.3768 31.3575 25.1468 33.4553 25.5318 35.363C26.5729 40.5531 27.8881 43.5097 28.2792 45.0814C28.6704 46.653 29.3911 49.1039 28.8059 51.6497C28.578 52.6341 27.9743 53.5914 27.0595 56.307C26.2546 58.5383 25.636 60.8459 25.2115 63.2012C25.2115 63.2012 31.0882 69.1347 41.4557 67.502C49.0881 66.3003 50.0583 63.2283 50.0583 63.2283L48.2688 52.8819C48.4505 49.4501 48.4937 48.2043 48.6477 46.0386Z" fill="#DCEFFE"/>
<path d="M46.3378 1.4467C42.4169 -0.885311 37.3687 0.0345939 35.3852 3.52752C35.3852 3.52752 33.3862 3.11679 31.3811 5.04486C29.1172 7.2377 29.1388 10.5439 29.108 13.582C29.071 17.1224 27.876 18.1849 27.4386 20.9073C27.0012 23.6297 28.6706 25.4254 30.4971 25.6596C30.4971 25.6596 29.8811 23.168 30.531 22.0139C30.531 22.0139 30.3339 25.5815 33.4139 26.1857C35.8934 26.6745 37.7568 24.8279 37.7568 24.8279C37.7568 24.8279 34.6583 24.2339 34.1254 22.1531L34.4611 18.6805L40.073 25.3473C43.304 28.4363 47.844 26.498 47.9764 25.0791C47.9764 25.0791 44.3173 20.9141 49.2547 15.7069C54.192 10.4998 50.2557 3.77532 46.3378 1.4467Z" fill="#37474F"/>
<path d="M49.15 17.1659C48.4447 23.3812 46.4673 24.7152 45.5094 25.0547C44.5515 25.3941 42.7959 24.9257 41.1049 24.4199L40.8308 27.3833C40.8308 27.3833 43.4704 30.2516 42.7897 30.9373C41.5207 32.2136 38.1696 31.6162 36.5495 30.6284C35.4197 29.9922 34.4696 29.0272 33.8021 27.8382C33.6626 27.585 33.6152 27.283 33.6697 26.9929L34.4705 18.6764C34.4705 18.6764 33.568 19.2637 32.2097 18.2555C30.9777 17.3492 30.7159 14.5216 31.8586 13.303C32.6748 12.4408 34.1871 12.4645 34.9386 14.0294C35.336 15.1631 35.0988 16.1917 35.7918 16.1577C36.4848 16.1238 36.7805 15.4109 36.8914 14.8203C37.0023 14.2296 37.067 13.8019 37.1994 13.0314C38.9119 12.8549 40.8123 10.3158 41.2035 8.48957C42.3339 9.21599 43.5382 9.80324 44.7363 9.87113C46.6213 9.97296 47.6316 9.68783 48.7096 8.32324C48.8949 8.68961 49.0299 9.08428 49.11 9.49434C49.2816 10.3219 49.3846 11.1649 49.418 12.0131C49.4566 13.7358 49.3669 15.4592 49.15 17.1659Z" fill="#F1B7B6"/>
<path d="M41.1011 24.4144C39.3055 23.9493 35.6741 22.3471 35.249 20.6499C35.249 20.6499 35.3476 21.6954 36.3702 22.8767C37.3927 24.058 40.9902 25.6636 40.9902 25.6636L41.1011 24.4144Z" fill="#F28F8F"/>
<path d="M43.0115 15.0581C42.998 15.2279 42.9394 15.3897 42.8431 15.5232C42.7468 15.6566 42.617 15.7559 42.4699 15.8086C42.3227 15.8614 42.1648 15.8653 42.0157 15.8198C41.8665 15.7743 41.7329 15.6814 41.6313 15.5528C41.5297 15.4242 41.4647 15.2655 41.4443 15.0965C41.424 14.9274 41.4493 14.7555 41.5169 14.6022C41.5846 14.4488 41.6917 14.3208 41.8249 14.2341C41.9582 14.1474 42.1116 14.1057 42.2661 14.1144C42.3714 14.1222 42.4742 14.1528 42.5687 14.2044C42.6632 14.2561 42.7475 14.3278 42.8167 14.4155C42.886 14.5032 42.9389 14.6051 42.9723 14.7154C43.0057 14.8257 43.019 14.9421 43.0115 15.0581Z" fill="#263238"/>
<path d="M48.325 15.3789C48.3214 15.4841 48.2991 15.5876 48.2592 15.6832C48.2193 15.7789 48.1627 15.865 48.0926 15.9366C48.0226 16.0082 47.9403 16.0638 47.8507 16.1003C47.7611 16.1369 47.6659 16.1535 47.5704 16.1495C47.4726 16.1496 47.3759 16.1265 47.2869 16.0818C47.1979 16.0371 47.1187 15.9718 47.0547 15.8903C46.9907 15.8088 46.9434 15.713 46.916 15.6095C46.8885 15.5061 46.8817 15.3973 46.8958 15.2907C46.8986 15.1853 46.9203 15.0816 46.9597 14.9855C46.999 14.8894 47.0553 14.8029 47.1252 14.731C47.1951 14.659 47.2772 14.603 47.3668 14.5662C47.4565 14.5295 47.5518 14.5126 47.6474 14.5167C47.8409 14.5324 48.0208 14.6319 48.1478 14.7935C48.2749 14.9551 48.3386 15.1656 48.325 15.3789Z" fill="#263238"/>
<path d="M44.9451 13.5815L44.5693 19.471L47.1473 18.8837L44.9451 13.5815Z" fill="#F28F8F"/>
<path d="M40.3242 12.4135L41.892 11.127C42.0441 11.3646 42.1072 11.6578 42.0682 11.9455C42.0291 12.2331 41.891 12.4931 41.6825 12.6714C41.5789 12.7557 41.4609 12.816 41.3356 12.8487C41.2103 12.8814 41.0803 12.8858 40.9534 12.8617C40.8266 12.8376 40.7054 12.7855 40.5973 12.7085C40.4891 12.6314 40.3963 12.5311 40.3242 12.4135Z" fill="#263238"/>
<path d="M41.6609 19.4468L44.0664 20.6722C43.9073 21.0259 43.6306 21.2984 43.2939 21.4331C42.9572 21.5678 42.5863 21.5542 42.2584 21.3952C42.1003 21.3139 41.9589 21.1981 41.8425 21.0549C41.7262 20.9117 41.6375 20.7439 41.5816 20.5618C41.5258 20.3797 41.504 20.187 41.5176 19.9953C41.5312 19.8037 41.58 19.6171 41.6609 19.4468Z" fill="#874C4C"/>
<path d="M42.2548 21.3985C42.0323 21.2856 41.8443 21.1039 41.7137 20.8756C41.583 20.6472 41.5153 20.382 41.5187 20.112C41.6624 20.0716 41.8116 20.0601 41.9591 20.0781C42.2694 20.123 42.5526 20.2965 42.7511 20.5631C42.9496 20.8298 43.0486 21.1698 43.0279 21.5139C42.7656 21.5639 42.4956 21.5236 42.2548 21.3985Z" fill="#F28F8F"/>
<path d="M47.8423 11.4385L49.2622 12.9422C49.1777 13.0487 49.0744 13.135 48.9586 13.1961C48.8429 13.2571 48.717 13.2915 48.5888 13.2973C48.4606 13.303 48.3326 13.2799 48.2128 13.2293C48.0929 13.1788 47.9836 13.1019 47.8916 13.0033C47.703 12.7991 47.5928 12.5229 47.5836 12.2317C47.5745 11.9406 47.6671 11.6566 47.8423 11.4385Z" fill="#263238"/>
<path d="M51.3572 33.8716C50.996 33.8109 50.6382 33.7281 50.2853 33.6238C49.6339 33.4024 48.9514 33.3127 48.271 33.359C47.5687 33.4269 46.6293 33.7494 46.1334 34.2959C45.9271 34.5199 45.8501 35.0528 46.1919 35.1852C46.1794 35.2737 46.1898 35.3644 46.2219 35.4467C46.2541 35.5289 46.3067 35.5995 46.3737 35.6503C46.5348 35.7688 46.7313 35.8138 46.9219 35.7759C46.9219 35.9863 47.2299 36.1153 47.5379 36.0848C47.9685 35.9577 48.4139 35.9027 48.8593 35.9218C49.7987 35.9524 49.9589 36.3461 49.9589 36.3461" fill="#455A64"/>
<path d="M47.6582 35.1022C47.4499 35.0606 47.2349 35.1074 47.0566 35.2334C46.8783 35.3594 46.7499 35.5551 46.6973 35.7811C46.7721 35.7862 46.8472 35.7862 46.9221 35.7811C46.9496 35.589 47.0394 35.4144 47.1747 35.2896C47.31 35.1648 47.4818 35.0982 47.6582 35.1022Z" fill="#37474F"/>
<path d="M46.9543 34.4605C46.7633 34.4493 46.5736 34.5006 46.4091 34.6082C46.2447 34.7157 46.1128 34.8746 46.0303 35.0647C46.0687 35.1215 46.1211 35.1651 46.1812 35.1903C46.2348 35.0009 46.3358 34.832 46.4725 34.7029C46.6092 34.5738 46.7762 34.4898 46.9543 34.4605Z" fill="#37474F"/>
<path d="M59.6179 31.3115L58.0779 31.7834L54.9978 32.727L54.7237 32.8017L54.0091 32.9341C53.5056 32.9858 53.0063 33.0788 52.5153 33.2124H52.4075C52.2111 33.2216 52.0165 33.2581 51.8285 33.3211C51.7036 33.4267 51.5844 33.54 51.4712 33.6605L51.1447 34C51.1077 34.0441 51.0708 34.0882 51.0338 34.1391L50.0728 35.9891C49.8629 36.2804 49.5786 36.4956 49.2566 36.6069C48.753 36.7249 48.3023 37.0321 47.9815 37.4759C47.9476 37.4197 47.9019 37.3733 47.8483 37.3408C47.7947 37.3083 47.7347 37.2906 47.6735 37.2892C47.6603 37.1925 47.6251 37.101 47.5713 37.0233C47.5174 36.9455 47.4466 36.8841 47.3655 36.8445C47.169 36.7555 46.9497 36.7494 46.7494 36.8276C46.7494 36.6544 46.4815 36.4304 45.9455 36.5628C44.886 36.8242 44.2608 37.2892 43.1581 38.0564C41.7844 39.0136 41.3409 39.886 41.3624 40.6022C41.357 40.8325 41.4083 41.0602 41.5108 41.261C41.6133 41.4618 41.7632 41.6283 41.9446 41.7428C41.9446 41.7428 37.6725 46.2439 43.5277 50.0661C49.2135 53.7762 56.6487 49.8115 58.9711 43.8711C59.58 42.2946 59.9594 40.622 60.0953 38.9152C60.4126 35.6463 59.8243 33.1208 59.6179 31.3115Z" fill="#455A64"/>
<path d="M47.855 38.6007C47.855 38.6007 48.779 38.1458 49.204 38.7025C49.3118 38.6465 49.4305 38.6211 49.5495 38.6288C49.6684 38.6366 49.7837 38.6771 49.8847 38.7466C49.9678 38.8067 50.0313 38.8943 50.0662 38.9968C50.1011 39.0994 50.1055 39.2114 50.0788 39.3169C50.1451 39.3225 50.2088 39.3478 50.2631 39.3903C50.3174 39.4328 50.3601 39.4907 50.3868 39.5579C50.4218 39.6838 50.4295 39.817 50.4092 39.9467C50.3888 40.0764 50.3411 40.1991 50.2697 40.3047C50.1032 40.6501 49.8757 40.9553 49.6007 41.2024C49.3256 41.4496 49.0086 41.6337 48.6681 41.744C48.9994 41.9546 49.2803 42.2492 49.4876 42.6034C49.6949 42.9576 49.8226 43.3612 49.8601 43.7806C50.0726 45.4236 49.5952 46.2756 49.5952 46.2756C51.559 45.7505 53.2991 44.4968 54.5233 42.725C57.129 39.0386 56.1865 32.5415 56.1865 32.5415L51.8251 33.3528C51.3668 33.6198 50.9701 33.9992 50.6658 34.4618C50.3614 34.9244 50.1574 35.4577 50.0695 36.0209C49.1686 36.1142 48.3054 36.4652 47.5654 37.0392C47.6124 37.1231 47.6467 37.2148 47.6671 37.3108C47.7272 37.3173 47.7855 37.3372 47.8384 37.3693C47.8914 37.4014 47.9379 37.445 47.9751 37.4975C48.0869 37.6634 48.1368 37.8702 48.1144 38.0754C48.0921 38.2806 47.9992 38.4686 47.855 38.6007Z" fill="white"/>
<path opacity="0.1" d="M54.3122 36.8522C53.5976 36.8217 52.615 37.0152 52.0514 37.4938C51.8173 37.6907 51.6818 38.2134 52.0083 38.3967C51.9857 38.4836 51.9855 38.5757 52.0078 38.6626C52.0301 38.7496 52.074 38.828 52.1346 38.8889C52.2832 39.0318 52.4766 39.1049 52.6736 39.0926C52.6551 39.3064 52.9384 39.4965 53.2526 39.4897C53.6838 39.4897 53.8039 39.3302 54.6017 39.5135C55.0243 39.6184 55.4111 39.8539 55.7167 40.1924C55.9804 39.2941 56.159 38.3681 56.2495 37.4293C55.6443 37.0987 54.986 36.9026 54.3122 36.8522Z" fill="black"/>
<path d="M56.3573 36.9081C55.7214 36.5482 55.0254 36.3357 54.3122 36.2835C53.5976 36.2496 52.615 36.4464 52.0514 36.9251C51.8173 37.1219 51.6818 37.6447 52.0083 37.828C51.9857 37.9149 51.9855 38.007 52.0078 38.0939C52.0301 38.1809 52.074 38.2592 52.1346 38.3202C52.2838 38.4619 52.4768 38.5348 52.6736 38.5239C52.6551 38.7377 52.9384 38.9278 53.2526 38.921C53.6838 38.921 53.8039 38.7615 54.6017 38.9448C55.0908 39.0654 55.531 39.3586 55.8553 39.7798L57.2937 37.3358C56.9693 37.2282 56.6556 37.0849 56.3573 36.9081Z" fill="#455A64"/>
<path d="M53.4036 37.9601C53.2927 37.9014 53.1696 37.8767 53.0471 37.8887C52.9246 37.9006 52.8073 37.9488 52.7075 38.028C52.6374 38.0797 52.5786 38.1479 52.5354 38.2278C52.4922 38.3076 52.4658 38.3971 52.458 38.4897C52.5291 38.5057 52.6012 38.5159 52.6736 38.5202C52.689 38.157 53.0555 37.9466 53.4036 37.9601Z" fill="#37474F"/>
<path d="M51.8467 37.6399C51.8774 37.7217 51.9344 37.7882 52.0068 37.8266C52.0574 37.7035 52.1358 37.5967 52.2345 37.5165C52.3332 37.4363 52.4488 37.3853 52.5705 37.3683C52.4388 37.3415 52.3032 37.3525 52.1764 37.4C52.0497 37.4475 51.9362 37.5301 51.8467 37.6399Z" fill="#37474F"/>
<path opacity="0.1" d="M60.1526 35.6972C60.0417 33.9321 59.7521 32.4724 59.6197 31.3115L58.0797 31.7834L54.9996 32.727L54.7255 32.8017L54.0109 32.9341C53.5074 32.9858 53.0081 33.0788 52.5171 33.2124H52.4093C52.2127 33.2199 52.018 33.2565 51.8302 33.3211C51.7322 33.374 51.6376 33.4341 51.5469 33.501C51.7502 33.7793 52.5171 34.6755 54.208 35.0828C56.2224 35.5716 58.36 34.8282 58.36 34.8282C58.5355 35.1649 58.8042 35.4309 59.1267 35.5873C59.4493 35.7436 59.8087 35.7821 60.1526 35.6972Z" fill="black"/>
<path d="M56.6184 24.5308C56.4706 23.9232 55.7807 23.6584 54.678 23.6347C53.8063 23.6143 52.9747 23.9062 51.6903 23.2715C50.406 22.6367 49.3433 22.932 48.9953 24.3577C48.6472 25.7834 48.9429 27.5349 50.3536 28.1426C51.6595 28.706 53.7817 28.4175 54.9737 27.518C56.1657 26.6184 56.6184 24.5308 56.6184 24.5308Z" fill="#37474F"/>
<path d="M52.8068 23.9227C52.8359 23.8311 52.8575 23.7368 52.8714 23.641C52.4623 23.5835 52.0634 23.4576 51.6887 23.2676C50.4012 22.6294 49.3417 22.9282 48.9967 24.3538C48.8775 24.8401 48.8389 25.3461 48.8828 25.8474C49.1364 26.0172 49.4199 26.126 49.7144 26.1665C49.831 26.1919 49.9515 26.186 50.0657 26.1494C50.1799 26.1128 50.2844 26.0465 50.3704 25.956C50.5583 25.7048 50.4906 25.2771 50.6784 25.0497C50.8663 24.8223 51.2945 24.8732 51.6302 24.8562C51.8863 24.839 52.1327 24.7421 52.3409 24.5769C52.5492 24.4117 52.7107 24.1849 52.8068 23.9227Z" fill="#EFBFA5"/>
<path d="M60.1047 27.2416C59.4887 25.7785 59.1407 25.4527 57.4282 24.7874C55.7156 24.122 54.6561 24.1967 53.1561 25.2185C52.2075 25.8634 51.8255 27.5742 51.8255 27.5742C51.5225 27.6177 51.2303 27.7271 50.9659 27.8961C50.7015 28.0651 50.4702 28.2903 50.2855 28.5586C49.6233 29.6788 50.1284 31.6748 50.5565 32.3469C51.2537 33.4236 52.2966 34.1676 53.4734 34.4277C55.6756 34.9233 57.4528 34.7671 58.5585 33.5282C59.9446 31.9837 60.5544 28.3074 60.1047 27.2416Z" fill="#455A64"/>
<path d="M59.7813 29.6147C59.8124 29.4415 59.8269 29.2651 59.8244 29.0886C59.8244 28.5319 59.7105 27.7885 59.3686 27.3642C59.1036 26.9303 58.72 26.601 58.2736 26.4239C57.8271 26.2469 57.341 26.2314 56.886 26.3798C56.3365 26.5045 55.8488 26.8507 55.5185 27.3506C55.2105 27.8632 55.1119 28.4504 55.5431 28.9053C55.7066 29.0521 55.861 29.2109 56.0052 29.3805C56.2023 29.6554 56.2854 30.0153 56.4702 30.3004C56.6794 30.6129 56.9794 30.837 57.3203 30.9352C57.6583 31.0317 58.0108 31.0491 58.3552 30.9861C58.5748 30.9713 58.7894 30.9074 58.9859 30.7983C59.1823 30.6892 59.3566 30.5371 59.4979 30.3513C59.6382 30.1304 59.7348 29.8794 59.7813 29.6147Z" fill="white"/>
<path d="M57.0272 28.2857C57.0278 28.3968 56.9984 28.5055 56.9428 28.5982C56.8872 28.6908 56.8078 28.7631 56.7149 28.8059C56.6219 28.8487 56.5194 28.8601 56.4206 28.8386C56.3217 28.8171 56.2309 28.7637 56.1596 28.6851C56.0883 28.6066 56.0399 28.5065 56.0204 28.3975C56.0008 28.2886 56.0112 28.1757 56.05 28.0732C56.0889 27.9707 56.1545 27.8833 56.2385 27.822C56.3226 27.7607 56.4212 27.7283 56.522 27.729C56.6557 27.7299 56.7838 27.7888 56.8783 27.8931C56.9729 27.9973 57.0263 28.1383 57.0272 28.2857Z" fill="#263238"/>
<path d="M53.4458 27.2437C53.4458 27.3538 53.4162 27.4614 53.3607 27.553C53.3052 27.6445 53.2263 27.7159 53.134 27.758C53.0417 27.8002 52.9401 27.8112 52.8421 27.7897C52.7441 27.7682 52.6541 27.7152 52.5835 27.6374C52.5129 27.5595 52.4647 27.4603 52.4453 27.3523C52.4258 27.2443 52.4358 27.1324 52.474 27.0307C52.5122 26.9289 52.577 26.842 52.66 26.7808C52.7431 26.7197 52.8408 26.687 52.9407 26.687C53.0746 26.687 53.2031 26.7457 53.2979 26.8501C53.3926 26.9545 53.4458 27.0961 53.4458 27.2437Z" fill="#263238"/>
<path d="M52.2225 31.8306H52.1887C52.173 31.8274 52.1582 31.8207 52.1449 31.8111C52.1316 31.8015 52.1202 31.789 52.1113 31.7745C52.1025 31.76 52.0963 31.7437 52.0932 31.7265C52.09 31.7093 52.09 31.6916 52.0932 31.6745L52.318 30.388C52.3241 30.3533 52.3425 30.3227 52.3691 30.303C52.3957 30.2833 52.4282 30.276 52.4597 30.2827C52.4911 30.2895 52.5189 30.3097 52.5368 30.339C52.5547 30.3683 52.5613 30.4042 52.5552 30.4389L52.3303 31.7254C52.3247 31.7532 52.3112 31.7783 52.2918 31.7972C52.2725 31.8161 52.2482 31.8278 52.2225 31.8306Z" fill="#263238"/>
<path d="M52.9454 28.8792C52.3294 28.6722 51.852 28.7061 51.7349 28.9607C51.5471 29.3884 51.8273 30.013 52.0214 30.2608C52.1298 30.3665 52.257 30.4462 52.3948 30.4947C52.5327 30.5432 52.6783 30.5595 52.8222 30.5425C53.1703 30.5018 53.7277 30.254 53.8325 29.8636C53.9372 29.4733 53.6076 29.1033 52.9454 28.8792Z" fill="#263238"/>
<path d="M51.9727 28.9322C51.891 28.9862 51.8302 29.0713 51.8018 29.1715C51.7735 29.2716 51.7794 29.3798 51.8187 29.4754C51.8895 29.6145 52.0127 29.0952 52.3485 29.0952C52.7308 29.1388 53.0993 29.2769 53.4265 29.4991C53.6359 29.6485 53.6421 29.3769 53.2263 29.1597C52.7181 28.861 52.2376 28.7795 51.9727 28.9322Z" fill="#37474F"/>
<path d="M52.965 31.9505C52.8911 31.9505 52.8202 31.9505 52.7463 31.9505C52.5283 31.9474 52.3129 31.897 52.1126 31.802C51.9123 31.7071 51.731 31.5695 51.579 31.3972C51.5594 31.3693 51.5506 31.3339 51.5547 31.2989C51.5587 31.2639 51.5752 31.2321 51.6005 31.2105C51.6259 31.1889 51.6579 31.1792 51.6897 31.1837C51.7215 31.1881 51.7503 31.2063 51.7699 31.2342C52.0381 31.517 52.3937 31.6771 52.7648 31.6823C53.0049 31.718 53.249 31.6997 53.4824 31.6285C53.7159 31.5573 53.9338 31.4348 54.1231 31.2682C54.1346 31.2561 54.1482 31.2467 54.163 31.2405C54.1779 31.2342 54.1937 31.2312 54.2095 31.2317C54.2254 31.2322 54.241 31.2361 54.2555 31.2432C54.27 31.2504 54.2831 31.2606 54.2941 31.2733C54.305 31.286 54.3135 31.3009 54.3192 31.3173C54.3249 31.3336 54.3276 31.351 54.3271 31.3685C54.3267 31.386 54.3232 31.4032 54.3167 31.4192C54.3102 31.4352 54.301 31.4496 54.2894 31.4617C53.9183 31.8001 53.4462 31.9744 52.965 31.9505Z" fill="#263238"/>
<path d="M59.1135 25.6498C59.7911 25.7346 61.1402 26.0877 61.556 26.7971C61.9718 27.5066 63.2901 29.8759 62.9297 32.0993C62.8153 32.9151 62.4324 33.6559 61.8542 34.1806C61.2759 34.7052 60.5426 34.9769 59.7942 34.9439C58.6915 34.8217 58.0139 34.265 58.5622 32.5134C59.1104 30.7619 59.5262 28.2975 59.1227 27.123C58.7593 26.0503 58.3496 25.5615 59.1135 25.6498Z" fill="#37474F"/>
<path d="M62.4089 28.5669C62.128 29.0177 61.7474 29.3822 61.3032 29.626C61.0913 29.7169 60.8906 29.8366 60.7057 29.9824C60.614 30.0568 60.5442 30.1591 60.5048 30.2767C60.4654 30.3944 60.4581 30.5222 60.4839 30.6443C60.5763 30.9396 60.8966 31.0449 61.1677 31.1297C61.4387 31.2146 61.756 31.3911 61.759 31.7034C61.759 31.9274 61.5958 32.1175 61.5804 32.3416C61.5841 32.4222 61.6028 32.5011 61.6354 32.5734C61.668 32.6456 61.7137 32.7097 61.7698 32.7617C61.8259 32.8136 61.891 32.8522 61.9613 32.8751C62.0315 32.898 62.1052 32.9048 62.1779 32.8949C62.4526 32.8407 62.6983 32.6732 62.8648 32.4264C62.8894 32.3246 62.911 32.2228 62.9295 32.1141C63.1297 30.8717 62.8063 29.5852 62.4089 28.5669Z" fill="#EFBFA5"/>
<path d="M47.8557 38.6001C46.0416 39.4759 44.3106 40.4501 43.981 41.5974C43.6514 42.7448 44.5354 43.0095 44.5354 43.0095C44.5354 43.0095 43.6299 42.962 43.6299 42.0489C43.6299 41.1358 44.3814 39.7203 47.8557 38.6001Z" fill="#37474F"/>
<path d="M49.1844 39.5712C49.3877 39.5407 49.7604 39.3879 49.8004 39.1164C49.822 38.9297 49.6741 38.8923 49.5324 38.8957C49.3353 38.9025 49.1454 38.9786 48.9904 39.113C48.747 39.3404 48.8918 39.6153 49.1844 39.5712Z" fill="#37474F"/>
<path d="M49.5062 40.2492C49.7125 40.2492 50.1037 40.1847 50.1776 39.9098C50.2269 39.7299 50.0914 39.6654 49.9497 39.6382C49.7554 39.6043 49.5564 39.6413 49.383 39.7435C49.1088 39.9302 49.2136 40.2289 49.5062 40.2492Z" fill="#37474F"/>
<path d="M48.2621 39.2331C48.4531 39.2331 48.8073 39.121 48.8566 38.8766C48.8935 38.7069 48.7611 38.656 48.6317 38.6458C48.4493 38.6302 48.2674 38.6815 48.1143 38.7918C47.8771 38.9717 47.9911 39.2331 48.2621 39.2331Z" fill="#37474F"/>
<path d="M48.4379 39.7036C48.2223 39.4796 47.9082 39.2793 46.9595 39.578C46.0109 39.8767 45.6813 40.3588 45.9092 40.5794C46.2449 40.8985 46.7963 40.3995 46.67 41.1429C46.5991 41.5638 47.1043 41.8761 47.9636 41.1429C48.8229 40.4097 48.6751 39.948 48.4379 39.7036Z" fill="#37474F"/>
<path d="M46.6459 37.7448C46.8492 37.7177 47.2218 37.5649 47.2619 37.29C47.2834 37.1067 47.1356 37.0693 46.9939 37.0693C46.7968 37.0761 46.6069 37.1523 46.4518 37.2866C46.2177 37.514 46.3625 37.7856 46.6459 37.7448Z" fill="#37474F"/>
<path d="M46.9782 38.4138C47.1845 38.4138 47.5726 38.3493 47.6496 38.0743C47.6989 37.8978 47.5634 37.8299 47.4217 37.8062C47.2264 37.7732 47.0267 37.8101 46.8519 37.9114C46.5839 38.0981 46.6855 38.3968 46.9782 38.4138Z" fill="#37474F"/>
<path d="M45.7208 37.4002C45.9118 37.4002 46.266 37.2916 46.3153 37.0608C46.3523 36.891 46.2198 36.8435 46.0905 36.8299C45.9082 36.8158 45.7267 36.867 45.573 36.9759C45.3512 37.1422 45.4621 37.407 45.7208 37.4002Z" fill="#37474F"/>
<path d="M45.9096 37.8712C45.694 37.6506 45.3799 37.4469 44.4312 37.7456C43.4825 38.0444 43.153 38.5298 43.3809 38.764C43.7166 39.0831 44.268 38.5841 44.1417 39.3275C44.0708 39.7518 44.576 40.0607 45.4353 39.3275C46.2946 38.5943 46.1437 38.1156 45.9096 37.8712Z" fill="#37474F"/>
<path d="M41.9453 47.1348C41.9164 47.1903 41.8739 47.2356 41.8227 47.2657C41.7715 47.2957 41.7136 47.3092 41.6557 47.3045C39.6445 47.1314 36.9494 45.2678 35.8652 42.688C34.7533 40.0267 35.6496 36.9174 36.0469 36.8767C36.4443 36.8359 35.6435 38.6214 36.0993 40.8652C36.5182 42.929 38.2553 45.4919 41.7112 46.1198C41.7669 46.1288 41.8193 46.1544 41.8628 46.1939C41.9062 46.2334 41.939 46.2853 41.9576 46.3439C42.0473 46.5992 42.0429 46.883 41.9453 47.1348Z" fill="#37474F"/>
<path opacity="0.1" d="M59.6364 41.7813C59.3284 41.7168 59.159 41.8831 58.8325 42.1581C58.5061 42.433 58.1118 42.7657 57.8315 43.0203C56.8536 43.9177 55.6629 44.4878 54.4003 44.6632C53.8536 44.7592 53.2988 44.7877 52.7464 44.7481C52.6237 44.7486 52.5025 44.7184 52.392 44.6595C52.2815 44.6007 52.1846 44.5149 52.1088 44.4086C52.0617 44.2835 52.0398 44.1486 52.0446 44.0132C52.0493 43.8778 52.0807 43.7452 52.1365 43.6245C52.3158 43.1243 52.4579 42.6089 52.5616 42.0834C52.6293 41.6319 52.6694 40.6883 52.2936 40.3658C52.2163 40.3123 52.1257 40.2868 52.0345 40.2929C51.9434 40.299 51.8563 40.3363 51.7854 40.3997C51.6049 40.5854 51.4475 40.7966 51.3172 41.0277C50.8668 41.6551 50.4552 42.3151 50.0852 43.0033C49.9161 42.5105 49.6221 42.0816 49.2382 41.7677C50.3686 40.8512 50.2977 40.2945 50.2977 40.2945C49.6817 41.2857 48.2464 41.7474 48.2464 41.7474C48.638 41.9584 48.9706 42.2821 49.2091 42.6842C49.4477 43.0863 49.5833 43.5519 49.6016 44.0318C49.4123 44.5002 49.1734 44.9422 48.8901 45.3489C48.3385 46.0463 47.6219 46.561 46.8203 46.8357C46.2567 47.0461 43.5154 47.3347 41.0391 47.5621C41.5042 48.3938 42.2926 49.2594 43.5524 50.0706C49.2382 53.7808 56.6734 49.816 58.9958 43.8757C59.2646 43.1937 59.4859 42.4901 59.658 41.7711L59.6364 41.7813Z" fill="black"/>
<path d="M38.4032 55.9734C40.0233 55.7018 41.6341 55.342 43.2296 54.9211C47.0643 53.9027 50.9944 52.5687 54.5026 50.5591C55.6003 49.9368 56.6446 49.2063 57.6227 48.3765C58.1077 48.0068 58.5361 47.5541 58.8917 47.0357C59.2413 46.481 59.5424 45.8911 59.7911 45.2739C60.1095 44.4877 60.25 43.6281 60.2007 42.7688C60.1792 42.5074 60.0898 42.1951 59.8558 42.1476C59.5477 42.0865 59.3568 42.5346 59.1812 42.7416C58.9409 43.0388 58.6837 43.3188 58.4112 43.5801C57.4313 44.4739 56.2416 45.0436 54.98 45.223C54.4333 45.319 53.8785 45.3475 53.326 45.3079C53.2034 45.3082 53.0823 45.2778 52.9718 45.219C52.8614 45.1602 52.7645 45.0745 52.6885 44.9684C52.6414 44.8433 52.6195 44.7084 52.6242 44.573C52.629 44.4376 52.6604 44.305 52.7162 44.1843C52.8958 43.6843 53.038 43.1688 53.1412 42.6432C53.209 42.1951 53.249 41.2481 52.8733 40.929C52.7959 40.8755 52.7054 40.85 52.6142 40.8561C52.5231 40.8621 52.436 40.8995 52.3651 40.9629C52.183 41.147 52.0254 41.3584 51.8969 41.5909C51.3996 42.2671 50.9516 42.9856 50.5571 43.7396C50.1967 44.4694 49.9411 45.2671 49.4575 45.9121C48.9065 46.6096 48.1896 47.1234 47.3877 47.3955C46.4637 47.7349 39.5797 48.3052 37.7656 48.4512L33.4011 38.2134C33.4011 38.2134 31.0942 30.2975 27.2842 29.5337C25.2944 30.7761 24.7123 31.8555 24.4197 34.286C24.1271 36.7164 24.9803 38.7769 25.9597 42.0594C26.9392 45.3418 31.5778 53.1967 32.8868 54.7615C34.1958 56.3264 34.8888 56.3264 37.1065 56.1634C37.5407 56.1125 37.972 56.0446 38.4032 55.9734Z" fill="#F1B7B6"/>
<path d="M95.5718 93.2014L70.2322 77.0776L44.8926 93.2014L70.2322 109.325L95.5718 93.2014Z" fill="#EFBFA5"/>
<path opacity="0.4" d="M95.5718 93.2014L70.2322 77.0776L44.8926 93.2014L70.2322 109.325L95.5718 93.2014Z" fill="white"/>
<path opacity="0.1" d="M95.5718 93.2014L70.2322 77.0776L44.8926 93.2014L70.2322 109.325L95.5718 93.2014Z" fill="black"/>
<path opacity="0.1" d="M70.2322 100.53V77.0776L44.8926 93.2015V116.654L70.2322 100.53Z" fill="black"/>
<path opacity="0.2" d="M70.2322 100.533L44.8926 116.657L70.2322 132.781L95.5718 116.657L70.2322 100.533Z" fill="black"/>
<path d="M83.1185 47.134C81.9696 46.7437 81.3536 46.9677 80.3464 47.908C79.3392 48.8483 79.0774 49.0859 78.985 50.2468C78.8926 51.4077 79.2037 53.8721 80.3433 53.4851C81.4829 53.0982 83.1185 47.134 83.1185 47.134Z" fill="#EFBFA5"/>
<path d="M69.7457 83.292C69.5332 85.9329 71.3073 91.802 71.1348 93.265C70.9623 94.728 69.9675 97.2433 69.2652 98.462C68.6492 99.5414 68.4737 100.04 69.2652 102.24C70.0568 104.44 71.5599 107.671 71.8987 108.33C72.2375 108.988 73.3032 108.605 74.3627 108.146C75.4223 107.688 76.8268 106.738 75.9767 105.631C75.5824 105.115 73.2755 105.971 73.2755 105.971C73.2755 105.971 72.1266 102.237 72.3206 100.977C72.5147 99.7179 75.4993 96.9616 77.0639 94.3478C78.6286 91.7341 76.528 84.0829 76.528 84.0829L69.7457 83.292Z" fill="#EFBFA5"/>
<path opacity="0.55" d="M69.7457 83.292C69.5332 85.9329 71.3073 91.802 71.1348 93.265C70.9623 94.728 69.9675 97.2433 69.2652 98.462C68.6492 99.5414 68.4737 100.04 69.2652 102.24C70.0568 104.44 71.5599 107.671 71.8987 108.33C72.2375 108.988 73.3032 108.605 74.3627 108.146C75.4223 107.688 76.8268 106.738 75.9767 105.631C75.5824 105.115 73.2755 105.971 73.2755 105.971C73.2755 105.971 72.1266 102.237 72.3206 100.977C72.5147 99.7179 75.4993 96.9616 77.0639 94.3478C78.6286 91.7341 76.528 84.0829 76.528 84.0829L69.7457 83.292Z" fill="black"/>
<path d="M88.1614 64.5275C88.109 64.2865 88.0505 64.0557 87.9889 63.8486C88.3585 65.349 86.9817 69.4937 84.4191 72.6743C81.8565 75.8549 82.9746 78.3091 83.646 81.7138C83.2425 79.375 83.3688 78.6147 83.9756 76.6968C85.1953 72.8542 89.1716 72.6743 88.1614 64.5275Z" fill="#EFBFA5"/>
<path d="M97.0747 58.5452C95.3961 57.4794 94.3026 58.1413 92.9166 59.7333C91.9115 60.959 90.7604 62.0289 89.4947 62.9139C89.3037 61.5052 89.045 60.1644 89.0049 59.4991C88.9249 58.2228 88.9772 56.8786 89.7472 55.8908C90.5173 54.903 90.8437 54.3225 91.7678 53.5689C92.1086 53.301 92.4253 52.9975 92.7133 52.6626C92.9875 52.3231 93.508 51.5254 93.2585 51.057C92.7788 51.4754 92.1787 51.6898 91.5676 51.6612C91.3186 51.6308 91.0814 51.5277 90.8807 51.3625C90.8642 51.3529 90.8502 51.3388 90.84 51.3216C90.8297 51.3044 90.8236 51.2846 90.8222 51.2641C90.8222 51.2132 90.8745 51.186 90.9177 51.169C91.0712 51.12 91.2276 51.0826 91.3858 51.057C91.8647 50.9729 92.3187 50.7647 92.7102 50.4494C92.9854 50.2109 93.1876 49.8851 93.2893 49.5159C93.3663 49.2172 93.3047 49.1765 93.2893 48.8777C93.2712 48.6391 93.2214 48.4046 93.1415 48.1819C92.9135 47.581 92.4392 47.4215 91.931 47.1635C90.776 46.5423 90.3756 47.2314 88.7247 47.4215C87.4926 47.5641 84.6313 46.0128 82.4198 47.5505C80.0112 49.224 79.8541 51.9633 79.3952 54.6586C79.2936 55.2566 79.1484 55.8446 78.9609 56.4169C78.2432 58.1854 77.4424 58.5385 76.4198 62.1875C74.9075 67.5372 75.2679 70.4565 72.6221 74.5095C70.2412 78.1654 69.6067 80.959 69.6006 82.9516C69.6006 86.3461 70.1427 87.2558 72.6498 89.6387C74.4609 91.3563 75.3233 91.6483 77.0913 94.3741C77.6642 95.2532 77.7073 98.7292 77.2822 100.294C76.8572 101.859 76.4783 102.64 76.9034 103.868C77.3284 105.097 79.3336 110.223 80.0635 111.472C80.7935 112.721 81.6036 112.402 84.0307 111.598C86.4146 110.814 85.2812 109.16 84.428 109.266C83.7017 109.38 82.9819 109.54 82.2719 109.744C82.2719 109.744 80.5286 105.226 80.5317 104.116C80.5348 103.006 82.6046 98.3897 84.2463 95.9525C85.8879 93.5152 85.2565 89.6387 84.2463 84.7099C83.236 79.7812 83.1867 79.2788 83.9968 76.7261C84.7668 74.3025 86.6333 73.3316 87.6528 70.908C88.9187 70.297 90.1168 69.7029 90.5881 68.9799C91.5491 67.5135 93.5388 63.8542 94.3673 62.6186C95.4854 60.9485 96.2585 59.9811 97.4474 60.4495C98.5346 60.8806 98.6794 60.5853 98.6794 60.5853C98.8026 59.9098 98.0541 59.1698 97.0747 58.5452Z" fill="#EFBFA5"/>
<path opacity="0.4" d="M97.0747 58.5452C95.3961 57.4794 94.3026 58.1413 92.9166 59.7333C91.9115 60.959 90.7604 62.0289 89.4947 62.9139C89.3037 61.5052 89.045 60.1644 89.0049 59.4991C88.9249 58.2228 88.9772 56.8786 89.7472 55.8908C90.5173 54.903 90.8437 54.3225 91.7678 53.5689C92.1086 53.301 92.4253 52.9975 92.7133 52.6626C92.9875 52.3231 93.508 51.5254 93.2585 51.057C92.7788 51.4754 92.1787 51.6898 91.5676 51.6612C91.3186 51.6308 91.0814 51.5277 90.8807 51.3625C90.8642 51.3529 90.8502 51.3388 90.84 51.3216C90.8297 51.3044 90.8236 51.2846 90.8222 51.2641C90.8222 51.2132 90.8745 51.186 90.9177 51.169C91.0712 51.12 91.2276 51.0826 91.3858 51.057C91.8647 50.9729 92.3187 50.7647 92.7102 50.4494C92.9854 50.2109 93.1876 49.8851 93.2893 49.5159C93.3663 49.2172 93.3047 49.1765 93.2893 48.8777C93.2712 48.6391 93.2214 48.4046 93.1415 48.1819C92.9135 47.581 92.4392 47.4215 91.931 47.1635C90.776 46.5423 90.3756 47.2314 88.7247 47.4215C87.4926 47.5641 84.6313 46.0128 82.4198 47.5505C80.0112 49.224 79.8541 51.9633 79.3952 54.6586C79.2936 55.2566 79.1484 55.8446 78.9609 56.4169C78.2432 58.1854 77.4424 58.5385 76.4198 62.1875C74.9075 67.5372 75.2679 70.4565 72.6221 74.5095C70.2412 78.1654 69.6067 80.959 69.6006 82.9516C69.6006 86.3461 70.1427 87.2558 72.6498 89.6387C74.4609 91.3563 75.3233 91.6483 77.0913 94.3741C77.6642 95.2532 77.7073 98.7292 77.2822 100.294C76.8572 101.859 76.4783 102.64 76.9034 103.868C77.3284 105.097 79.3336 110.223 80.0635 111.472C80.7935 112.721 81.6036 112.402 84.0307 111.598C86.4146 110.814 85.2812 109.16 84.428 109.266C83.7017 109.38 82.9819 109.54 82.2719 109.744C82.2719 109.744 80.5286 105.226 80.5317 104.116C80.5348 103.006 82.6046 98.3897 84.2463 95.9525C85.8879 93.5152 85.2565 89.6387 84.2463 84.7099C83.236 79.7812 83.1867 79.2788 83.9968 76.7261C84.7668 74.3025 86.6333 73.3316 87.6528 70.908C88.9187 70.297 90.1168 69.7029 90.5881 68.9799C91.5491 67.5135 93.5388 63.8542 94.3673 62.6186C95.4854 60.9485 96.2585 59.9811 97.4474 60.4495C98.5346 60.8806 98.6794 60.5853 98.6794 60.5853C98.8026 59.9098 98.0541 59.1698 97.0747 58.5452Z" fill="black"/>
<path d="M83.9743 76.6947C83.3582 78.6126 83.2412 79.373 83.6447 81.7118C82.9886 78.4225 81.9199 76.0464 84.1837 72.9913C84.9291 72.1665 86.3182 71.5215 87.6303 70.8901C86.6108 73.3036 84.7443 74.2744 83.9743 76.6947Z" fill="#FAFAFA"/>
<path d="M70.799 83.2705C69.9612 84.3669 68.8247 84.5333 65.7754 86.6141C63.0033 88.5116 62.3042 92.2998 63.5239 94.6964C64.568 96.7534 65.7415 98.3251 65.9294 99.7541C66.2374 102.083 65.2056 103.064 65.2056 103.064C65.2056 103.064 67.2353 102.286 67.6019 100.65C67.6019 100.65 67.9992 102.646 66.3206 104.697C66.3206 104.697 70.2107 105.678 71.0084 101.142C71.6244 97.6563 70.6819 95.6298 68.7353 93.7221C67.2384 92.2557 66.5793 89.7675 68.8216 87.8361C71.4827 85.555 71.7692 84.3669 71.7692 84.3669C71.7692 84.3669 71.954 83.2875 70.799 83.2705Z" fill="#EFBFA5"/>
<path d="M92.9204 50.2492C93.4077 50.2575 93.8751 50.4643 94.2325 50.8296C94.4789 51.0944 95.2674 52.6898 94.8023 53.2397C94.3372 53.7896 93.1544 53.4162 92.9234 52.2214C92.9234 52.2214 91.1555 52.4556 90.5672 51.6816C89.9789 50.9077 90.8136 50.5683 91.6021 50.4562L92.9204 50.2492Z" fill="#F28F8F"/>
<path d="M93.2597 51.0583C93.2597 51.0583 92.5729 51.7032 92.7238 52.2022C92.847 52.2022 92.924 52.2022 92.924 52.2022C92.9823 52.5283 93.1283 52.8276 93.3429 53.061C93.569 53.2701 93.8581 53.378 94.153 53.3631C94.769 53.3054 94.461 52.7555 94.2885 52.1208C94.116 51.486 93.5832 50.9259 93.2597 51.0583Z" fill="#874C4C"/>
<path d="M93.2579 51.057C93.5074 51.5254 92.9838 52.3401 92.7158 52.6626C92.4261 52.9978 92.1085 53.3024 91.7672 53.5723C90.8432 54.3191 90.5074 54.9301 89.7467 55.8941C88.9859 56.8582 88.9274 58.2228 89.0044 59.4991C89.0444 60.178 89.3124 61.5052 89.4972 62.9139C89.3986 62.9784 89.297 63.0429 89.1892 63.1006C88.7614 61.6226 88.2162 60.1891 87.5598 58.8168C86.9438 57.5269 86.3955 56.3354 87.1348 54.2648C87.646 52.8289 87.5105 51.8886 89.6974 51.0366C91.6532 50.2831 90.7138 48.9287 90.1224 48.5417C89.531 48.1547 89.106 47.6048 89.374 47.2891C90.3195 46.9497 91.0434 46.6611 91.838 47.0956C92.3462 47.3706 92.8821 47.581 93.1101 48.1785C93.1897 48.4025 93.2395 48.638 93.2579 48.8777C93.2856 49.1798 93.3472 49.2172 93.2733 49.5159C93.1685 49.8843 92.9657 50.2095 92.6912 50.4494C92.3001 50.765 91.8458 50.9722 91.3668 51.0536C91.2097 51.0909 91.0588 51.1147 90.8986 51.169C90.8555 51.186 90.8093 51.2131 90.8062 51.2641C90.8031 51.315 90.8339 51.3387 90.8616 51.3659C91.0683 51.512 91.3091 51.5886 91.5546 51.5865C92.1618 51.6422 92.7667 51.4541 93.2579 51.057Z" fill="#FAFAFA"/>
<path d="M91.6328 47.5589H91.6174C91.5557 47.4829 91.4877 47.4136 91.4141 47.3518C91.3056 47.3045 91.1932 47.2693 91.0784 47.2466C90.9952 47.216 90.8905 47.1244 90.912 47.009C90.912 46.9445 90.9736 46.9139 91.026 46.8834C91.1914 46.7579 91.3795 46.6734 91.5773 46.6356C91.8183 46.6261 92.0576 46.6833 92.2734 46.8019C92.8894 47.1074 93.1636 47.2941 93.296 47.5249C93.4284 47.7558 93.2098 48.5433 93.2098 48.5433C93.2086 48.4237 93.1789 48.3066 93.1235 48.2038C92.9634 47.7965 92.4644 47.8067 92.1317 47.7693C91.9507 47.7528 91.7776 47.6798 91.6328 47.5589Z" fill="#263238"/>
<path opacity="0.1" d="M89.0054 59.5014C88.9253 58.2251 88.9776 56.8809 89.7476 55.8931C90.5177 54.9053 90.8441 54.3248 91.7682 53.5713C91.8914 53.4728 92.0115 53.3676 92.1285 53.2624C90.5269 54.4912 89.2394 53.8632 88.3678 54.688C87.4961 55.5129 88.0875 57.5632 88.6758 58.5578C88.8073 58.8626 88.9175 59.1781 89.0054 59.5014Z" fill="black"/>
<path d="M85.0725 51.1095C85.439 50.5461 87.0807 49.2222 87.8137 48.8997C88.5468 48.5773 89.8589 50.468 89.8558 52.0159C89.8527 53.5638 88.8794 56.5577 87.7983 56.4762C86.7172 56.3948 85.6238 51.965 85.1187 52.4877C84.6136 53.0105 84.4041 52.1313 85.0725 51.1095Z" fill="#EFBFA5"/>
<path d="M70.2334 132.778L95.573 116.654V93.2017L70.2334 109.325V132.778Z" fill="#EFBFA5"/>
<path opacity="0.6" d="M70.2334 132.778L95.573 116.654V93.2017L70.2334 109.325V132.778Z" fill="white"/>
<path opacity="0.1" d="M70.2334 109.325L74.8227 119.567L95.573 106.393V93.2017L70.2334 109.325Z" fill="black"/>
<path d="M70.2322 132.778L44.8926 116.654V93.2017L70.2322 109.325V132.778Z" fill="#EFBFA5"/>
<path opacity="0.4" d="M70.2322 132.778L44.8926 116.654V93.2017L70.2322 109.325V132.778Z" fill="white"/>
<path opacity="0.1" d="M70.2322 109.325L65.646 119.567L44.8926 106.393V93.2017L70.2322 109.325Z" fill="black"/>
<path opacity="0.1" d="M46.6191 111.489V114.225C46.6426 114.695 46.7665 115.152 46.9805 115.56C47.1946 115.968 47.4929 116.314 47.8512 116.57L53.4569 120.138C54.1376 120.569 54.6889 120.219 54.6889 119.357V116.618C54.6652 116.148 54.5412 115.691 54.3271 115.284C54.1131 114.877 53.8149 114.532 53.4569 114.276L47.8512 110.708C47.1705 110.277 46.6191 110.627 46.6191 111.489Z" fill="black"/>
<path d="M44.8924 93.2017L39.1357 101.264L64.4938 117.37L70.232 109.325L44.8924 93.2017Z" fill="#EFBFA5"/>
<path opacity="0.6" d="M44.8924 93.2017L39.1357 101.264L64.4938 117.37L70.232 109.325L44.8924 93.2017Z" fill="white"/>
<path d="M95.573 93.2017L101.333 101.264L75.9746 117.37L70.2334 109.325L95.573 93.2017Z" fill="#EFBFA5"/>
<path opacity="0.4" d="M95.573 93.2017L101.333 101.264L75.9746 117.37L70.2334 109.325L95.573 93.2017Z" fill="white"/>
<path d="M58.0761 94.6136C58.6059 96.3108 61.1192 97.0813 62.8163 100.36C63.5372 101.788 63.7865 103.447 63.5216 105.055L48.7096 95.6285L47.6963 93.0996L58.0761 94.6136Z" fill="#F0F0F0"/>
<path d="M43.1151 98.5783C43.1428 97.801 43.5679 96.7589 44.1192 95.9001C45.0071 94.5673 46.261 93.5853 47.6951 93.0996L51.1294 95.4757C47.4611 95.34 46.2013 97.4683 45.8594 98.6564C45.6253 99.4745 45.4282 100.109 44.9939 100.109C44.8829 100.118 44.7729 100.081 44.6856 100.005C44.5983 99.9291 44.5401 99.8196 44.5227 99.6985C44.4664 99.7704 44.3921 99.8223 44.3091 99.8478C44.2262 99.8733 44.1382 99.8713 44.0563 99.8419C43.9744 99.8125 43.9022 99.7572 43.8487 99.6827C43.7952 99.6083 43.7629 99.5181 43.7557 99.4235C43.6803 99.4665 43.5942 99.4809 43.5106 99.4643C43.427 99.4477 43.3508 99.4012 43.2937 99.3319C43.2177 99.2271 43.1625 99.1059 43.1317 98.976C43.1009 98.8462 43.0953 98.7107 43.1151 98.5783Z" fill="#F0F0F0"/>
<path d="M43.293 99.3221C43.3285 99.3355 43.3662 99.3407 43.4037 99.3373C43.4411 99.3338 43.4775 99.3218 43.5105 99.302C43.5436 99.2822 43.5725 99.2551 43.5955 99.2223C43.6185 99.1895 43.635 99.1518 43.6441 99.1116C43.6954 98.9279 43.7678 98.7522 43.8597 98.5889C43.786 98.8583 43.7527 99.1392 43.7611 99.4205C43.6844 99.4644 43.5965 99.4786 43.5116 99.4607C43.4266 99.4429 43.3496 99.394 43.293 99.3221Z" fill="#FCF4EF"/>
<path d="M44.0186 99.8084C44.1101 99.7984 44.1962 99.7559 44.2639 99.6873C44.3317 99.6188 44.3774 99.5279 44.3943 99.4282C44.4223 99.2465 44.4923 99.0758 44.5976 98.9326C44.5347 99.1763 44.5097 99.4299 44.5237 99.6828C44.4592 99.7547 44.3773 99.8047 44.2878 99.827C44.1983 99.8493 44.1048 99.8428 44.0186 99.8084Z" fill="#FCF4EF"/>
<path d="M49.7237 101.907C49.8595 100.892 50.2144 99.9284 50.7586 99.0963C51.5086 97.8733 52.5197 96.872 53.7031 96.1805V95.1621C53.7031 95.1621 57.9936 96.1295 58.0737 99.266C54.3376 98.8859 52.9331 100.963 52.5296 102.168C52.2463 102.99 52.0091 103.621 51.5656 103.594C51.452 103.596 51.3418 103.552 51.2568 103.469C51.1718 103.386 51.1182 103.27 51.1066 103.146C51.0443 103.214 50.9651 103.261 50.8789 103.28C50.7928 103.3 50.7033 103.291 50.6217 103.255C50.54 103.219 50.4698 103.157 50.4197 103.077C50.3696 102.998 50.3418 102.903 50.3397 102.806C50.2602 102.845 50.1715 102.854 50.0871 102.832C50.0027 102.809 49.927 102.758 49.8715 102.684C49.7991 102.573 49.7485 102.447 49.723 102.313C49.6976 102.179 49.6978 102.041 49.7237 101.907Z" fill="#F0F0F0"/>
<path d="M49.8691 102.675C49.9048 102.691 49.9431 102.699 49.9816 102.698C50.0202 102.697 50.0581 102.687 50.0931 102.669C50.1281 102.651 50.1593 102.626 50.1849 102.594C50.2105 102.562 50.2299 102.525 50.2418 102.485C50.3036 102.3 50.3864 102.124 50.4882 101.962C50.3973 102.233 50.3483 102.518 50.3435 102.807C50.2622 102.846 50.1716 102.854 50.0858 102.83C50 102.806 49.9238 102.752 49.8691 102.675Z" fill="#FCF4EF"/>
<path d="M50.584 103.226C50.6772 103.222 50.7667 103.185 50.839 103.12C50.9113 103.055 50.9623 102.966 50.9844 102.866C51.0234 102.681 51.1051 102.51 51.2216 102.37C51.1437 102.616 51.1041 102.874 51.1045 103.134C51.0351 103.203 50.949 103.248 50.8566 103.265C50.7642 103.281 50.6695 103.267 50.584 103.226Z" fill="#FCF4EF"/>
<path d="M47.7026 93.0996C47.4808 93.1811 47.2559 93.2761 47.0342 93.3814C48.2199 94.6898 49.6641 95.6785 51.2539 96.2701C52.8678 96.8675 55.2764 97.2171 57.414 96.3651C57.8638 96.1845 58.2696 95.8918 58.5998 95.5097C58.4112 95.2859 58.2563 95.0304 58.1409 94.7527" fill="#FCF4EF"/>
<path d="M52.523 84.9511C51.984 83.4813 49.9635 81.7433 48.4142 82.4324C47.5425 82.8194 48.1585 86.4243 48.1585 86.4243C48.1585 86.4243 51.0784 86.4209 52.523 84.9511Z" fill="#FCF4EF"/>
<path d="M51.223 85.8029C50.2338 86.1932 49.1934 86.403 48.1429 86.4241C48.1429 86.4241 47.5269 82.8191 48.3986 82.4322C48.9869 82.2862 50.4622 83.1416 51.223 85.8029Z" fill="#FFA8A7"/>
<path d="M49.2523 84.6269C49.2921 84.3071 49.2242 83.9822 49.0613 83.7138C49.5942 83.6663 50.3365 84.2128 50.4689 85.187C50.4689 85.187 49.6743 86.8198 48.5008 86.1477C48.3796 85.9036 48.2212 85.6842 48.0326 85.4993C48.0049 85.2481 47.9802 84.9664 47.9648 84.6778C48.3864 84.565 48.8245 84.5476 49.2523 84.6269Z" fill="#F28F8F"/>
<path d="M56.498 86.2465C57.69 85.364 60.2465 85.1773 61.1797 86.7082C61.7033 87.567 58.9683 90.493 58.9683 90.493C58.9683 90.493 56.9385 88.3545 56.498 86.2465Z" fill="#FCF4EF"/>
<path d="M57.1348 87.7601C58.0003 89.1552 58.9674 90.496 58.9674 90.496C58.9674 90.496 61.7025 87.57 61.1789 86.7112C60.7785 86.2326 59.1245 86.0289 57.1348 87.7601Z" fill="#FFA8A7"/>
<path d="M58.8554 89.7845C58.9922 89.6668 59.1464 89.5761 59.3112 89.5163C59.4745 89.3262 59.6593 89.0988 59.8471 88.8578C59.5565 88.5025 59.2034 88.2161 58.8092 88.016C58.9376 87.728 59.1565 87.5012 59.4252 87.3778C59.0032 87.0078 58.0484 87.0961 57.5771 87.8259C57.5786 88.1996 57.6488 88.5691 57.7835 88.9121C57.9899 89.1803 58.1808 89.4145 58.341 89.591C58.498 89.6952 58.6734 89.7612 58.8554 89.7845Z" fill="#F28F8F"/>
<path d="M51.4336 95.6395C52.872 96.1724 55.0188 96.4847 56.9223 95.7244C59.1892 94.818 59.3155 91.1995 58.7703 89.56C58.2251 87.9204 57.0886 86.2639 54.4983 85.3067C51.9079 84.3494 50.1061 84.9163 48.7786 85.8634C47.4511 86.8104 45.5969 89.7874 46.9306 92.021C48.024 93.8981 49.9921 95.11 51.4336 95.6395Z" fill="#F5F5F5"/>
<path d="M51.4455 95.2606C48.5718 94.1981 48.7258 92.2361 49.4527 91.4282C50.1796 90.6203 51.3808 90.4099 52.7545 90.9054C54.1282 91.401 54.969 92.3922 55.1138 93.5226C55.2586 94.653 54.3161 96.323 51.4455 95.2606Z" fill="#FCF4EF"/>
<path d="M52.249 92.5891L52.9235 92.4771C52.9491 92.4713 52.9718 92.4553 52.9871 92.432C53.0025 92.4088 53.0095 92.3801 53.0067 92.3515C53.0056 92.3379 53.0019 92.3247 52.9959 92.3127C52.99 92.3007 52.9818 92.2902 52.9719 92.2819C52.9621 92.2736 52.9508 92.2677 52.9387 92.2645C52.9267 92.2613 52.9141 92.2608 52.9019 92.2632L52.3136 92.3617L51.8794 91.8966C51.871 91.8864 51.8608 91.8783 51.8494 91.8727C51.8379 91.8671 51.8256 91.8643 51.8131 91.8643C51.8007 91.8643 51.7883 91.8671 51.7769 91.8727C51.7655 91.8783 51.7553 91.8864 51.7469 91.8966C51.73 91.9177 51.7207 91.9449 51.7207 91.973C51.7207 92.0011 51.73 92.0283 51.7469 92.0494L52.249 92.5891Z" fill="#455A64"/>
<path d="M52.7352 94.192C52.8507 94.1865 52.9636 94.1517 53.0648 94.0901C53.2508 93.9787 53.3908 93.7928 53.456 93.5708C53.4642 93.5446 53.463 93.516 53.4527 93.4908C53.4424 93.4655 53.4237 93.4456 53.4005 93.435C53.376 93.4275 53.3498 93.4308 53.3275 93.444C53.3051 93.4573 53.2882 93.4796 53.2804 93.5063C53.2269 93.6759 53.1168 93.8167 52.9724 93.9001C52.9057 93.9405 52.8322 93.9653 52.7564 93.9729C52.6806 93.9805 52.6041 93.9707 52.5319 93.9442C52.4582 93.9168 52.3907 93.8723 52.3338 93.8138C52.277 93.7552 52.2322 93.684 52.2024 93.6047C52.1336 93.444 52.1248 93.26 52.1777 93.0922L52.3564 92.4981C52.3608 92.4852 52.3629 92.4714 52.3626 92.4576C52.3622 92.4438 52.3593 92.4302 52.3542 92.4176C52.3491 92.405 52.3417 92.3936 52.3326 92.3841C52.3234 92.3746 52.3127 92.3672 52.3009 92.3623C52.2764 92.3549 52.2503 92.3581 52.2279 92.3714C52.2055 92.3847 52.1886 92.407 52.1808 92.4336L52.0022 93.0277C51.934 93.2501 51.9451 93.4927 52.033 93.7066C52.0746 93.8082 52.1346 93.8995 52.2092 93.9748C52.2839 94.05 52.3717 94.1078 52.4673 94.1445C52.5531 94.1788 52.644 94.1949 52.7352 94.192Z" fill="#455A64"/>
<path d="M51.4686 93.7241C51.5844 93.7203 51.6975 93.6854 51.7982 93.6223C51.9848 93.5117 52.1251 93.3254 52.1893 93.1029L52.368 92.5089C52.3724 92.4959 52.3745 92.4822 52.3742 92.4684C52.3738 92.4545 52.3709 92.4409 52.3658 92.4283C52.3606 92.4157 52.3533 92.4043 52.3442 92.3949C52.335 92.3854 52.3243 92.378 52.3125 92.3731C52.288 92.3656 52.2619 92.3688 52.2395 92.3821C52.2171 92.3954 52.2002 92.4177 52.1924 92.4444L52.0138 93.0384C51.9603 93.2081 51.8501 93.3489 51.7058 93.4322C51.6391 93.4726 51.5655 93.4974 51.4897 93.505C51.4139 93.5126 51.3375 93.5028 51.2653 93.4763C51.1174 93.4159 50.9972 93.2935 50.9308 93.1358C50.8645 92.9781 50.8574 92.7979 50.9111 92.6345C50.916 92.6216 50.9185 92.6077 50.9183 92.5938C50.9181 92.5798 50.9154 92.566 50.9102 92.5533C50.905 92.5406 50.8974 92.5291 50.8881 92.5197C50.8787 92.5103 50.8677 92.5032 50.8557 92.4987C50.8312 92.4912 50.805 92.4944 50.7826 92.5077C50.7602 92.521 50.7434 92.5433 50.7355 92.57C50.6657 92.7861 50.6756 93.0239 50.7631 93.2321C50.8507 93.4404 51.0089 93.6024 51.2037 93.6834C51.2888 93.7156 51.3788 93.7294 51.4686 93.7241Z" fill="#455A64"/>
<path d="M49.4682 89.2848C49.4343 89.4239 49.4381 89.5709 49.4793 89.7076C49.5204 89.8443 49.5969 89.9647 49.6995 90.0539C49.802 90.1431 49.9261 90.1973 50.0563 90.2097C50.1864 90.222 50.3171 90.1921 50.432 90.1235C50.5469 90.055 50.641 89.9508 50.7027 89.8239C50.7645 89.6969 50.7911 89.5529 50.7793 89.4095C50.7676 89.266 50.7179 89.1296 50.6365 89.0169C50.5551 88.9043 50.4455 88.8204 50.3213 88.7756C50.235 88.747 50.1444 88.7375 50.0546 88.7476C49.9649 88.7577 49.8779 88.7872 49.7986 88.8346C49.7193 88.8819 49.6493 88.946 49.5926 89.0233C49.5359 89.1006 49.4936 89.1895 49.4682 89.2848Z" fill="#455A64"/>
<path d="M56.2551 91.8101C56.2059 91.943 56.1226 92.0572 56.0153 92.1386C55.9081 92.22 55.7816 92.2652 55.6514 92.2684C55.5212 92.2717 55.3929 92.233 55.2824 92.157C55.1719 92.081 55.084 91.9712 55.0294 91.8408C54.9747 91.7105 54.9559 91.5655 54.9751 91.4235C54.9943 91.2815 55.0507 91.1488 55.1373 91.0417C55.224 90.9346 55.3372 90.8577 55.463 90.8205C55.5888 90.7834 55.7217 90.7875 55.8454 90.8325C55.9309 90.8665 56.0094 90.9189 56.0763 90.9866C56.1433 91.0543 56.1974 91.136 56.2355 91.227C56.2736 91.3179 56.295 91.4163 56.2983 91.5164C56.3017 91.6165 56.287 91.7163 56.2551 91.8101Z" fill="#455A64"/>
<path d="M58.0917 92.948C58.1298 92.945 58.1652 92.9254 58.1903 92.8937C58.4897 92.478 58.8984 92.1743 59.3604 92.0242C59.8224 91.8741 60.3152 91.885 60.7713 92.0553C60.7893 92.061 60.8082 92.0626 60.8268 92.0602C60.8454 92.0579 60.8634 92.0514 60.8797 92.0413C60.896 92.0312 60.9104 92.0177 60.9219 92.0014C60.9334 91.9852 60.9419 91.9666 60.9469 91.9467C60.9538 91.9275 60.957 91.9071 60.9565 91.8865C60.956 91.866 60.9518 91.8457 60.944 91.827C60.9363 91.8083 60.9251 91.7915 60.9113 91.7777C60.8976 91.7638 60.8814 91.7532 60.8637 91.7464C59.5208 91.2542 58.5599 91.9806 57.9931 92.6765C57.9662 92.7069 57.9512 92.7477 57.9512 92.7902C57.9512 92.8327 57.9662 92.8735 57.9931 92.9039C58.0061 92.9181 58.0215 92.9292 58.0384 92.9368C58.0553 92.9444 58.0734 92.9482 58.0917 92.948Z" fill="#455A64"/>
<path d="M58.3991 93.3404C58.4255 93.3386 58.451 93.3293 58.473 93.3132C58.7364 93.1501 59.028 93.0497 59.3289 93.0187C59.6297 92.9877 59.9331 93.0268 60.2194 93.1333C60.2368 93.1409 60.2554 93.1445 60.274 93.144C60.2927 93.1434 60.311 93.1387 60.328 93.1302C60.345 93.1216 60.3602 93.1093 60.3728 93.0941C60.3853 93.0789 60.395 93.0611 60.4012 93.0417C60.4169 93.0034 60.4183 92.9598 60.405 92.9204C60.3917 92.881 60.3649 92.849 60.3303 92.8312C60.0022 92.7072 59.6539 92.6619 59.3087 92.6982C58.9634 92.7345 58.6292 92.8516 58.3283 93.0417C58.2965 93.0658 58.2741 93.1023 58.2655 93.1438C58.257 93.1853 58.2629 93.2288 58.2821 93.2657C58.2934 93.2889 58.3104 93.3081 58.331 93.3213C58.3517 93.3344 58.3753 93.3411 58.3991 93.3404Z" fill="#455A64"/>
<path d="M60.5558 94.6166C60.5768 94.6164 60.5975 94.6107 60.6162 94.6001C60.6349 94.5895 60.6511 94.5742 60.6636 94.5555C60.6878 94.5226 60.6997 94.4807 60.6968 94.4385C60.6939 94.3962 60.6765 94.3567 60.6482 94.3281C60.3037 94.0004 59.8925 93.7693 59.4495 93.6546C59.0064 93.54 58.5449 93.5451 58.104 93.6696C58.0678 93.6842 58.0376 93.7131 58.0195 93.7507C58.0013 93.7882 57.9963 93.8319 58.0055 93.8733C58.0101 93.893 58.0183 93.9116 58.0295 93.9278C58.0408 93.944 58.0548 93.9576 58.0709 93.9677C58.087 93.9778 58.1047 93.9843 58.1231 93.9867C58.1415 93.9892 58.1602 93.9875 58.178 93.9819C58.575 93.8696 58.9909 93.8656 59.3896 93.9703C59.7884 94.075 60.158 94.2852 60.4664 94.5827C60.4911 94.6063 60.5231 94.6185 60.5558 94.6166Z" fill="#455A64"/>
<path d="M47.6585 89.1322C47.696 89.124 47.7294 89.1006 47.7522 89.0668C47.775 89.0329 47.7855 88.9909 47.7817 88.9489C47.7047 88.0154 47.3289 86.7968 45.9891 86.2944C45.9527 86.2839 45.914 86.289 45.881 86.3088C45.8479 86.3286 45.8229 86.3616 45.8111 86.401C45.7994 86.4404 45.8017 86.4832 45.8175 86.5208C45.8334 86.5584 45.8618 86.5879 45.8967 86.6033C46.3524 86.7717 46.7506 87.0895 47.0379 87.5142C47.3252 87.9388 47.488 88.45 47.5045 88.9794C47.5039 89.0012 47.5075 89.0228 47.5153 89.0428C47.523 89.0628 47.5346 89.0807 47.5493 89.0953C47.5639 89.1098 47.5813 89.1207 47.6002 89.127C47.619 89.1334 47.6389 89.1352 47.6585 89.1322Z" fill="#455A64"/>
<path d="M47.2003 89.2404H47.2465C47.2823 89.2238 47.3111 89.1929 47.3271 89.1538C47.3431 89.1148 47.3451 89.0706 47.3327 89.03C47.1948 88.6784 46.9909 88.363 46.7345 88.1044C46.4781 87.8458 46.175 87.6499 45.845 87.5296C45.807 87.5188 45.7667 87.5251 45.7329 87.547C45.6991 87.569 45.6747 87.6048 45.6648 87.6467C45.655 87.6886 45.6607 87.733 45.6807 87.7702C45.7006 87.8075 45.7331 87.8345 45.7711 87.8453C46.0581 87.9509 46.322 88.1214 46.5458 88.3459C46.7696 88.5703 46.9485 88.8438 47.0709 89.1488C47.0811 89.177 47.0991 89.201 47.1223 89.2174C47.1455 89.2338 47.1727 89.2419 47.2003 89.2404Z" fill="#455A64"/>
<path d="M47.0583 89.9319C47.0879 89.9319 47.1164 89.9198 47.1384 89.898C47.1691 89.8717 47.1895 89.8334 47.1952 89.7911C47.201 89.7487 47.1916 89.7055 47.1692 89.6705C46.8862 89.2783 46.5213 88.9673 46.1057 88.764C45.69 88.5607 45.236 88.4711 44.7822 88.5028C44.7438 88.5071 44.7083 88.5275 44.6831 88.5597C44.6579 88.5919 44.6449 88.6335 44.6466 88.676C44.6462 88.6961 44.6495 88.7162 44.6563 88.735C44.6632 88.7537 44.6733 88.7707 44.6863 88.785C44.6993 88.7993 44.7147 88.8105 44.7317 88.818C44.7487 88.8255 44.7669 88.8292 44.7852 88.8287C45.1943 88.7976 45.6041 88.8761 45.9795 89.0576C46.355 89.2391 46.685 89.5181 46.9413 89.8708C46.9544 89.8912 46.9721 89.9075 46.9926 89.9182C47.0131 89.9289 47.0357 89.9336 47.0583 89.9319Z" fill="#455A64"/>
<path d="M50.5875 85.0688C50.4612 84.4306 49.913 83.6465 49.377 83.6465C49.52 83.9282 49.5649 84.2576 49.5033 84.5732C49.5033 84.5732 48.1358 84.176 47.6553 84.8787C47.893 84.9645 48.1074 85.1149 48.2785 85.316C48.4497 85.5171 48.5722 85.7624 48.6347 86.0294C49.7405 86.7966 50.5875 85.0688 50.5875 85.0688Z" fill="#F5F5F5"/>
<path d="M57.7315 87.8235C58.1935 87.4094 58.9635 87.3076 59.3886 87.6776C59.1198 87.801 58.9009 88.0278 58.7726 88.3157C58.7726 88.3157 60.0662 88.9471 60.0569 89.8364C59.8436 89.751 59.6133 89.7308 59.3904 89.778C59.1675 89.8252 58.9604 89.9381 58.791 90.1046C57.4728 89.9315 57.7315 87.8235 57.7315 87.8235Z" fill="#F5F5F5"/>
<path d="M74.7451 99.759C74.7376 99.8201 74.7193 99.8789 74.6912 99.9322C74.663 99.9855 74.6257 100.032 74.5812 100.069C74.5367 100.107 74.486 100.134 74.432 100.15C74.3779 100.166 74.3215 100.17 74.2661 100.161C74.2107 100.153 74.1573 100.133 74.109 100.102C74.0607 100.071 74.0183 100.03 73.9844 99.9807C73.9506 99.9317 73.9258 99.8758 73.9115 99.8162C73.8972 99.7566 73.8937 99.6945 73.9011 99.6334C74.0613 98.2994 73.6116 97.2946 72.6691 96.8839C72.1455 96.6775 71.5748 96.6671 71.0453 96.8543C70.5158 97.0414 70.057 97.4157 69.74 97.9192C69.2133 98.7237 69.2595 99.6572 69.3119 100.74C69.3796 102.098 69.4535 103.632 68.3324 105.126C67.7048 105.885 66.8742 106.405 65.9608 106.609L64.7842 105.862C65.8591 105.784 67.0511 105.363 67.6764 104.528C68.6004 103.316 68.5264 102.088 68.4618 100.794C68.4063 99.6402 68.3478 98.4488 69.047 97.3761C69.4761 96.7039 70.0944 96.2065 70.8061 95.961C71.5177 95.7155 72.283 95.7356 72.9833 96.0183C73.9997 96.4562 74.9946 97.6748 74.7451 99.759Z" fill="#F0F0F0"/>
<path d="M74.5375 123.798C74.6666 123.604 74.825 123.436 75.0057 123.302C75.11 123.221 75.2286 123.164 75.3538 123.136C75.395 123.124 75.4388 123.129 75.4765 123.151C75.5142 123.173 75.543 123.21 75.557 123.254C75.6125 123.417 75.671 123.594 75.7357 123.828C75.8004 124.062 75.862 124.273 75.9267 124.507C75.9913 124.741 76.056 124.975 76.1176 125.206C76.1792 125.437 76.2316 125.644 76.2778 125.821C76.2441 125.904 76.1983 125.981 76.1423 126.048C76.0769 126.127 76.0023 126.197 75.9205 126.255C75.8722 126.293 75.8193 126.322 75.7634 126.343C75.7284 126.356 75.6906 126.356 75.6556 126.343C75.6313 126.331 75.6109 126.311 75.5971 126.286C75.5756 126.242 75.558 126.197 75.5447 126.15L75.4616 125.81L74.7531 126.316C74.7347 126.442 74.7193 126.574 74.7039 126.707C74.6885 126.839 74.67 126.975 74.6515 127.1C74.6159 127.146 74.5779 127.189 74.5375 127.229C74.4937 127.277 74.4452 127.319 74.3928 127.355C74.3507 127.395 74.3018 127.426 74.2489 127.445C74.1961 127.464 74.1403 127.472 74.0848 127.467C74.017 127.447 73.9831 127.379 73.9801 127.263C73.9741 127.207 73.9741 127.15 73.9801 127.094C73.9801 127.032 73.9985 126.965 74.0078 126.883C74.017 126.802 74.0447 126.625 74.0725 126.452C74.1002 126.279 74.1279 126.092 74.1618 125.889L74.2665 125.264C74.3065 125.05 74.3404 124.846 74.3743 124.656C74.4082 124.466 74.439 124.293 74.4667 124.144C74.4944 123.994 74.5221 123.876 74.5375 123.798ZM75.0334 124.188C75.0026 124.371 74.9688 124.575 74.9287 124.802C74.8887 125.03 74.8579 125.25 74.8271 125.481L75.3106 125.142C75.2675 124.965 75.2244 124.802 75.1782 124.626C75.132 124.449 75.092 124.314 75.0581 124.181L75.0334 124.188Z" fill="#455A64"/>
<path d="M77.5064 125.164L77.3524 125.266C77.2948 125.304 77.2352 125.338 77.1738 125.368C77.1136 125.402 77.0519 125.433 76.989 125.46C76.9333 125.483 76.8755 125.5 76.8165 125.511C76.6717 125.534 76.5947 125.446 76.5886 125.253L76.4931 122.629C76.4884 122.555 76.5022 122.481 76.5331 122.415C76.5645 122.345 76.6038 122.28 76.6502 122.221C76.759 122.097 76.8776 121.983 77.0044 121.882C77.1118 121.787 77.2239 121.698 77.3401 121.617C77.5105 121.488 77.6988 121.391 77.8976 121.329C78.0417 121.28 78.1968 121.289 78.335 121.356C78.4756 121.429 78.5857 121.559 78.643 121.719C78.7261 121.95 78.7689 122.197 78.7692 122.445C78.7795 122.731 78.7578 123.017 78.7046 123.297C78.6507 123.558 78.5668 123.81 78.4551 124.048C78.3461 124.278 78.2105 124.493 78.0516 124.686C77.8882 124.869 77.7052 125.03 77.5064 125.164ZM77.2569 124.485L77.3647 124.428C77.4052 124.406 77.4443 124.381 77.4818 124.353C77.6672 124.22 77.8155 124.034 77.9099 123.813C77.9648 123.688 78.0032 123.554 78.0239 123.416C78.0508 123.257 78.0601 123.095 78.0516 122.934C78.0516 122.595 77.9777 122.381 77.8606 122.289C77.7436 122.198 77.5957 122.214 77.414 122.343L77.3031 122.428C77.2662 122.459 77.2261 122.493 77.1892 122.53L77.2569 124.485Z" fill="#455A64"/>
<path d="M81.0775 121.131C81.0869 121.359 81.0693 121.588 81.0251 121.81C80.9833 122.019 80.9192 122.222 80.8342 122.415C80.7524 122.6 80.6488 122.772 80.5262 122.927C80.4038 123.078 80.264 123.21 80.1104 123.321C79.9835 123.418 79.8398 123.485 79.6884 123.518C79.5744 123.541 79.4568 123.519 79.3558 123.457C79.2525 123.383 79.1737 123.275 79.1309 123.148C79.0688 122.971 79.0365 122.784 79.0354 122.594C79.0266 122.375 79.0442 122.154 79.0878 121.939C79.1297 121.729 79.1948 121.525 79.2818 121.332C79.3638 121.145 79.4673 120.97 79.5898 120.812C79.7104 120.659 79.8505 120.525 80.0056 120.415C80.1308 120.316 80.2753 120.249 80.4276 120.222C80.5416 120.199 80.6592 120.221 80.7603 120.283C80.8642 120.355 80.9433 120.464 80.9851 120.592C81.0452 120.764 81.0765 120.947 81.0775 121.131ZM79.71 122.106C79.6984 122.269 79.7375 122.432 79.8208 122.567C79.8855 122.645 79.9718 122.645 80.0826 122.567C80.1997 122.479 80.2864 122.35 80.329 122.201C80.3854 122.013 80.4084 121.814 80.3968 121.617C80.4071 121.455 80.3693 121.294 80.289 121.159C80.2243 121.081 80.1381 121.081 80.0272 121.159C79.9119 121.247 79.8255 121.375 79.7808 121.522C79.7221 121.709 79.698 121.908 79.71 122.106Z" fill="#455A64"/>
<path d="M82.1852 121.715C82.1575 121.749 82.1113 121.79 82.0527 121.848C81.9942 121.905 81.9295 121.949 81.871 121.994C81.8199 122.029 81.7663 122.059 81.7109 122.085C81.6729 122.099 81.6318 122.099 81.5938 122.085C81.5758 122.077 81.5597 122.064 81.5464 122.048C81.5332 122.033 81.5231 122.014 81.5168 121.994C81.4968 121.922 81.4865 121.848 81.486 121.773L81.3905 119.129C81.3859 119.054 81.3997 118.978 81.4306 118.911C81.462 118.843 81.5014 118.779 81.5476 118.721C81.6427 118.607 81.7456 118.502 81.8556 118.406C81.9635 118.307 82.0766 118.215 82.1944 118.131C82.5548 117.876 82.8351 117.791 83.0322 117.876C83.2293 117.961 83.3402 118.192 83.3402 118.572C83.3487 118.753 83.3353 118.935 83.3002 119.112C83.2627 119.289 83.2069 119.461 83.1338 119.624C83.0489 119.792 82.9455 119.947 82.8258 120.086C82.7011 120.233 82.5604 120.363 82.4069 120.473L82.1297 120.67L82.1852 121.715ZM82.3238 119.767C82.4285 119.696 82.5145 119.597 82.5733 119.478C82.6301 119.356 82.6556 119.218 82.6472 119.081C82.6472 118.939 82.6133 118.85 82.5456 118.816C82.4809 118.786 82.3916 118.816 82.2714 118.894L82.1698 118.969L82.0866 119.044L82.1174 119.916L82.3238 119.767Z" fill="#455A64"/>
<path d="M84.3535 119.236C84.3535 119.331 84.3812 119.385 84.4274 119.396C84.4936 119.399 84.5587 119.375 84.6091 119.328C84.6518 119.297 84.693 119.265 84.7323 119.229C84.7724 119.188 84.8093 119.151 84.8401 119.114C84.8666 119.141 84.8885 119.173 84.9048 119.209C84.9272 119.259 84.9378 119.315 84.9356 119.372C84.9396 119.522 84.9054 119.67 84.837 119.799C84.7408 119.972 84.6075 120.115 84.449 120.217C84.221 120.38 84.0393 120.431 83.913 120.37C83.7867 120.309 83.7128 120.108 83.7005 119.769L83.6143 117.366C83.6522 117.321 83.6923 117.279 83.7344 117.24C83.788 117.19 83.8446 117.143 83.9038 117.101C83.9803 117.032 84.0761 116.995 84.1748 116.996C84.2426 116.996 84.2795 117.108 84.2857 117.294V117.654L84.797 117.291C84.8181 117.33 84.8356 117.371 84.8494 117.413C84.8663 117.475 84.8756 117.539 84.8771 117.603C84.8874 117.719 84.8704 117.836 84.8278 117.943C84.7925 118.026 84.7371 118.096 84.6676 118.146L84.3104 118.401L84.3535 119.236Z" fill="#455A64"/>
<path d="M87.7293 116.935C87.6571 117.082 87.5508 117.206 87.4213 117.295C87.3515 117.351 87.2718 117.39 87.1872 117.41C87.1599 117.416 87.1315 117.41 87.108 117.394C87.0844 117.377 87.0676 117.352 87.061 117.322C86.9778 117.043 86.907 116.819 86.8515 116.643C86.7961 116.466 86.756 116.32 86.7252 116.185H86.7037C86.7037 116.412 86.7037 116.616 86.7037 116.802C86.7037 116.989 86.7037 117.166 86.7037 117.339C86.7037 117.512 86.7037 117.678 86.7037 117.865C86.7037 118.052 86.7037 118.245 86.7037 118.462C86.6634 118.514 86.6191 118.562 86.5712 118.605C86.5199 118.654 86.4653 118.7 86.408 118.741C86.3303 118.808 86.2356 118.847 86.1369 118.853C86.0723 118.853 86.0353 118.775 86.0322 118.635V115.689C86.0653 115.598 86.1099 115.512 86.1647 115.434C86.2432 115.315 86.3427 115.215 86.4573 115.139C86.5525 115.058 86.667 115.01 86.7868 115C86.8297 115.006 86.8699 115.026 86.9023 115.057C86.9347 115.089 86.9578 115.13 86.9686 115.176C86.9963 115.251 87.024 115.336 87.0579 115.431C87.0918 115.526 87.1195 115.628 87.1503 115.733C87.1811 115.838 87.215 115.94 87.2458 116.045C87.2766 116.151 87.3012 116.242 87.3258 116.324H87.3474C87.3967 115.964 87.449 115.614 87.5014 115.275C87.5538 114.935 87.6031 114.65 87.6462 114.413C87.6918 114.348 87.7411 114.287 87.794 114.229C87.8583 114.164 87.9273 114.105 88.0004 114.053C88.0911 113.979 88.1969 113.931 88.3084 113.914C88.3262 113.911 88.3443 113.913 88.3615 113.918C88.3788 113.924 88.3949 113.933 88.4089 113.945C88.423 113.957 88.4347 113.973 88.4433 113.99C88.452 114.007 88.4574 114.026 88.4593 114.046C88.4593 114.114 88.487 114.219 88.5055 114.386C88.524 114.552 88.5394 114.698 88.561 114.884C88.5825 115.071 88.601 115.265 88.6226 115.475C88.6441 115.686 88.6626 115.882 88.6811 116.076C88.6996 116.269 88.715 116.443 88.7304 116.605C88.7458 116.768 88.755 116.891 88.7581 116.979C88.7186 117.044 88.6732 117.104 88.6226 117.159C88.5661 117.218 88.5042 117.27 88.4378 117.315C88.3644 117.376 88.2768 117.412 88.1852 117.42C88.1143 117.42 88.0774 117.352 88.0651 117.213C88.0343 116.816 88.0127 116.456 87.9973 116.13C87.9819 115.804 87.9665 115.54 87.9511 115.322H87.9295C87.9111 115.489 87.8772 115.699 87.8371 115.957C87.7971 116.215 87.7879 116.541 87.7293 116.935Z" fill="#455A64"/>
<path d="M90.1797 116.138C90.0493 116.239 89.903 116.311 89.7485 116.352C89.6303 116.385 89.5055 116.373 89.3942 116.318C89.2818 116.253 89.1936 116.146 89.1448 116.016C89.0744 115.826 89.0378 115.624 89.037 115.419C89.0286 115.185 89.0493 114.951 89.0986 114.723C89.1462 114.516 89.2154 114.315 89.3049 114.125C89.3881 113.953 89.4917 113.793 89.6129 113.65C89.7181 113.52 89.8382 113.406 89.9702 113.311C90.0843 113.224 90.2132 113.164 90.3491 113.134C90.4528 113.111 90.5604 113.124 90.6571 113.172C90.7483 113.224 90.821 113.309 90.8634 113.413C90.9185 113.547 90.9478 113.693 90.9497 113.84C90.9536 113.958 90.9313 114.074 90.885 114.18C90.8355 114.286 90.7662 114.38 90.6817 114.455L89.7238 115.351C89.7332 115.396 89.757 115.437 89.7908 115.465C89.8246 115.493 89.8664 115.506 89.9086 115.504C90.0198 115.496 90.1268 115.454 90.2166 115.381C90.3283 115.303 90.4316 115.21 90.5246 115.106C90.6085 115.012 90.6848 114.91 90.7525 114.801C90.798 114.812 90.8377 114.843 90.8634 114.886C90.8971 114.938 90.9154 115.001 90.9158 115.066C90.9182 115.245 90.8649 115.42 90.7649 115.561C90.6843 115.686 90.5913 115.799 90.4877 115.901C90.3904 115.988 90.2875 116.068 90.1797 116.138ZM89.9918 114.01C89.9303 114.052 89.8761 114.106 89.8316 114.17C89.7874 114.228 89.751 114.293 89.7238 114.363C89.6978 114.429 89.6772 114.497 89.6622 114.567C89.6518 114.632 89.6456 114.698 89.6437 114.764L90.309 114.129C90.3037 114.096 90.2925 114.065 90.2761 114.037C90.2597 114.009 90.2385 113.985 90.2135 113.966C90.1612 113.925 90.0873 113.942 89.9918 114.01Z" fill="#455A64"/>
<path d="M91.9435 112.516C91.9396 112.356 91.9702 112.196 92.0328 112.051C92.09 111.906 92.1842 111.782 92.3039 111.695C92.4209 111.61 92.5164 111.596 92.5873 111.654C92.6305 111.696 92.6637 111.749 92.6842 111.808C92.7046 111.867 92.7115 111.931 92.7043 111.994C92.7092 112.154 92.6785 112.314 92.615 112.459C92.5567 112.599 92.4624 112.717 92.3439 112.798C92.2269 112.883 92.1314 112.897 92.0606 112.839C92.0198 112.799 91.988 112.749 91.9677 112.693C91.9474 112.637 91.9391 112.576 91.9435 112.516ZM92.0082 114.282C92.0037 114.12 92.0333 113.96 92.0945 113.813C92.1548 113.674 92.2498 113.556 92.3686 113.474C92.4856 113.389 92.5811 113.375 92.6519 113.433C92.6921 113.473 92.7233 113.522 92.7431 113.578C92.7629 113.633 92.7707 113.693 92.7659 113.752C92.7723 113.914 92.7426 114.074 92.6797 114.22C92.6205 114.36 92.5264 114.477 92.4086 114.56C92.2885 114.645 92.1961 114.658 92.1253 114.601C92.0847 114.561 92.0531 114.512 92.0328 114.456C92.0125 114.401 92.0041 114.341 92.0082 114.282Z" fill="#455A64"/>
<path d="M94.0389 112.028C94.0548 112.39 94.0434 112.753 94.005 113.114C93.9728 113.411 93.9192 113.705 93.8448 113.993C93.8029 114.154 93.7461 114.31 93.6754 114.458C93.6163 114.594 93.5261 114.711 93.4136 114.797C93.3868 114.82 93.3558 114.836 93.3229 114.844C93.2899 114.853 93.2557 114.853 93.2227 114.845C93.1711 114.832 93.1248 114.801 93.0902 114.757C93.1487 114.577 93.198 114.397 93.2411 114.217C93.2843 114.037 93.3181 113.857 93.3459 113.674C93.3741 113.485 93.3926 113.295 93.4013 113.104C93.4107 112.898 93.4107 112.692 93.4013 112.486C93.3945 112.29 93.3781 112.095 93.352 111.902C93.3333 111.744 93.3024 111.589 93.2596 111.437C93.2258 111.308 93.1793 111.184 93.121 111.067C93.0713 110.96 93.0114 110.858 92.9424 110.765C92.9718 110.671 93.0111 110.581 93.0594 110.497C93.1057 110.41 93.1688 110.336 93.2442 110.279C93.281 110.243 93.3262 110.22 93.3747 110.211C93.4231 110.202 93.4729 110.208 93.5184 110.229C93.598 110.278 93.6648 110.349 93.7124 110.436C93.8109 110.627 93.8825 110.835 93.9249 111.05C93.9926 111.371 94.0308 111.698 94.0389 112.028Z" fill="#455A64"/>
<path d="M23.1489 24.4159C22.9972 23.978 22.706 23.616 22.3296 23.3976C22.1108 23.272 21.8705 23.1986 21.6243 23.1822C21.378 23.1658 21.1314 23.2068 20.9005 23.3026C20.0658 23.642 19.7177 24.9387 19.918 25.8688C19.5083 25.0236 18.4765 24.3005 17.6449 24.6468C17.4135 24.742 17.203 24.8901 17.0273 25.0814C16.8515 25.2728 16.7146 25.5029 16.6254 25.7568C16.4751 26.1942 16.4751 26.6771 16.6254 27.1146C17.112 28.5436 18.5812 28.8356 19.9087 29.3583L21.304 29.9014L22.0032 28.4825C22.7023 27.1315 23.6356 25.845 23.1489 24.4159Z" fill="#EFBFA5"/>
<path d="M95.0959 35.0164C94.9433 34.5791 94.6523 34.2174 94.2766 33.998C94.0583 33.871 93.818 33.7966 93.5717 33.7796C93.3253 33.7627 93.0785 33.8035 92.8475 33.8996C92.0128 34.239 91.6648 35.5357 91.865 36.4658C91.4584 35.6206 90.4235 34.8976 89.5919 35.2438C89.3606 35.3356 89.1494 35.48 88.9721 35.6678C88.7949 35.8555 88.6555 36.0823 88.5631 36.3334C88.4151 36.7713 88.4151 37.2533 88.5631 37.6912C89.0498 39.1169 90.5221 39.4122 91.8465 39.9316L93.2418 40.4747L93.9717 39.0558C94.6493 37.732 95.5826 36.4454 95.0959 35.0164Z" fill="#EFBFA5"/>
<path d="M60.8669 26.3785C61.0501 25.9547 61.0863 25.4717 60.9685 25.0207C60.8997 24.7618 60.7817 24.522 60.6224 24.3172C60.4631 24.1124 60.2661 23.9472 60.0445 23.8326C59.2499 23.4151 58.178 24.0261 57.7129 24.8204C57.9809 23.9208 57.7406 22.6174 56.946 22.1998C56.7262 22.0835 56.4865 22.0199 56.2428 22.0135C55.999 22.0071 55.7568 22.0579 55.5322 22.1625C55.1454 22.3453 54.8322 22.6771 54.6513 23.096C54.06 24.4538 54.8793 25.8116 55.4491 27.2067L56.0651 28.6731L57.4788 28.2692C58.8063 27.8856 60.2755 27.7396 60.8669 26.3785Z" fill="#EFBFA5"/>
<path d="M133.687 27.3227C133.873 26.8999 133.91 26.4156 133.789 25.9649C133.72 25.7059 133.602 25.4661 133.443 25.2612C133.283 25.0564 133.086 24.8912 132.864 24.7768C132.073 24.3593 131.001 24.9703 130.533 25.7646C130.801 24.8685 130.561 23.5616 129.766 23.1441C129.546 23.0285 129.306 22.9655 129.063 22.959C128.819 22.9526 128.577 23.0029 128.352 23.1067C127.962 23.288 127.646 23.6199 127.462 24.0402C126.874 25.398 127.693 26.7558 128.263 28.1509L128.879 29.6174L130.296 29.2134C131.629 28.8298 133.099 28.6839 133.687 27.3227Z" fill="#EFBFA5"/>
</svg>
