<svg width="21" height="20" viewBox="0 0 21 20" fill="none" xmlns="http://www.w3.org/2000/svg">
<path fill-rule="evenodd" clip-rule="evenodd" d="M15.2681 0.000488281C14.9919 0.000488281 14.7681 0.224346 14.7681 0.500488C14.7681 0.776631 14.9919 1.00049 15.2681 1.00049L17.9817 1.00049L15.5172 3.53355C14.7379 2.88954 13.7477 2.50416 12.6699 2.50416C10.1585 2.50416 8.12256 4.59669 8.12256 7.17796C8.12256 9.75924 10.1585 11.8518 12.6699 11.8518C15.1813 11.8518 17.2172 9.75924 17.2172 7.17796C17.2172 6.06973 16.842 5.05159 16.2149 4.25046L18.6658 1.7314V4.50661C18.6658 4.78275 18.8896 5.00661 19.1658 5.00661C19.4419 5.00661 19.6658 4.78275 19.6658 4.50661V0.500488C19.6658 0.224346 19.4419 0.000488281 19.1658 0.000488281L15.2681 0.000488281ZM16.2172 7.17796C16.2172 9.23299 14.6034 10.8518 12.6699 10.8518C10.7364 10.8518 9.12256 9.23299 9.12256 7.17796C9.12256 5.12294 10.7364 3.50416 12.6699 3.50416C14.6034 3.50416 16.2172 5.12294 16.2172 7.17796Z" fill="white"/>
<path fill-rule="evenodd" clip-rule="evenodd" d="M8.77244 13.5219C10.7059 13.5219 12.3198 11.9031 12.3198 9.84812C12.3198 7.7931 10.7059 6.17432 8.77244 6.17432C6.83898 6.17432 5.2251 7.7931 5.2251 9.84812C5.2251 11.9031 6.83898 13.5219 8.77244 13.5219ZM13.3198 9.84812C13.3198 12.2558 11.5485 14.2383 9.27217 14.494C9.27269 14.5034 9.27295 14.5128 9.27295 14.5222V16.025H10.7215C10.9976 16.025 11.2215 16.2489 11.2215 16.525C11.2215 16.8012 10.9976 17.025 10.7215 17.025H9.27295V18.5284C9.27295 18.8045 9.04909 19.0284 8.77295 19.0284C8.49681 19.0284 8.27295 18.8045 8.27295 18.5284V17.025H6.82373C6.54759 17.025 6.32373 16.8012 6.32373 16.525C6.32373 16.2489 6.54759 16.025 6.82373 16.025H8.27295V14.5222C8.27295 14.5128 8.27321 14.5034 8.27373 14.4941C5.99693 14.2389 4.2251 12.2562 4.2251 9.84812C4.2251 7.26685 6.26101 5.17432 8.77244 5.17432C11.2839 5.17432 13.3198 7.26685 13.3198 9.84812Z" fill="white"/>
<path d="M12.1902 19.5024C11.9901 19.9321 11.482 20.1172 11.0553 19.9157C10.6285 19.7142 10.4448 19.2025 10.6449 18.7728C10.8449 18.343 11.3531 18.158 11.7798 18.3595C12.2065 18.561 12.3903 19.0727 12.1902 19.5024Z" fill="#FF77FA"/>
<path d="M12.5954 16.6089C12.2755 16.4579 12.1376 16.0738 12.2876 15.7517L12.6535 14.9658C12.9984 14.225 13.7742 13.7816 14.582 13.8621C15.6587 13.9709 16.7405 13.2732 17.0752 12.5543C17.6248 11.3738 17.1188 9.96447 15.9466 9.41101C14.7744 8.85754 13.3749 9.36716 12.8253 10.5476C12.6753 10.8698 12.2939 11.0087 11.974 10.8576C11.6541 10.7066 11.5162 10.3225 11.6662 10.0004C12.5151 8.17717 14.6795 7.38898 16.49 8.2438C18.3005 9.09861 19.0831 11.2783 18.2343 13.1015C17.63 14.3995 15.9703 15.2978 14.4558 15.1457C14.1867 15.1182 13.9274 15.2662 13.8122 15.5137L13.4466 16.2989C13.2966 16.6211 12.9153 16.76 12.5954 16.6089Z" fill="#FF77FA"/>
<path d="M8.34747 12.6653C8.47383 13.1225 8.20812 13.5961 7.75398 13.7231C7.29984 13.8501 6.82924 13.5824 6.70287 13.1252C6.57651 12.668 6.84222 12.1944 7.29636 12.0674C7.7505 11.9404 8.2211 12.2081 8.34747 12.6653Z" fill="#6DC2FF"/>
<path d="M6.782 10.2045C6.44155 10.2997 6.08836 10.0988 5.99363 9.75601L5.76251 8.91981C5.54468 8.13167 5.84623 7.28648 6.51122 6.81783C7.39846 6.19427 7.76757 4.95555 7.55615 4.1906C7.20902 2.93463 5.9129 2.19734 4.66537 2.54619C3.41785 2.89505 2.68601 4.19943 3.03314 5.4554C3.12787 5.79815 2.92845 6.1536 2.588 6.2488C2.24755 6.344 1.89435 6.14309 1.79962 5.80033C1.26349 3.86052 2.39537 1.84312 4.32214 1.30433C6.24891 0.76553 8.25354 1.90585 8.78967 3.84566C9.17137 5.22669 8.49372 6.99655 7.24624 7.87436C7.02436 8.02998 6.92347 8.31231 6.99624 8.57563L7.22715 9.41107C7.32188 9.75383 7.12246 10.1093 6.782 10.2045Z" fill="#6DC2FF"/>
</svg>
