<svg width="16" height="22" viewBox="0 0 16 22" fill="none" xmlns="http://www.w3.org/2000/svg">
<path d="M12.959 8.75C12.5448 8.75 12.209 8.41421 12.209 8L12.209 1C12.209 0.585786 12.5448 0.25 12.959 0.25C13.3732 0.25 13.709 0.585786 13.709 0.999999L13.709 8C13.709 8.41421 13.3732 8.75 12.959 8.75Z" fill="#4A4A4A"/>
<path d="M3 11.5C1.34315 11.5 0 10.1569 0 8.5C0 6.84315 1.34315 5.5 3 5.5C4.65685 5.5 6 6.84315 6 8.5C6 10.1569 4.65685 11.5 3 11.5Z" fill="#4A4A4A"/>
<path d="M13 10.5C11.3431 10.5 10 11.8431 10 13.5C10 15.1569 11.3431 16.5 13 16.5C14.6569 16.5 16 15.1569 16 13.5C16 11.8431 14.6569 10.5 13 10.5Z" fill="#4A4A4A"/>
<path d="M2.20901 14C2.20901 13.5858 2.5448 13.25 2.95901 13.25C3.37322 13.25 3.70901 13.5858 3.70901 14V21C3.70901 21.4142 3.37322 21.75 2.95901 21.75C2.5448 21.75 2.20901 21.4142 2.20901 21V14Z" fill="#4A4A4A"/>
<path d="M12.959 21.75C12.5448 21.75 12.209 21.4142 12.209 21V19C12.209 18.5858 12.5448 18.25 12.959 18.25C13.3732 18.25 13.709 18.5858 13.709 19V21C13.709 21.4142 13.3732 21.75 12.959 21.75Z" fill="#4A4A4A"/>
<path d="M2.20901 1C2.20901 0.585786 2.5448 0.25 2.95901 0.25C3.37322 0.25 3.70901 0.585786 3.70901 1V3C3.70901 3.41421 3.37322 3.75 2.95901 3.75C2.5448 3.75 2.20901 3.41421 2.20901 3V1Z" fill="#4A4A4A"/>
</svg>
